<svg version="1.2" baseProfile="tiny-ps" xmlns="http://www.w3.org/2000/svg" viewBox="0 0 107 82" width="107" height="82">
	<title>bune-pdf</title>
	<defs>
		<clipPath clipPathUnits="userSpaceOnUse" id="cp1">
			<path d="M0 0L107 0L107 82L0 82Z" />
		</clipPath>
	</defs>
	<style>
		tspan { white-space:pre }
		.shp0 { fill: #0e1726 } 
	</style>
	<g id="Page 1" clip-path="url(#cp1)">
		<path id="Path 1" class="shp0" d="M51.75 4.8C51.98 4.43 52.13 4.01 52.2 3.58C52.26 3.15 52.24 2.71 52.14 2.29C52.04 1.86 51.85 1.47 51.59 1.11C51.33 0.76 51.01 0.47 50.63 0.24C50.26 0.01 49.85 -0.14 49.42 -0.2C48.99 -0.27 48.55 -0.25 48.12 -0.14C47.7 -0.04 47.3 0.15 46.95 0.4C46.6 0.66 46.3 0.99 46.07 1.36L0.45 77.02C0.09 77.65 -0.06 78.38 0.02 79.1C0.11 79.82 0.43 80.5 0.93 81.02C1.13 81.21 1.34 81.38 1.57 81.52C1.95 81.75 2.36 81.9 2.79 81.96C3.22 82.03 3.66 82.01 4.09 81.9C4.51 81.8 4.91 81.61 5.26 81.36C5.61 81.1 5.91 80.77 6.13 80.4L51.75 4.8Z" />
		<path id="Path 2" fill-rule="evenodd" class="shp0" d="M82.43 73C69.45 57.84 46.19 62.48 33.23 47.32C32.69 46.67 32.36 45.87 32.3 45.03C32.24 44.18 32.45 43.34 32.89 42.62C39.69 30.93 46.49 19.23 53.29 7.52C54.03 6.24 55.31 6.38 56.27 7.64C69.25 22.8 92.51 18.16 105.47 33.3C106.1 33.91 106.48 34.72 106.54 35.6C106.61 36.47 106.35 37.33 105.81 38.02L85.41 73.12C84.67 74.38 83.39 74.24 82.43 73ZM90.97 29.08C89.09 32.32 87.21 35.54 85.35 38.78C89.04 40.42 92.42 42.67 95.35 45.44L100.97 35.76C98.04 32.99 94.66 30.73 90.97 29.08ZM54.05 41.92L60.45 30.92C64.53 32.44 68.68 33.73 72.88 34.81L66.51 45.76C70.73 46.83 74.88 48.17 78.93 49.76C81.07 46.09 83.2 42.43 85.33 38.76C81.29 37.17 77.15 35.84 72.95 34.77L78.53 25.12C74.31 24.06 70.15 22.76 66.07 21.24L60.45 30.92C56.53 29.28 52.93 26.94 49.83 24.02L43.43 35.02C46.53 37.94 50.13 40.28 54.05 41.92ZM72.88 34.81L72.91 34.76C72.92 34.76 72.93 34.76 72.95 34.77L72.91 34.82C72.9 34.82 72.89 34.81 72.88 34.81ZM60.71 55.6L66.43 45.76C62.21 44.72 58.05 43.45 53.97 41.94L48.35 51.76C52.4 53.26 56.53 54.54 60.71 55.6ZM73.29 59.76L73.36 59.64C73.33 59.63 73.3 59.61 73.27 59.6L73.29 59.76ZM73.36 59.64C77.01 61.26 80.36 63.49 83.27 66.22L88.99 56.4C86.06 53.64 82.68 51.4 78.99 49.76L73.36 59.64Z" />
	</g>
</svg>