<svg version="1.2" baseProfile="tiny-ps" xmlns="http://www.w3.org/2000/svg" viewBox="0 0 142 65" width="142" height="65">
	<title>detac-pdf</title>
	<defs>
		<clipPath clipPathUnits="userSpaceOnUse" id="cp1">
			<path d="M0 0L142 0L142 65L0 65Z" />
		</clipPath>
	</defs>
	<style>
		tspan { white-space:pre }
		.shp0 { fill: #0e1726 } 
		.shp1 { fill: #ffffff } 
		.shp2 { fill: #4361ee } 
	</style>
	<g id="Page 1" clip-path="url(#cp1)">
		<path id="Path 1" class="shp0" d="M48.69 54.58C45.25 54.58 36.25 49.48 28.91 44.92L10.07 46.92L9.51 41.72L29.25 39.6C29.83 39.54 30.41 39.67 30.91 39.98C37.93 44.36 46.67 49.16 48.61 49.32L102.05 43.32L115.65 32C116.03 31.67 116.52 31.46 117.03 31.4L135.03 29.4C136.67 26.87 137.48 23.89 137.35 20.88C136.83 16.02 134.73 14.3 133.85 13.78L115.55 15.78C114.93 15.86 114.31 15.71 113.81 15.36C106.83 10.72 98.17 5.54 96.09 5.12L69.19 7.96L43.19 10.58C41.19 11.42 33.89 18.24 28.03 24.2C27.6 24.63 27.04 24.9 26.45 24.96L6.45 27.1L6.01 21.84L24.99 19.84C34.21 10.48 40.09 5.62 42.47 5.36L68.69 2.72L95.73 -0.04C98.13 -0.28 104.91 3.26 115.91 10.54L133.91 8.54C134.24 8.47 134.59 8.47 134.93 8.54C135.19 8.54 141.41 10.54 142.45 20.26C142.69 24.97 141.28 29.62 138.45 33.4C138.24 33.68 137.97 33.92 137.66 34.09C137.36 34.26 137.02 34.37 136.67 34.4L118.27 36.4L104.81 47.96C104.41 48.29 103.92 48.49 103.41 48.54L49.01 54.56L48.69 54.58Z" />
		<path id="Path 2" class="shp1" d="M40.87 8.66C40.87 8.66 60.01 21.72 47.65 51.26L40.87 8.66Z" />
		<path id="Path 3" class="shp0" d="M50.01 52.26L45.19 50.26C56.53 23.2 40.05 11.32 39.35 10.82L42.29 6.52C42.55 6.64 63.09 21.12 50.01 52.26Z" />
		<path id="Path 4" class="shp1" d="M26.17 22.28C26.17 22.28 33.15 26.94 28.33 42.28L26.17 22.28Z" />
		<path id="Path 5" class="shp0" d="M30.83 43.14L25.85 41.58C29.85 28.52 24.89 24.58 24.67 24.42L27.63 20.12C28.01 20.36 36.17 26.06 30.83 43.14Z" />
		<path id="Path 6" class="shp1" d="M94.95 3.18C94.95 3.18 110.01 15 100.21 47.68L94.95 3.18Z" />
		<path id="Path 7" class="shp0" d="M102.71 48.42L97.71 46.94C106.87 16.32 93.49 5.34 93.35 5.24L96.57 1.14C97.25 1.66 112.89 14.44 102.71 48.42Z" />
		<path id="Path 8" class="shp1" d="M115.07 13.1C115.07 13.1 124.17 18 117.39 34.72L115.07 13.1Z" />
		<path id="Path 9" class="shp0" d="M119.81 35.7L114.97 33.7C120.69 19.58 114.07 15.5 113.79 15.34L116.31 10.76C116.75 11.04 127.39 17.02 119.81 35.7ZM8.57 44.2C6.71 44.2 3.73 40.66 3.11 34.9C2.49 29.14 4.77 24.9 6.63 24.62L6.87 24.62C9.03 24.62 11.71 27.9 12.27 33.18C12.6 35.94 12.25 38.73 11.25 41.32C10.55 42.98 9.55 44.12 8.73 44.2L8.57 44.2Z" />
		<path id="Path 10" fill-rule="evenodd" class="shp0" d="M6.87 21.84C10.83 21.84 14.51 26.34 15.23 33.06C15.99 40.1 13.23 46.92 9.05 47.38L8.57 47.38C4.57 47.38 0.89 42.44 0.13 35.38C-0.63 28.32 2.15 22.26 6.31 21.8L6.87 21.8L6.87 21.84ZM7.11 28.04C6.05 30.11 5.69 32.47 6.07 34.76C6.24 36.92 7 39 8.27 40.76C9.26 38.51 9.62 36.02 9.31 33.58C9.22 31.51 8.44 29.54 7.11 27.96L7.11 28.04Z" />
		<path id="Path 11" class="shp1" d="M105.53 65C115.83 65 124.19 56.65 124.19 46.34C124.19 36.03 115.83 27.68 105.53 27.68C95.22 27.68 86.87 36.03 86.87 46.34C86.87 56.65 95.22 65 105.53 65Z" />
		<path id="Path 12" fill-rule="evenodd" class="shp2" d="M105.47 31.8C109.32 31.81 113.02 33.34 115.74 36.06C118.47 38.79 120 42.49 120.01 46.34C120.01 49.22 119.16 52.04 117.56 54.44C115.95 56.84 113.68 58.71 111.01 59.81C108.35 60.92 105.42 61.2 102.59 60.64C99.76 60.07 97.16 58.68 95.13 56.63C93.09 54.59 91.71 51.99 91.16 49.16C90.6 46.33 90.9 43.4 92.01 40.74C93.13 38.08 95.01 35.81 97.41 34.22C99.82 32.63 102.64 31.78 105.53 31.8L105.47 31.8ZM97.87 38.69C95.85 40.72 94.71 43.47 94.71 46.34C94.71 48.48 95.34 50.57 96.53 52.35C96.58 52.43 96.64 52.52 96.7 52.6L111.78 37.51C111.7 37.46 111.62 37.4 111.54 37.34C109.76 36.15 107.67 35.52 105.53 35.52C102.66 35.52 99.9 36.66 97.87 38.69ZM101.38 56.34C103.36 57.16 105.54 57.37 107.64 56.95C109.74 56.53 111.66 55.5 113.18 53.99C114.69 52.48 115.72 50.55 116.14 48.45C116.55 46.35 116.34 44.18 115.52 42.2C115.18 41.36 114.73 40.58 114.19 39.86L99.05 55.01C99.76 55.54 100.55 55.99 101.38 56.34Z" />
	</g>
</svg>