<svg version="1.2" baseProfile="tiny-ps" xmlns="http://www.w3.org/2000/svg" viewBox="0 0 102 89" width="102" height="89">
	<title>dtc-removal-pdf</title>
	<defs>
		<clipPath clipPathUnits="userSpaceOnUse" id="cp1">
			<path d="M0 0L102 0L102 89L0 89Z" />
		</clipPath>
	</defs>
	<style>
		tspan { white-space:pre }
		.shp0 { fill: #0e1726 } 
		.shp1 { fill: #4361ee } 
		.shp2 { fill: #ffffff } 
	</style>
	<g id="Page 1" clip-path="url(#cp1)">
		<path id="Path 1" fill-rule="evenodd" class="shp0" d="M66 35L89 35L102 45L102 71L94 85L82 85L82 75L76 75L76 89L40 89L28 77L10 76L10 53L6 53L6 74C6 74.8 5.68 75.56 5.12 76.12C4.56 76.68 3.8 77 3 77C2.2 77 1.44 76.68 0.88 76.12C0.32 75.56 0 74.8 0 74L0 28C0 27.2 0.32 26.44 0.88 25.88C1.44 25.32 2.2 25 3 25C3.8 25 4.56 25.32 5.12 25.88C5.68 26.44 6 27.2 6 28L6 47L10 47L10 29L20 29L20 21L41 21L41 17L21 17C20.2 17 19.44 16.68 18.88 16.12C18.32 15.56 18 14.8 18 14C18 13.2 18.32 12.44 18.88 11.88C19.44 11.32 20.2 11 21 11L67 11C67.8 11 68.56 11.32 69.12 11.88C69.68 12.44 70 13.2 70 14C70 14.8 69.68 15.56 69.12 16.12C68.56 16.68 67.8 17 67 17L47 17L47 21L66 21L66 35ZM26 27L26 29C26 30.59 25.37 32.12 24.24 33.24C23.12 34.37 21.59 35 20 35L16 35L16 70.32L28.34 71C29.81 71.09 31.2 71.71 32.24 72.76L42.48 83L70 83L70 75C70 73.41 70.63 71.88 71.76 70.76C72.88 69.63 74.41 69 76 69L82 69C83.59 69 85.12 69.63 86.24 70.76C87.37 71.88 88 73.41 88 75L88 79L90.52 79L96 69.4L96 47.94L86.96 41L66 41C64.41 41 62.88 40.37 61.76 39.24C60.63 38.12 60 36.59 60 35L60 27L26 27Z" />
		<path id="Path 2" class="shp1" d="M84 9L62 41L74 41L70 63L92 33L80 33L84 9Z" />
		<path id="Path 3" fill-rule="evenodd" class="shp2" d="M86 9.32L82.42 31L96 31L93.58 34.18L71.58 64.18L66.44 71.18L68 62.64L71.6 43L58.2 43L60.36 39.86L82.36 7.86L87.46 0.44L86 9.32ZM62 41L74 41L70 63L92 33L80 33L84 9L62 41Z" />
	</g>
</svg>