<svg version="1.2" baseProfile="tiny-ps" xmlns="http://www.w3.org/2000/svg" viewBox="0 0 144 50" width="144" height="50">
	<title>pop-bang-crackle-map-pdf</title>
	<defs>
		<clipPath clipPathUnits="userSpaceOnUse" id="cp1">
			<path d="M0 0L144 0L144 50L0 50Z" />
		</clipPath>
	</defs>
	<style>
		tspan { white-space:pre }
		.shp0 { fill: #0e1726 } 
		.shp1 { fill: #ffffff } 
		.shp2 { fill: #4361ee } 
	</style>
	<g id="Page 1" clip-path="url(#cp1)">
		<path id="Path 1" class="shp0" d="M27.98 2.25C27.98 2.25 22.58 5.09 25.62 15.91C27.62 22.93 35.28 37.07 43.98 37.07C62.8 37.31 55.5 16.85 55.5 16.85L27.98 2.25Z" />
		<path id="Path 2" fill-rule="evenodd" class="shp0" d="M26.96 0.31C27.6 -0.03 28.37 -0.03 29.01 0.31L56.53 14.91C56.59 14.95 56.65 15.18 56.71 15.45C56.8 15.32 56.88 15.23 56.95 15.21C57.23 15.45 57.44 15.76 57.56 16.11L56.95 16.33C56.95 16.33 56.95 16.33 56.95 16.33C57.56 16.11 57.56 16.11 57.56 16.11C57.56 16.11 57.56 16.12 57.56 16.12C57.56 16.12 57.57 16.12 57.57 16.12C57.57 16.13 57.57 16.13 57.57 16.14C57.58 16.15 57.58 16.17 57.59 16.2C57.61 16.25 57.63 16.31 57.66 16.4C57.71 16.57 57.79 16.81 57.88 17.11C58.06 17.72 58.28 18.58 58.49 19.6C58.91 21.63 59.27 24.43 58.98 27.27C58.68 30.12 57.7 33.22 55.24 35.59C52.75 37.98 49.06 39.32 43.97 39.26C41.19 39.25 38.64 38.13 36.43 36.52C34.22 34.91 32.23 32.74 30.52 30.42C27.12 25.8 24.59 20.27 23.51 16.51L23.51 16.5L23.51 16.5C21.88 10.71 22.44 6.73 23.68 4.09C24.29 2.79 25.04 1.87 25.68 1.27C25.99 0.97 26.28 0.75 26.5 0.59C26.61 0.52 26.71 0.45 26.79 0.41C26.83 0.38 26.86 0.36 26.89 0.35C26.9 0.34 26.92 0.33 26.93 0.33C26.94 0.32 26.94 0.32 26.95 0.32C26.95 0.32 26.95 0.31 26.95 0.31C26.95 0.31 26.96 0.31 26.96 0.31C26.96 0.31 26.96 0.31 27.98 2.25L26.96 0.31ZM27.64 5.95C26.94 7.43 26.32 10.29 27.73 15.31C28.66 18.57 30.95 23.62 34.05 27.82C35.59 29.91 37.28 31.72 39.01 32.98C40.75 34.24 42.41 34.88 43.98 34.88L43.98 37.07L44.01 34.88C48.32 34.93 50.77 33.81 52.2 32.43C53.66 31.03 54.39 29.06 54.62 26.82C54.85 24.59 54.57 22.28 54.2 20.48C54.02 19.6 53.83 18.87 53.68 18.36L28.29 4.89C28.08 5.16 27.85 5.51 27.64 5.95ZM44.01 34.88L43.98 34.88L43.98 37.07L44.01 34.88ZM56.95 16.33C56.88 16.26 56.8 15.82 56.71 15.45C56.42 15.86 56.03 16.66 55.5 16.85L56.95 16.33Z" />
		<path id="Path 3" class="shp1" d="M78.22 2.43L27.98 2.43C27.98 2.43 41.6 9.89 43.84 20.43C46.08 30.97 44.22 37.17 44.22 37.17L78.22 37.17L89.88 34.25L111.66 34.25C114.33 32.88 116.55 30.79 118.09 28.22C119.63 25.65 120.42 22.7 120.36 19.71C120.47 16.74 119.7 13.81 118.16 11.28C116.61 8.74 114.35 6.72 111.66 5.47L90.06 5.47L78.22 2.43Z" />
		<path id="Path 4" fill-rule="evenodd" class="shp0" d="M78.22 39.27L44.22 39.27C43.88 39.27 43.54 39.19 43.24 39.04C42.93 38.88 42.66 38.66 42.46 38.39C42.25 38.1 42.11 37.78 42.05 37.43C41.99 37.08 42.02 36.72 42.12 36.39C43.16 31.2 43.02 25.85 41.7 20.73C39.7 11.39 27.06 4.37 26.92 4.29C26.51 4.05 26.18 3.7 25.99 3.26C25.8 2.83 25.76 2.35 25.86 1.89C25.98 1.42 26.26 1 26.64 0.71C27.02 0.41 27.5 0.25 27.98 0.25L78.22 0.25C78.4 0.23 78.58 0.23 78.76 0.25L90.34 3.23L111.66 3.23C111.93 3.22 112.2 3.27 112.46 3.37C115.54 4.79 118.13 7.08 119.91 9.97C121.69 12.85 122.58 16.2 122.46 19.59C122.54 23.01 121.64 26.38 119.87 29.31C118.1 32.24 115.53 34.61 112.46 36.13C112.18 36.25 111.88 36.31 111.58 36.31L90.14 36.31L78.74 39.15C78.57 39.21 78.4 39.25 78.22 39.27ZM46.86 34.89L77.96 34.89L89.36 32.07C89.53 32.05 89.71 32.05 89.88 32.07L111.12 32.07C113.31 30.84 115.12 29.04 116.35 26.87C117.59 24.69 118.21 22.21 118.14 19.71C118.23 17.25 117.62 14.82 116.39 12.7C115.15 10.57 113.34 8.84 111.16 7.71L90.06 7.71C89.88 7.73 89.7 7.73 89.52 7.71L77.94 4.75L35.08 4.75C39.36 8.15 44.58 13.49 45.98 20.01C47.1 24.88 47.4 29.91 46.86 34.89Z" />
		<path id="Path 5" class="shp1" d="M78.22 2.67C78.22 2.67 86.38 10.27 86.38 19.71C86.38 29.15 78.22 36.85 78.22 36.85" />
		<path id="Path 6" class="shp0" d="M79.66 38.43L76.66 35.25C76.66 35.25 84.12 28.07 84.12 19.71C84.12 11.35 76.8 4.35 76.72 4.25L79.66 1.07C80.02 1.41 88.5 9.45 88.5 19.71C88.5 29.97 80.08 38.09 79.66 38.43Z" />
		<path id="Path 7" class="shp1" d="M90.06 5.47C90.06 5.47 97.12 8.87 97.12 19.71C97.12 30.55 90.06 34.25 90.06 34.25" />
		<path id="Path 8" class="shp0" d="M91.06 36.13L89.06 32.25C89.28 32.13 94.94 28.99 94.94 19.71C94.94 10.43 89.34 7.55 89.1 7.43L91.1 3.43C91.44 3.59 99.38 7.55 99.38 19.63C99.38 31.71 91.4 35.97 91.06 36.13Z" />
		<path id="Path 9" class="shp1" d="M35.88 15.05C38.01 18.04 38.9 21.75 38.36 25.39L29.86 34.57L20.08 31.73L13.18 23.97L19.8 20.25L27.8 11.07L35.88 15.05Z" />
		<path id="Path 10" class="shp2" d="M24.98 37.49C21.16 37.49 17.76 35.33 14.76 33.49C12.72 31.8 10.27 30.68 7.66 30.25L7.14 30.25L5.94 30.39L6.64 29.41C7.28 28.48 7.99 27.61 8.78 26.81C6.95 25.86 4.97 25.25 2.92 25.01C2.53 25 2.13 25.06 1.76 25.19L0.72 25.49L1.08 24.47C1.84 21.9 3.41 19.64 5.54 18.01C7.68 16.39 10.28 15.49 12.96 15.45C12.33 15.18 11.65 15.04 10.96 15.03L10.62 15.03L9.42 15.03L10.14 14.07C11.41 12.16 13.14 10.6 15.16 9.52C17.19 8.44 19.45 7.88 21.74 7.89C25.51 7.92 29.16 9.25 32.06 11.67C32.61 12.14 33.11 12.66 33.56 13.23L34.92 14.87L32.92 14.09C32.2 13.79 31.44 13.63 30.66 13.63C28.27 13.92 26.03 14.96 24.28 16.61C23.07 17.65 21.67 18.46 20.16 18.99C20.51 19.35 20.88 19.7 21.28 20.01L22 20.53L20.54 21.25C19.35 21.97 18.03 22.45 16.66 22.69C17.25 23.91 18.18 24.94 19.34 25.65C20.5 26.36 21.84 26.72 23.2 26.69C23.82 26.69 24.43 26.63 25.04 26.51L27.42 26.03L25.42 27.47C24.74 28.02 23.97 28.45 23.14 28.73C23.89 29.49 24.79 30.1 25.78 30.51C26.77 30.93 27.83 31.14 28.9 31.15C31.4 31.19 33.82 30.27 35.66 28.57L37.26 26.99L36.7 28.99C36.41 29.89 36.05 30.77 35.6 31.61C32.02 35.59 28.58 37.49 24.98 37.49Z" />
		<path id="Path 11" fill-rule="evenodd" class="shp1" d="M21.7 7.47C25.62 7.52 29.39 8.93 32.38 11.47C32.95 11.95 33.47 12.49 33.94 13.07L36.66 16.35L32.66 14.79C32.02 14.53 31.35 14.39 30.66 14.39C28.41 14.68 26.31 15.68 24.66 17.25C23.6 18.1 22.46 18.83 21.24 19.43L21.66 19.77L23.16 20.83L21.56 21.63L20.92 21.95C19.89 22.52 18.79 22.97 17.66 23.31C18.25 24.25 19.06 25.03 20.03 25.56C21 26.1 22.09 26.39 23.2 26.39C23.78 26.39 24.37 26.33 24.94 26.21L29.7 25.25L25.82 28.15C25.32 28.53 24.8 28.86 24.24 29.15C25.56 30.25 27.22 30.85 28.94 30.85C31.24 30.81 33.44 29.91 35.1 28.33L35.2 28.21L38.54 24.63L37.06 29.29C36.77 30.23 36.39 31.14 35.92 32.01C32.34 36.01 28.98 38.01 25 38.01C21.02 38.01 17.54 35.85 14.5 33.85C12.54 32.29 10.21 31.25 7.74 30.83L7.28 30.83L4.86 31.09L6.26 29.09C6.77 28.38 7.34 27.72 7.94 27.09C6.39 26.31 4.72 25.82 3 25.65C2.66 25.64 2.32 25.69 2 25.79L0 26.41L0.7 24.41C1.29 22.5 2.3 20.76 3.65 19.29C4.99 17.82 6.65 16.67 8.5 15.93L9.9 13.93C11.22 11.96 13.01 10.34 15.1 9.22C17.19 8.1 19.53 7.51 21.9 7.51L21.7 7.47ZM21.9 8.61C19.69 8.61 17.52 9.16 15.57 10.21C13.62 11.26 11.96 12.77 10.74 14.61L11.12 14.61C12.73 14.74 14.28 15.3 15.6 16.23C14.94 16.15 14.27 16.11 13.6 16.11C10.94 16.03 8.33 16.84 6.18 18.41C4.03 19.97 2.46 22.21 1.72 24.77C2.15 24.65 2.59 24.59 3.04 24.59C5.43 24.89 7.75 25.62 9.88 26.75C8.88 27.68 7.98 28.71 7.2 29.83L7.78 29.83C12.84 29.83 18.22 37.01 25.04 37.01C28.08 37.01 31.42 35.57 35.14 31.39C35.58 30.59 35.92 29.76 36.18 28.89L36.08 29.01C34.21 30.82 31.72 31.85 29.12 31.89C27.8 31.88 26.49 31.57 25.3 30.98C24.12 30.39 23.08 29.55 22.26 28.51L22.38 28.51C23.48 28.4 24.51 27.95 25.34 27.23C24.68 27.35 24.01 27.41 23.34 27.41C21.73 27.44 20.15 26.97 18.81 26.06C17.48 25.16 16.46 23.86 15.9 22.35C16.11 22.37 16.31 22.37 16.52 22.35C18.15 22.09 19.7 21.52 21.1 20.65C20.4 20.1 19.76 19.47 19.22 18.77L19.32 18.77C22.8 18.77 26.04 13.29 30.8 13.29C31.64 13.29 32.48 13.45 33.26 13.77C32.83 13.24 32.35 12.74 31.84 12.29C29.03 9.94 25.5 8.65 21.84 8.63L21.9 8.61Z" />
		<path id="Path 12" class="shp0" d="M49.3 13.01C49.3 13.01 43.9 15.83 46.96 26.65C48.96 33.67 56.6 47.81 65.3 47.81C84.12 48.05 76.82 27.59 76.82 27.59L49.3 13.01Z" />
		<path id="Path 13" fill-rule="evenodd" class="shp0" d="M48.29 11.07C48.93 10.73 49.69 10.74 50.33 11.07L77.85 25.65C77.91 25.69 77.97 25.92 78.03 26.19C78.12 26.06 78.2 25.97 78.27 25.95C78.55 26.19 78.76 26.5 78.88 26.85L78.27 27.07C78.27 27.07 78.27 27.07 78.27 27.07C78.88 26.85 78.88 26.85 78.88 26.85C78.88 26.85 78.88 26.86 78.88 26.86C78.88 26.86 78.89 26.86 78.89 26.86C78.89 26.87 78.89 26.87 78.89 26.88C78.9 26.89 78.9 26.91 78.91 26.94C78.93 26.99 78.95 27.05 78.98 27.14C79.03 27.31 79.11 27.55 79.2 27.85C79.38 28.46 79.6 29.32 79.81 30.34C80.23 32.37 80.59 35.17 80.3 38.01C80 40.86 79.02 43.96 76.56 46.33C74.07 48.72 70.38 50.06 65.29 50C62.51 49.99 59.96 48.86 57.76 47.26C55.55 45.65 53.56 43.48 51.85 41.16C48.45 36.53 45.93 31.01 44.85 27.25L44.85 27.24L44.85 27.24C43.21 21.45 43.76 17.48 45 14.84C45.61 13.54 46.36 12.63 47 12.03C47.32 11.73 47.6 11.51 47.83 11.35C47.94 11.27 48.04 11.21 48.11 11.16C48.15 11.14 48.19 11.12 48.22 11.11C48.23 11.1 48.24 11.09 48.25 11.08C48.26 11.08 48.27 11.08 48.27 11.07C48.27 11.07 48.28 11.07 48.28 11.07C48.28 11.07 48.28 11.07 48.28 11.07C48.28 11.07 48.29 11.07 49.3 13.01L48.29 11.07ZM48.96 16.7C48.27 18.18 47.65 21.02 49.07 26.05C50 29.31 52.29 34.36 55.38 38.56C56.92 40.66 58.6 42.46 60.33 43.72C62.07 44.98 63.73 45.62 65.3 45.62L65.33 45.62L65.3 47.81L65.3 47.81L65.33 45.62C69.64 45.67 72.09 44.55 73.52 43.17C74.98 41.77 75.71 39.8 75.94 37.56C76.17 35.33 75.89 33.02 75.52 31.22C75.34 30.34 75.15 29.61 75 29.1L49.61 15.65C49.4 15.91 49.17 16.26 48.96 16.7ZM78.27 27.07C78.2 27 78.12 26.56 78.03 26.19C77.74 26.6 77.35 27.4 76.82 27.59L78.27 27.07Z" />
		<path id="Path 14" class="shp1" d="M99.54 13.09L49.3 13.09C49.3 13.09 62.92 20.55 65.18 31.09C67.44 41.63 65.54 47.83 65.54 47.83L99.54 47.83L111.2 44.93L132.96 44.93C135.65 43.55 137.89 41.44 139.43 38.84C140.97 36.25 141.74 33.27 141.66 30.25C141.76 27.29 140.99 24.37 139.44 21.85C137.89 19.33 135.64 17.32 132.96 16.07L111.4 16.07L99.54 13.09Z" />
		<path id="Path 15" fill-rule="evenodd" class="shp0" d="M99.54 49.93L65.54 49.93C65.2 49.93 64.86 49.85 64.55 49.7C64.25 49.55 63.98 49.32 63.78 49.05C63.57 48.78 63.43 48.46 63.38 48.12C63.32 47.78 63.34 47.44 63.44 47.11C64.49 41.93 64.35 36.58 63.04 31.47C61.04 22.09 48.38 15.09 48.26 15.01C47.83 14.78 47.49 14.41 47.3 13.96C47.1 13.52 47.06 13.02 47.18 12.55C47.3 12.08 47.58 11.66 47.96 11.37C48.34 11.07 48.82 10.91 49.3 10.91L99.54 10.91C99.73 10.88 99.91 10.88 100.1 10.91L111.66 13.95L132.96 13.95C133.23 13.95 133.51 14 133.76 14.11C136.84 15.52 139.43 17.81 141.21 20.69C142.99 23.58 143.88 26.92 143.76 30.31C143.84 33.73 142.94 37.1 141.17 40.03C139.4 42.96 136.83 45.33 133.76 46.85C133.48 46.97 133.18 47.04 132.88 47.05L111.48 47.05L100.08 49.87L99.54 49.93ZM68.18 45.55L99.28 45.55L110.68 42.73C110.85 42.71 111.03 42.71 111.2 42.73L132.44 42.73C134.65 41.5 136.47 39.68 137.72 37.48C138.96 35.28 139.57 32.77 139.48 30.25C139.57 27.79 138.97 25.35 137.73 23.23C136.49 21.1 134.67 19.38 132.48 18.25L111.4 18.25C111.21 18.27 111.03 18.27 110.84 18.25L99.28 15.29L56.4 15.29C60.68 18.69 65.9 24.03 67.3 30.55C68.44 35.46 68.74 40.53 68.18 45.55Z" />
		<path id="Path 16" class="shp1" d="M99.54 13.33C99.54 13.33 107.7 20.93 107.7 30.37C107.7 39.81 99.54 47.51 99.54 47.51" />
		<path id="Path 17" class="shp0" d="M101.06 49.09L98.04 45.93C98.04 45.93 105.52 38.73 105.52 30.37C105.52 22.01 98.12 15.01 98.06 14.93L101.04 11.73C101.4 12.07 109.88 20.11 109.88 30.37C109.88 40.63 101.4 48.75 101.06 49.09Z" />
		<path id="Path 18" class="shp1" d="M111.4 16.13C111.4 16.13 118.44 19.53 118.44 30.37C118.44 41.21 111.4 44.85 111.4 44.85" />
		<path id="Path 19" class="shp0" d="M112.4 46.81L110.4 42.81C110.62 42.69 116.26 39.55 116.26 30.27C116.26 20.99 110.66 18.25 110.42 18.09L112.42 14.09C112.76 14.25 120.72 18.21 120.72 30.29C120.72 42.37 112.72 46.63 112.4 46.81Z" />
		<path id="Path 20" class="shp1" d="M57.2 25.71C59.32 28.71 60.2 32.41 59.66 36.05L51.14 45.23L41.36 42.39L34.46 34.63L41.08 30.89L49.08 21.71L57.2 25.71Z" />
		<path id="Path 21" class="shp2" d="M46.3 48.25C42.48 48.25 39.08 46.09 36.1 44.25C34.05 42.63 31.62 41.56 29.04 41.15L28.52 41.15L27.32 41.27L28.02 40.29C28.66 39.36 29.39 38.49 30.18 37.69C28.34 36.74 26.35 36.14 24.3 35.91C23.91 35.9 23.52 35.95 23.14 36.07L22.12 36.39L22.48 35.37C23.22 32.78 24.78 30.49 26.91 28.85C29.05 27.21 31.66 26.29 34.36 26.25C33.72 25.99 33.05 25.85 32.36 25.85L32 25.85L30.82 25.97L31.52 24.99C32.8 23.09 34.53 21.53 36.55 20.45C38.57 19.37 40.83 18.81 43.12 18.81C46.9 18.83 50.55 20.17 53.46 22.59C54 23.06 54.49 23.59 54.94 24.15L56.32 25.79L54.32 25.01C53.61 24.71 52.85 24.56 52.08 24.55C49.68 24.81 47.43 25.83 45.66 27.47C44.49 28.5 43.13 29.31 41.66 29.85C42.02 30.21 42.4 30.56 42.8 30.87L43.5 31.41L42.06 32.13C40.86 32.84 39.54 33.32 38.16 33.55C38.75 34.77 39.68 35.8 40.84 36.51C42 37.22 43.34 37.58 44.7 37.55C45.32 37.55 45.95 37.49 46.56 37.37L48.94 36.89L46.94 38.35C46.27 38.9 45.5 39.32 44.68 39.59C45.43 40.35 46.32 40.96 47.3 41.38C48.29 41.8 49.35 42.01 50.42 42.01C52.87 41.97 55.22 41.01 56.98 39.31L58.56 37.75L58 39.75C57.72 40.65 57.35 41.52 56.9 42.35C53.34 46.25 49.9 48.25 46.3 48.25Z" />
		<path id="Path 22" fill-rule="evenodd" class="shp1" d="M43.18 18.13C47.1 18.17 50.89 19.59 53.88 22.13C54.44 22.62 54.95 23.17 55.42 23.75L58.14 27.01L54.14 25.45C53.51 25.19 52.83 25.05 52.14 25.05C49.89 25.35 47.79 26.35 46.14 27.91C45.09 28.77 43.94 29.5 42.72 30.09L43.14 30.43L44.56 31.51L42.96 32.29L42.32 32.61C41.29 33.17 40.2 33.63 39.08 33.97C39.69 34.9 40.53 35.67 41.51 36.18C42.5 36.7 43.61 36.96 44.72 36.93C45.3 36.93 45.89 36.87 46.46 36.75L51.22 35.81L47.34 38.69C46.85 39.07 46.32 39.41 45.76 39.69C47.09 40.79 48.76 41.39 50.48 41.39C52.78 41.35 54.98 40.44 56.64 38.85L57.42 39.61L56.74 38.75L60.06 35.17L58.58 39.83C58.29 40.77 57.91 41.68 57.44 42.55L57.44 42.65C53.86 46.65 50.5 48.65 46.52 48.65C42.54 48.65 39.08 46.51 36.02 44.51C34.06 42.94 31.73 41.9 29.26 41.49L28.8 41.49L26.4 41.75L27.78 39.75C28.3 39.05 28.86 38.38 29.46 37.75C27.91 36.97 26.24 36.48 24.52 36.31C24.18 36.3 23.84 36.35 23.52 36.45L21.52 37.09L22.24 35.09C22.82 33.18 23.82 31.43 25.16 29.95C26.51 28.48 28.17 27.33 30.02 26.59L31.44 24.59C32.76 22.62 34.55 21 36.64 19.89C38.73 18.77 41.07 18.19 43.44 18.19L43.18 18.13ZM43.44 19.27C41.23 19.27 39.06 19.82 37.11 20.87C35.16 21.92 33.5 23.43 32.28 25.27L32.68 25.27C34.29 25.4 35.83 25.96 37.14 26.89C36.48 26.81 35.81 26.77 35.14 26.77C32.46 26.66 29.82 27.46 27.64 29.04C25.47 30.61 23.88 32.87 23.14 35.45C23.57 35.31 24.01 35.24 24.46 35.25C26.85 35.55 29.17 36.28 31.3 37.41C30.3 38.34 29.4 39.37 28.62 40.49L29.2 40.49C34.26 40.49 39.64 47.67 46.46 47.67C49.52 47.67 52.84 46.23 56.58 42.05C57.01 41.25 57.35 40.41 57.62 39.55L57.5 39.67C55.64 41.48 53.16 42.51 50.56 42.55C49.24 42.54 47.93 42.23 46.74 41.65C45.55 41.06 44.51 40.21 43.7 39.17C44.8 39.07 45.84 38.62 46.66 37.89C46 38.02 45.33 38.08 44.66 38.09C43.05 38.11 41.46 37.64 40.13 36.73C38.8 35.82 37.78 34.52 37.22 33.01C37.43 33.03 37.63 33.03 37.84 33.01C39.47 32.75 41.02 32.18 42.42 31.31C41.72 30.76 41.09 30.13 40.54 29.43L40.64 29.43C44.14 29.43 47.38 23.95 52.14 23.95C52.98 23.95 53.81 24.11 54.58 24.43C54.15 23.9 53.67 23.4 53.16 22.95C50.35 20.6 46.82 19.31 43.16 19.29L43.44 19.27Z" />
	</g>
</svg>