<svg version="1.2" baseProfile="tiny-ps" xmlns="http://www.w3.org/2000/svg" viewBox="0 0 81 99" width="81" height="99">
	<title>start-stop-off-pdf</title>
	<defs>
		<clipPath clipPathUnits="userSpaceOnUse" id="cp1">
			<path d="M0 0L81 0L81 99L0 99Z" />
		</clipPath>
	</defs>
	<style>
		tspan { white-space:pre }
		.shp0 { fill: #0e1726 } 
		.shp1 { fill: #4361ee } 
	</style>
	<g id="Page 1" clip-path="url(#cp1)">
		<path id="Path 1" class="shp0" d="M66.31 71.26L63.13 67.44C68.74 62.78 72.78 56.52 74.7 49.49C76.62 42.45 76.34 35 73.88 28.14C71.42 21.28 66.91 15.34 60.96 11.13C55 6.93 47.9 4.65 40.61 4.62C33.33 4.59 26.2 6.8 20.22 10.96C14.23 15.11 9.67 21.01 7.15 27.85C4.63 34.69 4.27 42.14 6.13 49.18C8 56.23 11.98 62.53 17.55 67.24L14.35 71.04C8 65.67 3.46 58.49 1.34 50.45C-0.78 42.42 -0.38 33.93 2.5 26.13C5.37 18.33 10.57 11.61 17.4 6.87C24.22 2.13 32.34 -0.39 40.65 -0.36C48.96 -0.32 57.06 2.27 63.84 7.07C70.63 11.86 75.77 18.63 78.58 26.45C81.39 34.27 81.72 42.77 79.53 50.78C77.34 58.8 72.74 65.95 66.35 71.26L66.31 71.26Z" />
		<path id="Path 2" fill-rule="evenodd" class="shp0" d="M47.77 48.6L32.45 48.6L29.53 57.34L20.23 57.34L35.97 14.92L44.07 14.92L59.97 57.34L50.67 57.34L47.77 48.6ZM34.81 41.62L45.41 41.62L40.07 25.62L34.81 41.62Z" />
		<path id="Path 3" fill-rule="evenodd" class="shp1" d="M33.11 89.08C33.15 90.88 32.78 92.67 32.05 94.32C31.41 95.75 30.36 96.96 29.03 97.78C27.68 98.61 26.11 99.03 24.53 99C22.95 99.02 21.4 98.61 20.05 97.8C18.71 96.98 17.65 95.78 16.99 94.36C16.24 92.74 15.87 90.98 15.91 89.2L15.91 88.2C15.86 86.39 16.23 84.6 16.97 82.96C17.61 81.53 18.65 80.31 19.97 79.46C21.33 78.67 22.88 78.26 24.46 78.26C26.03 78.26 27.58 78.67 28.95 79.46C30.27 80.31 31.32 81.52 31.97 82.96C32.72 84.6 33.08 86.38 33.05 88.18L33.11 89.08ZM28.89 88.18C29 86.49 28.6 84.8 27.75 83.34C27.38 82.83 26.89 82.41 26.33 82.12C25.76 81.83 25.14 81.68 24.51 81.68C23.88 81.68 23.25 81.83 22.69 82.12C22.13 82.41 21.64 82.83 21.27 83.34C20.42 84.78 20.02 86.45 20.11 88.12L20.11 89.1C20.01 90.78 20.4 92.45 21.25 93.9C21.62 94.41 22.11 94.83 22.67 95.12C23.24 95.41 23.86 95.57 24.5 95.57C25.13 95.57 25.76 95.41 26.33 95.12C26.89 94.83 27.38 94.41 27.75 93.9C28.58 92.44 28.98 90.77 28.89 89.1L28.89 88.18ZM48.29 90.48L40.29 90.48L40.29 98.74L36.13 98.74L36.13 78.54L49.27 78.54L49.27 81.9L40.29 81.9L40.29 87.12L48.29 87.12L48.29 90.48ZM63.85 90.48L55.85 90.48L55.85 98.74L51.69 98.74L51.69 78.54L64.85 78.54L64.85 81.9L55.85 81.9L55.85 87.12L63.85 87.12L63.85 90.48Z" />
		<path id="Path 4" class="shp0" d="M62.65 71.54L62.65 58.04L76.15 71.54L62.65 71.54Z" />
	</g>
</svg>