<svg version="1.2" baseProfile="tiny-ps" xmlns="http://www.w3.org/2000/svg" viewBox="0 0 97 76" width="97" height="76">
	<title>vmax-pdf</title>
	<defs>
		<clipPath clipPathUnits="userSpaceOnUse" id="cp1">
			<path d="M0 0L97 0L97 76L0 76Z" />
		</clipPath>
	</defs>
	<style>
		tspan { white-space:pre }
		.shp0 { fill: #4361ee } 
		.shp1 { fill: #0e1726 } 
	</style>
	<g id="Page 1" clip-path="url(#cp1)">
		<path id="Path 1" class="shp0" d="M43.06 52.46C43.06 53.8 43.6 55.09 44.54 56.04C45.49 56.99 46.78 57.52 48.12 57.52C49.46 57.52 50.75 56.99 51.7 56.04C52.65 55.09 53.18 53.8 53.18 52.46L70 29.56L47.82 47.38C46.53 47.47 45.32 48.04 44.44 48.98C43.56 49.92 43.06 51.17 43.06 52.46Z" />
		<path id="Path 2" class="shp1" d="M48.76 0C39.93 0 31.26 2.39 23.69 6.93C16.11 11.47 9.91 17.99 5.75 25.78C1.59 33.57 -0.38 42.34 0.06 51.16C0.5 59.98 3.33 68.52 8.24 75.86L14.24 75.86L14.38 76L14.54 75.86L14.78 75.86C14.78 75.86 14.78 75.86 14.78 75.74L23.24 68.36L19.14 63.68L11.26 70.58C7.36 63.97 5.29 56.44 5.26 48.76C5.26 48.38 5.26 48.02 5.26 47.64L14.96 47.64L14.96 41.44L6 41.44C7.26 34.05 10.41 27.11 15.14 21.3L21.94 28.1L26.32 23.7L19.44 16.82C26.37 10.41 35.21 6.45 44.6 5.54L44.6 16.68L50.8 16.68L50.8 5.42C61.28 5.89 71.24 10.15 78.8 17.42L71.76 24.5L76 28.8L82.88 22C87.33 27.68 90.3 34.38 91.52 41.5L82 41.5L82 47.7L92 47.7C92 48.08 92 48.44 92 48.82C92.01 56.45 89.98 63.95 86.12 70.54L78.72 63.14L74.36 67.52L82.58 75.76C82.59 75.81 82.59 75.87 82.58 75.92L89.2 75.92C94.12 68.58 96.96 60.05 97.4 51.23C97.85 42.41 95.89 33.63 91.74 25.84C87.59 18.04 81.4 11.52 73.83 6.97C66.26 2.42 57.59 0.01 48.76 0Z" />
	</g>
</svg>