<svg xmlns:mydata="http://www.w3.org/2000/svg" mydata:contrastcolor="1c1c1c" mydata:template="Contrast" mydata:presentation="2.5" mydata:layoutType="undefined" mydata:specialFontId="undefined" mydata:id1="322" mydata:id2="469" mydata:companyName="Golden Demo" mydata:companyTagline="" version="1.1" xmlns="http://www.w3.org/2000/svg" xmlns:xlink="http://www.w3.org/1999/xlink" width="550" height="940"><g fill="#ffc800" fill-rule="none" stroke="none" stroke-width="1" stroke-linecap="butt" stroke-linejoin="miter" stroke-miterlimit="10" stroke-dasharray="" stroke-dashoffset="0" font-family="none" font-weight="none" font-size="none" text-anchor="none" style="mix-blend-mode: normal"><g data-paper-data="{&quot;isGlobalGroup&quot;:true,&quot;bounds&quot;:{&quot;x&quot;:139.39352243251767,&quot;y&quot;:114.99999999999997,&quot;width&quot;:271.21295513496466,&quot;height&quot;:240.00000000000003}}"><g data-paper-data="{&quot;isSecondaryText&quot;:true}" fill-rule="nonzero"><path d="M226.36232,340.34565h6.66556c2.15931,0 3.90058,0.89532 5.22382,2.68597c0.88216,1.31665 1.32324,2.78143 1.32324,4.39433c0,2.02765 -0.6682,3.76892 -2.0046,5.22382c-1.27057,1.23765 -2.78472,1.85648 -4.54245,1.85648h-4.74983c-0.41475,0 -1.05332,-0.00987 -1.91573,-0.02962zM227.92255,341.90589v11.04014h5.0757c1.86306,0 3.29822,-0.85582 4.30546,-2.56747c0.474,-0.97432 0.71099,-1.94865 0.71099,-2.92297c0,-1.9289 -0.71758,-3.48255 -2.15273,-4.66095c-0.90191,-0.59249 -1.85648,-0.88874 -2.86372,-0.88874z" data-paper-data="{&quot;glyphName&quot;:&quot;D&quot;,&quot;glyphIndex&quot;:0,&quot;firstGlyphOfWord&quot;:true,&quot;word&quot;:1}"></path><path d="M267.17192,340.34565h13.39036v1.56023h-11.83013v11.04014h11.83013v1.56023h-13.39036zM269.76902,346.04347h9.6774v1.56023h-9.6774z" data-paper-data="{&quot;glyphName&quot;:&quot;E&quot;,&quot;glyphIndex&quot;:1,&quot;word&quot;:1}"></path><path d="M309.03333,339.10141h0.02962l6.94205,12.65962h0.02962c0.04608,-0.02633 0.61883,-1.06649 1.71823,-3.12047c0.80974,-1.4154 2.56089,-4.59512 5.25345,-9.53915h0.02962v15.40484h-1.55036v-9.3614h-0.01975l-5.40157,9.85515h-0.05925l-5.40157,-9.85515h-0.01975v9.3614h-1.55036z" data-paper-data="{&quot;glyphName&quot;:&quot;M&quot;,&quot;glyphIndex&quot;:2,&quot;word&quot;:1}"></path><path d="M359.6404,339.86178c1.9289,0 3.66359,0.68795 5.20407,2.06385c1.5734,1.57998 2.3601,3.40355 2.3601,5.47069c0,2.59381 -1.12245,4.71033 -3.36734,6.34956c-1.3364,0.82949 -2.68597,1.24424 -4.04871,1.24424h-0.29625c-2.17906,0 -4.09808,-0.93482 -5.75707,-2.80447c-0.75049,-1.09941 -1.12574,-1.7709 -1.12574,-2.01448c-0.3555,-0.80316 -0.53324,-1.73798 -0.53324,-2.80447c0,-1.89598 0.69783,-3.6208 2.09348,-5.17445c1.57998,-1.55365 3.40355,-2.33048 5.47069,-2.33048zM353.64634,347.4852c0,1.8104 0.77683,3.37721 2.33048,4.70045c1.14549,0.82291 2.32718,1.23436 3.54509,1.23436h0.237c1.46807,0 2.81764,-0.55958 4.04871,-1.67873c1.2179,-1.23107 1.82686,-2.66951 1.82686,-4.31533c0,-1.87623 -0.7867,-3.4628 -2.3601,-4.7597c-1.12574,-0.82291 -2.33706,-1.23436 -3.63396,-1.23436c-1.86306,0 -3.44963,0.7867 -4.7597,2.3601c-0.82291,1.10599 -1.23436,2.33706 -1.23436,3.69321z" data-paper-data="{&quot;glyphName&quot;:&quot;O&quot;,&quot;glyphIndex&quot;:3,&quot;lastGlyphOfWord&quot;:true,&quot;word&quot;:1}"></path></g><g data-paper-data="{&quot;isPrimaryText&quot;:true}" fill-rule="nonzero"><path d="M218.89213,275.79053c0,-3.12542 -2.75968,-4.68812 -8.27903,-4.68812c-6.84932,0 -16.17569,2.46043 -27.97912,7.3813c-11.80343,4.92087 -20.99681,10.44022 -27.58013,16.55805c-4.05639,3.7904 -7.18181,7.46442 -9.37625,11.02208c-2.19444,3.55765 -3.29166,6.64982 -3.29166,9.2765c0,2.62668 0.73148,5.00399 2.19444,7.13193c2.52693,3.8569 8.21253,6.15108 17.05679,6.88256c0.99747,0.0665 2.56018,0.09975 4.68812,0.09975c2.12794,0 5.08711,-0.36574 8.87751,-1.09722c8.97726,-1.59596 17.85477,-4.605 26.63253,-9.02713c8.77776,-4.42213 15.66033,-9.52587 20.64769,-15.31121c0.39899,-1.32996 0.71486,-2.61005 0.9476,-3.84027c0.23274,-1.23022 -0.24937,-1.77883 -1.44634,-1.64583c-0.99747,0.133 -2.06144,0.66498 -3.19191,1.59596c-1.13047,0.93097 -1.79545,1.0806 -1.99495,0.44886c-0.19949,-0.63173 0.133,-1.28009 0.99747,-1.94507c2.26094,-1.59596 4.33901,-2.39394 6.23421,-2.39394c1.8952,0 3.27504,0.51536 4.13951,1.54608c0.86448,1.03072 1.29672,2.31081 1.29672,3.84027c0,3.39141 -1.92845,8.44527 -5.78534,15.16159c-5.65235,9.64224 -10.58984,16.70768 -14.81248,21.1963c-4.22264,4.48863 -8.79439,7.99641 -13.71526,10.52334c-4.92087,2.52693 -9.95811,3.7904 -15.11172,3.7904c-5.15361,0 -9.476,-1.16372 -12.96715,-3.49116c-3.49116,-2.32744 -5.60247,-5.98484 -6.33395,-10.9722c-0.0665,-0.53199 0.04987,-0.78135 0.34912,-0.7481c0.29924,0.03325 0.51536,0.24937 0.64836,0.64836c0.66498,3.7904 2.47706,6.88256 5.43623,9.2765c2.95917,2.39394 6.33395,3.5909 10.12435,3.5909c6.58332,0 13.86488,-4.12289 21.84466,-12.36867c9.90823,-10.30722 17.05679,-20.18221 21.44567,-29.62495c-4.85437,4.92087 -11.40444,9.67549 -19.65022,14.26387c-13.10015,7.24831 -25.50206,10.87246 -37.20575,10.87246c-8.17928,0 -14.72935,-2.42718 -19.65022,-7.28155c-3.12542,-3.12542 -4.68812,-7.34805 -4.68812,-12.66791c0,-4.52188 1.16372,-8.91076 3.49116,-13.16665c5.65235,-10.63971 15.42759,-20.01596 29.32571,-28.12874c8.24578,-4.85437 15.69358,-8.07953 22.3434,-9.67549c4.18939,-0.86448 8.1959,-1.29672 12.01955,-1.29672c3.82365,0 7.09868,0.89773 9.82511,2.69318c2.92592,1.92845 4.38888,4.65487 4.38888,8.17928c0,2.26094 -0.66498,4.75462 -1.99495,7.48105c-0.39899,0.79798 -0.66498,0.98085 -0.79798,0.54861c-0.133,-0.43224 -0.01662,-1.06397 0.34912,-1.8952c0.36574,-0.83123 0.54861,-1.74558 0.54861,-2.74305z" data-paper-data="{&quot;glyphName&quot;:&quot;G&quot;,&quot;glyphIndex&quot;:0,&quot;firstGlyphOfWord&quot;:true,&quot;word&quot;:1}"></path><path d="M247.22037,325.86368c-4.45538,2.26094 -8.34553,3.39141 -11.67044,3.39141c-2.79292,0 -4.68812,-0.93097 -5.6856,-2.79292c-0.53199,-0.93097 -0.79798,-1.99495 -0.79798,-3.19191c0,-2.72643 0.63173,-5.38636 1.8952,-7.97979c-0.86448,0.86448 -1.6957,1.56271 -2.49368,2.09469c-0.66498,0.59848 -0.99747,0.53199 -0.99747,-0.19949c0,-0.46549 0.58186,-1.19697 1.74558,-2.19444c1.16372,-0.99747 2.94255,-2.67655 5.33648,-5.03724c2.39394,-2.36069 4.28913,-4.13951 5.6856,-5.33648c4.05639,-3.39141 8.34553,-5.08711 12.8674,-5.08711c1.66246,0 3.35816,0.43224 5.08711,1.29672c2.52693,1.19697 3.7904,3.39141 3.7904,6.58332c0,3.8569 -1.92845,7.81354 -5.78534,11.86993c-1.52946,1.72895 -3.6574,3.45791 -6.38383,5.18686c5.45285,-0.86448 11.2382,-4.15614 17.35603,-9.87498c0.33249,-0.26599 0.63173,-0.38236 0.89773,-0.34912c0.26599,0.03325 0.39899,0.18287 0.39899,0.44886c0,0.26599 -0.133,0.53199 -0.39899,0.79798c-7.3148,6.91581 -14.13087,10.37372 -20.4482,10.37372c-0.133,0 -0.26599,0 -0.39899,0zM256.89586,315.39021c1.66246,-2.52693 2.49368,-4.6715 2.49368,-6.4337c0,-1.7622 -0.76473,-3.10879 -2.29419,-4.03977c-0.86448,-0.73148 -1.86195,-1.09722 -2.99242,-1.09722c-4.05639,0 -7.79692,1.59596 -11.22157,4.78787c-3.42466,3.19191 -5.70222,6.58332 -6.83269,10.17423c-0.46549,1.26347 -0.69823,2.57681 -0.69823,3.94002c0,1.36321 0.51536,2.32744 1.54608,2.89267c1.03072,0.56523 2.17782,0.84785 3.44128,0.84785c1.26347,0 3.09217,-0.63173 5.4861,-1.8952c-0.133,0 -0.33249,-0.0665 -0.59848,-0.19949c-0.79798,-0.39899 -1.19697,-0.93097 -1.19697,-1.59596c0,-2.32744 1.29672,-4.68812 3.89015,-7.08206c1.86195,-1.66246 3.75715,-2.49368 5.6856,-2.49368c1.92845,0 3.02567,0.73148 3.29166,2.19444z" data-paper-data="{&quot;glyphName&quot;:&quot;o&quot;,&quot;glyphIndex&quot;:1,&quot;word&quot;:1}"></path><path d="M274.35164,323.46974c0,1.79545 0.89773,2.69318 2.69318,2.69318c1.06397,0 2.74305,-0.43224 5.03724,-1.29672c2.29419,-0.86448 5.26998,-2.75968 8.92738,-5.6856c3.6574,-2.92592 6.11784,-5.03724 7.3813,-6.33395c1.26347,-1.29672 2.0282,-1.92845 2.29419,-1.8952c0.26599,0.03325 0.36574,0.23274 0.29924,0.59848c-0.0665,0.36574 -0.23274,0.68161 -0.49874,0.9476c-5.65235,5.78534 -10.34047,9.94148 -14.06437,12.46841c-3.7239,2.52693 -7.18181,3.7904 -10.37372,3.7904c-2.72643,0 -4.62163,-0.63173 -5.6856,-1.8952c-1.06397,-1.26347 -1.59596,-2.72643 -1.59596,-4.38888c0,-2.99242 1.06397,-6.58332 3.19191,-10.77271c-3.8569,4.12289 -5.78534,5.45285 -5.78534,3.98989c0,-0.26599 0.19949,-0.56523 0.59848,-0.89773c3.12542,-2.52693 6.48358,-6.18433 10.07448,-10.9722c6.58332,-8.57827 11.73693,-16.12582 15.46083,-22.64264c0.66498,-1.26347 0.99747,-2.19444 0.99747,-2.79292c0,-1.39646 -0.76473,-1.66246 -2.29419,-0.79798c-1.72895,0.86448 -2.65993,1.19697 -2.79292,0.99747c-0.133,-0.19949 -0.03325,-0.46549 0.29924,-0.79798c1.59596,-1.19697 3.7904,-2.32744 6.58332,-3.39141c2.79292,-1.06397 5.08711,-1.62921 6.88256,-1.6957c2.79292,0 4.18939,0.86448 4.18939,2.59343c0,0.99747 -0.48211,2.32744 -1.44634,3.98989c-0.96422,1.66246 -3.7239,4.97074 -8.27903,9.92486c-4.55513,4.95412 -7.33143,8.06291 -8.3289,9.32637c-6.84932,8.97726 -11.20495,16.12582 -13.0669,21.44567c-0.46549,1.39646 -0.69823,2.56018 -0.69823,3.49116z" data-paper-data="{&quot;glyphName&quot;:&quot;l&quot;,&quot;glyphIndex&quot;:2,&quot;word&quot;:1}"></path><path d="M325.12303,322.97101c-1.26347,3.45791 -1.8952,6.28408 -1.8952,8.47852c0,2.19444 0.46549,3.8569 1.39646,4.98737c0.19949,0.26599 0.23274,0.44886 0.09975,0.54861c-0.133,0.09975 -0.23274,0.14962 -0.29924,0.14962c-0.0665,0 -0.16625,-0.03325 -0.29924,-0.09975c-2.12794,-1.72895 -3.19191,-4.30576 -3.19191,-7.73042c0,-3.42466 0.69823,-7.36468 2.09469,-11.82006c-2.72643,3.52441 -5.4196,6.41708 -8.07953,8.67802c-3.19191,2.65993 -6.45033,3.98989 -9.77524,3.98989c-2.12794,0 -4.12289,-0.71486 -5.98484,-2.14457c-1.86195,-1.42971 -2.79292,-3.77377 -2.79292,-7.03219c-0.0665,-1.59596 0.23274,-3.42466 0.89773,-5.4861c-1.32996,1.19697 -2.17782,1.92845 -2.54356,2.19444c-0.36574,0.26599 -0.61511,0.26599 -0.7481,0c-0.133,-0.26599 -0.19949,-0.51536 -0.19949,-0.7481c0,-0.23274 0.21612,-0.53199 0.64836,-0.89773c0.43224,-0.36574 2.74305,-2.80955 6.93244,-7.33143c2.46043,-2.72643 5.38636,-4.85437 8.77776,-6.38383c3.39141,-1.52946 6.61657,-2.29419 9.67549,-2.29419c2.79292,0 4.83774,0.48211 6.13446,1.44634c1.29672,0.96422 1.94507,2.17782 1.94507,3.64078c2.39394,-5.05386 4.97074,-9.85836 7.73042,-14.41349c2.75968,-4.55513 4.90424,-7.69717 6.4337,-9.42612c1.66246,-1.86195 3.75715,-2.79292 6.28408,-2.79292c2.52693,0 4.58838,0.69823 6.18433,2.09469c-1.39646,0.86448 -4.12289,3.7239 -8.17928,8.57827c-4.05639,4.85437 -8.01303,10.05785 -11.86993,15.61046c-3.8569,5.5526 -6.98231,11.62056 -9.37625,18.20389zM325.92101,304.11877c0,-1.32996 -0.83123,-1.99495 -2.49368,-1.99495c-0.86448,0 -1.99495,0.26599 -3.39141,0.79798c-3.12542,1.19697 -6.21758,3.52441 -9.2765,6.98231c-3.7904,4.32238 -5.6856,8.44527 -5.6856,12.36867c0,2.32744 0.76473,3.7239 2.29419,4.18939c0.33249,0.133 0.66498,0.19949 0.99747,0.19949c2.72643,0 6.78282,-2.72643 12.16917,-8.17928c1.46296,-1.39646 2.69318,-2.89267 3.69065,-4.48863c0.53199,-1.52946 1.23022,-3.29166 2.09469,-5.28661c-0.59848,0.39899 -1.0806,0.44886 -1.44634,0.14962c-0.36574,-0.29924 -0.28262,-0.96422 0.24937,-1.99495c0.53199,-1.03072 0.79798,-1.94507 0.79798,-2.74305z" data-paper-data="{&quot;glyphName&quot;:&quot;d&quot;,&quot;glyphIndex&quot;:3,&quot;word&quot;:1}"></path><path d="M358.73787,311.9988c3.52441,-1.92845 5.28661,-3.89015 5.28661,-5.88509c0,-1.99495 -1.19697,-2.99242 -3.5909,-2.99242c-1.13047,0 -2.32744,0.29924 -3.5909,0.89773c-2.79292,1.26347 -5.4861,3.45791 -8.07953,6.58332c-3.19191,3.8569 -4.78787,7.4478 -4.78787,10.77271c0,1.26347 0.34912,2.44381 1.04735,3.54103c0.69823,1.09722 1.94507,1.64583 3.74052,1.64583c3.12542,0 7.08206,-1.64583 11.86993,-4.93749c4.78787,-3.29166 8.91076,-6.59995 12.36867,-9.92486c0.79798,-0.79798 1.19697,-0.83123 1.19697,-0.09975c0,0.46549 -0.19949,0.86448 -0.59848,1.19697c-2.46043,2.26094 -4.10626,3.77377 -4.93749,4.5385c-0.83123,0.76473 -2.47706,2.12794 -4.93749,4.08964c-2.46043,1.9617 -4.45538,3.34154 -5.98484,4.13951c-4.72137,2.46043 -8.72789,3.69065 -12.01955,3.69065c-3.29166,0 -5.88509,-0.7481 -7.78029,-2.24431c-1.8952,-1.49621 -2.8428,-3.57428 -2.8428,-6.23421c0,-5.65235 2.52693,-10.52334 7.5808,-14.61298c5.05386,-4.08964 10.34047,-6.13446 15.85982,-6.13446c3.7239,0 6.21758,0.79798 7.48105,2.39394c0.53199,0.79798 0.79798,1.64583 0.79798,2.54356c0,0.89773 -0.29924,1.87857 -0.89773,2.94255c-1.19697,2.06144 -3.44128,3.87352 -6.73294,5.43623c-3.29166,1.56271 -6.40045,2.34406 -9.32637,2.34406c-1.13047,0 -1.74558,-0.09975 -1.84533,-0.29924c-0.09975,-0.19949 -0.01662,-0.34912 0.24937,-0.44886c0.26599,-0.09975 0.63173,-0.14962 1.09722,-0.14962c2.65993,0 5.78534,-0.93097 9.37625,-2.79292z" data-paper-data="{&quot;glyphName&quot;:&quot;e&quot;,&quot;glyphIndex&quot;:4,&quot;word&quot;:1}"></path><path d="M396.34261,305.21599c0.93097,-1.06397 1.39646,-1.8952 1.39646,-2.49368c0,-0.59848 -0.61511,-0.89773 -1.84533,-0.89773c-1.23022,0 -3.17529,1.16372 -5.83522,3.49116c-2.46043,2.12794 -5.43623,5.6856 -8.92738,10.67296c-3.49116,4.98737 -6.01809,8.36215 -7.5808,10.12435c-1.56271,1.7622 -2.94255,2.6433 -4.13951,2.6433c-0.133,0 -0.26599,0 -0.39899,0c-1.72895,0 -3.42466,-0.69823 -5.08711,-2.09469c0.39899,-0.59848 1.36321,-1.8952 2.89267,-3.89015c3.39141,-4.12289 6.35058,-8.11278 8.87751,-11.96968c-2.85942,2.85942 -5.28661,5.08711 -7.28155,6.68307c-0.66498,0.53199 -1.04735,0.56523 -1.14709,0.09975c-0.09975,-0.46549 0.04987,-0.8811 0.44886,-1.24684c0.39899,-0.36574 1.06397,-0.96422 1.99495,-1.79545c0.93097,-0.83123 1.54608,-1.37984 1.84533,-1.64583c0.29924,-0.26599 0.86448,-0.78135 1.6957,-1.54608c0.83123,-0.76473 1.44634,-1.37984 1.84533,-1.84533c1.86195,-2.19444 3.22516,-4.05639 4.08964,-5.58585c0.33249,-0.79798 0.48211,-1.57933 0.44886,-2.34406c-0.03325,-0.76473 -0.19949,-1.26347 -0.49874,-1.49621c-0.29924,-0.23274 -0.41561,-0.51536 -0.34912,-0.84785c0,-0.53199 0.26599,-0.79798 0.79798,-0.79798c0.26599,0 0.56523,0.0665 0.89773,0.19949c2.06144,0.93097 3.09217,2.7763 3.09217,5.53598c0,2.75968 -0.59848,5.70222 -1.79545,8.82764c2.59343,-3.39141 4.55513,-5.81859 5.88509,-7.28155c3.45791,-3.8569 6.84932,-5.78534 10.17423,-5.78534c3.25841,0 5.18686,1.39646 5.78534,4.18939c0.0665,0.39899 0.09975,1.0141 0.09975,1.84533c0,0.83123 -0.31587,1.94507 -0.9476,3.34154c-0.63173,1.39646 -2.11132,3.69065 -4.43876,6.88256c-2.32744,3.19191 -3.67403,5.20349 -4.03977,6.03471c-0.36574,0.83123 -0.48211,1.44634 -0.34912,1.84533c0.133,0.39899 0.43224,0.63173 0.89773,0.69823c0.79798,0.133 2.16119,-0.39899 4.08964,-1.59596c2.72643,-1.92845 6.25083,-4.88762 10.57322,-8.87751c0.73148,-0.73148 1.09722,-0.66498 1.09722,0.19949c0,0.33249 -0.16625,0.66498 -0.49874,0.99747c-6.45033,5.98484 -11.2382,9.70874 -14.36361,11.1717c-3.6574,1.86195 -6.51682,2.16119 -8.57827,0.89773c-1.26347,-0.79798 -1.8952,-1.91182 -1.8952,-3.34154c0,-1.42971 0.26599,-2.87605 0.79798,-4.33901c1.19697,-3.39141 4.62163,-8.27903 10.27397,-14.66286z" data-paper-data="{&quot;glyphName&quot;:&quot;n&quot;,&quot;glyphIndex&quot;:5,&quot;lastGlyphOfWord&quot;:true,&quot;word&quot;:1}"></path></g><g data-paper-data="{&quot;fillRule&quot;:&quot;evenodd&quot;,&quot;fillRuleOriginal&quot;:&quot;evenodd&quot;,&quot;isIcon&quot;:true,&quot;iconStyle&quot;:&quot;standalone&quot;,&quot;selectedEffects&quot;:{&quot;container&quot;:&quot;&quot;,&quot;transformation&quot;:&quot;&quot;,&quot;pattern&quot;:&quot;&quot;},&quot;bounds&quot;:{&quot;x&quot;:186.12940389515518,&quot;y&quot;:114.99999999999997,&quot;width&quot;:177.74119220968964,&quot;height&quot;:115.57491474190769},&quot;iconType&quot;:&quot;icon&quot;,&quot;rawIconId&quot;:&quot;3110811&quot;,&quot;isDetailed&quot;:false,&quot;suitableAsStandaloneIcon&quot;:true}" fill-rule="evenodd"><path d="M363.8706,187.41558c0,-17.27736 -17.98836,-32.2084 -43.86885,-39.06958c-0.0711,0.88875 -0.2133,1.81306 -0.3555,2.73736c17.41955,5.01257 28.86669,14.1134 28.86669,24.77843c0,16.21085 -26.52039,28.90225 -60.32854,28.90225c-0.4977,0 -0.9954,0 -1.49311,-0.03555c-1.88415,1.67086 -3.80387,3.30616 -5.79466,4.87037c-8.38983,6.68342 -17.34846,12.22924 -26.34263,16.35305c10.13178,2.87956 21.57892,4.51487 33.66596,4.51487c41.70029,0.03555 75.65064,-19.30372 75.65064,-43.05119zM310.04772,125.73614c7.11002,8.81643 7.85658,21.93442 2.0619,37.00767c-5.93687,15.42875 -17.95281,30.9286 -33.87926,43.61999c-32.52835,25.95158 -71.17133,31.9951 -86.17348,13.47349c-7.11002,-8.81643 -7.85658,-21.93442 -2.0619,-37.00767c5.93687,-15.42875 17.95281,-30.9286 33.87926,-43.61999c19.80142,-15.78425 41.84249,-24.20963 59.47534,-24.20963c11.34048,0 20.83237,3.48391 26.69814,10.73614zM224.1231,206.15049c12.05149,-2.95066 25.48943,-10.02514 37.86087,-19.87251c26.37819,-21.01012 39.03403,-47.3883 28.86669,-60.04415c-10.23843,-12.65584 -38.89183,-6.04352 -65.27001,14.9666c-12.37144,9.88293 -22.21882,21.36562 -27.72909,32.42171c-5.75912,11.55379 -6.15017,21.36562 -1.10206,27.62244c3.41281,4.23046 8.95863,6.39902 16.1042,6.39902c3.41281,0 7.18113,-0.4977 11.26939,-1.49311zM217.68853,203.09318c-3.34171,-4.87037 -5.19032,-10.13178 -5.19032,-15.6776c0,-23.74748 33.95036,-43.05119 75.65064,-43.08674h0.74655c-0.24885,0.8532 -0.53325,1.74195 -0.8532,2.63071c-33.77261,0.03555 -60.2219,12.72694 -60.2219,28.90225c0,7.21667 5.22587,13.72235 14.04229,18.73491c-6.39902,3.44836 -12.76249,6.00797 -18.77046,7.46552c-1.88415,0.46215 -3.66166,0.81765 -5.40362,1.03095z" data-paper-data="{&quot;isPathIcon&quot;:true}"></path></g></g></g></svg>