<svg version="1.2" baseProfile="tiny-ps" xmlns="http://www.w3.org/2000/svg" viewBox="0 0 92 95" width="92" height="95">
	<title>adblue-pdf</title>
	<defs>
		<clipPath clipPathUnits="userSpaceOnUse" id="cp1">
			<path d="M0 0L92 0L92 95L0 95Z" />
		</clipPath>
	</defs>
	<style>
		tspan { white-space:pre }
		.shp0 { fill: #0e1726 } 
		.shp1 { fill: #4361ee } 
		.shp2 { fill: #ffffff } 
	</style>
	<g id="Page 1" clip-path="url(#cp1)">
		<path id="Path 1" fill-rule="evenodd" class="shp0" d="M61.37 11.09C62.09 11.82 62.61 12.74 62.85 13.74L62.85 36.6C62.85 38.16 60.39 39.4 58.85 39.4L33.85 39.4C33.48 39.4 33.12 39.33 32.78 39.19C32.44 39.05 32.13 38.84 31.88 38.58C31.62 38.32 31.41 38.01 31.27 37.67C31.14 37.33 31.07 36.97 31.07 36.6L31.07 13.74C31.07 12.2 34.31 9.58 35.85 9.58L58.73 9.58C59.73 9.83 60.64 10.35 61.37 11.09ZM56.85 15.58L36.85 15.58L36.85 33.58L56.85 33.58L56.85 15.58Z" />
		<path id="Path 2" fill-rule="evenodd" class="shp0" d="M84.47 16.47C85.93 17.07 87.26 17.95 88.39 19.07C89.51 20.18 90.4 21.51 91.01 22.97C91.62 24.43 91.93 26 91.93 27.58L91.93 70.1C91.93 72.06 91.15 73.94 89.76 75.33C88.37 76.72 86.49 77.5 84.53 77.5C82.57 77.5 80.68 76.72 79.3 75.33C77.91 73.94 77.13 72.06 77.13 70.1L77.13 63C77.13 62.52 76.94 62.05 76.6 61.71C76.25 61.37 75.79 61.18 75.31 61.18L73.49 61.18L73.49 80.48C75.11 81.14 76.5 82.26 77.48 83.71C78.46 85.16 78.99 86.87 78.99 88.62L78.99 92.2C78.99 92.94 78.69 93.65 78.17 94.18C77.64 94.71 76.93 95 76.19 95L18.63 95C17.89 94.99 17.18 94.7 16.66 94.17C16.14 93.65 15.85 92.94 15.85 92.2L15.85 88.62C15.84 86.88 16.35 85.18 17.32 83.73C18.28 82.28 19.65 81.15 21.25 80.48L21.25 8.48C21.25 4.16 24.77 -0.42 29.09 -0.42L65.59 -0.42C69.85 -0.42 73.41 4.16 73.43 8.48L73.43 15.58L79.85 15.58C81.43 15.57 83 15.87 84.47 16.47ZM26.85 79.84L67.83 79.84L67.83 8.48C67.83 7.24 66.83 5.58 65.59 5.58L29.09 5.58C27.85 5.58 26.85 7.24 26.85 8.48L26.85 79.84ZM73.27 88.62C73.27 87.77 72.93 86.96 72.34 86.36C71.74 85.76 70.93 85.43 70.09 85.42L24.49 85.42C23.64 85.43 22.84 85.76 22.24 86.36C21.64 86.96 21.31 87.77 21.31 88.62L21.31 89.4L73.31 89.4L73.27 88.62ZM86.27 45.58C83.63 44.95 81.28 43.45 79.61 41.31C77.93 39.17 77.03 36.53 77.05 33.82L77.05 21.08L73.41 21.08L73.41 55.6L75.23 55.6C77.19 55.6 79.07 56.38 80.46 57.77C81.85 59.16 82.63 61.04 82.63 63L82.63 70.1C82.63 70.58 82.82 71.05 83.16 71.39C83.5 71.73 83.97 71.92 84.45 71.92C84.93 71.92 85.39 71.73 85.74 71.39C86.08 71.05 86.27 70.58 86.27 70.1L86.27 45.58Z" />
		<path id="Path 3" fill-rule="evenodd" class="shp1" d="M5.85 79.04C5.17 79.02 4.51 78.85 3.91 78.53C3.31 78.21 2.8 77.75 2.41 77.2C2.14 76.82 1.98 76.39 1.93 75.93C1.87 75.47 1.94 75.01 2.11 74.58C2.87 72.82 3.81 71.15 4.91 69.58L4.47 65.06C3.96 61.92 4.43 58.69 5.83 55.83C7.22 52.96 9.46 50.6 12.25 49.06C16.82 46.77 21.9 45.67 27.01 45.84C27.15 45.84 41.91 46.08 42.85 49.84C42.98 50.3 42.95 50.8 42.74 51.24C42.54 51.67 42.19 52.02 41.75 52.22C37.35 54.56 35.61 58.22 33.75 62.12C32.48 65.55 30.32 68.58 27.49 70.9C25.18 72.45 22.45 73.24 19.67 73.16C17.03 73.11 14.42 72.66 11.93 71.8C10.62 73.5 9.5 75.33 8.57 77.26C8.35 77.8 7.98 78.26 7.49 78.58C7 78.9 6.43 79.06 5.85 79.04ZM12.55 61.8C11.26 62.74 10.06 63.79 8.95 64.94C10.1 63.83 11.31 62.78 12.57 61.8L12.55 61.8Z" />
		<path id="Path 4" fill-rule="evenodd" class="shp2" d="M26.87 44.12C30.36 44.12 33.84 44.46 37.27 45.14C41.41 46 43.93 46.98 44.57 49.54C44.8 50.41 44.73 51.34 44.37 52.17C44 53 43.37 53.68 42.57 54.1C38.73 56.14 37.19 59.38 35.41 63.14C34.01 66.87 31.63 70.16 28.51 72.64C25.88 74.43 22.76 75.35 19.59 75.26C17.22 75.23 14.87 74.88 12.59 74.22C11.7 75.49 10.91 76.83 10.23 78.22C9.84 79.05 9.22 79.75 8.44 80.23C7.66 80.72 6.76 80.97 5.85 80.96C4.86 80.94 3.89 80.69 3.01 80.23C2.14 79.76 1.39 79.09 0.83 78.28C0.38 77.64 0.1 76.9 0.02 76.12C-0.06 75.34 0.06 74.56 0.37 73.84C1.06 72.24 1.9 70.71 2.87 69.26L2.49 65.42C1.94 61.91 2.48 58.31 4.04 55.12C5.61 51.93 8.12 49.3 11.23 47.58C16.08 45.15 21.47 43.97 26.89 44.16L26.87 44.12ZM26.89 48C22.12 47.81 17.38 48.82 13.11 50.96C10.65 52.33 8.68 54.42 7.45 56.95C6.23 59.48 5.81 62.32 6.25 65.1C9.26 61.7 12.96 58.97 17.09 57.08C21.22 55.19 25.7 54.18 30.25 54.12L30.57 54.12C30.57 54.12 9.87 61.2 3.87 75.42C3.57 76.22 4.87 77.2 5.87 77.2C6.06 77.21 6.24 77.17 6.4 77.07C6.56 76.97 6.69 76.83 6.77 76.66C7.96 74.18 9.46 71.87 11.23 69.76C13.91 70.8 16.74 71.38 19.61 71.46C22 71.51 24.35 70.81 26.33 69.46C32.55 65.1 31.91 55.38 40.79 50.66C42.07 49.92 34.95 47.92 26.95 47.92L26.89 48Z" />
	</g>
</svg>