<svg version="1.2" baseProfile="tiny-ps" xmlns="http://www.w3.org/2000/svg" viewBox="0 0 116 98" width="116" height="98">
	<title>anti-lag-pdf</title>
	<defs>
		<clipPath clipPathUnits="userSpaceOnUse" id="cp1">
			<path d="M0 0L116 0L116 98L0 98Z" />
		</clipPath>
	</defs>
	<style>
		tspan { white-space:pre }
		.shp0 { fill: #0e1726 } 
		.shp1 { fill: #ffffff } 
		.shp2 { fill: #4361ee } 
	</style>
	<g id="Page 1" clip-path="url(#cp1)">
		<path id="Path 1" fill-rule="evenodd" class="shp0" d="M53.72 0.32C64.93 0.33 75.68 4.79 83.6 12.72C91.53 20.66 95.98 31.41 95.98 42.62C95.98 50.99 93.51 59.18 88.86 66.14C84.21 73.1 77.6 78.53 69.87 81.73C62.14 84.94 53.63 85.78 45.42 84.15C37.21 82.52 29.66 78.49 23.74 72.57C17.82 66.65 13.79 59.11 12.15 50.9C10.52 42.69 11.36 34.18 14.56 26.45C17.76 18.72 23.19 12.1 30.15 7.45C37.11 2.8 45.29 0.32 53.66 0.32L53.72 0.32ZM53.66 5.54C43.83 5.56 34.41 9.47 27.46 16.42C20.51 23.37 16.6 32.79 16.58 42.62C16.58 49.96 18.75 57.13 22.82 63.23C26.89 69.34 32.68 74.09 39.46 76.91C46.24 79.72 53.69 80.46 60.89 79.03C68.09 77.61 74.7 74.08 79.89 68.89C85.08 63.71 88.62 57.1 90.06 49.91C91.5 42.72 90.77 35.26 87.97 28.47C85.17 21.69 80.42 15.9 74.32 11.81C68.23 7.73 61.06 5.55 53.72 5.54L53.66 5.54Z" />
		<path id="Path 2" fill-rule="evenodd" class="shp0" d="M71.4 28.6C71.82 29.12 72.22 29.68 72.6 30.26C72.98 30.86 73.32 31.46 73.66 32.08L73.66 32.22C73.98 32.82 74.26 33.44 74.52 34.06C74.52 34.14 74.52 34.32 74.52 34.32C74.74 34.92 74.96 35.54 75.14 36.16C75.24 36.48 75.28 36.7 75.4 37.16C75.52 37.62 75.54 38.16 75.7 38.56C75.86 38.96 75.86 39.52 75.86 39.76C75.86 40 75.86 40.24 75.86 40.48C75.86 41.14 75.86 41.8 75.86 42.48C75.86 43.36 75.82 44.23 75.72 45.1L75.6 45.78C75.5 46.5 75.38 47.14 75.24 47.78C75.18 48.02 75.04 48.28 75.04 48.52C74.88 49.15 74.68 49.77 74.44 50.38C74.36 50.6 74.2 50.82 74.2 51.04C73.88 51.82 73.52 52.58 73.12 53.34C72.9 53.72 72.64 54.08 72.42 54.46L71.98 55.16C71.78 55.46 71.56 55.74 71.34 56.04L70.64 56.94L70.14 57.48C69.8 57.86 69.48 58.24 69.12 58.58L68.8 58.86C68.36 59.28 67.92 59.7 67.44 60.08L67.28 60.2C66.75 60.62 66.21 61.02 65.64 61.38C65.06 61.76 64.46 62.12 63.84 62.44L63.68 62.44C63.08 62.75 62.47 63.03 61.84 63.28L61.58 63.38C60.98 63.63 60.36 63.84 59.74 64.02L58.74 64.26C58.28 64.38 57.8 64.56 57.34 64.56L56.14 64.74L55.42 64.74C54.74 64.84 54.08 64.84 53.42 64.84C52.54 64.83 51.66 64.77 50.78 64.66L50.1 64.66C49.38 64.56 48.74 64.44 48.1 64.3L47.36 64.1C46.72 63.92 46.12 63.72 45.5 63.5L44.86 63.26C44.07 62.94 43.29 62.58 42.54 62.18C42.19 61.99 41.86 61.79 41.54 61.56C41.26 61.41 40.99 61.25 40.74 61.06C40.46 60.88 40.28 60.7 39.94 60.46C39.6 60.22 39.26 59.98 38.94 59.72L38.46 59.28C38.06 58.92 37.66 58.58 37.3 58.2L37.08 57.94C36.63 57.49 36.21 57.02 35.82 56.52L35.82 56.4C35.4 55.86 34.98 55.3 34.6 54.72C34.21 54.13 33.86 53.53 33.54 52.9C33.54 52.86 33.54 52.76 33.54 52.76C33.24 52.16 32.94 51.54 32.68 50.92C32.69 50.83 32.69 50.75 32.68 50.66C32.44 50.06 32.22 49.44 32.04 48.82C31.94 48.5 31.88 48.28 31.78 47.82C31.68 47.36 31.56 46.82 31.5 46.42C31.44 46.02 31.32 45.46 31.32 45.22C31.32 44.98 31.32 44.74 31.32 44.5C31.22 43.82 31.22 43.16 31.22 42.5C31.22 41.62 31.28 40.74 31.38 39.86C31.38 39.62 31.38 39.4 31.38 39.16C31.48 38.44 31.6 37.8 31.76 37.16L31.94 36.42C32.13 35.78 32.33 35.16 32.54 34.56C32.64 34.34 32.7 34.12 32.8 33.9C33.1 33.11 33.46 32.34 33.88 31.6C34.04 31.3 34.22 31.04 34.42 30.72C34.62 30.4 34.84 30.08 35.02 29.78C35.2 29.48 35.42 29.24 35.62 28.96L36.38 27.98C36.56 27.78 36.56 27.78 36.9 27.4C37.24 27.02 37.58 26.66 37.94 26.3L38.34 25.94C38.77 25.54 39.21 25.16 39.66 24.8L39.94 24.58C40.45 24.18 40.97 23.8 41.52 23.46L41.7 23.34C42.28 22.98 42.88 22.64 43.48 22.34L43.64 22.34C44.36 22.02 44.98 21.74 45.64 21.48L45.82 21.48C46.48 21.24 47.14 21.02 47.82 20.84L47.96 20.84C48.64 20.68 49.3 20.54 49.96 20.42L50.34 20.42C50.9 20.34 51.46 20.22 52.04 20.22L56.36 20.22C56.78 20.26 57.18 20.42 57.6 20.42L58.52 20.56L59.82 20.9L60.62 21.12L61.98 21.62L62.66 21.88L64.16 22.6L64.6 22.82C64.94 23 65.28 23.24 65.62 23.44L66.4 23.92L67.24 24.54C67.56 24.78 67.88 25.02 68.18 25.28C68.36 25.42 68.52 25.58 68.68 25.74C69.08 26.08 69.46 26.42 69.84 26.8L70.08 27.08C70.52 27.52 70.93 27.99 71.32 28.48L71.4 28.6ZM53.26 23.54L53.38 23.7C53.65 23.99 53.9 24.3 54.12 24.62L54.28 24.86C54.54 25.27 54.77 25.71 54.96 26.16L55.08 26.5C55.21 26.87 55.33 27.24 55.42 27.62C55.42 27.74 55.42 27.88 55.42 28.02C55.52 28.52 55.56 29.03 55.56 29.54L55.56 37.76L55.8 37.88L55.98 37.88L61.1 32.76C61.67 32.18 62.1 31.48 62.36 30.71C62.62 29.94 62.69 29.12 62.58 28.32L62.06 25.42C61.93 25.34 61.8 25.27 61.66 25.22C61.22 25.02 60.78 24.82 60.34 24.66L59.64 24.4L58.08 23.96L57.54 23.84C56.88 23.69 56.21 23.58 55.54 23.52C55.04 23.52 53.82 23.52 53.32 23.52L53.26 23.54ZM52.34 41.54C52.25 41.65 52.17 41.77 52.1 41.9C51.92 42.34 51.92 42.82 52.1 43.26C52.16 43.39 52.24 43.5 52.34 43.6C52.45 43.74 52.57 43.86 52.72 43.96C52.82 44.04 52.93 44.12 53.04 44.18C53.25 44.27 53.48 44.32 53.71 44.32C53.94 44.32 54.17 44.27 54.38 44.18L54.7 43.96C54.85 43.85 54.99 43.71 55.1 43.56C55.33 43.28 55.46 42.92 55.46 42.56C55.46 42.2 55.33 41.84 55.1 41.56C54.98 41.41 54.85 41.28 54.7 41.16L54.38 40.96C54.17 40.86 53.94 40.81 53.71 40.81C53.48 40.81 53.25 40.86 53.04 40.96L52.72 41.16C52.57 41.26 52.45 41.38 52.34 41.52L52.34 41.54ZM39.3 30.14L39.16 30.28L40.36 30.28C40.87 30.28 41.38 30.32 41.88 30.42C42.38 30.51 42.87 30.66 43.34 30.86L43.58 30.86C44.04 31.06 44.48 31.3 44.9 31.56L45.1 31.7C45.54 32 45.94 32.33 46.32 32.7L51.46 37.82L51.64 37.82L51.88 37.72L51.88 29.5C51.89 28.53 51.62 27.58 51.11 26.75C50.6 25.93 49.87 25.27 49 24.84L48 24.34C47.13 24.6 46.29 24.93 45.48 25.32C43.9 26.08 42.42 27.05 41.1 28.2L40.84 28.44C40.26 28.96 39.72 29.51 39.22 30.1L39.3 30.14ZM35.18 43.64L35.48 43.28L35.88 42.92L36.22 42.6L36.66 42.3L37.02 42.02L37.5 41.76L37.9 41.54C38.07 41.45 38.24 41.37 38.42 41.3L38.8 41.14L39.38 40.96L39.76 40.84L40.4 40.72C40.51 40.73 40.63 40.73 40.74 40.72C41.08 40.72 48.66 40.72 49 40.72L49 40.48C48.99 40.42 48.99 40.36 49 40.3L43.86 35.18C43.29 34.61 42.59 34.18 41.82 33.92C41.06 33.67 40.24 33.59 39.44 33.7L36.56 34.12L36.36 34.54C36.18 34.94 35.96 35.52 35.86 35.74C35.76 35.96 35.74 35.96 35.6 36.42C35.46 36.88 35.24 37.56 35.2 37.78C35.16 38 35.04 38.2 35.04 38.4C34.92 38.91 34.84 39.44 34.78 39.96C34.78 40.12 34.78 40.28 34.78 40.46C34.7 41.16 34.66 41.86 34.66 42.56C34.66 43.1 34.66 43.64 34.66 44.2L34.96 43.84L35.18 43.64ZM43.24 50.7C43.44 50.43 43.66 50.18 43.9 49.94L49.04 44.82C49.03 44.76 49.03 44.7 49.04 44.64L49.04 44.3L41.8 44.3C40.99 44.31 40.19 44.5 39.46 44.86C38.74 45.23 38.11 45.75 37.62 46.4L35.88 48.74C35.89 48.79 35.89 48.83 35.88 48.88C36.14 49.6 36.44 50.31 36.78 51C36.78 51.07 36.78 51.15 36.78 51.22C37.53 52.67 38.45 54.01 39.54 55.22C39.62 55.34 39.72 55.44 39.82 55.54C40.31 56.08 40.83 56.58 41.38 57.06L41.52 57.18C41.52 57.02 41.52 56.84 41.52 56.7C41.52 56.56 41.52 56.4 41.52 56.24C41.51 56.06 41.51 55.88 41.52 55.7C41.52 55.54 41.52 55.4 41.52 55.26C41.5 55.07 41.5 54.89 41.52 54.7L41.52 54.26C41.56 54.08 41.58 53.82 41.68 53.7C41.78 53.58 41.7 53.52 41.78 53.32C41.86 53.12 41.84 52.88 42 52.76C42.16 52.64 42.16 52.52 42.16 52.38C42.25 52.19 42.35 52.01 42.46 51.84L42.62 51.52C42.74 51.32 42.88 51.14 43.02 50.94L43.2 50.7L43.24 50.7ZM54.74 61.56L55.06 61.56L54.72 61.26L54.36 60.96L54 60.56L53.68 60.22L53.36 59.78L53.1 59.4C53 59.26 52.82 59.1 52.82 58.94C52.75 58.8 52.68 58.67 52.6 58.54C52.52 58.38 52.38 58.2 52.38 58.02L52.2 57.62C52.04 57.44 52.04 57.26 52.04 57.06L51.92 56.68C51.8 56.46 51.8 56.24 51.8 56.04L51.8 55.68C51.78 55.35 51.78 55.01 51.8 54.68L51.8 47.42L51.56 47.32L51.38 47.32L46.24 52.44C45.67 53.01 45.24 53.71 44.99 54.48C44.73 55.24 44.66 56.06 44.78 56.86L45.18 59.76L45.54 59.92C46.1 60.18 46.67 60.42 47.26 60.62C47.4 60.7 47.55 60.76 47.7 60.8C48.44 61.04 49.2 61.24 49.96 61.4L50.42 61.4C51.04 61.5 51.66 61.62 52.28 61.62C53 61.62 54.38 61.62 55.02 61.62L54.74 61.56ZM68.1 55.16L68.24 55C67.89 55.02 67.55 55.02 67.2 55C66.69 54.99 66.18 54.95 65.68 54.86L65.52 54.86C65.02 54.76 64.53 54.61 64.06 54.42L63.82 54.42C63.37 54.21 62.92 53.98 62.5 53.72L62.32 53.58C61.88 53.29 61.47 52.95 61.1 52.58L55.98 47.46L55.78 47.46L55.54 47.56L55.54 54.66C55.53 55.46 55.71 56.26 56.06 56.98C56.4 57.71 56.91 58.34 57.54 58.84L59.88 60.58L60.02 60.58C60.74 60.33 61.45 60.04 62.14 59.7L62.36 59.6C63.8 58.86 65.15 57.94 66.36 56.86L66.68 56.58C67.2 56.09 67.7 55.57 68.18 55.02L68.1 55.16ZM72.22 41.38L71.92 41.74L71.54 42.1L71.18 42.42L70.76 42.74L70.38 43L69.9 43.28L69.52 43.5L69 43.72L68.6 43.9L68.04 44.06L67.64 44.18C67.43 44.23 67.21 44.27 67 44.3L66.66 44.3C66.33 44.32 65.99 44.32 65.66 44.3L58.4 44.3C58.41 44.38 58.41 44.46 58.4 44.54C58.41 44.6 58.41 44.66 58.4 44.72L63.54 49.86C64.11 50.43 64.81 50.86 65.58 51.11C66.34 51.37 67.16 51.44 67.96 51.32L70.84 50.92C70.9 50.78 71.04 50.64 71.04 50.48C71.23 50.1 71.39 49.7 71.54 49.3C71.62 49.08 71.64 49.04 71.8 48.6C71.96 48.16 72.14 47.46 72.2 47.26C72.26 47.06 72.36 46.84 72.36 46.64C72.48 46.13 72.56 45.62 72.62 45.1C72.63 44.93 72.63 44.75 72.62 44.58C72.7 43.92 72.74 43.25 72.74 42.58C72.77 42.03 72.77 41.49 72.74 40.94L72.44 41.28L72.22 41.38ZM71.78 36.44L71.78 36.3C71.53 35.58 71.23 34.87 70.9 34.18L70.78 33.96C70.04 32.52 69.12 31.17 68.04 29.96L67.74 29.64C67.26 29.12 66.74 28.62 66.2 28.14L66.04 28C66.05 28.16 66.05 28.32 66.04 28.48C66.05 28.63 66.05 28.79 66.04 28.94C66.04 29.12 66.04 29.3 66.04 29.48C66.03 29.63 66.03 29.79 66.04 29.94C66.05 30.12 66.05 30.3 66.04 30.48C66.05 30.63 66.05 30.77 66.04 30.92C66 31.1 65.9 31.28 65.9 31.46L65.78 31.88C65.72 32.06 65.56 32.22 65.56 32.4C65.52 32.54 65.47 32.67 65.4 32.8C65.32 32.98 65.14 33.14 65.14 33.3L64.94 33.68C64.84 33.86 64.7 34.02 64.58 34.2L64.36 34.5C64.16 34.77 63.94 35.02 63.7 35.26L58.58 40.38L58.58 40.56C58.59 40.65 58.59 40.73 58.58 40.82L65.88 40.82C66.69 40.81 67.48 40.62 68.21 40.26C68.93 39.89 69.56 39.37 70.04 38.72L71.8 36.42L71.78 36.44ZM106.18 86.32L55.54 86.32L55.54 80.32L103.18 80.32L103.18 56.32L81.84 56.32L81.84 50.32L106.18 50.32C106.98 50.32 107.74 50.64 108.3 51.2C108.86 51.76 109.18 52.52 109.18 53.32L109.18 83.32C109.18 84.12 108.86 84.88 108.3 85.44C107.74 86 106.98 86.32 106.18 86.32Z" />
		<path id="Path 3" fill-rule="evenodd" class="shp0" d="M115.6 52.32L115.6 84.32C115.42 85.5 114.86 86.59 114.01 87.42C113.16 88.26 112.06 88.8 110.88 88.96L109.14 88.96C107.06 88.96 103.6 86.32 103.6 84.32L103.6 52.32C103.6 50.24 107.14 46.42 109.14 46.42L110.88 46.42C112.94 46.42 115.6 50.32 115.6 52.32ZM109.54 50.42C108.72 50.98 108.03 51.73 107.54 52.6L107.54 83.84C108 84.33 108.57 84.72 109.2 84.96L110.62 84.96C111 84.75 111.31 84.45 111.54 84.08L111.54 52.42C111.27 51.66 110.83 50.98 110.26 50.42L109.54 50.42Z" />
		<path id="Path 4" class="shp1" d="M30.58 91.8C26.75 94.52 22.03 95.66 17.38 94.98L5.68 84.12L9.3 71.64L19.2 62.84L23.98 71.28L35.7 81.42L30.58 91.8Z" />
		<path id="Path 5" class="shp2" d="M12.58 93.36C11.38 93.01 10.22 92.53 9.12 91.92L9 91.92L8.9 91.92C-3.62 80.72 2.06 71.92 6.62 64.68C8.74 61.34 10.76 58.18 10.44 55.42L10.12 52.54L12.5 54.2C13.46 54.88 14.37 55.61 15.24 56.4C16.5 53.42 17.56 50.64 16.96 48.66L16.2 46.2L18.62 47.04C21.14 47.81 23.45 49.16 25.37 50.98C27.28 52.8 28.74 55.04 29.64 57.52L29.64 57.04L31.96 58.72C34.14 60.21 35.99 62.15 37.37 64.41C38.74 66.67 39.63 69.19 39.96 71.82C40.25 74.64 39.97 77.49 39.14 80.21C38.3 82.92 36.93 85.43 35.1 87.6C34.5 88.33 33.83 89 33.1 89.6L29.1 92.84L30.96 88.12C32.56 84.12 30.14 80.82 27.8 77.68C26.68 76.31 25.73 74.8 24.98 73.2C24.8 73.42 24.6 73.64 24.44 73.86L23.16 75.56L21.82 72.82C21.07 71.48 20.48 70.06 20.06 68.58C18.53 69.61 17.36 71.08 16.69 72.8C16.03 74.51 15.92 76.39 16.36 78.18L17.5 83.84L14.04 79.22C13.53 78.55 13.08 77.84 12.72 77.08C11.33 78.68 10.53 80.7 10.44 82.82C10.4 84.37 10.66 85.91 11.23 87.35C11.79 88.8 12.64 90.11 13.72 91.22L17.46 95L12.58 93.36Z" />
		<path id="Path 6" fill-rule="evenodd" class="shp1" d="M18.22 47.98C18.24 48.04 18.26 48.11 18.28 48.17C18.24 48.16 18.2 48.15 18.16 48.14L18.22 47.98ZM26.99 54.92C29.01 58.19 29.74 62.08 29.06 65.86C30.36 64.05 31.06 61.87 31.06 59.64C42.04 67.64 39.4 80.34 34 86.62C33.39 87.29 32.72 87.9 32 88.44C35.12 80.44 25.46 75.62 25.64 70.44C24.74 71.13 23.93 71.94 23.24 72.84C22.02 70.36 20.7 68.08 21.24 66.2C18.91 67.09 16.99 68.8 15.84 71.02C14.7 73.23 14.4 75.79 15.02 78.2C14.03 77.09 13.45 75.68 13.38 74.2C12.09 75.26 11.05 76.58 10.31 78.07C9.57 79.57 9.16 81.2 9.1 82.87C9.04 84.53 9.33 86.19 9.96 87.73C10.59 89.28 11.53 90.67 12.74 91.82L12.9 91.96C11.79 91.63 10.72 91.19 9.7 90.64C-7.96 74.86 12.72 64.52 11.7 54.96C13.15 55.96 14.49 57.1 15.7 58.38C17.32 54.47 19.02 51 18.28 48.17C21.9 49.29 25.01 51.68 26.99 54.92ZM14.22 43.82L15.72 48.74C15.91 50.53 15.57 52.34 14.74 53.94C14.26 53.56 13.76 53.2 13.26 52.84L8.52 49.5L9.16 55.26C9.42 57.56 7.54 60.54 5.52 63.68C0.96 70.84 -5.3 80.66 8.06 92.58L8.26 92.76L8.48 92.88C9.66 93.54 10.91 94.07 12.2 94.46L23.32 98L14.76 90L14.64 89.88C12.76 87.89 11.74 85.24 11.8 82.5C11.84 81.33 12.14 80.18 12.68 79.14L13.04 79.62L19.94 88.86L17.68 77.54C17.37 76.3 17.37 74.99 17.68 73.75C17.99 72.5 18.6 71.35 19.46 70.4C19.82 71.3 20.26 72.16 20.7 73.04L21.1 73.86L22.98 77.64L24.8 75.22C25.4 76.2 26.1 77.22 26.8 78.08C29.48 81.68 31.04 84.08 29.78 87.26L26.06 96.7L33.88 90.24C34.67 89.58 35.4 88.87 36.08 88.1C38.02 85.79 39.47 83.11 40.36 80.23C41.24 77.35 41.54 74.32 41.24 71.32C40.89 68.52 39.94 65.82 38.47 63.4C37 60.99 35.03 58.92 32.7 57.32L30.54 55.76C29.49 53.32 27.92 51.14 25.94 49.36C23.96 47.59 21.62 46.26 19.08 45.48L14.22 43.78L14.22 43.82Z" />
	</g>
</svg>