<svg version="1.2" baseProfile="tiny-ps" xmlns="http://www.w3.org/2000/svg" viewBox="0 0 142 83" width="142" height="83">
	<title>dpf-off-pdf</title>
	<defs>
		<clipPath clipPathUnits="userSpaceOnUse" id="cp1">
			<path d="M0 0L142 0L142 83L0 83Z" />
		</clipPath>
	</defs>
	<style>
		tspan { white-space:pre }
		.shp0 { fill: #0e1726 } 
		.shp1 { fill: #ffffff } 
		.shp2 { fill: #4361ee } 
	</style>
	<g id="Page 1" clip-path="url(#cp1)">
		<path id="Path 1" fill-rule="evenodd" class="shp0" d="M114.84 16.44C117.38 19.05 118.8 22.56 118.8 26.2L122 26.2L122 6.2L54 6.2L54 12.2L105.2 12.2C108.84 12.3 112.3 13.82 114.84 16.44ZM128 26.2C129.59 26.2 131.12 26.83 132.24 27.96C133.37 29.08 134 30.61 134 32.2L134 46.2C134 47.79 133.37 49.32 132.24 50.44C131.12 51.57 129.59 52.2 128 52.2L118.8 52.2L118.8 54.2C118.8 57.84 117.38 61.35 114.84 63.96C112.3 66.58 108.84 68.1 105.2 68.2L42 68.2C36.38 68.2 28.38 62.56 25.1 56.34L20.5 55.12C19.54 58.64 16.74 62.2 12.5 62.2C6.96 62.2 3.9 56.16 3.9 52L3.9 28C3.9 24 6.96 18.2 12.5 18.2C14.31 18.28 16.05 18.91 17.48 20.02C18.91 21.13 19.97 22.65 20.5 24.38L25.24 22.96C28.34 16.86 36.58 12.2 42 12.2L48 12.2L48 3.2C48 2.4 48.32 1.64 48.88 1.08C49.44 0.52 50.2 0.2 51 0.2L125 0.2C125.8 0.2 126.56 0.52 127.12 1.08C127.68 1.64 128 2.4 128 3.2L128 26.2L128 26.2ZM42 18.2C37.82 18.2 30 23.62 30 27.8L15.2 32.2L15.2 28C15.2 26.56 14.04 24.2 12.6 24.2C11.16 24.2 10 26.56 10 28L10 52C10 53.44 11.18 56.2 12.6 56.2C14.02 56.2 15.2 53.44 15.2 52L15.2 47.4L30 51.4C30 55.58 37.82 62.2 42 62.2L105.2 62.2C107.25 62.1 109.19 61.21 110.6 59.72C112.01 58.23 112.8 56.25 112.8 54.2L112.8 46.2L128 46.2L128 32.2L125 32.2C125 32.2 125 32.2 125 32.2C125 32.2 125 32.2 125 32.2L112.8 32.2L112.8 26.2C112.8 24.15 112.01 22.17 110.6 20.68C109.19 19.19 107.25 18.3 105.2 18.2L54 18.2L54 39.2C54 40 53.68 40.76 53.12 41.32C52.56 41.88 51.8 42.2 51 42.2L23 42.2C22.2 42.2 21.44 41.88 20.88 41.32C20.32 40.76 20 40 20 39.2C20 38.4 20.32 37.64 20.88 37.08C21.44 36.52 22.2 36.2 23 36.2L48 36.2L48 18.2L42 18.2Z" />
		<path id="Path 2" class="shp1" d="M120 83C132.15 83 142 73.15 142 61C142 48.85 132.15 39 120 39C107.85 39 98 48.85 98 61C98 73.15 107.85 83 120 83Z" />
		<path id="Path 3" fill-rule="evenodd" class="shp2" d="M120 43.84C124.54 43.84 128.9 45.64 132.12 48.85C135.34 52.06 137.15 56.42 137.16 60.96C137.16 64.35 136.15 67.67 134.27 70.49C132.38 73.32 129.7 75.51 126.57 76.81C123.43 78.11 119.98 78.45 116.65 77.79C113.32 77.13 110.27 75.49 107.87 73.09C105.47 70.69 103.83 67.64 103.17 64.31C102.51 60.98 102.85 57.53 104.15 54.39C105.44 51.26 107.64 48.58 110.47 46.69C113.29 44.81 116.61 43.8 120 43.8L120 43.84ZM110.98 51.94C108.58 54.33 107.24 57.58 107.24 60.96C107.24 63.48 107.99 65.95 109.39 68.05C109.46 68.16 109.54 68.27 109.62 68.38L127.42 50.58C127.31 50.5 127.2 50.42 127.09 50.35C124.99 48.95 122.52 48.2 120 48.2C116.62 48.2 113.37 49.54 110.98 51.94ZM115.12 72.75C117.45 73.71 120.01 73.97 122.49 73.47C124.96 72.98 127.24 71.77 129.02 69.98C130.81 68.2 132.02 65.92 132.51 63.45C133.01 60.97 132.75 58.41 131.79 56.08C131.39 55.1 130.87 54.19 130.24 53.35L112.39 71.2C113.23 71.83 114.14 72.35 115.12 72.75Z" />
		<path id="Path 4" class="shp0" d="M7.2 27.4L0 27.4L0 31.4L7.2 31.4L7.2 27.4ZM7.2 37.4L0 37.4L0 41.4L7.2 41.4L7.2 37.4ZM7.2 47.8L0 47.8L0 51.8L7.2 51.8L7.2 47.8Z" />
	</g>
</svg>