<svg width="61" height="44" viewBox="0 0 61 44" fill="none" xmlns="http://www.w3.org/2000/svg">
<path d="M57.52 3H48.09C47.3085 1.93216 46.4424 0.92892 45.5 0L14.43 0C13.4871 0.931357 12.6179 1.93436 11.83 3H2.47999C0.559986 3 -0.630014 6.34 0.349986 8L2.99999 12L6.99999 19C7.28489 24.8746 9.84473 30.4077 14.1376 34.4281C18.4304 38.4484 24.1194 40.6404 30 40.54C32.5023 40.5441 34.9885 40.1387 37.36 39.34C37.4931 39.4568 37.6371 39.5606 37.79 39.65L49.92 31.09V30.85C49.8703 30.4549 49.7263 30.0776 49.5 29.75C51.5408 26.5209 52.7057 22.816 52.88 19L57 12L59.66 8C60.63 6.34 59.44 3 57.52 3ZM4.32999 9.37C3.90038 9.37198 3.47985 9.2464 3.12169 9.00916C2.76352 8.77192 2.48383 8.43371 2.31805 8.03738C2.15227 7.64104 2.10787 7.20441 2.19047 6.78282C2.27307 6.36122 2.47895 5.97363 2.78202 5.66915C3.0851 5.36467 3.47174 5.157 3.89295 5.07246C4.31416 4.98791 4.75098 5.0303 5.14808 5.19424C5.54518 5.35819 5.88468 5.63631 6.12357 5.99338C6.36246 6.35045 6.48998 6.77039 6.48999 7.2C6.48999 7.77379 6.26274 8.32423 5.85795 8.7309C5.45315 9.13756 4.90377 9.36736 4.32999 9.37V9.37ZM28.66 36.37C25.1212 36.1116 21.7352 34.8239 18.9191 32.6654C16.1029 30.5069 13.9796 27.5719 12.8104 24.2218C11.6413 20.8718 11.4775 17.2529 12.3392 13.8109C13.2008 10.3689 15.0504 7.25409 17.66 4.85H25.9V17.51H28.67L28.66 36.37ZM31.09 36.37V17.51H33.69V4.84H42.28C44.9052 7.25325 46.7627 10.3852 47.6214 13.8462C48.4801 17.3071 48.3021 20.9441 47.1094 24.3046C45.9168 27.6651 43.7622 30.6007 40.9139 32.746C38.0655 34.8913 34.6492 36.1516 31.09 36.37V36.37ZM55.67 9.37C55.2408 9.37 54.8213 9.24273 54.4644 9.00429C54.1075 8.76585 53.8294 8.42694 53.6652 8.03042C53.5009 7.63391 53.4579 7.19759 53.5417 6.77665C53.6254 6.35571 53.8321 5.96906 54.1356 5.66558C54.439 5.3621 54.8257 5.15543 55.2466 5.0717C55.6676 4.98797 56.1039 5.03094 56.5004 5.19518C56.8969 5.35942 57.2358 5.63756 57.4743 5.99441C57.7127 6.35127 57.84 6.77081 57.84 7.2C57.8413 7.48534 57.7861 7.76811 57.6775 8.03199C57.5689 8.29586 57.4091 8.53561 57.2074 8.73737C57.0056 8.93914 56.7658 9.09893 56.502 9.20752C56.2381 9.3161 55.9553 9.37132 55.67 9.37V9.37Z" fill="#0E1726"/>
<path d="M45.58 43.29C51.7048 43.29 56.67 38.3248 56.67 32.2C56.67 26.0752 51.7048 21.11 45.58 21.11C39.4552 21.11 34.49 26.0752 34.49 32.2C34.49 38.3248 39.4552 43.29 45.58 43.29Z" fill="white"/>
<path d="M45.58 25.77C46.8546 25.768 48.101 26.1443 49.1616 26.8512C50.2222 27.558 51.0492 28.5637 51.5379 29.7409C52.0265 30.9181 52.1549 32.2138 51.9067 33.4639C51.6586 34.7141 51.045 35.8625 50.1438 36.7638C49.2425 37.665 48.0941 38.2786 46.8439 38.5267C45.5938 38.7749 44.2981 38.6465 43.1209 38.1579C41.9437 37.6692 40.938 36.8422 40.2312 35.7816C39.5243 34.7211 39.148 33.4746 39.15 32.2C39.1526 30.4955 39.8309 28.8615 41.0362 27.6562C42.2415 26.4509 43.8755 25.7726 45.58 25.77V25.77ZM45.58 23.55C43.8692 23.55 42.1968 24.0573 40.7743 25.0078C39.3518 25.9583 38.2431 27.3092 37.5884 28.8898C36.9337 30.4704 36.7624 32.2096 37.0962 33.8875C37.43 35.5655 38.2538 37.1068 39.4635 38.3165C40.6732 39.5262 42.2145 40.35 43.8925 40.6838C45.5704 41.0176 47.3096 40.8463 48.8902 40.1916C50.4708 39.5369 51.8217 38.4282 52.7722 37.0057C53.7227 35.5832 54.23 33.9108 54.23 32.2C54.23 29.9059 53.3187 27.7057 51.6965 26.0835C50.0743 24.4613 47.8741 23.55 45.58 23.55Z" fill="#4361EE"/>
<path d="M51.6817 27.4068L50.2675 25.9926L39.2578 37.0022L40.672 38.4165L51.6817 27.4068Z" fill="#4361EE"/>
</svg>
