<svg version="1.2" baseProfile="tiny-ps" xmlns="http://www.w3.org/2000/svg" viewBox="0 0 128 83" width="128" height="83">
	<title>flaps-pdf</title>
	<defs>
		<clipPath clipPathUnits="userSpaceOnUse" id="cp1">
			<path d="M0 0L128 0L128 83L0 83Z" />
		</clipPath>
	</defs>
	<style>
		tspan { white-space:pre }
		.shp0 { fill: #0e1726 } 
		.shp1 { fill: #ffffff } 
		.shp2 { fill: #4361ee } 
	</style>
	<g id="Page 1" clip-path="url(#cp1)">
		<path id="Path 1" fill-rule="evenodd" class="shp0" d="M113.6 21.82C115.08 23.31 115.94 25.32 116 27.42L115.73 33.66L119.86 33.66C121.21 33.66 122.3 34.75 122.3 36.1L122.3 39.38C122.3 40.73 121.21 41.82 119.86 41.82L115.37 41.82L114.96 51.2C114.97 53.3 114.18 55.33 112.74 56.86C111.29 58.39 109.32 59.31 107.22 59.42L52.18 59.42C50.04 59.32 48.01 58.42 46.49 56.9C44.98 55.38 44.09 53.35 44 51.2L44 27.42C44.1 25.3 44.99 23.29 46.51 21.81C48.03 20.32 50.06 19.47 52.18 19.42L108 19.42C110.1 19.48 112.11 20.34 113.6 21.82ZM52.18 25.42C51.65 25.47 51.15 25.69 50.75 26.05C50.36 26.41 50.09 26.89 50 27.42L50 51.2C50.07 51.77 50.32 52.3 50.71 52.71C51.1 53.12 51.62 53.4 52.18 53.5L107.22 53.5C107.72 53.38 108.16 53.09 108.47 52.69C108.79 52.29 108.96 51.79 108.96 51.28L108.96 51.02L110 27.42C109.94 26.91 109.72 26.43 109.35 26.07C108.99 25.7 108.51 25.48 108 25.42L52.18 25.42ZM35.45 59.01C35.24 58.77 35.12 58.46 35.12 58.14L35.12 21.42C35.12 20.74 35.66 19.42 36.34 19.42L40 19.42C40.68 19.42 41.24 20.74 41.24 21.42L41.24 58.14C41.24 58.47 41.1 58.79 40.87 59.03C40.64 59.26 40.33 59.4 40 59.42L36.28 59.42C35.96 59.39 35.67 59.24 35.45 59.01ZM91.3 37.54C91.3 35.4 93.04 33.66 95.18 33.66C97.32 33.66 99.06 35.4 99.06 37.54C99.06 39.68 97.32 41.42 95.18 41.42C93.04 41.42 91.3 39.68 91.3 37.54ZM60.74 37.54C60.74 35.4 62.48 33.66 64.62 33.66C66.76 33.66 68.5 35.4 68.5 37.54C68.5 39.68 66.76 41.42 64.62 41.42C62.48 41.42 60.74 39.68 60.74 37.54Z" />
		<path id="Path 2" class="shp1" d="M107.62 83C118.88 83 128 73.88 128 62.62C128 51.36 118.88 42.24 107.62 42.24C96.36 42.24 87.24 51.36 87.24 62.62C87.24 73.88 96.36 83 107.62 83Z" />
		<path id="Path 3" fill-rule="evenodd" class="shp2" d="M107.62 46.9C111.83 46.93 115.86 48.61 118.83 51.59C121.81 54.56 123.49 58.59 123.52 62.8C123.52 65.97 122.58 69.07 120.82 71.7C119.05 74.33 116.55 76.38 113.62 77.59C110.69 78.8 107.47 79.11 104.36 78.48C101.26 77.86 98.4 76.33 96.17 74.08C93.94 71.83 92.42 68.97 91.82 65.86C91.21 62.75 91.54 59.53 92.77 56.61C93.99 53.69 96.06 51.19 98.7 49.45C101.35 47.7 104.45 46.78 107.62 46.8L107.62 46.9ZM99.27 54.27C97.05 56.48 95.81 59.49 95.8 62.62C95.8 64.96 96.49 67.24 97.79 69.19C97.85 69.28 97.92 69.37 97.98 69.46L114.46 52.98C114.37 52.92 114.28 52.85 114.19 52.79C112.24 51.49 109.96 50.8 107.62 50.8C104.49 50.81 101.48 52.05 99.27 54.27ZM103.1 73.54C105.26 74.43 107.63 74.67 109.93 74.21C112.22 73.76 114.32 72.63 115.98 70.98C117.63 69.32 118.76 67.22 119.21 64.93C119.67 62.63 119.43 60.26 118.54 58.1C118.16 57.19 117.68 56.33 117.09 55.55L100.55 72.09C101.33 72.68 102.19 73.16 103.1 73.54Z" />
		<path id="Path 4" fill-rule="evenodd" class="shp0" d="M33.82 56.5C33.82 58.08 32.54 59.36 30.97 59.36C29.4 59.36 28.12 58.08 28.12 56.5L28.12 22.28C28.12 20.7 29.4 19.42 30.97 19.42C32.54 19.42 33.82 20.7 33.82 22.28L33.82 56.5ZM26.18 18.53C26.64 18.97 26.9 19.58 26.92 20.22L26.92 56.96C26.92 57.61 26.66 58.23 26.21 58.69C25.75 59.15 25.13 59.41 24.48 59.42L24.16 59.42L22 66.58L19.82 73.84C19.33 75.12 18.72 76.35 18 77.52L11.54 77.52C10.8 77.52 10 75.38 9.54 73.84L7.34 66.48L5.2 59.32L2 59.32C1.47 59.32 0.96 59.11 0.59 58.73C0.21 58.36 0 57.85 0 57.32L0 19.78C0 19.25 0.21 18.74 0.59 18.37C0.96 17.99 1.47 17.78 2 17.78L5.04 17.78C5.1 17.35 5.18 16.92 5.3 16.5L7.44 9.34L9.6 2.16C9.98 0.62 10.78 -0.16 11.6 -0.16L18 -0.16C18.74 0.02 19.42 0.78 19.86 2.16L22 9.34L24.2 16.56C24.32 16.98 24.4 17.41 24.46 17.84C25.1 17.83 25.72 18.08 26.18 18.53ZM17.74 4.82C16.98 4.82 16.38 6.68 16.38 8.88C16.38 11.08 17 12.88 17.74 12.88C18.48 12.88 19.08 11.08 19.08 8.88C19.08 6.68 18.48 4.88 17.74 4.88L17.74 4.82ZM17.74 71.1C18.48 71.1 19.08 69.36 19.08 67.16C19.08 64.96 18.5 63.16 17.74 63.16C16.98 63.16 16.38 64.98 16.38 67.16C16.38 69.34 16.98 71.16 17.74 71.16L17.74 71.1Z" />
	</g>
</svg>