<?xml version="1.0" encoding="iso-8859-1"?>
<!-- Generator: Adobe Illustrator 19.0.0, SVG Export Plug-In . SVG Version: 6.00 Build 0)  -->
<svg version="1.1" id="Layer_1" xmlns="http://www.w3.org/2000/svg" xmlns:xlink="http://www.w3.org/1999/xlink" x="0px" y="0px"
	 viewBox="0 0 512 512" style="enable-background:new 0 0 512 512;" xml:space="preserve">
<g>
	<g>
		<circle cx="150.261" cy="389.565" r="16.696"/>
	</g>
</g>
<g>
	<g>
		<path d="M495.304,372.87h-61.217V122.435c0-46.032-37.446-83.478-83.478-83.478H83.478C37.446,38.957,0,76.403,0,122.435v267.13
			c0,9.217,7.473,16.696,16.696,16.696h51.77c7.756,38.058,41.48,66.783,81.795,66.783s74.04-28.724,81.795-66.783
			c88.487,0,158.017,0,246.553,0v16.696c0,9.217,7.479,16.696,16.696,16.696c9.217,0,16.696-7.479,16.696-16.696v-33.391
			C512,380.348,504.521,372.87,495.304,372.87z M150.261,439.652c-27.619,0-50.087-22.468-50.087-50.087
			c0-27.619,22.468-50.087,50.087-50.087c27.619,0,50.087,22.468,50.087,50.087C200.348,417.184,177.88,439.652,150.261,439.652z
			 M200.348,256c0,9.217-7.473,16.696-16.696,16.696H83.478c-9.223,0-16.696-7.479-16.696-16.696v-66.783
			c0-9.217,7.473-16.696,16.696-16.696h100.174c9.223,0,16.696,7.479,16.696,16.696V256z M116.87,139.13
			c-9.223,0-16.696-7.479-16.696-16.696c0-9.217,7.473-16.696,16.696-16.696h200.348c9.223,0,16.696,7.479,16.696,16.696
			c0,9.217-7.473,16.696-16.696,16.696H116.87z M367.304,372.87c-49.075,0-84.644,0-133.565,0V189.217
			c0-9.217,7.473-16.696,16.696-16.696c10.626,0,87.2,0,100.174,0c9.223,0,16.696,7.479,16.696,16.696V372.87z"/>
	</g>
</g>
<g>
</g>
<g>
</g>
<g>
</g>
<g>
</g>
<g>
</g>
<g>
</g>
<g>
</g>
<g>
</g>
<g>
</g>
<g>
</g>
<g>
</g>
<g>
</g>
<g>
</g>
<g>
</g>
<g>
</g>
</svg>
