<svg width="162" height="122" viewBox="0 0 162 122" fill="none" xmlns="http://www.w3.org/2000/svg">
<mask id="mask0_1701_173" style="mask-type:luminance" maskUnits="userSpaceOnUse" x="23" y="12" width="116" height="98">
<path d="M23 12H139V110H23V12Z" fill="white"/>
</mask>
<g mask="url(#mask0_1701_173)">
<path fill-rule="evenodd" clip-rule="evenodd" d="M76.7196 12.3203C87.9296 12.3303 98.6796 16.7903 106.6 24.7203C114.53 32.6603 118.98 43.4103 118.98 54.6203C118.98 62.9903 116.51 71.1803 111.86 78.1403C107.21 85.1003 100.6 90.5303 92.8696 93.7303C85.1396 96.9403 76.6296 97.7803 68.4196 96.1503C60.2096 94.5203 52.6596 90.4903 46.7396 84.5703C40.8196 78.6503 36.7896 71.1103 35.1496 62.9003C33.5196 54.6903 34.3596 46.1803 37.5596 38.4503C40.7596 30.7203 46.1896 24.1003 53.1496 19.4503C60.1096 14.8003 68.2896 12.3203 76.6596 12.3203H76.7196ZM76.6596 17.5403C66.8296 17.5603 57.4096 21.4703 50.4596 28.4203C43.5096 35.3703 39.5996 44.7903 39.5796 54.6203C39.5796 61.9603 41.7496 69.1303 45.8196 75.2303C49.8896 81.3403 55.6796 86.0903 62.4596 88.9103C69.2396 91.7203 76.6896 92.4603 83.8896 91.0303C91.0896 89.6103 97.6996 86.0803 102.89 80.8903C108.08 75.7103 111.62 69.1003 113.06 61.9103C114.5 54.7203 113.77 47.2603 110.97 40.4703C108.17 33.6903 103.42 27.9003 97.3196 23.8103C91.2296 19.7303 84.0596 17.5503 76.7196 17.5403H76.6596Z" fill="white"/>
<path fill-rule="evenodd" clip-rule="evenodd" d="M94.3997 40.6007C94.8197 41.1207 95.2197 41.6807 95.5997 42.2607C95.9797 42.8607 96.3197 43.4607 96.6597 44.0807V44.2207C96.9797 44.8207 97.2597 45.4407 97.5197 46.0607C97.5197 46.1407 97.5197 46.3207 97.5197 46.3207C97.7397 46.9207 97.9597 47.5407 98.1397 48.1607C98.2397 48.4807 98.2797 48.7007 98.3997 49.1607C98.5197 49.6207 98.5397 50.1607 98.6997 50.5607C98.8597 50.9607 98.8597 51.5207 98.8597 51.7607C98.8597 52.0007 98.8597 52.2407 98.8597 52.4807C98.8597 53.1407 98.8597 53.8007 98.8597 54.4807C98.8597 55.3607 98.8197 56.2307 98.7197 57.1007L98.5997 57.7807C98.4997 58.5007 98.3797 59.1407 98.2397 59.7807C98.1797 60.0207 98.0397 60.2807 98.0397 60.5207C97.8797 61.1507 97.6797 61.7707 97.4397 62.3807C97.3597 62.6007 97.1997 62.8207 97.1997 63.0407C96.8797 63.8207 96.5197 64.5807 96.1197 65.3407C95.8997 65.7207 95.6397 66.0807 95.4197 66.4607L94.9797 67.1607C94.7797 67.4607 94.5597 67.7407 94.3397 68.0407L93.6397 68.9407L93.1397 69.4807C92.7997 69.8607 92.4797 70.2407 92.1197 70.5807L91.7997 70.8607C91.3597 71.2807 90.9197 71.7007 90.4397 72.0807L90.2797 72.2007C89.7497 72.6207 89.2097 73.0207 88.6397 73.3807C88.0597 73.7607 87.4597 74.1207 86.8397 74.4407H86.6797C86.0797 74.7507 85.4697 75.0307 84.8397 75.2807L84.5797 75.3807C83.9797 75.6307 83.3597 75.8407 82.7397 76.0207L81.7397 76.2607C81.2797 76.3807 80.7997 76.5607 80.3397 76.5607L79.1397 76.7407H78.4197C77.7397 76.8407 77.0797 76.8407 76.4197 76.8407C75.5397 76.8307 74.6597 76.7707 73.7797 76.6607H73.0997C72.3797 76.5607 71.7397 76.4407 71.0997 76.3007L70.3597 76.1007C69.7197 75.9207 69.1197 75.7207 68.4997 75.5007L67.8597 75.2607C67.0697 74.9407 66.2897 74.5807 65.5397 74.1807C65.1897 73.9907 64.8597 73.7907 64.5397 73.5607C64.2597 73.4107 63.9897 73.2507 63.7397 73.0607C63.4597 72.8807 63.2797 72.7007 62.9397 72.4607C62.5997 72.2207 62.2597 71.9807 61.9397 71.7207L61.4597 71.2807C61.0597 70.9207 60.6597 70.5807 60.2997 70.2007L60.0797 69.9407C59.6297 69.4907 59.2097 69.0207 58.8197 68.5207V68.4007C58.3997 67.8607 57.9797 67.3007 57.5997 66.7207C57.2097 66.1307 56.8597 65.5307 56.5397 64.9007C56.5397 64.8607 56.5397 64.7607 56.5397 64.7607C56.2397 64.1607 55.9397 63.5407 55.6797 62.9207C55.6897 62.8307 55.6897 62.7507 55.6797 62.6607C55.4397 62.0607 55.2197 61.4407 55.0397 60.8207C54.9397 60.5007 54.8797 60.2807 54.7797 59.8207C54.6797 59.3607 54.5597 58.8207 54.4997 58.4207C54.4397 58.0207 54.3197 57.4607 54.3197 57.2207C54.3197 56.9807 54.3197 56.7407 54.3197 56.5007C54.2197 55.8207 54.2197 55.1607 54.2197 54.5007C54.2197 53.6207 54.2797 52.7407 54.3797 51.8607C54.3797 51.6207 54.3797 51.4007 54.3797 51.1607C54.4797 50.4407 54.5997 49.8007 54.7597 49.1607L54.9397 48.4207C55.1297 47.7807 55.3297 47.1607 55.5397 46.5607C55.6397 46.3407 55.6997 46.1207 55.7997 45.9007C56.0997 45.1107 56.4597 44.3407 56.8797 43.6007C57.0397 43.3007 57.2197 43.0407 57.4197 42.7207C57.6197 42.4007 57.8397 42.0807 58.0197 41.7807C58.1997 41.4807 58.4197 41.2407 58.6197 40.9607L59.3797 39.9807C59.5597 39.7807 59.5597 39.7807 59.8997 39.4007C60.2397 39.0207 60.5797 38.6607 60.9397 38.3007L61.3397 37.9407C61.7697 37.5407 62.2097 37.1607 62.6597 36.8007L62.9397 36.5807C63.4497 36.1807 63.9697 35.8007 64.5197 35.4607L64.6997 35.3407C65.2797 34.9807 65.8797 34.6407 66.4797 34.3407H66.6397C67.3597 34.0207 67.9797 33.7407 68.6397 33.4807H68.8197C69.4797 33.2407 70.1397 33.0207 70.8197 32.8407H70.9597C71.6397 32.6807 72.2997 32.5407 72.9597 32.4207H73.3397C73.8997 32.3407 74.4597 32.2207 75.0397 32.2207H79.3597C79.7797 32.2607 80.1797 32.4207 80.5997 32.4207L81.5197 32.5607L82.8197 32.9007L83.6197 33.1207L84.9797 33.6207L85.6597 33.8807L87.1597 34.6007L87.5997 34.8207C87.9397 35.0007 88.2797 35.2407 88.6197 35.4407L89.3997 35.9207L90.2397 36.5407C90.5597 36.7807 90.8797 37.0207 91.1797 37.2807C91.3597 37.4207 91.5197 37.5807 91.6797 37.7407C92.0797 38.0807 92.4597 38.4207 92.8397 38.8007L93.0797 39.0807C93.5197 39.5207 93.9297 39.9907 94.3197 40.4807L94.3997 40.6007ZM76.2597 35.5407L76.3797 35.7007C76.6497 35.9907 76.8997 36.3007 77.1197 36.6207L77.2797 36.8607C77.5397 37.2707 77.7697 37.7107 77.9597 38.1607L78.0797 38.5007C78.2097 38.8707 78.3297 39.2407 78.4197 39.6207C78.4197 39.7407 78.4197 39.8807 78.4197 40.0207C78.5197 40.5207 78.5597 41.0307 78.5597 41.5407V49.7607L78.7997 49.8807H78.9797L84.0997 44.7607C84.6697 44.1807 85.0997 43.4807 85.3597 42.7107C85.6197 41.9407 85.6897 41.1207 85.5797 40.3207L85.0597 37.4207C84.9297 37.3407 84.7997 37.2707 84.6597 37.2207C84.2197 37.0207 83.7797 36.8207 83.3397 36.6607L82.6397 36.4007L81.0797 35.9607L80.5397 35.8407C79.8797 35.6907 79.2097 35.5807 78.5397 35.5207C78.0397 35.5207 76.8197 35.5207 76.3197 35.5207L76.2597 35.5407ZM75.3397 53.5407C75.2497 53.6507 75.1697 53.7707 75.0997 53.9007C74.9197 54.3407 74.9197 54.8207 75.0997 55.2607C75.1597 55.3907 75.2397 55.5007 75.3397 55.6007C75.4497 55.7407 75.5697 55.8607 75.7197 55.9607C75.8197 56.0407 75.9297 56.1207 76.0397 56.1807C76.2497 56.2707 76.4797 56.3207 76.7097 56.3207C76.9397 56.3207 77.1697 56.2707 77.3797 56.1807L77.6997 55.9607C77.8497 55.8507 77.9897 55.7107 78.0997 55.5607C78.3297 55.2807 78.4597 54.9207 78.4597 54.5607C78.4597 54.2007 78.3297 53.8407 78.0997 53.5607C77.9797 53.4107 77.8497 53.2807 77.6997 53.1607L77.3797 52.9607C77.1697 52.8607 76.9397 52.8107 76.7097 52.8107C76.4797 52.8107 76.2497 52.8607 76.0397 52.9607L75.7197 53.1607C75.5697 53.2607 75.4497 53.3807 75.3397 53.5207V53.5407ZM62.2997 42.1407L62.1597 42.2807H63.3597C63.8697 42.2807 64.3797 42.3207 64.8797 42.4207C65.3797 42.5107 65.8697 42.6607 66.3397 42.8607H66.5797C67.0397 43.0607 67.4797 43.3007 67.8997 43.5607L68.0997 43.7007C68.5397 44.0007 68.9397 44.3307 69.3197 44.7007L74.4597 49.8207H74.6397L74.8797 49.7207V41.5007C74.8897 40.5307 74.6197 39.5807 74.1097 38.7507C73.5997 37.9307 72.8697 37.2707 71.9997 36.8407L70.9997 36.3407C70.1297 36.6007 69.2897 36.9307 68.4797 37.3207C66.8997 38.0807 65.4197 39.0507 64.0997 40.2007L63.8397 40.4407C63.2597 40.9607 62.7197 41.5107 62.2197 42.1007L62.2997 42.1407ZM58.1797 55.6407L58.4797 55.2807L58.8797 54.9207L59.2197 54.6007L59.6597 54.3007L60.0197 54.0207L60.4997 53.7607L60.8997 53.5407C61.0697 53.4507 61.2397 53.3707 61.4197 53.3007L61.7997 53.1407L62.3797 52.9607L62.7597 52.8407L63.3997 52.7207C63.5097 52.7307 63.6297 52.7307 63.7397 52.7207C64.0797 52.7207 71.6597 52.7207 71.9997 52.7207V52.4807C71.9897 52.4207 71.9897 52.3607 71.9997 52.3007L66.8597 47.1807C66.2897 46.6107 65.5897 46.1807 64.8197 45.9207C64.0597 45.6707 63.2397 45.5907 62.4397 45.7007L59.5597 46.1207L59.3597 46.5407C59.1797 46.9407 58.9597 47.5207 58.8597 47.7407C58.7597 47.9607 58.7397 47.9607 58.5997 48.4207C58.4597 48.8807 58.2397 49.5607 58.1997 49.7807C58.1597 50.0007 58.0397 50.2007 58.0397 50.4007C57.9197 50.9107 57.8397 51.4407 57.7797 51.9607C57.7797 52.1207 57.7797 52.2807 57.7797 52.4607C57.6997 53.1607 57.6597 53.8607 57.6597 54.5607C57.6597 55.1007 57.6597 55.6407 57.6597 56.2007L57.9597 55.8407L58.1797 55.6407ZM66.2397 62.7007C66.4397 62.4307 66.6597 62.1807 66.8997 61.9407L72.0397 56.8207C72.0297 56.7607 72.0297 56.7007 72.0397 56.6407V56.3007H64.7997C63.9897 56.3107 63.1897 56.5007 62.4597 56.8607C61.7397 57.2307 61.1097 57.7507 60.6197 58.4007L58.8797 60.7407C58.8897 60.7907 58.8897 60.8307 58.8797 60.8807C59.1397 61.6007 59.4397 62.3107 59.7797 63.0007C59.7797 63.0707 59.7797 63.1507 59.7797 63.2207C60.5297 64.6707 61.4497 66.0107 62.5397 67.2207C62.6197 67.3407 62.7197 67.4407 62.8197 67.5407C63.3097 68.0807 63.8297 68.5807 64.3797 69.0607L64.5197 69.1807C64.5197 69.0207 64.5197 68.8407 64.5197 68.7007C64.5197 68.5607 64.5197 68.4007 64.5197 68.2407C64.5097 68.0607 64.5097 67.8807 64.5197 67.7007C64.5197 67.5407 64.5197 67.4007 64.5197 67.2607C64.4997 67.0707 64.4997 66.8907 64.5197 66.7007V66.2607C64.5597 66.0807 64.5797 65.8207 64.6797 65.7007C64.7797 65.5807 64.6997 65.5207 64.7797 65.3207C64.8597 65.1207 64.8397 64.8807 64.9997 64.7607C65.1597 64.6407 65.1597 64.5207 65.1597 64.3807C65.2497 64.1907 65.3497 64.0107 65.4597 63.8407L65.6197 63.5207C65.7397 63.3207 65.8797 63.1407 66.0197 62.9407L66.1997 62.7007H66.2397ZM77.7397 73.5607H78.0597L77.7197 73.2607L77.3597 72.9607L76.9997 72.5607L76.6797 72.2207L76.3597 71.7807L76.0997 71.4007C75.9997 71.2607 75.8197 71.1007 75.8197 70.9407C75.7497 70.8007 75.6797 70.6707 75.5997 70.5407C75.5197 70.3807 75.3797 70.2007 75.3797 70.0207L75.1997 69.6207C75.0397 69.4407 75.0397 69.2607 75.0397 69.0607L74.9197 68.6807C74.7997 68.4607 74.7997 68.2407 74.7997 68.0407V67.6807C74.7797 67.3507 74.7797 67.0107 74.7997 66.6807V59.4207L74.5597 59.3207H74.3797L69.2397 64.4407C68.6697 65.0107 68.2397 65.7107 67.9897 66.4807C67.7297 67.2407 67.6597 68.0607 67.7797 68.8607L68.1797 71.7607L68.5397 71.9207C69.0997 72.1807 69.6697 72.4207 70.2597 72.6207C70.3997 72.7007 70.5497 72.7607 70.6997 72.8007C71.4397 73.0407 72.1997 73.2407 72.9597 73.4007H73.4197C74.0397 73.5007 74.6597 73.6207 75.2797 73.6207C75.9997 73.6207 77.3797 73.6207 78.0197 73.6207L77.7397 73.5607ZM91.0997 67.1607L91.2397 67.0007C90.8897 67.0207 90.5497 67.0207 90.1997 67.0007C89.6897 66.9907 89.1797 66.9507 88.6797 66.8607H88.5197C88.0197 66.7607 87.5297 66.6107 87.0597 66.4207H86.8197C86.3697 66.2107 85.9197 65.9807 85.4997 65.7207L85.3197 65.5807C84.8797 65.2907 84.4697 64.9507 84.0997 64.5807L78.9797 59.4607H78.7797L78.5397 59.5607V66.6607C78.5297 67.4607 78.7097 68.2607 79.0597 68.9807C79.3997 69.7107 79.9097 70.3407 80.5397 70.8407L82.8797 72.5807H83.0197C83.7397 72.3307 84.4497 72.0407 85.1397 71.7007L85.3597 71.6007C86.7997 70.8607 88.1497 69.9407 89.3597 68.8607L89.6797 68.5807C90.1997 68.0907 90.6997 67.5707 91.1797 67.0207L91.0997 67.1607ZM95.2197 53.3807L94.9197 53.7407L94.5397 54.1007L94.1797 54.4207L93.7597 54.7407L93.3797 55.0007L92.8997 55.2807L92.5197 55.5007L91.9997 55.7207L91.5997 55.9007L91.0397 56.0607L90.6397 56.1807C90.4297 56.2307 90.2097 56.2707 89.9997 56.3007H89.6597C89.3297 56.3207 88.9897 56.3207 88.6597 56.3007H81.3997C81.4097 56.3807 81.4097 56.4607 81.3997 56.5407C81.4097 56.6007 81.4097 56.6607 81.3997 56.7207L86.5397 61.8607C87.1097 62.4307 87.8097 62.8607 88.5797 63.1107C89.3397 63.3707 90.1597 63.4407 90.9597 63.3207L93.8397 62.9207C93.8997 62.7807 94.0397 62.6407 94.0397 62.4807C94.2297 62.1007 94.3897 61.7007 94.5397 61.3007C94.6197 61.0807 94.6397 61.0407 94.7997 60.6007C94.9597 60.1607 95.1397 59.4607 95.1997 59.2607C95.2597 59.0607 95.3597 58.8407 95.3597 58.6407C95.4797 58.1307 95.5597 57.6207 95.6197 57.1007C95.6297 56.9307 95.6297 56.7507 95.6197 56.5807C95.6997 55.9207 95.7397 55.2507 95.7397 54.5807C95.7697 54.0307 95.7697 53.4907 95.7397 52.9407L95.4397 53.2807L95.2197 53.3807ZM94.7797 48.4407V48.3007C94.5297 47.5807 94.2297 46.8707 93.8997 46.1807L93.7797 45.9607C93.0397 44.5207 92.1197 43.1707 91.0397 41.9607L90.7397 41.6407C90.2597 41.1207 89.7397 40.6207 89.1997 40.1407L89.0397 40.0007C89.0497 40.1607 89.0497 40.3207 89.0397 40.4807C89.0497 40.6307 89.0497 40.7907 89.0397 40.9407C89.0397 41.1207 89.0397 41.3007 89.0397 41.4807C89.0297 41.6307 89.0297 41.7907 89.0397 41.9407C89.0497 42.1207 89.0497 42.3007 89.0397 42.4807C89.0497 42.6307 89.0497 42.7707 89.0397 42.9207C88.9997 43.1007 88.8997 43.2807 88.8997 43.4607L88.7797 43.8807C88.7197 44.0607 88.5597 44.2207 88.5597 44.4007C88.5197 44.5407 88.4697 44.6707 88.3997 44.8007C88.3197 44.9807 88.1397 45.1407 88.1397 45.3007L87.9397 45.6807C87.8397 45.8607 87.6997 46.0207 87.5797 46.2007L87.3597 46.5007C87.1597 46.7707 86.9397 47.0207 86.6997 47.2607L81.5797 52.3807V52.5607C81.5897 52.6507 81.5897 52.7307 81.5797 52.8207H88.8797C89.6897 52.8107 90.4797 52.6207 91.2097 52.2607C91.9297 51.8907 92.5597 51.3707 93.0397 50.7207L94.7997 48.4207L94.7797 48.4407ZM129.18 98.3207H78.5397V92.3207H126.18V68.3207H104.84V62.3207H129.18C129.98 62.3207 130.74 62.6407 131.3 63.2007C131.86 63.7607 132.18 64.5207 132.18 65.3207V95.3207C132.18 96.1207 131.86 96.8807 131.3 97.4407C130.74 98.0007 129.98 98.3207 129.18 98.3207Z" fill="white"/>
<path fill-rule="evenodd" clip-rule="evenodd" d="M138.6 64.3199V96.3199C138.42 97.4999 137.86 98.5899 137.01 99.4199C136.16 100.26 135.06 100.8 133.88 100.96H132.14C130.06 100.96 126.6 98.3199 126.6 96.3199V64.3199C126.6 62.2399 130.14 58.4199 132.14 58.4199H133.88C135.94 58.4199 138.6 62.3199 138.6 64.3199ZM132.54 62.4199C131.72 62.9799 131.03 63.7299 130.54 64.5999V95.8399C131 96.3299 131.57 96.7199 132.2 96.9599H133.62C134 96.7499 134.31 96.4499 134.54 96.0799V64.4199C134.27 63.6599 133.83 62.9799 133.26 62.4199H132.54Z" fill="white"/>
<path d="M53.5797 103.8C49.7497 106.52 45.0297 107.66 40.3797 106.98L28.6797 96.1198L32.2997 83.6398L42.1997 74.8398L46.9797 83.2798L58.6997 93.4198L53.5797 103.8Z" fill="#DBDBDB"/>
<path d="M35.5792 105.36C34.3792 105.01 33.2192 104.53 32.1192 103.92H31.9992H31.8992C19.3792 92.7202 25.0592 83.9202 29.6192 76.6802C31.7392 73.3402 33.7592 70.1802 33.4392 67.4202L33.1192 64.5402L35.4992 66.2002C36.4592 66.8802 37.3692 67.6102 38.2392 68.4002C39.4992 65.4202 40.5592 62.6402 39.9592 60.6602L39.1992 58.2002L41.6192 59.0402C44.1392 59.8102 46.4492 61.1602 48.3692 62.9802C50.2792 64.8002 51.7392 67.0402 52.6392 69.5202V69.0402L54.9592 70.7202C57.1392 72.2102 58.9892 74.1502 60.3692 76.4102C61.7392 78.6702 62.6292 81.1902 62.9592 83.8202C63.2492 86.6402 62.9692 89.4902 62.1392 92.2102C61.2992 94.9202 59.9292 97.4302 58.0992 99.6002C57.4992 100.33 56.8292 101 56.0992 101.6L52.0992 104.84L53.9592 100.12C55.5592 96.1202 53.1392 92.8202 50.7992 89.6802C49.6792 88.3102 48.7292 86.8002 47.9792 85.2002C47.7992 85.4202 47.5992 85.6402 47.4392 85.8602L46.1592 87.5602L44.8192 84.8202C44.0692 83.4802 43.4792 82.0602 43.0592 80.5802C41.5292 81.6102 40.3592 83.0802 39.6892 84.8002C39.0292 86.5102 38.9192 88.3902 39.3592 90.1802L40.4992 95.8402L37.0392 91.2202C36.5292 90.5502 36.0792 89.8402 35.7192 89.0802C34.3292 90.6802 33.5292 92.7002 33.4392 94.8202C33.3992 96.3702 33.6592 97.9102 34.2292 99.3502C34.7892 100.8 35.6392 102.11 36.7192 103.22L40.4592 107L35.5792 105.36Z" fill="#004ADF"/>
<path fill-rule="evenodd" clip-rule="evenodd" d="M41.2197 59.9803C41.2397 60.0403 41.2597 60.1103 41.2797 60.1703C41.2397 60.1603 41.1997 60.1503 41.1597 60.1403L41.2197 59.9803ZM49.9897 66.9203C52.0097 70.1903 52.7397 74.0803 52.0597 77.8603C53.3597 76.0503 54.0597 73.8703 54.0597 71.6403C65.0397 79.6403 62.3997 92.3403 56.9997 98.6203C56.3897 99.2903 55.7197 99.9003 54.9997 100.44C58.1197 92.4403 48.4597 87.6203 48.6397 82.4403C47.7397 83.1303 46.9297 83.9403 46.2397 84.8403C45.0197 82.3603 43.6997 80.0803 44.2397 78.2003C41.9097 79.0903 39.9897 80.8003 38.8397 83.0203C37.6997 85.2303 37.3997 87.7903 38.0197 90.2003C37.0297 89.0903 36.4497 87.6803 36.3797 86.2003C35.0897 87.2603 34.0497 88.5803 33.3097 90.0703C32.5697 91.5703 32.1597 93.2003 32.0997 94.8703C32.0397 96.5303 32.3297 98.1903 32.9597 99.7303C33.5897 101.28 34.5297 102.67 35.7397 103.82L35.8997 103.96C34.7897 103.63 33.7197 103.19 32.6997 102.64C15.0397 86.8603 35.7197 76.5203 34.6997 66.9603C36.1497 67.9603 37.4897 69.1003 38.6997 70.3803C40.3197 66.4703 42.0197 63.0003 41.2797 60.1703C44.8997 61.2903 48.0097 63.6803 49.9897 66.9203ZM37.2197 55.8203L38.7197 60.7403C38.9097 62.5303 38.5697 64.3403 37.7397 65.9403C37.2597 65.5603 36.7597 65.2003 36.2597 64.8403L31.5197 61.5003L32.1597 67.2603C32.4197 69.5603 30.5397 72.5403 28.5197 75.6803C23.9597 82.8403 17.6997 92.6603 31.0597 104.58L31.2597 104.76L31.4797 104.88C32.6597 105.54 33.9097 106.07 35.1997 106.46L46.3197 110L37.7597 102L37.6397 101.88C35.7597 99.8903 34.7397 97.2403 34.7997 94.5003C34.8397 93.3303 35.1397 92.1803 35.6797 91.1403L36.0397 91.6203L42.9397 100.86L40.6797 89.5403C40.3697 88.3003 40.3697 86.9903 40.6797 85.7503C40.9897 84.5003 41.5997 83.3503 42.4597 82.4003C42.8197 83.3003 43.2597 84.1603 43.6997 85.0403L44.0997 85.8603L45.9797 89.6403L47.7997 87.2203C48.3997 88.2003 49.0997 89.2203 49.7997 90.0803C52.4797 93.6803 54.0397 96.0803 52.7797 99.2603L49.0597 108.7L56.8797 102.24C57.6697 101.58 58.3997 100.87 59.0797 100.1C61.0197 97.7903 62.4697 95.1103 63.3597 92.2303C64.2397 89.3503 64.5397 86.3203 64.2397 83.3203C63.8897 80.5203 62.9397 77.8203 61.4697 75.4003C59.9997 72.9903 58.0297 70.9203 55.6997 69.3203L53.5397 67.7603C52.4897 65.3203 50.9197 63.1403 48.9397 61.3603C46.9597 59.5903 44.6197 58.2603 42.0797 57.4803L37.2197 55.7803V55.8203Z" fill="#DBDBDB"/>
</g>
</svg>
