<svg width="162" height="122" viewBox="0 0 162 122" fill="none" xmlns="http://www.w3.org/2000/svg">
<mask id="mask0_1701_180" style="mask-type:luminance" maskUnits="userSpaceOnUse" x="28" y="20" width="107" height="82">
<path d="M28 20H135V102H28V20Z" fill="white"/>
</mask>
<g mask="url(#mask0_1701_180)">
<path d="M79.75 24.7996C79.98 24.4296 80.13 24.0096 80.2 23.5796C80.26 23.1496 80.24 22.7096 80.14 22.2896C80.04 21.8596 79.85 21.4696 79.59 21.1096C79.33 20.7596 79.01 20.4696 78.63 20.2396C78.26 20.0096 77.85 19.8596 77.42 19.7996C76.99 19.7296 76.55 19.7496 76.12 19.8596C75.7 19.9596 75.3 20.1496 74.95 20.3996C74.6 20.6596 74.3 20.9896 74.07 21.3596L28.45 97.0196C28.09 97.6496 27.94 98.3796 28.02 99.0996C28.11 99.8196 28.43 100.5 28.93 101.02C29.13 101.21 29.34 101.38 29.57 101.52C29.95 101.75 30.36 101.9 30.79 101.96C31.22 102.03 31.66 102.01 32.09 101.9C32.51 101.8 32.91 101.61 33.26 101.36C33.61 101.1 33.91 100.77 34.13 100.4L79.75 24.7996Z" fill="white"/>
<path fill-rule="evenodd" clip-rule="evenodd" d="M110.43 93C97.4501 77.84 74.1901 82.48 61.2301 67.32C60.6901 66.67 60.3601 65.87 60.3001 65.03C60.2401 64.18 60.4501 63.34 60.8901 62.62C67.6901 50.93 74.4901 39.23 81.2901 27.52C82.0301 26.24 83.3101 26.38 84.2701 27.64C97.2501 42.8 120.51 38.16 133.47 53.3C134.1 53.91 134.48 54.72 134.54 55.6C134.61 56.47 134.35 57.33 133.81 58.02L113.41 93.12C112.67 94.38 111.39 94.24 110.43 93ZM118.97 49.08C117.09 52.32 115.21 55.54 113.35 58.78C117.04 60.42 120.42 62.67 123.35 65.44L128.97 55.76C126.04 52.99 122.66 50.73 118.97 49.08ZM82.0501 61.92L88.4501 50.92C92.5301 52.44 96.6801 53.73 100.88 54.81L94.5101 65.76C98.7301 66.83 102.88 68.17 106.93 69.76C109.07 66.09 111.2 62.43 113.33 58.76C109.29 57.17 105.15 55.84 100.95 54.77L106.53 45.12C102.31 44.06 98.1501 42.76 94.0701 41.24L88.4501 50.92C84.5301 49.28 80.9301 46.94 77.8301 44.02L71.4301 55.02C74.5301 57.94 78.1301 60.28 82.0501 61.92ZM100.88 54.81L100.91 54.76C100.92 54.76 100.93 54.76 100.95 54.77L100.91 54.82C100.9 54.82 100.89 54.81 100.88 54.81ZM88.7101 75.6L94.4301 65.76C90.2101 64.72 86.0501 63.45 81.9701 61.94L76.3501 71.76C80.4001 73.26 84.5301 74.54 88.7101 75.6ZM101.29 79.76L101.36 79.64C101.33 79.63 101.3 79.61 101.27 79.6L101.29 79.76ZM101.36 79.64C105.01 81.26 108.36 83.49 111.27 86.22L116.99 76.4C114.06 73.64 110.68 71.4 106.99 69.76L101.36 79.64Z" fill="white"/>
</g>
</svg>
