<svg width="162" height="122" viewBox="0 0 162 122" fill="none" xmlns="http://www.w3.org/2000/svg">
<mask id="mask0_1701_179" style="mask-type:luminance" maskUnits="userSpaceOnUse" x="10" y="19" width="142" height="83">
<path d="M10 19H152V102H10V19Z" fill="white"/>
</mask>
<g mask="url(#mask0_1701_179)">
<path fill-rule="evenodd" clip-rule="evenodd" d="M124.84 35.4402C127.38 38.0502 128.8 41.5602 128.8 45.2002H132V25.2002H64.0004V31.2002H115.2C118.84 31.3002 122.3 32.8202 124.84 35.4402ZM138 45.2002C139.59 45.2002 141.12 45.8302 142.24 46.9602C143.37 48.0802 144 49.6102 144 51.2002V65.2002C144 66.7902 143.37 68.3202 142.24 69.4402C141.12 70.5702 139.59 71.2002 138 71.2002H128.8V73.2002C128.8 76.8402 127.38 80.3502 124.84 82.9602C122.3 85.5802 118.84 87.1002 115.2 87.2002H52.0004C46.3804 87.2002 38.3804 81.5602 35.1004 75.3402L30.5004 74.1202C29.5404 77.6402 26.7404 81.2002 22.5004 81.2002C16.9604 81.2002 13.9004 75.1602 13.9004 71.0002V47.0002C13.9004 43.0002 16.9604 37.2002 22.5004 37.2002C24.3104 37.2802 26.0504 37.9102 27.4804 39.0202C28.9104 40.1302 29.9704 41.6502 30.5004 43.3802L35.2404 41.9602C38.3404 35.8602 46.5804 31.2002 52.0004 31.2002H58.0004V22.2002C58.0004 21.4002 58.3204 20.6402 58.8804 20.0802C59.4404 19.5202 60.2004 19.2002 61.0004 19.2002H135C135.8 19.2002 136.56 19.5202 137.12 20.0802C137.68 20.6402 138 21.4002 138 22.2002V45.2002ZM52.0004 37.2002C47.8204 37.2002 40.0004 42.6202 40.0004 46.8002L25.2004 51.2002V47.0002C25.2004 45.5602 24.0404 43.2002 22.6004 43.2002C21.1604 43.2002 20.0004 45.5602 20.0004 47.0002V71.0002C20.0004 72.4402 21.1804 75.2002 22.6004 75.2002C24.0204 75.2002 25.2004 72.4402 25.2004 71.0002V66.4002L40.0004 70.4002C40.0004 74.5802 47.8204 81.2002 52.0004 81.2002H115.2C117.25 81.1002 119.19 80.2102 120.6 78.7202C122.01 77.2302 122.8 75.2502 122.8 73.2002V65.2002H138V51.2002H135H122.8V45.2002C122.8 43.1502 122.01 41.1702 120.6 39.6802C119.19 38.1902 117.25 37.3002 115.2 37.2002H64.0004V58.2002C64.0004 59.0002 63.6804 59.7602 63.1204 60.3202C62.5604 60.8802 61.8004 61.2002 61.0004 61.2002H33.0004C32.2004 61.2002 31.4404 60.8802 30.8804 60.3202C30.3204 59.7602 30.0004 59.0002 30.0004 58.2002C30.0004 57.4002 30.3204 56.6402 30.8804 56.0802C31.4404 55.5202 32.2004 55.2002 33.0004 55.2002H58.0004V37.2002H52.0004Z" fill="white"/>
<path d="M130 102C142.15 102 152 92.15 152 80C152 67.85 142.15 58 130 58C117.85 58 108 67.85 108 80C108 92.15 117.85 102 130 102Z" fill="#DBDBDB"/>
<path fill-rule="evenodd" clip-rule="evenodd" d="M130 62.8398C134.54 62.8398 138.9 64.6398 142.12 67.8498C145.34 71.0598 147.15 75.4198 147.16 79.9598C147.16 83.3498 146.15 86.6698 144.27 89.4898C142.38 92.3198 139.7 94.5098 136.57 95.8098C133.43 97.1098 129.98 97.4498 126.65 96.7898C123.32 96.1298 120.27 94.4898 117.87 92.0898C115.47 89.6898 113.83 86.6398 113.17 83.3098C112.51 79.9798 112.85 76.5298 114.15 73.3898C115.44 70.2598 117.64 67.5798 120.47 65.6898C123.29 63.8098 126.61 62.7998 130 62.7998V62.8398ZM120.98 70.9398C118.58 73.3298 117.24 76.5798 117.24 79.9598C117.24 82.4798 117.99 84.9498 119.39 87.0498C119.46 87.1598 119.54 87.2698 119.62 87.3798L137.42 69.5798C137.31 69.4998 137.2 69.4198 137.09 69.3498C134.99 67.9498 132.52 67.1998 130 67.1998C126.62 67.1998 123.37 68.5398 120.98 70.9398ZM125.12 91.7498C127.45 92.7098 130.01 92.9698 132.49 92.4698C134.96 91.9798 137.24 90.7698 139.02 88.9798C140.81 87.1998 142.02 84.9198 142.51 82.4498C143.01 79.9698 142.75 77.4098 141.79 75.0798C141.39 74.0998 140.87 73.1898 140.24 72.3498L122.39 90.1998C123.23 90.8298 124.14 91.3498 125.12 91.7498Z" fill="#004ADF"/>
<path d="M17.2 46.4004H10V50.4004H17.2V46.4004ZM17.2 56.4004H10V60.4004H17.2V56.4004ZM17.2 66.8004H10V70.8004H17.2V66.8004Z" fill="white"/>
</g>
</svg>
