<svg width="162" height="122" viewBox="0 0 162 122" fill="none" xmlns="http://www.w3.org/2000/svg">
<path d="M143.215 18.7914H121.867C120.098 16.374 118.137 14.1029 116.004 12H45.6681C43.5335 14.1084 41.5659 16.379 39.7822 18.7914H18.6158C14.2693 18.7914 11.5754 26.3524 13.7939 30.1103L19.793 39.1654L28.8481 55.0119C29.4931 68.3107 35.288 80.8365 45.0061 89.9378C54.7241 99.0389 67.6028 104.001 80.9152 103.774C86.5798 103.783 92.2081 102.865 97.5766 101.057C97.8779 101.322 98.2039 101.557 98.5501 101.759L126.01 82.381V81.8377C125.897 80.9433 125.571 80.0892 125.059 79.3476C129.679 72.0376 132.316 63.6505 132.711 55.0119L142.037 39.1654L148.059 30.1103C150.255 26.3524 147.561 18.7914 143.215 18.7914ZM22.8038 33.2117C21.8313 33.2161 20.8793 32.9319 20.0685 32.3948C19.2577 31.8577 18.6245 31.0921 18.2492 30.1949C17.8739 29.2977 17.7734 28.3092 17.9604 27.3548C18.1474 26.4004 18.6135 25.523 19.2995 24.8337C19.9857 24.1445 20.8609 23.6743 21.8145 23.483C22.768 23.2916 23.7568 23.3875 24.6558 23.7586C25.5547 24.1298 26.3233 24.7594 26.8641 25.5677C27.4049 26.376 27.6936 27.3267 27.6936 28.2992C27.6936 29.5982 27.1791 30.8443 26.2628 31.7649C25.3464 32.6855 24.1027 33.2057 22.8038 33.2117ZM77.8817 94.3338C69.8706 93.7489 62.2055 90.8338 55.8304 85.9474C49.4551 81.061 44.6485 74.4168 42.0016 66.8329C39.355 59.2492 38.9842 51.0568 40.9349 43.2649C42.8854 35.4729 47.0725 28.4217 52.9801 22.9794H71.6337V51.6389H77.9043L77.8817 94.3338ZM83.3827 94.3338V51.6389H89.2685V22.9567H108.714C114.657 28.4198 118.862 35.5098 120.806 43.3448C122.75 51.1795 122.347 59.4129 119.647 67.0204C116.947 74.6278 112.07 81.2734 105.622 86.1299C99.1737 90.9864 91.44 93.8394 83.3827 94.3338ZM139.027 33.2117C138.055 33.2117 137.105 32.9235 136.297 32.3838C135.489 31.844 134.86 31.0768 134.488 30.1791C134.116 29.2815 134.019 28.2938 134.208 27.3409C134.398 26.388 134.866 25.5127 135.553 24.8256C136.24 24.1386 137.115 23.6708 138.068 23.4812C139.021 23.2917 140.009 23.389 140.906 23.7608C141.804 24.1326 142.571 24.7622 143.111 25.57C143.651 26.3779 143.939 27.3277 143.939 28.2992C143.942 28.9452 143.817 29.5853 143.571 30.1827C143.325 30.78 142.963 31.3228 142.507 31.7795C142.05 32.2363 141.507 32.598 140.91 32.8438C140.313 33.0896 139.672 33.2146 139.027 33.2117Z" fill="white"/>
<path d="M116.186 110C130.052 110 141.292 98.7597 141.292 84.8944C141.292 71.0292 130.052 59.7891 116.186 59.7891C102.321 59.7891 91.0811 71.0292 91.0811 84.8944C91.0811 98.7597 102.321 110 116.186 110Z" fill="#DBDBDB"/>
<path d="M116.185 70.3371C119.071 70.3326 121.892 71.1845 124.293 72.7847C126.694 74.3848 128.566 76.6615 129.673 79.3264C130.779 81.9913 131.069 84.9245 130.508 87.7545C129.946 90.5846 128.557 93.1844 126.517 95.2247C124.476 97.2648 121.877 98.6539 119.047 99.2155C116.217 99.7774 113.283 99.4867 110.618 98.3807C107.954 97.2743 105.677 95.4022 104.077 93.0012C102.477 90.6005 101.625 87.7787 101.629 84.8933C101.635 81.0346 103.171 77.3356 105.899 74.6071C108.628 71.8785 112.327 70.343 116.185 70.3371ZM116.185 65.3115C112.312 65.3115 108.526 66.4599 105.306 68.6117C102.086 70.7634 99.5762 73.8215 98.0941 77.3997C96.612 80.9778 96.2242 84.915 96.9798 88.7134C97.7355 92.512 99.6004 96.0012 102.339 98.7397C105.077 101.478 108.567 103.343 112.365 104.099C116.164 104.854 120.101 104.467 123.679 102.985C127.257 101.502 130.315 98.9925 132.467 95.7723C134.619 92.5521 135.767 88.7661 135.767 84.8933C135.767 79.6999 133.704 74.7191 130.032 71.0468C126.359 67.3745 121.379 65.3115 116.185 65.3115Z" fill="#004ADF"/>
<path d="M129.998 74.0423L126.797 70.8408L101.873 95.7642L105.074 98.9658L129.998 74.0423Z" fill="#004ADF"/>
</svg>
