<svg width="162" height="122" viewBox="0 0 162 122" fill="none" xmlns="http://www.w3.org/2000/svg">
<path d="M90.4157 75.9364L90.2783 73.2926L90.9664 68.0498C91.0354 67.8163 91.0866 67.5779 91.1195 67.3367C92.0486 63.0428 94.294 59.1456 97.5428 56.1883C100.536 53.3965 104.36 51.6582 108.431 51.2373L108.678 53.666C105.221 54.0374 101.967 55.4839 99.3745 57.802C96.451 60.4452 94.4086 63.9215 93.5229 67.7619C93.4732 68.0817 93.4049 68.3983 93.3183 68.7101L92.7279 73.3826L92.852 75.8097L90.4157 75.9364Z" fill="white"/>
<path d="M92.9555 79.96C92.6082 76.2416 93.0133 72.4913 94.1466 68.9328C95.2799 65.3744 97.1182 62.0805 99.5519 59.2478C100.375 58.2773 101.394 57.493 102.544 56.9471C103.693 56.4011 104.945 56.1059 106.217 56.0811C107.28 56.0105 108.337 56.2881 109.228 56.872L111.359 58.2428L111.161 58.5503L109.028 57.1794C108.204 56.6411 107.228 56.3835 106.245 56.4453C105.018 56.4695 103.81 56.7545 102.702 57.2813C101.594 57.8082 100.611 58.5649 99.8173 59.5011C97.4173 62.2997 95.6052 65.5528 94.4892 69.0665C93.3731 72.5803 92.9759 76.2828 93.3213 79.9533L92.9555 79.96Z" fill="white"/>
<path d="M36.9 82.0105L36.3176 79.6414C37.2658 79.4076 37.736 78.0184 37.7412 78.0039C37.835 77.7556 39.2625 73.8296 34.0991 69.4093C32.7019 67.9815 30.8031 67.1548 28.8061 67.105C27.9738 67.1672 27.191 67.5239 26.598 68.1113L24.7148 66.5595C25.7182 65.4571 27.1067 64.7824 28.5934 64.675C29.9086 64.6549 31.2144 64.8996 32.4329 65.3947C33.6515 65.8898 34.758 66.6251 35.6864 67.5567C37.5224 68.7233 38.9355 70.4482 39.7181 72.4778C40.5007 74.5074 40.6113 76.7346 40.0338 78.8317C39.8031 79.5732 39.3982 80.2487 38.853 80.8018C38.3078 81.3548 37.6382 81.7693 36.9 82.0105Z" fill="white"/>
<path d="M75.9482 76.8147C76.2946 71.9859 77.448 67.2494 79.3607 62.802C81.5133 57.1157 85.1054 52.0856 89.7855 48.2041L91.2619 50.1479C86.9659 53.7669 83.6573 58.4158 81.6453 63.6603C79.8634 67.8337 78.7639 72.2663 78.3888 76.7886L75.9482 76.8147Z" fill="white"/>
<path d="M91.4298 86.0441C90.2597 85.8487 90.401 84.7315 90.4948 83.9906C90.57 83.4029 90.7128 82.3334 90.9808 80.4118C91.1099 78.1636 90.5862 75.926 89.4726 73.9687L89.3737 73.7559C89.1061 73.0638 88.6261 72.4743 88.0025 72.0721C87.3789 71.6699 86.6439 71.4757 85.903 71.5174C85.1732 71.4931 84.4493 71.6565 83.8007 71.992C83.1521 72.3276 82.6005 72.824 82.1988 73.4338L81.9733 73.7427L75.6964 79.984L73.9756 78.2539L80.1376 72.1264C80.7542 71.1869 81.5955 70.4161 82.5852 69.8838C83.5749 69.3516 84.6818 69.0747 85.8056 69.0783C87.0448 69.0273 88.2696 69.3602 89.3124 70.0315C90.3553 70.7028 91.1654 71.6798 91.6321 72.829C92.991 75.2356 93.6054 77.9912 93.3978 80.7471C92.9132 84.2321 92.8536 84.7963 92.8471 84.8873L91.6348 84.7989L92.8378 85.0378L91.4298 86.0441Z" fill="white"/>
<path d="M90.9253 83.7732L87.6738 87.4502L89.5013 89.0662L92.7527 85.3892L90.9253 83.7732Z" fill="white"/>
<path d="M118.871 100.037C115.009 95.928 118.263 87.3586 118.759 86.1305C120.016 82.1207 121.979 78.3675 124.555 75.0479C130.266 66.5604 134.566 68.1753 135.036 68.3922L134.077 70.6346C134.048 70.6252 131.107 69.6812 126.58 76.4109C124.178 79.4689 122.339 82.9295 121.148 86.6311L121.064 86.9413C120.106 89.2236 118.164 95.7235 120.649 98.3673L118.871 100.037Z" fill="white"/>
<path d="M60.1664 63.8768L57.9926 62.7664C58.9497 59.1637 58.8622 55.363 57.7404 51.8081L57.6572 51.5112L57.7259 51.21C58.1953 49.091 59.081 47.0863 60.3314 45.3123C61.5819 43.5383 63.1723 42.0304 65.0102 40.876L66.1924 43.0117C63.1872 44.9676 61.0378 47.9875 60.173 51.4673C61.3961 55.5138 61.3938 59.8317 60.1664 63.8768Z" fill="white"/>
<path d="M60.9055 49.2844L58.5945 48.4986C59.0307 47.4356 59.1774 46.2759 59.0197 45.1378L58.8943 45.0798C58.3907 44.7945 57.8358 44.6114 57.2613 44.5409C56.6868 44.4705 56.1041 44.514 55.5465 44.669C53.5402 45.1537 51.6622 46.0658 50.0409 47.3431L48.4482 45.4944C50.3476 43.9766 52.5549 42.891 54.9165 42.3131C55.7841 42.0752 56.6901 42.0106 57.5827 42.123C58.4752 42.2353 59.3369 42.5225 60.1185 42.968C60.2135 43.0221 60.3152 43.0856 60.4168 43.1517C62.3172 44.3982 61.3915 47.8558 60.9055 49.2844Z" fill="white"/>
<path d="M62.796 88.2624C62.6216 88.2598 62.4475 88.2483 62.2743 88.2279C62.1455 88.2111 62.016 88.201 61.8861 88.1976C58.8922 88.1976 56.457 86.4082 56.457 84.207C56.457 82.0057 58.8922 80.2163 61.8861 80.2163C62.9605 80.1874 64.0262 80.4167 64.9936 80.885C65.961 81.3533 66.8019 82.0468 67.4458 82.9075C67.5767 83.1895 67.6186 83.5047 67.566 83.8112C67.5134 84.1176 67.3688 84.4008 67.1513 84.623C66.7418 85.0503 66.2985 85.4439 65.8257 85.7998C65.0844 86.3352 64.4422 86.9957 63.9279 87.7517C63.7992 87.9271 63.6274 88.0663 63.4291 88.1558C63.2309 88.2453 63.0126 88.2818 62.796 88.2624ZM61.8863 81.4362C59.604 81.4362 57.6775 82.7055 57.6775 84.207C57.6775 85.7085 59.6045 86.9775 61.8863 86.9775C62.0598 86.9807 62.233 86.9931 62.4052 87.0146C62.5896 87.0436 62.7769 87.0485 62.9625 87.0291C63.5283 86.1805 64.2417 85.4402 65.0689 84.8435C65.4927 84.5246 65.8906 84.1727 66.2588 83.7911C66.3154 83.7439 66.3533 83.6782 66.3659 83.6056C66.3784 83.5329 66.3647 83.4582 66.3272 83.3948C65.7757 82.7628 65.0921 82.2597 64.3246 81.9213C63.5571 81.5828 62.7249 81.4172 61.8863 81.4362Z" fill="#004ADF"/>
<path d="M58.3706 86.255L58.2188 86.0651C59.1537 85.3087 60.3046 84.8685 61.5057 84.808C62.7068 84.7474 63.8961 85.0696 64.9024 85.7282L64.7557 85.9235C63.7929 85.2972 62.6564 84.9919 61.5093 85.0515C60.3622 85.111 59.2635 85.5324 58.3706 86.255Z" fill="#004ADF"/>
<path d="M68.1163 67.3024L67.0469 69.4971L77.1501 74.4203L78.2195 72.2256L68.1163 67.3024Z" fill="white"/>
<path d="M84.6327 95.782L82.2305 95.3529C82.3893 93.7252 82.4263 92.088 82.3414 90.4548C82.3206 88.9724 82.0862 87.5007 81.6455 86.0851L81.4922 85.6492C80.6525 84.5782 79.7433 83.5635 78.7705 82.6117C78.0158 81.731 77.0468 81.0598 75.957 80.6628C74.8672 80.2658 73.6935 80.1566 72.5491 80.3455C72.4714 80.3615 72.4 80.4001 72.3441 80.4565L66.6048 85.9529L64.917 84.1887L70.655 78.6947C71.0458 78.3171 71.5367 78.0595 72.0695 77.9525C73.6129 77.6803 75.2003 77.8092 76.6795 78.3267C78.1588 78.8442 79.4803 79.7331 80.5174 80.9081C83.4742 83.9404 84.1345 84.9492 84.0764 85.6794C84.5152 87.21 84.7518 88.7914 84.7803 90.3834C84.8723 92.184 84.8231 93.9892 84.6327 95.782Z" fill="white"/>
<path d="M77.636 104.178L75.3332 103.37C75.7635 101.195 75.967 98.9806 75.9406 96.7631C76.0895 95.6459 75.9798 94.5094 75.6198 93.4413C75.2599 92.3732 74.6594 91.4021 73.8647 90.6028C73.6043 90.3802 73.3594 90.1401 73.1317 89.8842C71.8405 88.6771 70.3279 87.7314 68.6773 87.0992C68.1874 86.8 67.6296 86.6299 67.0561 86.605C66.4827 86.5801 65.9122 86.701 65.3982 86.9566C65.0067 87.2105 64.6885 87.5624 64.4752 87.9774L62.2354 87.0092C62.7705 85.8591 63.7247 84.9568 64.903 84.4869C65.6854 84.2219 66.5138 84.1198 67.3371 84.1871C68.1604 84.2543 68.9612 84.4893 69.6902 84.8777C71.6514 85.6441 73.44 86.7939 74.9515 88.2598C75.1051 88.4324 75.2701 88.5945 75.4453 88.745C76.5238 89.7794 77.3495 91.0483 77.8584 92.4534C78.3673 93.8584 78.5457 95.3617 78.3799 96.8469C78.429 99.3118 78.1791 101.773 77.636 104.178Z" fill="white"/>
<path d="M34.9541 78.672C33.994 78.672 32.9507 77.7938 31.6447 76.695L31.2142 76.3332C29.1197 74.5848 26.0929 70.6042 27.5138 68.9036C27.7125 68.6803 27.9556 68.5009 28.2276 68.3769C28.4996 68.2529 28.7945 68.1871 29.0933 68.1836C31.1639 68.2876 33.1273 69.1355 34.6227 70.5714C35.6782 71.4439 36.4152 72.6414 36.7186 73.9769C37.022 75.3123 36.8748 76.7107 36.2999 77.9537C36.1574 78.149 35.9765 78.313 35.7682 78.4356C35.5599 78.5583 35.3287 78.637 35.0888 78.6669L34.9541 78.672ZM29.3337 68.5415L29.1171 68.5483C28.8678 68.5498 28.6216 68.6029 28.3938 68.7043C28.1661 68.8057 27.9618 68.9531 27.7939 69.1373C26.6527 70.5054 29.2386 74.2057 31.4493 76.0518L31.8811 76.4152C33.1819 77.5114 34.2186 78.359 35.0558 78.3023C35.2473 78.2759 35.4315 78.2108 35.597 78.1109C35.7625 78.0111 35.9059 77.8786 36.0185 77.7214C37.2547 76.2409 36.4095 72.7043 34.3744 70.8411C33 69.5304 31.2244 68.7202 29.3337 68.5415Z" fill="#004ADF"/>
<path d="M130.409 92.7049C129.693 91.6711 129.232 90.4823 129.065 89.236C128.898 87.9897 129.028 86.7215 129.446 85.5354C129.964 84.5893 130.675 83.7628 131.533 83.1096C132.391 82.4564 133.377 81.9912 134.427 81.7441L134.643 82.6949C133.741 82.9149 132.894 83.3163 132.153 83.8746C131.413 84.433 130.793 85.1366 130.333 85.9423C129.986 86.9911 129.889 88.1067 130.05 89.1997C130.212 90.2927 130.627 91.3326 131.263 92.2362L130.409 92.7049Z" fill="white"/>
<path d="M133.16 93.101C130.272 89.3891 133.835 85.0123 136.123 83.2178L136.725 83.9851C136.667 84.0312 130.917 88.6282 133.931 92.5029L133.16 93.101Z" fill="white"/>
<path d="M71.9677 102.027C71.5547 102.023 71.1439 101.967 70.7445 101.862C69.2354 101.434 67.906 100.528 66.9561 99.2795C66.0061 98.0312 65.487 96.5083 65.4766 94.9397C65.4766 92.2785 65.4766 90.176 66.4631 89.1962C66.6763 88.9954 66.9282 88.8403 67.2034 88.7401C67.4786 88.64 67.7714 88.5971 68.0637 88.6139H68.0914C69.8288 89.0113 71.4036 89.929 72.6059 91.2447C73.8081 92.5604 74.5804 94.2114 74.8198 95.9775C74.94 97.9865 74.9123 100.427 73.634 101.487C73.1603 101.86 72.5697 102.051 71.9677 102.027ZM68.064 88.981C67.8196 88.9652 67.5745 88.9992 67.3437 89.081C67.1128 89.1627 66.9009 89.2905 66.7209 89.4565C65.8427 90.3296 65.8427 92.3644 65.8427 94.9398C65.8515 96.4274 66.343 97.8718 67.2432 99.0561C68.1434 100.24 69.4036 101.1 70.8346 101.507C71.2548 101.668 71.7079 101.725 72.1548 101.673C72.6018 101.62 73.0293 101.459 73.4005 101.205C74.2985 100.46 74.6237 98.8552 74.4544 95.999C74.2129 94.3285 73.4782 92.7682 72.3444 91.5179C71.2106 90.2676 69.7293 89.3843 68.0903 88.9812L68.064 88.981Z" fill="#004ADF"/>
<path d="M61.7784 97.1879C60.9326 93.6425 61.1854 89.9237 62.5033 86.5254L64.7008 87.5874C63.6338 90.5147 63.4515 93.6851 64.1712 96.7166L61.7784 97.1879Z" fill="white"/>
<path d="M73.1618 106.582C71.4374 106.575 69.7379 106.169 68.1964 105.396C66.6929 104.636 65.3631 103.572 64.2905 102.273C63.218 100.973 62.426 99.4656 61.9644 97.8451L61.8733 97.5332L50.1371 91.0031C49.5598 90.7242 49.0859 90.2694 48.7834 89.7042C48.4808 89.1389 48.3652 88.4923 48.4533 87.8573L48.5061 84.0803L49.346 82.8283L65.5194 68.5896L58.8848 64.6262L44.9999 76.6309C42.9881 79.0455 40.364 80.8747 37.4025 81.9267C36.1032 82.1446 34.7723 82.0827 33.4988 81.7452C32.2254 81.4078 31.0385 80.8024 30.0177 79.9697C27.9339 78.1503 26.1558 76.0082 24.7511 73.6252C24.165 72.3206 23.9154 70.8898 24.0253 69.4638C24.1351 68.0378 24.6008 66.6621 25.3798 65.4626C27.2196 62.9189 29.6659 60.8753 32.4965 59.5176C33.5293 58.6406 38.6731 54.2616 41.2705 51.8316C43.6318 49.625 46.8343 46.8713 48.0043 45.873L47.9975 45.6537L48.0291 45.5044C48.395 43.217 49.5229 41.1203 51.2299 39.5543C52.9369 37.9883 55.1228 37.0448 57.4332 36.877L57.692 36.885L65.5114 40.6263L66.2535 40.4055L66.9495 42.7443L65.3054 43.2331L57.119 39.3147C52.3345 39.3782 50.6903 44.9473 50.4473 45.8884L50.4843 46.9688L50.0326 47.3515C49.9904 47.386 45.8185 50.9213 42.9371 53.6141C40.0119 56.3504 34.1378 61.3236 33.8897 61.5348L33.6955 61.6988L33.4526 61.773C30.9912 62.9449 28.8738 64.732 27.3051 66.9616C26.7784 67.8265 26.4771 68.8097 26.4288 69.8212C26.3806 70.8327 26.5871 71.8401 27.0292 72.7511C28.2828 74.7705 29.836 76.5877 31.6354 78.1406C32.3667 78.7191 33.2085 79.1421 34.1092 79.3835C35.0098 79.6249 35.9503 79.6797 36.8729 79.5444C39.3446 78.6002 41.5266 77.0264 43.2027 74.979L43.336 74.8443L57.6923 62.432C57.977 62.1865 58.3349 62.0418 58.7103 62.0206C59.0857 61.9993 59.4576 62.1025 59.7683 62.3143L69.6438 68.2109L51.0932 84.5415L50.9374 84.7923L50.8938 87.8917C50.8642 88.1775 50.917 88.4657 51.0457 88.7225L51.2227 88.8151L63.9335 95.8869L64.3059 97.1585C64.6724 98.4552 65.3032 99.662 66.1587 100.703C67.0141 101.744 68.0757 102.597 69.2766 103.208C70.9213 104.054 72.7992 104.332 74.6185 104L82.1248 95.843L82.4999 94.0814H84.6341C85.8516 93.9759 86.2254 93.334 86.335 92.8771L84.086 90.7564L85.1411 89.8755C86.1015 89.1082 86.9835 88.2478 87.7744 87.3068C88.0545 86.8246 88.4835 86.4464 88.9969 86.229C89.5104 86.0115 90.0805 85.9666 90.6217 86.101C92.3215 86.3168 94.0465 86.0052 95.5634 85.2082L96.1259 84.948L96.6701 85.2492C96.8813 85.3668 117.779 96.9908 120.255 98.0883C123.985 96.7371 127.331 94.5022 130.009 91.5749L130.437 91.1786L133.107 91.5749C134.232 90.8791 135.124 89.8618 135.665 88.6544C136.206 87.447 136.373 86.1049 136.144 84.8017L135.922 84.7553L133.104 82.6873L133.372 81.8487C134.973 78.2831 135.157 74.2419 133.887 70.5455L109.147 58.3841L109.373 57.4375C109.458 56.8957 109.431 56.3422 109.294 55.8112C109.156 55.2803 108.911 54.7832 108.574 54.351C108.19 53.799 107.671 53.3555 107.066 53.0636L96.2371 47.8403C93.8402 48.327 91.6427 49.5164 89.9245 51.257L89.3197 51.8208L85.3328 49.9348L86.376 47.7282L88.8865 48.9167C90.9946 46.8475 93.7808 45.6119 96.7296 45.4385L96.9237 45.4637L108.126 50.8663C109.114 51.3422 109.961 52.0668 110.584 52.9688C111.448 54.138 111.904 55.5578 111.885 57.0112L135.556 68.6468L135.731 68.8821C135.853 69.043 138.578 72.8346 135.957 81.75L136.975 82.4948C137.297 82.6055 137.592 82.785 137.838 83.0207C138.084 83.2564 138.276 83.5429 138.401 83.8602C138.877 85.8046 138.69 87.8524 137.868 89.6778C137.046 91.5033 135.638 93.0014 133.866 93.934L133.524 94.1029L131.232 93.7634C128.276 96.443 122.085 101.567 119.267 100.319C116.887 99.2651 99.36 89.5376 96.0083 87.6743C94.1306 88.5606 92.0221 88.8359 89.9798 88.4613C89.9507 88.4652 89.9114 88.4891 89.8516 88.5855C89.2378 89.4187 88.5292 90.1777 87.7401 90.8473L88.7874 91.8352L88.8138 92.3227C88.8279 92.8674 88.7329 93.4095 88.5345 93.917C88.3361 94.4245 88.0382 94.8872 87.6584 95.2779C87.2786 95.6687 86.8245 95.9795 86.3228 96.1923C85.8211 96.405 85.282 96.5153 84.7371 96.5166L84.477 96.5182L84.3739 97.0028L75.959 106.149L75.6606 106.25C74.8489 106.484 74.0066 106.596 73.1618 106.582Z" fill="white"/>
<path d="M87.0734 48.8827L84.6356 48.7785L85.6735 24.9439C86.4857 20.2152 81.0448 18.9022 80.8124 18.8481C71.0597 16.8527 69.0709 22.6341 68.8358 23.4701L67.8203 41.6417L65.3838 41.5056L66.4361 23.0027C66.4572 22.9117 68.7327 13.8812 81.3286 16.4645C83.3779 16.771 85.2283 17.8609 86.4901 19.5047C87.7518 21.1484 88.3264 23.2177 88.0927 25.2767L87.0734 48.8827Z" fill="#004ADF"/>
<path d="M76.6963 30.498L76.2579 30.4941C73.9595 30.6992 71.6712 30.0052 69.8738 28.5581C68.0765 27.111 66.9102 25.0235 66.6201 22.7343L69.0539 22.5586C69.1002 23.1092 69.6838 27.9364 76.3014 28.0538C83.2676 28.1753 85.1799 25.0111 85.2551 24.8763L85.8573 23.4474L88.1036 24.4021L87.454 25.9316C87.3179 26.1995 84.9924 30.498 76.6963 30.498Z" fill="#004ADF"/>
<path d="M73.3229 58.2185C72.443 58.2194 71.5722 58.041 70.7635 57.6943C68.2833 56.3471 66.4147 54.0995 65.5432 51.415L65.4785 51.2141L66.4042 23.2412L68.8434 23.3232L67.9322 50.8508C68.5906 52.7974 69.9407 54.4345 71.7262 55.4516C72.418 55.7109 73.1591 55.8117 73.895 55.7468C74.6309 55.682 75.3429 55.453 75.9786 55.0767L76.2625 54.9777C79.3736 54.1993 82.1657 52.4727 84.2521 50.0372L84.6787 48.5038L87.0294 49.1563L86.4774 51.1424L86.3387 51.3274C83.9347 54.2982 80.6292 56.406 76.9215 57.3321C75.8028 57.8916 74.5734 58.1947 73.3229 58.2185Z" fill="#004ADF"/>
</svg>
