<svg width="162" height="122" viewBox="0 0 162 122" fill="none" xmlns="http://www.w3.org/2000/svg">
<mask id="mask0_1701_176" style="mask-type:luminance" maskUnits="userSpaceOnUse" x="17" y="20" width="128" height="83">
<path d="M17 20H145V103H17V20Z" fill="white"/>
</mask>
<g mask="url(#mask0_1701_176)">
<path fill-rule="evenodd" clip-rule="evenodd" d="M130.6 41.8199C132.08 43.3099 132.94 45.3199 133 47.4199L132.73 53.6599H136.86C138.21 53.6599 139.3 54.7499 139.3 56.0999V59.3799C139.3 60.7299 138.21 61.8199 136.86 61.8199H132.37L131.96 71.1999C131.97 73.2999 131.18 75.3299 129.74 76.8599C128.29 78.3899 126.32 79.3099 124.22 79.4199H69.1801C67.0401 79.3199 65.0101 78.4199 63.4901 76.8999C61.9801 75.3799 61.0901 73.3499 61.0001 71.1999V47.4199C61.1001 45.2999 61.9901 43.2899 63.5101 41.8099C65.0301 40.3199 67.0601 39.4699 69.1801 39.4199H125C127.1 39.4799 129.11 40.3399 130.6 41.8199ZM69.1801 45.4199C68.6501 45.4699 68.1501 45.6899 67.7501 46.0499C67.3601 46.4099 67.0901 46.8899 67.0001 47.4199V71.1999C67.0701 71.7699 67.3201 72.2999 67.7101 72.7099C68.1001 73.1199 68.6201 73.3999 69.1801 73.4999H124.22C124.72 73.3799 125.16 73.0899 125.47 72.6899C125.79 72.2899 125.96 71.7899 125.96 71.2799V71.0199L127 47.4199C126.94 46.9099 126.72 46.4299 126.35 46.0699C125.99 45.6999 125.51 45.4799 125 45.4199H69.1801ZM52.4501 79.0099C52.2401 78.7699 52.1201 78.4599 52.1201 78.1399V41.4199C52.1201 40.7399 52.6601 39.4199 53.3401 39.4199H57.0001C57.6801 39.4199 58.2401 40.7399 58.2401 41.4199V78.1399C58.2401 78.4699 58.1001 78.7899 57.8701 79.0299C57.6401 79.2599 57.3301 79.3999 57.0001 79.4199H53.2801C52.9601 79.3899 52.6701 79.2399 52.4501 79.0099ZM108.3 57.5399C108.3 55.3999 110.04 53.6599 112.18 53.6599C114.32 53.6599 116.06 55.3999 116.06 57.5399C116.06 59.6799 114.32 61.4199 112.18 61.4199C110.04 61.4199 108.3 59.6799 108.3 57.5399ZM77.7401 57.5399C77.7401 55.3999 79.4801 53.6599 81.6201 53.6599C83.7601 53.6599 85.5001 55.3999 85.5001 57.5399C85.5001 59.6799 83.7601 61.4199 81.6201 61.4199C79.4801 61.4199 77.7401 59.6799 77.7401 57.5399Z" fill="white"/>
<path d="M124.62 103C135.88 103 145 93.8802 145 82.6202C145 71.3602 135.88 62.2402 124.62 62.2402C113.36 62.2402 104.24 71.3602 104.24 82.6202C104.24 93.8802 113.36 103 124.62 103Z" fill="#DBDBDB"/>
<path fill-rule="evenodd" clip-rule="evenodd" d="M124.62 66.9001C128.83 66.9301 132.86 68.6101 135.83 71.5901C138.81 74.5601 140.49 78.5901 140.52 82.8001C140.52 85.9701 139.58 89.0701 137.82 91.7001C136.05 94.3301 133.55 96.3801 130.62 97.5901C127.69 98.8001 124.47 99.1101 121.36 98.4801C118.26 97.8601 115.4 96.3301 113.17 94.0801C110.94 91.8301 109.42 88.9701 108.82 85.8601C108.21 82.7501 108.54 79.5301 109.77 76.6101C110.99 73.6901 113.06 71.1901 115.7 69.4501C118.35 67.7001 121.45 66.7801 124.62 66.8001V66.9001ZM116.27 74.2701C114.05 76.4801 112.81 79.4901 112.8 82.6201C112.8 84.9601 113.49 87.2401 114.79 89.1901C114.85 89.2801 114.92 89.3701 114.98 89.4601L131.46 72.9801C131.37 72.9201 131.28 72.8501 131.19 72.7901C129.24 71.4901 126.96 70.8001 124.62 70.8001C121.49 70.8101 118.48 72.0501 116.27 74.2701ZM120.1 93.5401C122.26 94.4301 124.63 94.6701 126.93 94.2101C129.22 93.7601 131.32 92.6301 132.98 90.9801C134.63 89.3201 135.76 87.2201 136.21 84.9301C136.67 82.6301 136.43 80.2601 135.54 78.1001C135.16 77.1901 134.68 76.3301 134.09 75.5501L117.55 92.0901C118.33 92.6801 119.19 93.1601 120.1 93.5401Z" fill="#004ADF"/>
<path fill-rule="evenodd" clip-rule="evenodd" d="M50.82 76.4998C50.82 78.0798 49.54 79.3598 47.97 79.3598C46.4 79.3598 45.12 78.0798 45.12 76.4998V42.2798C45.12 40.6998 46.4 39.4198 47.97 39.4198C49.54 39.4198 50.82 40.6998 50.82 42.2798V76.4998ZM43.18 38.5298C43.64 38.9698 43.9 39.5798 43.92 40.2198V76.9598C43.92 77.6098 43.66 78.2298 43.21 78.6898C42.75 79.1498 42.13 79.4098 41.48 79.4198H41.16L39 86.5798L36.82 93.8398C36.33 95.1198 35.72 96.3498 35 97.5198H28.54C27.8 97.5198 27 95.3798 26.54 93.8398L24.34 86.4799L22.2 79.3198H19C18.47 79.3198 17.96 79.1098 17.59 78.7298C17.21 78.3598 17 77.8498 17 77.3198V39.7798C17 39.2498 17.21 38.7398 17.59 38.3698C17.96 37.9898 18.47 37.7798 19 37.7798H22.04C22.1 37.3498 22.18 36.9198 22.3 36.4998L24.44 29.3398L26.6 22.1598C26.98 20.6198 27.78 19.8398 28.6 19.8398H35C35.74 20.0198 36.42 20.7798 36.86 22.1598L39 29.3398L41.2 36.5598C41.32 36.9798 41.4 37.4098 41.46 37.8398C42.1 37.8298 42.72 38.0798 43.18 38.5298ZM34.74 24.8198C33.98 24.8198 33.38 26.6798 33.38 28.8798C33.38 31.0798 34 32.8798 34.74 32.8798C35.48 32.8798 36.08 31.0798 36.08 28.8798C36.08 26.6798 35.48 24.8798 34.74 24.8798V24.8198ZM34.74 91.0998C35.48 91.0998 36.08 89.3599 36.08 87.1599C36.08 84.9599 35.5 83.1598 34.74 83.1598C33.98 83.1598 33.38 84.9799 33.38 87.1599C33.38 89.3399 33.98 91.1599 34.74 91.1599V91.0998Z" fill="white"/>
</g>
</svg>
