<svg width="162" height="122" viewBox="0 0 162 122" fill="none" xmlns="http://www.w3.org/2000/svg">
<path d="M43.6859 36.7057C42.0049 36.7057 40.6406 35.3429 40.6406 33.6617C40.6406 31.9809 42.0049 30.6182 43.6859 30.6182C45.3654 30.6182 46.7283 31.9809 46.7283 33.6617C46.7283 35.3429 45.3654 36.7057 43.6859 36.7057ZM43.6859 31.6923C42.5989 31.6923 41.7165 32.5736 41.7165 33.6617C41.7165 34.7503 42.5989 35.6312 43.6859 35.6312C44.7713 35.6312 45.6538 34.7503 45.6538 33.6617C45.63 32.5917 44.756 31.7375 43.6859 31.7375V31.6923Z" fill="#004ADF"/>
<path d="M43.6859 47.7604C42.0049 47.7604 40.6406 46.3976 40.6406 44.7164C40.6406 43.0356 42.0049 41.6729 43.6859 41.6729C45.3654 41.6729 46.7283 43.0356 46.7283 44.7164C46.7283 46.3976 45.3654 47.7604 43.6859 47.7604ZM43.6859 42.747C42.5989 42.747 41.7165 43.6283 41.7165 44.7164C41.7165 45.8036 42.5989 46.6859 43.6859 46.6859C44.7713 46.6859 45.6538 45.8036 45.6538 44.7164C45.6538 43.6283 44.7713 42.747 43.6859 42.747Z" fill="#004ADF"/>
<path d="M48.5644 53.2662C46.8835 53.2662 45.5205 51.9021 45.5205 50.2223C45.5191 48.5415 46.8835 47.1787 48.5644 47.1787C50.2439 47.1787 51.6082 48.5415 51.6082 50.2223C51.6082 51.9021 50.2439 53.2662 48.5644 53.2662ZM48.5644 48.2529C47.4775 48.2529 46.595 49.1341 46.595 50.2223C46.595 51.3094 47.4775 52.1917 48.5644 52.1917C49.6499 52.1917 50.5323 51.3094 50.5323 50.2223C50.4414 49.2056 49.5854 48.4279 48.5644 48.431V48.2529Z" fill="#004ADF"/>
<path d="M98.6896 34.6464C98.0718 34.6464 97.5703 34.1465 97.5703 33.5275C97.5703 32.9095 98.0718 32.4082 98.6896 32.4082C99.3072 32.4082 99.8087 32.9095 99.8087 33.5275C99.8087 34.1465 99.3072 34.6464 98.6896 34.6464ZM98.6896 32.8114C98.2944 32.8114 97.9737 33.1322 97.9737 33.5275C97.9737 33.9225 98.2944 34.2432 98.6896 34.2432C99.0859 34.2432 99.4054 33.9225 99.4054 33.5275C99.4054 33.1322 99.0859 32.8114 98.6896 32.8114Z" fill="#004ADF"/>
<path d="M102.046 41.3603C101.428 41.3603 100.927 40.859 100.927 40.2414C100.927 39.6234 101.428 39.1221 102.046 39.1221C102.664 39.1221 103.165 39.6234 103.165 40.2414C103.165 40.859 102.664 41.3603 102.046 41.3603ZM102.046 39.5253C101.651 39.5253 101.33 39.846 101.33 40.2414C101.33 40.6363 101.651 40.9571 102.046 40.9571C102.441 40.9571 102.762 40.6363 102.762 40.2414C102.762 39.846 102.441 39.5253 102.046 39.5253Z" fill="#004ADF"/>
<path d="M108.894 31.3349C108.276 31.3349 107.774 30.8336 107.774 30.216C107.774 29.598 108.276 29.0967 108.894 29.0967C109.511 29.0967 110.013 29.598 110.013 30.216C110.013 30.8336 109.511 31.3349 108.894 31.3349ZM108.894 29.4999C108.499 29.4999 108.178 29.8206 108.178 30.216C108.178 30.6109 108.499 30.9317 108.894 30.9317C109.289 30.9317 109.609 30.6109 109.609 30.216C109.609 29.8206 109.289 29.4999 108.894 29.4999Z" fill="#004ADF"/>
<path d="M108.894 48.0292C108.276 48.0292 107.774 47.5279 107.774 46.9103C107.774 46.2924 108.276 45.791 108.894 45.791C109.511 45.791 110.013 46.2924 110.013 46.9103C110.013 47.5279 109.511 48.0292 108.894 48.0292ZM108.894 46.1942C108.499 46.1942 108.178 46.515 108.178 46.9103C108.178 47.3053 108.499 47.6261 108.894 47.6261C109.289 47.6261 109.609 47.3053 109.609 46.9103C109.609 46.515 109.289 46.1942 108.894 46.1942Z" fill="#004ADF"/>
<path d="M109.297 41.4052C108.68 41.4052 108.177 40.9039 108.177 40.2863C108.177 39.6683 108.68 39.167 109.297 39.167C109.914 39.167 110.417 39.6683 110.417 40.2863C110.417 40.9039 109.914 41.4052 109.297 41.4052ZM109.297 39.5702C108.902 39.5702 108.58 39.891 108.58 40.2863C108.58 40.6813 108.902 41.002 109.297 41.002C109.691 41.002 110.013 40.6813 110.013 40.2863C110.013 39.891 109.691 39.5702 109.297 39.5702Z" fill="#004ADF"/>
<path d="M111.669 55.5478C111.052 55.5478 110.549 55.0465 110.549 54.4289C110.549 53.8109 111.052 53.3096 111.669 53.3096C112.286 53.3096 112.789 53.8109 112.789 54.4289C112.789 55.0465 112.286 55.5478 111.669 55.5478ZM111.669 53.7128C111.274 53.7128 110.952 54.0335 110.952 54.4289C110.952 54.8238 111.274 55.1446 111.669 55.1446C112.063 55.1446 112.385 54.8238 112.385 54.4289C112.385 54.0335 112.063 53.7128 111.669 53.7128Z" fill="#004ADF"/>
<path d="M115.026 62.2158C114.408 62.2158 113.905 61.7158 113.905 61.0968C113.905 60.4789 114.408 59.9775 115.026 59.9775C115.642 59.9775 116.145 60.4789 116.145 61.0968C116.145 61.7158 115.642 62.2158 115.026 62.2158ZM115.026 60.3807C114.629 60.3807 114.309 60.7015 114.309 61.0968C114.309 61.4918 114.631 61.8126 115.026 61.8126C115.419 61.8126 115.742 61.4918 115.742 61.0968C115.791 60.7046 115.513 60.3472 115.12 60.2969C115.089 60.2942 115.055 60.2911 115.026 60.2911V60.3807Z" fill="#004ADF"/>
<path d="M117.442 48.0292C116.824 48.0292 116.322 47.5279 116.322 46.9103C116.322 46.2924 116.824 45.791 117.442 45.791C118.059 45.791 118.561 46.2924 118.561 46.9103C118.561 47.5279 118.059 48.0292 117.442 48.0292ZM117.442 46.1942C117.046 46.1942 116.726 46.515 116.726 46.9103C116.726 47.3053 117.046 47.6261 117.442 47.6261C117.838 47.6261 118.157 47.3053 118.157 46.9103C118.157 46.515 117.838 46.1942 117.442 46.1942Z" fill="#004ADF"/>
<path d="M119.904 54.831C119.286 54.831 118.783 54.3297 118.783 53.7121C118.783 53.0941 119.286 52.5928 119.904 52.5928C120.52 52.5928 121.023 53.0941 121.023 53.7121C121.023 54.3297 120.52 54.831 119.904 54.831ZM119.904 52.996C119.509 52.996 119.187 53.3167 119.187 53.7121C119.187 54.107 119.509 54.4278 119.904 54.4278C120.299 54.4278 120.62 54.107 120.62 53.7121C120.62 53.3167 120.299 52.996 119.904 52.996Z" fill="#004ADF"/>
<path d="M119.187 68.3925C118.569 68.3925 118.069 67.8926 118.069 67.2736C118.069 66.6556 118.569 66.1543 119.187 66.1543C119.805 66.1543 120.306 66.6556 120.306 67.2736C120.306 67.8926 119.805 68.3925 119.187 68.3925ZM119.187 66.5575C118.792 66.5575 118.471 66.8783 118.471 67.2736C118.471 67.6699 118.792 67.9893 119.187 67.9893C119.584 67.9893 119.904 67.6699 119.904 67.2736C119.839 66.9316 119.536 66.6864 119.187 66.6922V66.5575Z" fill="#004ADF"/>
<path d="M117.442 39.2119C116.824 39.2119 116.322 38.7105 116.322 38.0929C116.322 37.475 116.824 36.9736 117.442 36.9736C118.059 36.9736 118.561 37.475 118.561 38.0929C118.561 38.7105 118.059 39.2119 117.442 39.2119ZM117.442 37.3768C117.046 37.3768 116.726 37.6976 116.726 38.0929C116.726 38.4879 117.046 38.8087 117.442 38.8087C117.838 38.8087 118.157 38.4879 118.157 38.0929C118.157 37.6976 117.838 37.3768 117.442 37.3768Z" fill="#004ADF"/>
<path d="M117.98 32.8564C117.362 32.8564 116.86 32.3551 116.86 31.7375C116.86 31.1195 117.362 30.6182 117.98 30.6182C118.597 30.6182 119.097 31.1195 119.097 31.7375C119.097 32.3551 118.597 32.8564 117.98 32.8564ZM117.98 31.0214C117.583 31.0214 117.264 31.3421 117.264 31.7375C117.264 32.1324 117.583 32.4532 117.98 32.4532C118.375 32.4532 118.695 32.1324 118.695 31.7375C118.77 31.3493 118.515 30.9738 118.127 30.8996C118.078 30.8897 118.029 30.8856 117.98 30.887V31.0214Z" fill="#004ADF"/>
<path d="M48.5644 42.3004C46.8835 42.3004 45.5205 40.9363 45.5205 39.2565C45.5191 37.5757 46.8835 36.2129 48.5644 36.2129C50.2439 36.2129 51.6082 37.5757 51.6082 39.2565C51.6082 40.9363 50.2439 42.3004 48.5644 42.3004ZM48.5644 37.287C47.4775 37.287 46.595 38.1683 46.595 39.2565C46.595 40.3436 47.4775 41.2259 48.5644 41.2259C49.6499 41.2259 50.5323 40.3436 50.5323 39.2565C50.5099 38.1864 49.6345 37.3322 48.5644 37.3322V37.287Z" fill="#004ADF"/>
<path d="M43.6859 59.2623C42.0049 59.2623 40.6406 57.8995 40.6406 56.2184C40.6406 54.5376 42.0049 53.1748 43.6859 53.1748C45.3654 53.1748 46.7283 54.5376 46.7283 56.2184C46.7283 57.8995 45.3654 59.2623 43.6859 59.2623ZM43.6859 54.2489C42.5989 54.2489 41.7165 55.1302 41.7165 56.2184C41.7165 57.3069 42.5989 58.1878 43.6859 58.1878C44.7713 58.1878 45.6538 57.3069 45.6538 56.2184C45.6538 55.1302 44.7713 54.2489 43.6859 54.2489Z" fill="#004ADF"/>
<path d="M43.5504 70.273C41.8694 70.273 40.5078 68.9089 40.5078 67.2291C40.5078 65.5483 41.8694 64.1855 43.5504 64.1855C45.2312 64.1855 46.5941 65.5483 46.5941 67.2291C46.5941 68.9089 45.2312 70.273 43.5504 70.273ZM43.5504 65.2597C42.4634 65.2597 41.5809 66.141 41.5809 67.2291C41.5809 68.3163 42.4634 69.1986 43.5504 69.1986C44.6387 69.1986 45.5196 68.3163 45.5196 67.2291C45.5196 66.141 44.6387 65.2597 43.5504 65.2597Z" fill="#004ADF"/>
<path d="M48.5644 64.7682C46.8835 64.7682 45.5205 63.4054 45.5205 61.7242C45.5191 60.0434 46.8835 58.6807 48.5644 58.6807C50.2439 58.6807 51.6082 60.0434 51.6082 61.7242C51.6082 63.4054 50.2439 64.7682 48.5644 64.7682ZM48.5644 59.7548C47.4775 59.7548 46.595 60.6361 46.595 61.7242C46.595 62.8114 47.4775 63.6937 48.5644 63.6937C49.6499 63.6937 50.5323 62.8114 50.5323 61.7242C50.5323 60.6361 49.6499 59.7548 48.5644 59.7548Z" fill="#004ADF"/>
<path d="M58.3217 53.2662C56.6407 53.2662 55.2764 51.9021 55.2764 50.2223C55.2764 48.5415 56.6407 47.1787 58.3217 47.1787C60.0011 47.1787 61.364 48.5415 61.364 50.2223C61.364 51.9021 60.0011 53.2662 58.3217 53.2662ZM58.3217 48.2529C57.2332 48.2529 56.3522 49.1341 56.3522 50.2223C56.3522 51.3094 57.2332 52.1917 58.3217 52.1917C59.4071 52.1917 60.2896 51.3094 60.2896 50.2223C60.1972 49.2056 59.3426 48.4279 58.3217 48.431V48.2529Z" fill="#004ADF"/>
<path d="M58.3217 42.3004C56.6407 42.3004 55.2764 40.9363 55.2764 39.2565C55.2764 37.5757 56.6407 36.2129 58.3217 36.2129C60.0011 36.2129 61.364 37.5757 61.364 39.2565C61.364 40.9363 60.0011 42.3004 58.3217 42.3004ZM58.3217 37.287C57.2332 37.287 56.3522 38.1683 56.3522 39.2565C56.3522 40.3436 57.2332 41.2259 58.3217 41.2259C59.4071 41.2259 60.2896 40.3436 60.2896 39.2565C60.2658 38.1864 59.3917 37.3322 58.3217 37.3322V37.287Z" fill="#004ADF"/>
<path d="M58.3217 64.7682C56.6407 64.7682 55.2764 63.4054 55.2764 61.7242C55.2764 60.0434 56.6407 58.6807 58.3217 58.6807C60.0011 58.6807 61.364 60.0434 61.364 61.7242C61.364 63.4054 60.0011 64.7682 58.3217 64.7682ZM58.3217 59.7548C57.2332 59.7548 56.3522 60.6361 56.3522 61.7242C56.3522 62.8114 57.2332 63.6937 58.3217 63.6937C59.4071 63.6937 60.2896 62.8114 60.2896 61.7242C60.2896 60.6361 59.4071 59.7548 58.3217 59.7548Z" fill="#004ADF"/>
<path d="M53.4873 36.7057C51.8063 36.7057 50.4434 35.3429 50.4434 33.6617C50.442 31.9809 51.8063 30.6182 53.4873 30.6182C55.1667 30.6182 56.531 31.9809 56.531 33.6617C56.531 35.3429 55.1667 36.7057 53.4873 36.7057ZM53.4873 31.6923C52.4003 31.6923 51.5178 32.5736 51.5178 33.6617C51.5178 34.7503 52.4003 35.6312 53.4873 35.6312C54.5741 35.6312 55.4552 34.7503 55.4552 33.6617C55.4328 32.5917 54.5573 31.7375 53.4873 31.7375V31.6923Z" fill="#004ADF"/>
<path d="M53.6211 47.7604C51.9401 47.7604 50.5771 46.3976 50.5771 44.7164C50.5771 43.0356 51.9401 41.6729 53.6211 41.6729C55.3019 41.6729 56.6635 43.0356 56.6635 44.7164C56.6634 46.3976 55.3019 47.7604 53.6211 47.7604ZM53.6211 42.747C52.5326 42.747 51.6516 43.6283 51.6516 44.7164C51.6516 45.8036 52.5326 46.6859 53.6211 46.6859C54.7079 46.6859 55.5903 45.8036 55.5903 44.7164C55.5903 43.6283 54.7079 42.747 53.6211 42.747Z" fill="#004ADF"/>
<path d="M53.6211 59.2623C51.9401 59.2623 50.5771 57.8995 50.5771 56.2184C50.5771 54.5376 51.9401 53.1748 53.6211 53.1748C55.3019 53.1748 56.6635 54.5376 56.6635 56.2184C56.6634 57.8995 55.3019 59.2623 53.6211 59.2623ZM53.6211 54.2489C52.5326 54.2489 51.6516 55.1302 51.6516 56.2184C51.6516 57.3069 52.5326 58.1878 53.6211 58.1878C54.7079 58.1878 55.5903 57.3069 55.5903 56.2184C55.5903 55.1302 54.7079 54.2489 53.6211 54.2489Z" fill="#004ADF"/>
<path d="M53.3529 70.273C51.6719 70.273 50.3076 68.9089 50.3076 67.2291C50.3076 65.5483 51.6719 64.1855 53.3529 64.1855C55.0324 64.1855 56.3967 65.5483 56.3967 67.2291C56.3967 68.9089 55.0324 70.273 53.3529 70.273ZM53.3529 65.2597C52.2659 65.2597 51.3835 66.141 51.3835 67.2291C51.3835 68.3163 52.2659 69.1986 53.3529 69.1986C54.4383 69.1986 55.3208 68.3163 55.3208 67.2291C55.3208 66.141 54.4383 65.2597 53.3529 65.2597Z" fill="#004ADF"/>
<path d="M63.4677 36.7057C61.7868 36.7057 60.4238 35.3429 60.4238 33.6617C60.4238 31.9809 61.7868 30.6182 63.4677 30.6182C65.1486 30.6182 66.5101 31.9809 66.5101 33.6617C66.5101 35.3429 65.1486 36.7057 63.4677 36.7057ZM63.4677 31.6923C62.3808 31.6923 61.4983 32.5736 61.4983 33.6617C61.4983 34.7503 62.3808 35.6312 63.4677 35.6312C64.5545 35.6312 65.437 34.7503 65.437 33.6617C65.4119 32.5917 64.5378 31.7375 63.4677 31.7375V31.6923Z" fill="#004ADF"/>
<path d="M63.4677 47.7604C61.7868 47.7604 60.4238 46.3976 60.4238 44.7164C60.4238 43.0356 61.7868 41.6729 63.4677 41.6729C65.1486 41.6729 66.5101 43.0356 66.5101 44.7164C66.5101 46.3976 65.1486 47.7604 63.4677 47.7604ZM63.4677 42.747C62.3808 42.747 61.4983 43.6283 61.4983 44.7164C61.4983 45.8036 62.3808 46.6859 63.4677 46.6859C64.5545 46.6859 65.437 45.8036 65.437 44.7164C65.437 43.6283 64.5545 42.747 63.4677 42.747Z" fill="#004ADF"/>
<path d="M68.2109 53.2662C66.5299 53.2662 65.167 51.9021 65.167 50.2223C65.167 48.5415 66.5299 47.1787 68.2109 47.1787C69.8917 47.1787 71.2547 48.5415 71.2547 50.2223C71.2547 51.9021 69.8917 53.2662 68.2109 53.2662ZM68.2109 48.2529C67.1253 48.2529 66.2415 49.1341 66.2415 50.2223C66.2415 51.3094 67.1253 52.1917 68.2109 52.1917C69.2977 52.1917 70.1802 51.3094 70.1802 50.2223C70.0865 49.2056 69.2319 48.4279 68.2109 48.431V48.2529Z" fill="#004ADF"/>
<path d="M68.2109 42.3004C66.5299 42.3004 65.167 40.9363 65.167 39.2565C65.167 37.5757 66.5299 36.2129 68.2109 36.2129C69.8917 36.2129 71.2547 37.5757 71.2547 39.2565C71.2547 40.9363 69.8917 42.3004 68.2109 42.3004ZM68.2109 37.287C67.1253 37.287 66.2415 38.1683 66.2415 39.2565C66.2415 40.3436 67.1253 41.2259 68.2109 41.2259C69.2977 41.2259 70.1802 40.3436 70.1802 39.2565C70.1564 38.1864 69.281 37.3322 68.2109 37.3322V37.287Z" fill="#004ADF"/>
<path d="M63.4677 59.2623C61.7868 59.2623 60.4238 57.8995 60.4238 56.2184C60.4238 54.5376 61.7868 53.1748 63.4677 53.1748C65.1486 53.1748 66.5101 54.5376 66.5101 56.2184C66.5101 57.8995 65.1486 59.2623 63.4677 59.2623ZM63.4677 54.2489C62.3808 54.2489 61.4983 55.1302 61.4983 56.2184C61.4983 57.3069 62.3808 58.1878 63.4677 58.1878C64.5545 58.1878 65.437 57.3069 65.437 56.2184C65.437 55.1302 64.5545 54.2489 63.4677 54.2489Z" fill="#004ADF"/>
<path d="M63.333 70.273C61.652 70.273 60.2891 68.9089 60.2891 67.2291C60.2891 65.5483 61.652 64.1855 63.333 64.1855C65.0124 64.1855 66.3767 65.5483 66.3767 67.2291C66.3767 68.9089 65.0124 70.273 63.333 70.273ZM63.333 65.2597C62.246 65.2597 61.3635 66.141 61.3635 67.2291C61.3635 68.3163 62.246 69.1986 63.333 69.1986C64.4198 69.1986 65.3009 68.3163 65.3009 67.2291C65.3009 66.141 64.4198 65.2597 63.333 65.2597Z" fill="#004ADF"/>
<path d="M68.2109 64.7682C66.5299 64.7682 65.167 63.4054 65.167 61.7242C65.167 60.0434 66.5299 58.6807 68.2109 58.6807C69.8917 58.6807 71.2547 60.0434 71.2547 61.7242C71.2547 63.4054 69.8917 64.7682 68.2109 64.7682ZM68.2109 59.7548C67.1253 59.7548 66.2415 60.6361 66.2415 61.7242C66.2415 62.8114 67.1253 63.6937 68.2109 63.6937C69.2977 63.6937 70.1802 62.8114 70.1802 61.7242C70.1802 60.6361 69.2977 59.7548 68.2109 59.7548Z" fill="#004ADF"/>
<path d="M78.1025 53.2662C76.4215 53.2662 75.0586 51.9021 75.0586 50.2223C75.0586 48.5415 76.4215 47.1787 78.1025 47.1787C79.782 47.1787 81.1463 48.5415 81.1463 50.2223C81.1463 51.9021 79.782 53.2662 78.1025 53.2662ZM78.1025 48.2529C77.0155 48.2529 76.1331 49.1341 76.1331 50.2223C76.1331 51.3094 77.0155 52.1917 78.1025 52.1917C79.1893 52.1917 80.0704 51.3094 80.0704 50.2223C79.9794 49.2056 79.1235 48.4279 78.1025 48.431V48.2529Z" fill="#004ADF"/>
<path d="M78.1025 42.3004C76.4215 42.3004 75.0586 40.9363 75.0586 39.2565C75.0586 37.5757 76.4215 36.2129 78.1025 36.2129C79.782 36.2129 81.1463 37.5757 81.1463 39.2565C81.1463 40.9363 79.782 42.3004 78.1025 42.3004ZM78.1025 37.287C77.0155 37.287 76.1331 38.1683 76.1331 39.2565C76.1331 40.3436 77.0155 41.2259 78.1025 41.2259C79.1893 41.2259 80.0704 40.3436 80.0704 39.2565C80.048 38.1864 79.1739 37.3322 78.1025 37.3322V37.287Z" fill="#004ADF"/>
<path d="M78.1025 64.7682C76.4215 64.7682 75.0586 63.4054 75.0586 61.7242C75.0586 60.0434 76.4215 58.6807 78.1025 58.6807C79.782 58.6807 81.1463 60.0434 81.1463 61.7242C81.1463 63.4054 79.782 64.7682 78.1025 64.7682ZM78.1025 59.7548C77.0155 59.7548 76.1331 60.6361 76.1331 61.7242C76.1331 62.8114 77.0155 63.6937 78.1025 63.6937C79.1893 63.6937 80.0704 62.8114 80.0704 61.7242C80.0704 60.6361 79.1893 59.7548 78.1025 59.7548Z" fill="#004ADF"/>
<path d="M73.2681 36.7057C71.5872 36.7057 70.2256 35.3429 70.2256 33.6617C70.2256 31.9809 71.5872 30.6182 73.2681 30.6182C74.949 30.6182 76.3119 31.9809 76.3119 33.6617C76.3119 35.3429 74.949 36.7057 73.2681 36.7057ZM73.2681 31.6923C72.1812 31.6923 71.2987 32.5736 71.2987 33.6617C71.2987 34.7503 72.1812 35.6312 73.2681 35.6312C74.3565 35.6312 75.2374 34.7503 75.2374 33.6617C75.2136 32.5917 74.3382 31.7375 73.2681 31.7375V31.6923Z" fill="#004ADF"/>
<path d="M73.4037 47.7604C71.7227 47.7604 70.3584 46.3976 70.3584 44.7164C70.3584 43.0356 71.7227 41.6729 73.4037 41.6729C75.0831 41.6729 76.4461 43.0356 76.4461 44.7164C76.4461 46.3976 75.0831 47.7604 73.4037 47.7604ZM73.4037 42.747C72.3167 42.747 71.4343 43.6283 71.4343 44.7164C71.4343 45.8036 72.3167 46.6859 73.4037 46.6859C74.4891 46.6859 75.3716 45.8036 75.3716 44.7164C75.3716 43.6283 74.4891 42.747 73.4037 42.747Z" fill="#004ADF"/>
<path d="M73.4037 59.2623C71.7227 59.2623 70.3584 57.8995 70.3584 56.2184C70.3584 54.5376 71.7227 53.1748 73.4037 53.1748C75.0831 53.1748 76.4461 54.5376 76.4461 56.2184C76.4461 57.8995 75.0831 59.2623 73.4037 59.2623ZM73.4037 54.2489C72.3167 54.2489 71.4343 55.1302 71.4343 56.2184C71.4343 57.3069 72.3167 58.1878 73.4037 58.1878C74.4891 58.1878 75.3716 57.3069 75.3716 56.2184C75.3716 55.1302 74.4891 54.2489 73.4037 54.2489Z" fill="#004ADF"/>
<path d="M73.1338 70.273C71.4528 70.273 70.0898 68.9089 70.0898 67.2291C70.0898 65.5483 71.4528 64.1855 73.1338 64.1855C74.8146 64.1855 76.1775 65.5483 76.1775 67.2291C76.1775 68.9089 74.8146 70.273 73.1338 70.273ZM73.1338 65.2597C72.0468 65.2597 71.1643 66.141 71.1643 67.2291C71.1643 68.3163 72.0468 69.1986 73.1338 69.1986C74.2206 69.1986 75.103 68.3163 75.103 67.2291C75.103 66.141 74.2206 65.2597 73.1338 65.2597Z" fill="#004ADF"/>
<path d="M88.1279 53.2662C86.4469 53.2662 85.084 51.9021 85.084 50.2223C85.084 48.5415 86.4469 47.1787 88.1279 47.1787C89.8073 47.1787 91.1717 48.5415 91.1717 50.2223C91.1717 51.9021 89.8073 53.2662 88.1279 53.2662ZM88.1279 48.2529C87.0409 48.2529 86.1585 49.1341 86.1585 50.2223C86.1585 51.3094 87.0409 52.1917 88.1279 52.1917C89.2147 52.1917 90.0958 51.3094 90.0958 50.2223C90.0048 49.2056 89.1489 48.4279 88.1279 48.431V48.2529Z" fill="#004ADF"/>
<path d="M88.1279 64.7682C86.4469 64.7682 85.084 63.4054 85.084 61.7242C85.084 60.0434 86.4469 58.6807 88.1279 58.6807C89.8073 58.6807 91.1717 60.0434 91.1717 61.7242C91.1717 63.4054 89.8073 64.7682 88.1279 64.7682ZM88.1279 59.7548C87.0409 59.7548 86.1585 60.6361 86.1585 61.7242C86.1585 62.8114 87.0409 63.6937 88.1279 63.6937C89.2147 63.6937 90.0958 62.8114 90.0958 61.7242C90.0958 60.6361 89.2147 59.7548 88.1279 59.7548Z" fill="#004ADF"/>
<path d="M83.3838 47.7604C81.7028 47.7604 80.3398 46.3976 80.3398 44.7164C80.3385 43.0356 81.7028 41.6729 83.3838 41.6729C85.0632 41.6729 86.4275 43.0356 86.4275 44.7164C86.4275 46.3976 85.0632 47.7604 83.3838 47.7604ZM83.3838 42.747C82.2968 42.747 81.4143 43.6283 81.4143 44.7164C81.4143 45.8036 82.2968 46.6859 83.3838 46.6859C84.4692 46.6859 85.3517 45.8036 85.3517 44.7164C85.3517 43.6283 84.4692 42.747 83.3838 42.747Z" fill="#004ADF"/>
<path d="M83.4273 59.2623C81.7463 59.2623 80.3848 57.8995 80.3848 56.2184C80.3848 54.5376 81.7463 53.1748 83.4273 53.1748C85.1081 53.1748 86.4711 54.5376 86.4711 56.2184C86.4711 57.8995 85.1081 59.2623 83.4273 59.2623ZM83.4273 54.2489C82.3404 54.2489 81.4579 55.1302 81.4579 56.2184C81.4579 57.3069 82.3404 58.1878 83.4273 58.1878C84.5157 58.1878 85.3966 57.3069 85.3966 56.2184C85.3966 55.1302 84.5157 54.2489 83.4273 54.2489Z" fill="#004ADF"/>
<path d="M83.1148 70.273C81.4338 70.273 80.0723 68.9089 80.0723 67.2291C80.0723 65.5483 81.4338 64.1855 83.1148 64.1855C84.7956 64.1855 86.1586 65.5483 86.1586 67.2291C86.1586 68.9089 84.7956 70.273 83.1148 70.273ZM83.1148 65.2597C82.0279 65.2597 81.1454 66.141 81.1454 67.2291C81.1454 68.3163 82.0279 69.1986 83.1148 69.1986C84.2032 69.1986 85.0841 68.3163 85.0841 67.2291C85.0841 66.141 84.2032 65.2597 83.1148 65.2597Z" fill="#004ADF"/>
<path d="M98.1519 64.7682C96.4723 64.7682 95.1094 63.4054 95.1094 61.7242C95.108 60.0434 96.4723 58.6807 98.1519 58.6807C99.8327 58.6807 101.197 60.0434 101.197 61.7242C101.197 63.4054 99.8327 64.7682 98.1519 64.7682ZM98.1519 59.7548C97.0663 59.7548 96.1839 60.6361 96.1839 61.7242C96.1839 62.8114 97.0663 63.6937 98.1519 63.6937C99.2387 63.6937 100.121 62.8114 100.121 61.7242C100.121 60.6361 99.2387 59.7548 98.1519 59.7548Z" fill="#004ADF"/>
<path d="M93.4095 59.2623C91.7286 59.2623 90.3643 57.8995 90.3643 56.2184C90.3643 54.5376 91.7286 53.1748 93.4095 53.1748C95.089 53.1748 96.4533 54.5376 96.4533 56.2184C96.4533 57.8995 95.089 59.2623 93.4095 59.2623ZM93.4095 54.2489C92.3226 54.2489 91.4401 55.1302 91.4401 56.2184C91.4401 57.3069 92.3226 58.1878 93.4095 58.1878C94.495 58.1878 95.3774 57.3069 95.3774 56.2184C95.3774 55.1302 94.495 54.2489 93.4095 54.2489Z" fill="#004ADF"/>
<path d="M93.1402 70.273C91.4592 70.273 90.0977 68.9089 90.0977 67.2291C90.0963 65.5483 91.4592 64.1855 93.1402 64.1855C94.821 64.1855 96.184 65.5483 96.184 67.2291C96.184 68.9089 94.821 70.273 93.1402 70.273ZM93.1402 65.2597C92.0532 65.2597 91.1708 66.141 91.1708 67.2291C91.1708 68.3163 92.0533 69.1986 93.1402 69.1986C94.2285 69.1986 95.1095 68.3163 95.1095 67.2291C95.1095 66.141 94.2285 65.2597 93.1402 65.2597Z" fill="#004ADF"/>
<path d="M102.763 70.273C101.082 70.273 99.7188 68.9089 99.7188 67.2291C99.7174 65.5483 101.082 64.1855 102.763 64.1855C104.442 64.1855 105.806 65.5483 105.806 67.2291C105.806 68.9089 104.442 70.273 102.763 70.273ZM102.763 65.2597C101.676 65.2597 100.793 66.141 100.793 67.2291C100.793 68.3163 101.676 69.1986 102.763 69.1986C103.848 69.1986 104.731 68.3163 104.731 67.2291C104.731 66.141 103.848 65.2597 102.763 65.2597Z" fill="#004ADF"/>
<path d="M117.264 76.0902L75.417 24.5322H78.6399L120.665 76.4041L117.264 76.0902Z" fill="#004ADF"/>
<path d="M119.5 77.728H42.0747C37.5672 77.728 33.9014 74.061 33.9014 69.5548V30.1718C33.9014 25.6656 37.5672 22 42.0747 22H119.5C124.006 22 127.672 25.6656 127.672 30.1718V69.5548C127.672 74.061 124.006 77.728 119.5 77.728ZM42.0747 24.8278C39.1276 24.8278 36.7309 27.2261 36.7309 30.1718V69.5548C36.7309 72.5019 39.1276 74.8998 42.0747 74.8998H119.5C122.447 74.8998 124.845 72.5019 124.845 69.5548V30.1718C124.845 27.2261 122.447 24.8278 119.5 24.8278H42.0747Z" fill="white"/>
<path d="M143.803 65.0842C142.782 65.0842 141.815 64.6348 141.157 63.8545L134.943 56.6562C134.638 56.292 134.2 56.0875 133.734 56.0875H126.975V54.2008H133.734C134.757 54.2008 135.721 54.6502 136.379 55.4319L142.593 62.6302C142.9 62.9944 143.338 63.1989 143.803 63.1989H153.067C153.423 63.2803 153.78 63.0785 154.058 62.8573C154.73 62.3166 154.839 61.3303 154.302 60.658L140.514 43.2891C140.216 42.9163 139.751 42.7778 139.287 42.705H127.064V40.8193H139.283H139.3C140.35 40.8193 141.331 41.2916 141.989 42.1151L155.775 59.483C156.961 60.9634 156.72 63.1373 155.237 64.3281C154.628 64.8154 153.86 65.0842 153.076 65.0842H153.065H143.803Z" fill="white"/>
<path d="M49.7415 92.1849H52.1408V96.792C51.526 97.2571 50.8116 97.6127 50.002 97.8638C49.1882 98.1103 48.3716 98.2362 47.5507 98.2362C46.3714 98.2362 45.3109 97.9855 44.371 97.4811C43.4297 96.977 42.6915 96.2808 42.1552 95.3899C41.62 94.4936 41.3525 93.4892 41.3525 92.3617C41.3525 91.2383 41.62 90.2295 42.1552 89.3387C42.6915 88.4437 43.4353 87.7474 44.3864 87.2434C45.3376 86.7417 46.4092 86.4883 47.5984 86.4883C48.5942 86.4883 49.4977 86.6579 50.3087 86.9927C51.1197 87.3275 51.8006 87.8134 52.3539 88.4509L50.6659 90.0082C49.8549 89.154 48.8758 88.7265 47.7287 88.7265C47.003 88.7265 46.3601 88.878 45.7998 89.1834C45.2367 89.486 44.7983 89.9132 44.4845 90.4651C44.1694 91.014 44.0138 91.6473 44.0138 92.3617C44.0138 93.0648 44.1694 93.6923 44.4845 94.2443C44.7983 94.7959 45.234 95.2275 45.79 95.5328C46.3474 95.8423 46.9833 95.9966 47.6964 95.9966C48.4528 95.9966 49.1349 95.8341 49.7415 95.5116V92.1849Z" fill="#004ADF"/>
<path d="M62.1113 87.1867C62.8536 87.5229 63.4238 87.9978 63.8243 88.6127C64.2235 89.2317 64.4253 89.9601 64.4253 90.8034C64.4253 91.6368 64.2235 92.3652 63.8243 92.9873C63.4238 93.6104 62.8536 94.0854 62.1113 94.413C61.3703 94.745 60.4976 94.9105 59.492 94.9105H57.2059V98.041H54.5781V86.6826H59.492C60.4976 86.6826 61.3703 86.8519 62.1113 87.1867ZM61.1476 92.2544C61.5594 91.9155 61.7625 91.4337 61.7625 90.8034C61.7625 90.166 61.5594 89.6773 61.1476 89.3384C60.7371 88.9951 60.1349 88.8254 59.3463 88.8254H57.2059V92.7674H59.3463C60.1349 92.7674 60.7371 92.5978 61.1476 92.2544Z" fill="#004ADF"/>
<path d="M68.9179 88.7933V91.7951H74.1748V93.9048H68.9179V98.041H66.29V86.6826H74.8724V88.7933H68.9179Z" fill="#004ADF"/>
<path d="M79.4977 84.3809H81.7529L76.3993 99.6658H74.1426L79.4977 84.3809Z" fill="#004ADF"/>
<path d="M84.3735 97.4746C83.4267 96.9661 82.6857 96.2657 82.1493 95.3705C81.6155 94.4796 81.3467 93.4783 81.3467 92.3617C81.3467 91.2496 81.6155 90.2439 82.1493 89.3531C82.6857 88.4622 83.4267 87.7618 84.3735 87.2506C85.3191 86.7421 86.3823 86.4873 87.5616 86.4873C88.7397 86.4873 89.8 86.7421 90.7413 87.2506C91.6826 87.7618 92.4236 88.4622 92.9656 89.3531C93.5036 90.2439 93.7753 91.2496 93.7753 92.3617C93.7753 93.4783 93.5036 94.4796 92.9656 95.3705C92.4236 96.2657 91.6826 96.9661 90.7413 97.4746C89.8 97.9828 88.7397 98.2366 87.5616 98.2366C86.3823 98.2366 85.3191 97.9828 84.3735 97.4746ZM89.3785 95.5329C89.9192 95.2279 90.3435 94.7963 90.6517 94.2443C90.9598 93.6924 91.1138 93.0649 91.1138 92.3617C91.1138 91.6587 90.9598 91.0325 90.6517 90.4805C90.3435 89.9272 89.9192 89.5001 89.3785 89.1906C88.8363 88.8811 88.2325 88.7269 87.5616 88.7269C86.8908 88.7269 86.2857 88.8811 85.7435 89.1906C85.2042 89.5001 84.7784 89.9272 84.4703 90.4805C84.162 91.0325 84.0079 91.6587 84.0079 92.3617C84.0079 93.0649 84.162 93.6924 84.4703 94.2443C84.7784 94.7963 85.2042 95.2279 85.7435 95.5329C86.2857 95.8427 86.8908 95.9966 87.5616 95.9966C88.2325 95.9966 88.8363 95.8427 89.3785 95.5329Z" fill="#004ADF"/>
<path d="M103.288 87.1867C104.031 87.5229 104.601 87.9978 105 88.6127C105.401 89.2317 105.602 89.9601 105.602 90.8034C105.602 91.6368 105.401 92.3652 105 92.9873C104.601 93.6104 104.031 94.0854 103.288 94.413C102.547 94.745 101.675 94.9105 100.669 94.9105H98.3816V98.041H95.7539V86.6826H100.669C101.675 86.6826 102.547 86.8519 103.288 87.1867ZM102.325 92.2544C102.735 91.9155 102.94 91.4337 102.94 90.8034C102.94 90.166 102.735 89.6773 102.325 89.3384C101.914 88.9951 101.312 88.8254 100.523 88.8254H98.3816V92.7674H100.523C101.312 92.7674 101.914 92.5978 102.325 92.2544Z" fill="#004ADF"/>
<path d="M110.097 88.7933V91.7951H115.354V93.9048H110.097V98.041H107.469V86.6826H116.051V88.7933H110.097Z" fill="#004ADF"/>
<path d="M22.2306 53.0317C21.1814 53.0317 20.2022 52.5625 19.5425 51.739L5.75506 34.3698C5.18225 33.654 4.9203 32.7536 5.02118 31.8388C5.12343 30.9213 5.57432 30.0992 6.29435 29.5247C6.90375 29.0373 7.67132 28.7686 8.45427 28.7686H8.46556H17.7271H17.7355C18.7566 28.7686 19.7176 29.2179 20.3745 30.001L26.5853 37.1952C26.8936 37.5635 27.3277 37.6503 27.7955 37.7639H34.5555V39.6492H27.7971C26.7142 39.6311 25.808 39.2026 25.1497 38.4181L18.9374 31.2239C18.632 30.857 18.1965 30.6539 17.7341 30.6539H8.46265C8.09007 30.5865 7.75117 30.7756 7.47246 30.9982C7.14604 31.2588 6.94154 31.6302 6.8952 32.046C6.85041 32.4609 6.96805 32.8699 7.23 33.1947L21.0161 50.5637C21.3131 50.9323 21.7571 51.1464 22.2347 51.1464H22.2431H34.4659V53.0317H22.2473H22.2306Z" fill="white"/>
</svg>
