<svg width="162" height="122" viewBox="0 0 162 122" fill="none" xmlns="http://www.w3.org/2000/svg">
<path d="M76.1288 107.124C60.747 107.124 48.6973 100.918 48.6973 92.9982C48.6973 85.0794 60.747 78.874 76.1288 78.874C91.5091 78.874 103.559 85.0794 103.559 92.9982C103.559 100.918 91.5091 107.124 76.1288 107.124ZM76.1288 82.9326C62.3546 82.9326 52.7559 88.2379 52.7559 92.9981C52.7559 97.7599 62.3546 103.065 76.1288 103.065C89.903 103.065 99.5002 97.7599 99.5002 92.9981C99.5002 88.2378 89.9029 82.9326 76.1288 82.9326Z" fill="white"/>
<path d="M103.56 40.3076H99.501V92.9976H103.56V40.3076Z" fill="white"/>
<path d="M52.7563 92.9962H48.6973V39.375L52.7563 42.2518V92.9962Z" fill="white"/>
<path d="M107.254 31.7531C107.254 39.9389 93.3186 46.5736 76.1292 46.5736C58.9382 46.5736 45.0029 39.9389 45.0029 31.7531C45.0029 23.5663 58.9382 16.9316 76.1292 16.9316C93.3184 16.9314 107.254 23.5663 107.254 31.7531Z" stroke="#EFEEEE" stroke-miterlimit="10"/>
<path d="M78.1579 57.2666H74.1006V68.1241H78.1579V57.2666Z" fill="white"/>
<path d="M71.3154 62.4717L76.1261 67.2892L80.9436 62.4717V66.558L76.1261 71.3687L71.3154 66.558V62.4717Z" fill="white"/>
<path d="M114.696 92.9985H103.005V43.3711H114.696C114.883 43.3712 115.069 43.4082 115.242 43.4799C115.415 43.5517 115.572 43.6568 115.704 43.7893C115.837 43.9218 115.942 44.0791 116.013 44.2522C116.085 44.4253 116.122 44.6108 116.122 44.7981V91.573C116.121 91.951 115.971 92.3134 115.704 92.5806C115.437 92.8479 115.074 92.9981 114.696 92.9985Z" stroke="white" stroke-width="0.5" stroke-miterlimit="10"/>
<mask id="mask0_1702_706" style="mask-type:luminance" maskUnits="userSpaceOnUse" x="45" y="16" width="63" height="30">
<path d="M45 30.8212C45 39.0083 58.9381 45.6432 76.1277 45.6432C93.3185 45.6432 107.254 39.0081 107.254 30.8212C107.254 22.6372 93.3185 16.001 76.1277 16.001C58.9381 16.001 45 22.6372 45 30.8212Z" fill="white"/>
</mask>
<g mask="url(#mask0_1702_706)">
<path d="M139.764 -8.9575V-10.0317H124.132L-254.799 -26.3809H-255.873L123.058 -10.0314H121.132L-257.799 -26.3809H-258.873L120.058 -10.0314H118.132L-260.799 -26.3809H-261.873L117.058 -10.0314H115.132L-263.798 -26.3809H-264.871L114.06 -10.0314H112.138L-266.793 -26.3809H-267.867L111.064 -10.0314H109.138L-269.793 -26.3809H-270.867L108.064 -10.0314H106.138L-272.793 -26.3809H-273.867L105.064 -10.0314H103.14L-275.791 -26.3809H-276.865L102.066 -10.0314H100.138L-278.793 -26.3809H-279.866L99.0652 -10.0314H97.1435L-281.788 -26.3809H-282.862L96.0694 -10.0314H94.1436L-284.787 -26.3809H-285.861L93.0699 -10.0314H91.1441L-287.787 -26.3809H-288.861L90.07 -10.0314H88.1456L-290.786 -26.3809H-291.86L87.0714 -10.0314H85.1458L-293.785 -26.3809H-294.859L84.0715 -10.0314H82.1499L-296.781 -26.3809H-297.855L81.0757 -10.0314H79.15L-299.781 -26.3809H-300.855L78.0758 -10.0314H76.15L-302.781 -26.3809H-303.855L75.0757 -10.0314H73.1512L-305.78 -26.3809H-306.854L72.0771 -10.0314H70.1512L-308.78 -26.3809H-309.854L69.0774 -10.0314H67.1558L-311.775 -26.3809H-312.849L66.0817 -10.0314H64.1558L-314.775 -26.3809H-315.849L63.0819 -10.0314H61.156L-317.775 -26.3809H-318.849L60.0818 -10.0314H58.1573L-320.774 -26.3809H-321.848L57.0835 -10.0314H55.1576L-323.773 -26.3809H-324.847L54.0836 -10.0314H52.1578L-326.773 -26.3809H-327.847L51.0837 -10.0314H49.1614L-329.77 -26.3809H-330.843L48.0885 -10.0314H46.1615L-332.769 -26.3809H-333.843L45.0877 -10.0314H43.1632L-335.768 -26.3809H-336.842L42.0889 -10.0314H40.1633L-338.768 -26.3809H-339.842L39.0891 -10.0314H37.1633L-341.768 -26.3809H-342.842L36.0892 -10.0314H34.1676L-344.763 -26.3809H-345.836L33.0949 -10.0314H31.1692L-347.762 -26.3809H-348.836L30.095 -10.0314H11.4631V-8.9575H30.095V-7.03166H11.4631V-5.95883H30.095V-4.03306H11.4631V-2.95749H30.095V-1.03288H11.4631V0.0424803H30.095V1.96422H11.4631V3.03705H30.095V4.96289H11.4631V6.03709H30.095V7.96286H11.4631V9.03569H30.095V10.9615H11.4631V12.037H30.095V13.9615H11.4631V15.0356H30.095V16.9626H11.4631V18.0354H30.095V19.957H11.4631V21.0312H30.095V22.9569H11.4631V24.0297H30.095V25.9554H11.4631V27.0309H30.095V28.9554H11.4631V30.0294H30.095V31.9564H11.4631V33.0292H30.095V34.9508H11.4631V36.0248H30.095V37.9508H11.4631V39.0248H30.095V40.9493H11.4631V42.0248H30.095V43.9492H11.4631V45.0233H30.095V46.9491H11.4631V48.0231H30.095V49.9449H11.4631V51.0178H30.095V52.9448H11.4631V54.019H30.095V55.9434H11.4631V57.0188H30.095V58.9433H11.4631V60.0175H30.095V61.9433H11.4631V63.0173H30.095V64.9391H11.4631V66.0119H30.095V67.938H11.4631V69.0136H30.095V70.9378H11.4631V72.0132H30.095V73.9377H11.4631V75.0119H30.095V76.9375H11.4631V78.0115H30.095V79.9373H11.4631V81.0086H30.095V82.9318H11.4631V84.0073H30.095V98.2329H31.1692V84.0073H33.0949V98.2329H34.1677V84.0073H36.0892V98.2329H37.1632V84.0073H39.0891V98.2329H40.1633V84.0073H42.0889V98.2329H43.163V84.0073H45.0874V98.2329H46.1616V84.0073H48.0886V98.2329H49.1614V84.0073H51.0831V98.2329H52.1571V84.0073H54.083V98.2329H55.1571V84.0073H57.083V98.2329H58.157V84.0073H60.0815V98.2329H61.1556V84.0073H63.0815V98.2329H64.1555V84.0073H66.0813V98.2329H67.1555V84.0073H69.0772V98.2329H70.1512V84.0073H72.0771V98.2329H73.1512V84.0073H75.0757V98.2329H76.1497V84.0073H78.0756V98.2329H79.1497V84.0073H81.0755V98.2329H82.1496V84.0073H84.0713V98.2329H85.1458V84.0073H87.0716V98.2329H88.1456V84.0073H90.07V98.2329H91.1441V84.0073H93.0699V98.2329H94.1441V84.0073H96.0699V98.2329H97.144V84.0073H99.0656V98.2329H100.138V84.0073H102.065V98.2329H103.139V84.0073H105.064V98.2329H106.138V84.0073H108.063V98.2329H109.138V84.0073H111.063V98.2329H112.137V84.0073H114.059V98.2329H115.132V84.0073H117.058V98.2329H118.132V84.0073H120.058V98.2329H121.132V84.0073H123.058V98.2329H124.132V84.0073H139.764V82.9318H124.132V81.0086H139.764V79.9373H124.132V78.0115H139.764V76.9375H124.132V75.0117H139.764V73.9377H124.132V72.0132H139.764V70.9378H124.132V69.0134H139.764V67.938H124.132V66.0122H139.764V64.9393H124.132V63.0176H139.764V61.9435H124.132V60.0178H139.764V58.9436H124.132V57.019H139.764V55.9437H124.132V54.0192H139.764V52.945H124.132V51.018H139.764V49.9451H124.132V48.0233H139.764V46.9493H124.132V45.0235H139.764V43.9494H124.132V42.025H139.764V40.9495H124.132V39.025H139.764V37.951H124.132V36.025H139.764V34.951H124.132V33.0294H139.764V31.9566H124.132V30.0296H139.764V28.9556H124.132V27.0309H139.764V25.9554H124.132V24.0295H139.764V22.9567H124.132V21.0311H139.764V19.9569H124.132V18.0353H139.764V16.9624H124.132V15.0354H139.764V13.9615H124.132V12.0368H139.764V10.9613H124.132V9.03542H139.764V7.96259H124.132V6.03695H139.764V4.96275H124.132V3.03692H139.764V1.96408H124.132V0.0424803H139.764V-1.03288H124.132V-2.95735H139.764V-4.03292H124.132V-5.95869H139.764V-7.03152H124.132V-8.9575H139.764ZM120.058 -7.03166H118.132V-8.9575H120.058V-7.03166ZM76.15 33.0292H78.0758V34.9509H76.15V33.0292ZM78.0758 37.9507H76.15V36.0249H78.0758V37.9507ZM75.076 34.9509H73.1502V33.0292H75.076V34.9509ZM75.076 37.9507H73.1502V36.0249H75.076V37.9507ZM75.076 40.9492H73.1502V39.0234H75.076V40.9492ZM76.15 39.0247H78.0759V40.9506H76.15V39.0247ZM79.1499 39.0247H81.0757V40.9506H79.1499V39.0247ZM79.1499 36.0249H81.0757V37.9507H79.1499V36.0249ZM79.1499 33.0293H81.0757V34.951H79.1499V33.0293ZM79.1499 30.0295H81.0757V31.9565H79.1499V30.0295ZM78.0758 31.9565H76.1499V30.0295H78.0758V31.9565ZM75.0759 31.9565H73.1501V30.0295H75.0759V31.9565ZM72.0773 31.9565H70.1515V30.0295H72.0773V31.9565ZM72.0773 34.9508H70.1515V33.0292H72.0773V34.9508ZM72.0773 37.9507H70.1515V36.0248H72.0773V37.9507ZM72.0773 40.9491H70.1515V39.0233H72.0773V40.9491ZM72.0773 43.949H70.1515V42.0231H72.0773V43.949ZM73.1514 42.0246H75.0772V43.9505H73.1514V42.0246ZM76.15 42.0246H78.0758V43.9505H76.15V42.0246ZM79.1498 42.0246H81.0756V43.9505H79.1498V42.0246ZM82.1497 42.0246H84.0713V43.9505H82.1497V42.0246ZM82.1497 39.0248H84.0713V40.9506H82.1497V39.0248ZM82.1497 36.025H84.0713V37.9508H82.1497V36.025ZM82.1497 33.0294H84.0713V34.9511H82.1497V33.0294ZM82.1497 30.0295H84.0713V31.9565H82.1497V30.0295ZM82.1497 27.0311H84.0713V28.9569H82.1497V27.0311ZM81.0755 28.9555H79.1497V27.0296H81.0755V28.9555ZM78.0757 28.9555H76.1499V27.0296H78.0757V28.9555ZM75.0759 28.9555H73.15V27.0296H75.0759V28.9555ZM72.0773 28.9555H70.1514V27.0296H72.0773V28.9555ZM69.0774 28.9555H67.1558V27.0296H69.0774V28.9555ZM69.0774 31.9567H67.1558V30.0297H69.0774V31.9567ZM69.0774 34.9511H67.1558V33.0292H69.0774V34.9511ZM69.0774 37.9509H67.1558V36.0251H69.0774V37.9509ZM69.0774 40.9494H67.1558V39.0236H69.0774V40.9494ZM69.0774 43.9492H67.1558V42.0234H69.0774V43.9492ZM69.0774 46.9491H67.1558V45.0232H69.0774V46.9491ZM70.1515 45.0232H72.0773V46.9491H70.1515V45.0232ZM73.1513 45.0232H75.0771V46.9491H73.1513V45.0232ZM76.1499 45.0232H78.0757V46.9491H76.1499V45.0232ZM79.1497 45.0232H81.0755V46.9491H79.1497V45.0232ZM82.1495 45.0232H84.0712V46.9491H82.1495V45.0232ZM85.1453 45.0232H87.0711V46.9491H85.1458L85.1453 45.0232ZM85.1453 42.0248H87.0711V43.9506H85.1458L85.1453 42.0248ZM85.1453 39.0249H87.0711V40.9508H85.1458L85.1453 39.0249ZM85.1453 36.0251H87.0711V37.9509H85.1458L85.1453 36.0251ZM85.1453 33.0295H87.0711V34.9512H85.1458L85.1453 33.0295ZM85.1453 30.0297H87.0711V31.9567H85.1458L85.1453 30.0297ZM85.1453 27.0312H87.0711V28.957H85.1458L85.1453 27.0312ZM85.1453 24.0298H87.0711V25.9554H85.1458L85.1453 24.0298ZM84.0712 25.9556H82.1495V24.0295H84.0712V25.9556ZM81.0754 25.9556H79.1496V24.0295H81.0754V25.9556ZM78.0756 25.9556H76.1497V24.0295H78.0756V25.9556ZM75.0757 25.9556H73.1499V24.0295H75.0757V25.9556ZM72.0771 25.9556H70.1513V24.0295H72.0771V25.9556ZM69.0773 25.9556H67.1556V24.0295H69.0773V25.9556ZM66.0815 25.9556H64.1558V24.0295H66.0816L66.0815 25.9556ZM66.0815 28.9555H64.1558V27.0296H66.0816L66.0815 28.9555ZM66.0815 31.9567H64.1558V30.0297H66.0816L66.0815 31.9567ZM66.0815 34.951H64.1558V33.0292H66.0816L66.0815 34.951ZM66.0815 37.9509H64.1558V36.025H66.0816L66.0815 37.9509ZM66.0815 40.9493H64.1558V39.0235H66.0816L66.0815 40.9493ZM66.0815 43.9492H64.1558V42.0233H66.0816L66.0815 43.9492ZM66.0815 46.949H64.1558V45.0232H66.0816L66.0815 46.949ZM66.0815 49.9448H64.1558V48.023H66.0816L66.0815 49.9448ZM67.1556 48.023H69.0773V49.9448H67.1556V48.023ZM70.1514 48.023H72.0772V49.9448H70.1514V48.023ZM73.1512 48.023H75.077V49.9448H73.1512V48.023ZM76.1497 48.023H78.0756V49.9448H76.1497V48.023ZM79.1496 48.023H81.0753V49.9448H79.1496V48.023ZM82.1494 48.023H84.0711V49.9448H82.1494V48.023ZM85.1451 48.023H87.071V49.9448H85.1458L85.1451 48.023ZM88.145 48.023H90.0708V49.9448H88.1456L88.145 48.023ZM88.145 45.0232H90.0708V46.949H88.1456L88.145 45.0232ZM88.145 42.0247H90.0708V43.9505H88.1456L88.145 42.0247ZM88.145 39.0249H90.0708V40.9507H88.1456L88.145 39.0249ZM88.145 36.025H90.0708V37.9509H88.1456L88.145 36.025ZM88.145 33.0294H90.0708V34.9512H88.1456L88.145 33.0294ZM88.145 30.0296H90.0708V31.9566H88.1456L88.145 30.0296ZM88.145 27.0311H90.0708V28.957H88.1456L88.145 27.0311ZM88.145 24.0297H90.0708V25.9554H88.1456L88.145 24.0297ZM88.145 21.0313H90.0708V22.9569H88.1456L88.145 21.0313ZM87.0708 22.9571H85.1458V21.0311H87.0716L87.0708 22.9571ZM84.071 22.9571H82.1493V21.0311H84.071V22.9571ZM81.0752 22.9571H79.1494V21.0311H81.0752V22.9571ZM78.0754 22.9571H76.1495V21.0311H78.0754V22.9571ZM75.0755 22.9571H73.1497V21.0311H75.0755V22.9571ZM72.0769 22.9571H70.1511V21.0311H72.0769V22.9571ZM69.0771 22.9571H67.1554V21.0311H69.0771V22.9571ZM66.0813 22.9571H64.1558V21.0311H66.0816L66.0813 22.9571ZM63.0815 22.9571H61.1556V21.0311H63.0815V22.9571ZM63.0815 25.9556H61.1556V24.0295H63.0815V25.9556ZM63.0815 28.9554H61.1556V27.0296H63.0815V28.9554ZM63.0815 31.9566H61.1556V30.0296H63.0815V31.9566ZM63.0815 34.951H61.1556V33.0292H63.0815V34.951ZM63.0815 37.9508H61.1556V36.025H63.0815V37.9508ZM63.0815 40.9493H61.1556V39.0234H63.0815V40.9493ZM63.0815 43.9491H61.1556V42.0233H63.0815V43.9491ZM63.0815 46.9489H61.1556V45.0231H63.0815V46.9489ZM63.0815 49.9447H61.1556V48.0229H63.0815V49.9447ZM63.0815 52.9446H61.1556V51.0176H63.0815V52.9446ZM64.1555 51.0176H66.0813V52.9446H64.1558L64.1555 51.0176ZM67.1553 51.0176H69.077V52.9446H67.1553V51.0176ZM70.1511 51.0176H72.0769V52.9446H70.1511V51.0176ZM73.1509 51.0176H75.0767V52.9446H73.1509V51.0176ZM76.1494 51.0176H78.0753V52.9446H76.1494V51.0176ZM79.1493 51.0176H81.0751V52.9446H79.1493V51.0176ZM82.1491 51.0176H84.0708V52.9446H82.1491V51.0176ZM85.1449 51.0176H87.0707V52.9446H85.1458L85.1449 51.0176ZM88.1447 51.0176H90.0705V52.9446H88.1456L88.1447 51.0176ZM91.1432 51.0176H93.069V52.9446H91.1441L91.1432 51.0176ZM91.1432 48.0231H93.069V49.9449H91.1441L91.1432 48.0231ZM91.1432 45.0233H93.069V46.9491H91.1441L91.1432 45.0233ZM91.1432 42.0248H93.069V43.9507H91.1441L91.1432 42.0248ZM91.1432 39.025H93.069V40.9508H91.1441L91.1432 39.025ZM91.1432 36.0252H93.069V37.951H91.1441L91.1432 36.0252ZM91.1432 33.0296H93.069V34.9513H91.1441L91.1432 33.0296ZM91.1432 30.0297H93.069V31.9567H91.1441L91.1432 30.0297ZM91.1432 27.0313H93.069V28.9571H91.1441L91.1432 27.0313ZM91.1432 24.0299H93.069V25.9554H91.1441L91.1432 24.0299ZM91.1432 21.0314H93.069V22.9569H91.1441L91.1432 21.0314ZM91.1432 18.0356H93.069V19.9571H91.1441L91.1432 18.0356ZM90.0691 19.9572H88.1442V18.0351H90.07L90.0691 19.9572ZM87.0705 19.9572H85.1458V18.0351H87.0716L87.0705 19.9572ZM84.0707 19.9572H82.1491V18.0351H84.0707V19.9572ZM81.0749 19.9572H79.1491V18.0351H81.0749V19.9572ZM78.0751 19.9572H76.1492V18.0351H78.0751V19.9572ZM75.0752 19.9572H73.1494V18.0351H75.0752V19.9572ZM72.0766 19.9572H70.1508V18.0351H72.0766V19.9572ZM69.0768 19.9572H67.1551V18.0351H69.0768V19.9572ZM66.081 19.9572H64.1558V18.0351H66.0816L66.081 19.9572ZM63.0812 19.9572H61.1553V18.0351H63.0812V19.9572ZM60.0813 19.9572H58.1555V18.0351H60.0813V19.9572ZM60.0813 22.957H58.1555V21.0311H60.0813V22.957ZM60.0813 25.9555H58.1555V24.0295H60.0813V25.9555ZM60.0813 28.9553H58.1555V27.0296H60.0813V28.9553ZM60.0813 31.9565H58.1555V30.0295H60.0813V31.9565ZM60.0813 34.9509H58.1555V33.0292H60.0813V34.9509ZM60.0813 37.9507H58.1555V36.0249H60.0813V37.9507ZM60.0813 40.9492H58.1555V39.0234H60.0813V40.9492ZM60.0813 43.949H58.1555V42.0232H60.0813V43.949ZM60.0813 46.9489H58.1555V45.023H60.0813V46.9489ZM60.0813 49.9447H58.1555V48.0229H60.0813V49.9447ZM60.0813 52.9445H58.1555V51.0175H60.0813V52.9445ZM60.0813 55.9432H58.1555V54.0178H60.0813V55.9432ZM61.1555 54.0187H63.0813V55.9445H61.1555V54.0187ZM64.1553 54.0187H66.0812V55.9445H64.1558L64.1553 54.0187ZM67.1551 54.0187H69.0768V55.9445H67.1551V54.0187ZM70.1509 54.0187H72.0767V55.9445H70.1509V54.0187ZM73.1507 54.0187H75.0765V55.9445H73.1507V54.0187ZM76.1492 54.0187H78.0751V55.9445H76.1492V54.0187ZM79.1491 54.0187H81.0749V55.9445H79.1491V54.0187ZM82.1489 54.0187H84.0706V55.9445H82.1489V54.0187ZM85.1447 54.0187H87.0705V55.9445H85.1458L85.1447 54.0187ZM88.1445 54.0187H90.0703V55.9445H88.1456L88.1445 54.0187ZM91.143 54.0187H93.0688V55.9445H91.1441L91.143 54.0187ZM94.1428 54.0187H96.0686V55.9445H94.1428V54.0187ZM94.1428 51.0173H96.0686V52.9443H94.1428V51.0173ZM94.1428 48.0229H96.0686V49.9447H94.1428V48.0229ZM94.1428 45.023H96.0686V46.9489H94.1428V45.023ZM94.1428 42.0246H96.0686V43.9504H94.1428V42.0246ZM94.1428 39.0247H96.0686V40.9506H94.1428V39.0247ZM94.1428 36.0249H96.0686V37.9507H94.1428V36.0249ZM94.1428 33.0293H96.0686V34.951H94.1428V33.0293ZM94.1428 30.0295H96.0686V31.9565H94.1428V30.0295ZM94.1428 27.031H96.0686V28.9568H94.1428V27.031ZM94.1428 24.0296H96.0686V25.9554H94.1428V24.0296ZM94.1428 21.0311H96.0686V22.9569H94.1428V21.0311ZM94.1428 18.0353H96.0686V19.9571H94.1428V18.0353ZM94.1428 15.0355H96.0686V16.9625H94.1428V15.0355ZM93.0686 16.9625H91.1428V15.0355H93.0686V16.9625ZM90.0688 16.9625H88.1442V15.0355H90.07L90.0688 16.9625ZM87.0702 16.9625H85.1458V15.0355H87.0716L87.0702 16.9625ZM84.0704 16.9625H82.1487V15.0355H84.0704V16.9625ZM81.0746 16.9625H79.1488V15.0355H81.0746V16.9625ZM78.0747 16.9625H76.1489V15.0355H78.0747V16.9625ZM75.0749 16.9625H73.1491V15.0355H75.0749V16.9625ZM72.0763 16.9625H70.1505V15.0355H72.0763V16.9625ZM69.0765 16.9625H67.1548V15.0355H69.0765V16.9625ZM66.0807 16.9625H64.1558V15.0355H66.0816L66.0807 16.9625ZM63.0808 16.9625H61.155V15.0355H63.0808V16.9625ZM60.081 16.9625H58.1551V15.0355H60.081V16.9625ZM57.0825 16.9625H55.1566V15.0355H57.0825V16.9625ZM57.0825 19.9569H55.1566V18.0351H57.0825V19.9569ZM57.0825 22.9568H55.1566V21.0311H57.0825V22.9568ZM57.0825 25.9552H55.1566V24.0295H57.0825V25.9552ZM57.0825 28.9551H55.1566V27.0296H57.0825V28.9551ZM57.0825 31.9563H55.1566V30.0293H57.0825V31.9563ZM57.0825 34.9506H55.1566V33.0292H57.0825V34.9506ZM57.0825 37.9505H55.1566V36.0246H57.0825V37.9505ZM57.0825 40.9489H55.1566V39.0231H57.0825V40.9489ZM57.0825 43.9488H55.1566V42.0229H57.0825V43.9488ZM57.0825 46.9486H55.1566V45.0228H57.0825V46.9486ZM57.0825 49.9444H55.1566V48.0226H57.0825V49.9444ZM57.0825 52.9442H55.1566V51.0172H57.0825V52.9442ZM57.0825 55.9429H55.1566V54.0178H57.0825V55.9429ZM57.0825 58.9427H55.1566V57.0176H57.0825V58.9427ZM58.1565 57.0183H60.0824V58.9441H58.1565V57.0183ZM61.1551 57.0183H63.081V58.9441H61.1551V57.0183ZM64.155 57.0183H66.0808V58.9441H64.1558L64.155 57.0183ZM67.1548 57.0183H69.0765V58.9441H67.1548V57.0183ZM70.1505 57.0183H72.0764V58.9441H70.1505V57.0183ZM73.1504 57.0183H75.0761V58.9441H73.1504V57.0183ZM76.1489 57.0183H78.0747V58.9441H76.1489V57.0183ZM79.1487 57.0183H81.0745V58.9441H79.1487V57.0183ZM82.1486 57.0183H84.0702V58.9441H82.1486V57.0183ZM85.1443 57.0183H87.0701V58.9441H85.1458L85.1443 57.0183ZM88.1441 57.0183H90.07V58.9441H88.1456L88.1441 57.0183ZM91.1426 57.0183H93.0684V58.9441H91.1441L91.1426 57.0183ZM94.1424 57.0183H96.0683V58.9441H94.1424V57.0183ZM97.1423 57.0183H99.064V58.9441H97.1423V57.0183ZM97.1423 54.0184H99.064V55.9443H97.1423V54.0184ZM97.1423 51.017H99.064V52.944H97.1423V51.017ZM97.1423 48.0226H99.064V49.9444H97.1423V48.0226ZM97.1423 45.0228H99.064V46.9486H97.1423V45.0228ZM97.1423 42.0243H99.064V43.9501H97.1423V42.0243ZM97.1423 39.0245H99.064V40.9503H97.1423V39.0245ZM97.1423 36.0246H99.064V37.9505H97.1423V36.0246ZM97.1423 33.029H99.064V34.9508H97.1423V33.029ZM97.1423 30.0292H99.064V31.9562H97.1423V30.0292ZM97.1423 27.0307H99.064V28.9566H97.1423V27.0307ZM97.1423 24.0293H99.064V25.9554H97.1423V24.0293ZM97.1423 21.0309H99.064V22.9569H97.1423V21.0309ZM97.1423 18.0351H99.064V19.9571H97.1423V18.0351ZM97.1423 15.0352H99.064V16.9622H97.1423V15.0352ZM97.1423 12.0367H99.064V13.9625H97.1423V12.0367ZM96.0682 13.9612H94.1424V12.0354H96.0682V13.9612ZM93.0684 13.9612H91.1425V12.0354H93.0684V13.9612ZM90.0685 13.9612H88.1442V12.0354H90.07L90.0685 13.9612ZM87.0699 13.9612H85.1458V12.0354H87.0716L87.0699 13.9612ZM84.0701 13.9612H82.1484V12.0354H84.0701V13.9612ZM81.0743 13.9612H79.1485V12.0354H81.0743V13.9612ZM78.0745 13.9612H76.1486V12.0354H78.0745V13.9612ZM75.0746 13.9612H73.1488V12.0354H75.0746V13.9612ZM72.076 13.9612H70.1502V12.0354H72.076V13.9612ZM69.0762 13.9612H67.1545V12.0354H69.0762V13.9612ZM66.0804 13.9612H64.1558V12.0354H66.0816L66.0804 13.9612ZM63.0806 13.9612H61.1547V12.0354H63.0806V13.9612ZM60.0807 13.9612H58.1549V12.0354H60.0807V13.9612ZM57.0822 13.9612H55.1564V12.0354H57.0822V13.9612ZM54.0824 13.9612H52.1565V12.0354H54.0824V13.9612ZM54.0824 16.9624H52.1565V15.0354H54.0824V16.9624ZM54.0824 19.9568H52.1565V18.0351H54.0824V19.9568ZM54.0824 22.9566H52.1565V21.0311H54.0824V22.9566ZM54.0824 25.9551H52.1565V24.0295H54.0824V25.9551ZM54.0824 28.9549H52.1565V27.0296H54.0824V28.9549ZM54.0824 31.9561H52.1565V30.0291H54.0824V31.9561ZM54.0824 34.9505H52.1565V33.0292H54.0824V34.9505ZM54.0824 37.9503H52.1565V36.0245H54.0824V37.9503ZM54.0824 40.9488H52.1565V39.023H54.0824V40.9488ZM54.0824 43.9486H52.1565V42.0228H54.0824V43.9486ZM54.0824 46.9485H52.1565V45.0226H54.0824V46.9485ZM54.0824 49.9443H52.1565V48.0225H54.0824V49.9443ZM54.0824 52.9441H52.1565V51.0171H54.0824V52.9441ZM54.0824 55.9428H52.1565V54.0178H54.0824V55.9428ZM54.0824 58.9426H52.1565V57.0176H54.0824V58.9426ZM54.0824 61.9424H52.1565V60.0167H54.0824V61.9424ZM55.1565 60.0167H57.0823V61.9424H55.1565V60.0167ZM58.1563 60.0167H60.0822V61.9424H58.1563V60.0167ZM61.1549 60.0167H63.0808V61.9424H61.1549V60.0167ZM64.1548 60.0167H66.0806V61.9424H64.1558L64.1548 60.0167ZM67.1546 60.0167H69.0763V61.9424H67.1546V60.0167ZM70.1503 60.0167H72.0762V61.9424H70.1503V60.0167ZM73.1502 60.0167H75.0759V61.9424H73.1502V60.0167ZM76.1487 60.0167H78.0745V61.9424H76.1487V60.0167ZM79.1485 60.0167H81.0743V61.9424H79.1485V60.0167ZM82.1483 60.0167H84.07V61.9424H82.1483V60.0167ZM85.1441 60.0167H87.0699V61.9424H85.1458L85.1441 60.0167ZM88.1439 60.0167H90.0698V61.9424H88.1456L88.1439 60.0167ZM91.1424 60.0167H93.0682V61.9424H91.1441L91.1424 60.0167ZM94.1422 60.0167H96.0681V61.9424H94.1422V60.0167ZM97.1421 60.0167H99.0638V61.9424H97.1421V60.0167ZM100.136 60.0167H102.062V61.9424H100.138L100.136 60.0167ZM100.136 57.018H102.062V58.9438H100.138L100.136 57.018ZM100.136 54.0182H102.062V55.944H100.138L100.136 54.0182ZM100.136 51.0168H102.062V52.9438H100.138L100.136 51.0168ZM100.136 48.0223H102.062V49.9441H100.138L100.136 48.0223ZM100.136 45.0225H102.062V46.9483H100.138L100.136 45.0225ZM100.136 42.024H102.062V43.9499H100.138L100.136 42.024ZM100.136 39.0242H102.062V40.95H100.138L100.136 39.0242ZM100.136 36.0244H102.062V37.9502H100.138L100.136 36.0244ZM100.136 33.0288H102.062V34.9505H100.138L100.136 33.0288ZM100.136 30.0289H102.062V31.9559H100.138L100.136 30.0289ZM100.136 27.0305H102.062V28.9563H100.138L100.136 27.0305ZM100.136 24.0291H102.062V25.9554H100.138L100.136 24.0291ZM100.136 21.0306H102.062V22.9569H100.138L100.136 21.0306ZM100.136 18.0348H102.062V19.9571H100.138L100.136 18.0348ZM100.136 15.035H102.062V16.9619H100.138L100.136 15.035ZM100.136 12.0364H102.062V13.9623H100.138L100.136 12.0364ZM100.136 9.03508H102.062V10.9609H100.138L100.136 9.03508ZM99.0636 10.9609H97.1419V9.03542H99.0636V10.9609ZM96.0679 10.9609H94.142V9.03542H96.0679V10.9609ZM93.068 10.9609H91.1422V9.03542H93.068V10.9609ZM90.0682 10.9609H88.1442V9.03542H90.07L90.0682 10.9609ZM87.0696 10.9609H85.1458V9.03542H87.0716L87.0696 10.9609ZM84.0698 10.9609H82.1481V9.03542H84.0698V10.9609ZM81.074 10.9609H79.1482V9.03542H81.074V10.9609ZM78.0741 10.9609H76.1483V9.03542H78.0741V10.9609ZM75.0743 10.9609H73.1484V9.03542H75.0743V10.9609ZM72.0757 10.9609H70.1498V9.03542H72.0757V10.9609ZM69.0759 10.9609H67.1542V9.03542H69.0759V10.9609ZM66.0801 10.9609H64.1558V9.03542H66.0816L66.0801 10.9609ZM63.0802 10.9609H61.1544V9.03542H63.0802V10.9609ZM60.0804 10.9609H58.1545V9.03542H60.0804V10.9609ZM57.0819 10.9609H55.156V9.03542H57.0819V10.9609ZM54.082 10.9609H52.1562V9.03542H54.082V10.9609ZM51.0822 10.9609H49.1614V9.03542H51.0831L51.0822 10.9609ZM51.0822 13.9608H49.1614V12.0354H51.0831L51.0822 13.9608ZM51.0822 16.9619H49.1614V15.035H51.0831L51.0822 16.9619ZM51.0822 19.9564H49.1614V18.0351H51.0831L51.0822 19.9564ZM51.0822 22.9562H49.1614V21.0311H51.0831L51.0822 22.9562ZM51.0822 25.9547H49.1614V24.0295H51.0831L51.0822 25.9547ZM51.0822 28.9545H49.1614V27.0296H51.0831L51.0822 28.9545ZM51.0822 31.9557H49.1614V30.0287H51.0831L51.0822 31.9557ZM51.0822 34.9501H49.1614V33.0292H51.0831L51.0822 34.9501ZM51.0822 37.9499H49.1614V36.0241H51.0831L51.0822 37.9499ZM51.0822 40.9484H49.1614V39.0225H51.0831L51.0822 40.9484ZM51.0822 43.9482H49.1614V42.0224H51.0831L51.0822 43.9482ZM51.0822 46.9481H49.1614V45.0222H51.0831L51.0822 46.9481ZM51.0822 49.9439H49.1614V48.022H51.0831L51.0822 49.9439ZM51.0822 52.9437H49.1614V51.0167H51.0831L51.0822 52.9437ZM51.0822 55.9424H49.1614V54.0178H51.0831L51.0822 55.9424ZM51.0822 58.9422H49.1614V57.0176H51.0831L51.0822 58.9422ZM51.0822 61.942H49.1614V60.0163H51.0831L51.0822 61.942ZM51.0822 64.9378H49.1614V63.0161H51.0831L51.0822 64.9378ZM52.1562 63.0161H54.0821V64.9378H52.1562V63.0161ZM55.1561 63.0161H57.0819V64.9378H55.1561V63.0161ZM58.1559 63.0161H60.0818V64.9378H58.1559V63.0161ZM61.1545 63.0161H63.0804V64.9378H61.1545V63.0161ZM64.1544 63.0161H66.0802V64.9378H64.1558L64.1544 63.0161ZM67.1542 63.0161H69.0759V64.9378H67.1542V63.0161ZM70.1499 63.0161H72.0758V64.9378H70.1499V63.0161ZM73.1498 63.0161H75.0755V64.9378H73.1498V63.0161ZM76.1483 63.0161H78.0741V64.9378H76.1483V63.0161ZM79.1481 63.0161H81.0739V64.9378H79.1481V63.0161ZM82.148 63.0161H84.0696V64.9378H82.148V63.0161ZM85.1437 63.0161H87.0695V64.9378H85.1458L85.1437 63.0161ZM88.1435 63.0161H90.0694V64.9378H88.1456L88.1435 63.0161ZM91.142 63.0161H93.0678V64.9378H91.1441L91.142 63.0161ZM94.1418 63.0161H96.0677V64.9378H94.1418V63.0161ZM97.1417 63.0161H99.0633V64.9378H97.1417V63.0161ZM100.136 63.0161H102.062V64.9378H100.138L100.136 63.0161ZM103.137 63.0161H105.063V64.9378H103.137V63.0161ZM103.137 60.0163H105.063V61.942H103.137V60.0163ZM103.137 57.0176H105.063V58.9434H103.137V57.0176ZM103.137 54.0177H105.063V55.9436H103.137V54.0177ZM103.137 51.0163H105.063V52.9433H103.137V51.0163ZM103.137 48.0219H105.063V49.9437H103.137V48.0219ZM103.137 45.0221H105.063V46.9479H103.137V45.0221ZM103.137 42.0236H105.063V43.9494H103.137V42.0236ZM103.137 39.0238H105.063V40.9496H103.137V39.0238ZM103.137 36.0239H105.063V37.9498H103.137V36.0239ZM103.137 33.0283H105.063V34.9501H103.137V33.0283ZM103.137 30.0285H105.063V31.9555H103.137V30.0285ZM103.137 27.03H105.063V28.9559H103.137V27.03ZM103.137 24.0286H105.063V25.9554H103.137V24.0286ZM103.137 21.0302H105.063V22.9569H103.137V21.0302ZM103.137 18.0344H105.063V19.9571H103.137V18.0344ZM103.137 15.0345H105.063V16.9615H103.137V15.0345ZM103.137 12.036H105.063V13.9618H103.137V12.036ZM103.137 9.03467H105.063V10.9605H103.137V9.03467ZM103.137 6.0362H105.063V7.96197H103.137V6.0362ZM102.063 7.96197H100.137V6.03695H102.063V7.96197ZM99.0634 7.96197H97.1418V6.03695H99.0634V7.96197ZM96.0677 7.96197H94.1419V6.03695H96.0677V7.96197ZM93.0679 7.96197H91.1421V6.03695H93.0679V7.96197ZM90.0681 7.96197H88.1442V6.03695H90.07L90.0681 7.96197ZM87.0695 7.96197H85.1458V6.03695H87.0716L87.0695 7.96197ZM84.0696 7.96197H82.148V6.03695H84.0696V7.96197ZM81.0738 7.96197H79.1481V6.03695H81.0738V7.96197ZM78.074 7.96197H76.1481V6.03695H78.074V7.96197ZM75.0742 7.96197H73.1483V6.03695H75.0742V7.96197ZM72.0756 7.96197H70.1497V6.03695H72.0756V7.96197ZM69.0757 7.96197H67.1541V6.03695H69.0757V7.96197ZM66.0799 7.96197H64.1558V6.03695H66.0816L66.0799 7.96197ZM63.0801 7.96197H61.1542V6.03695H63.0801V7.96197ZM60.0803 7.96197H58.1544V6.03695H60.0803V7.96197ZM57.0817 7.96197H55.1559V6.03695H57.0817V7.96197ZM54.0819 7.96197H52.156V6.03695H54.0819V7.96197ZM51.082 7.96197H49.1614V6.03695H51.0831L51.082 7.96197ZM48.0877 7.96197H46.1619V6.03695H48.0877V7.96197ZM48.0877 10.9605H46.1619V9.03542H48.0877V10.9605ZM48.0877 13.9603H46.1619V12.0354H48.0877V13.9603ZM48.0877 16.9615H46.1619V15.0345H48.0877V16.9615ZM48.0877 19.956H46.1619V18.0351H48.0877V19.956ZM48.0877 22.9558H46.1619V21.0311H48.0877V22.9558ZM48.0877 25.9543H46.1619V24.0295H48.0877V25.9543ZM48.0877 28.9541H46.1619V27.0296H48.0877V28.9541ZM48.0877 31.9553H46.1619V30.0283H48.0877V31.9553ZM48.0877 34.9497H46.1619V33.0292H48.0877V34.9497ZM48.0877 37.9495H46.1619V36.0237H48.0877V37.9495ZM48.0877 40.948H46.1619V39.0221H48.0877V40.948ZM48.0877 43.9478H46.1619V42.022H48.0877V43.9478ZM48.0877 46.9476H46.1619V45.0218H48.0877V46.9476ZM48.0877 49.9434H46.1619V48.0216H48.0877V49.9434ZM48.0877 52.9433H46.1619V51.0163H48.0877V52.9433ZM48.0877 55.942H46.1619V54.0178H48.0877V55.942ZM48.0877 58.9418H46.1619V57.0176H48.0877V58.9418ZM48.0877 61.9416H46.1619V60.0158H48.0877V61.9416ZM48.0877 64.9374H46.1619V63.0157H48.0877V64.9374ZM48.0877 67.9359H46.1619V66.01H48.0877V67.9359ZM49.1605 66.01H51.0822V67.938H49.1614L49.1605 66.01ZM52.1562 66.01H54.0821V67.938H52.1562V66.01ZM55.1561 66.01H57.0819V67.938H55.1561V66.01ZM58.1559 66.01H60.0818V67.938H58.1559V66.01ZM61.1545 66.01H63.0804V67.938H61.1545V66.01ZM64.1544 66.01H66.0802V67.938H64.1558L64.1544 66.01ZM67.1542 66.01H69.0759V67.938H67.1542V66.01ZM70.1499 66.01H72.0758V67.938H70.1499V66.01ZM73.1498 66.01H75.0755V67.938H73.1498V66.01ZM76.1483 66.01H78.0741V67.938H76.1483V66.01ZM79.1481 66.01H81.0739V67.938H79.1481V66.01ZM82.148 66.01H84.0696V67.938H82.148V66.01ZM85.1437 66.01H87.0695V67.938H85.1458L85.1437 66.01ZM88.1435 66.01H90.0694V67.938H88.1456L88.1435 66.01ZM91.142 66.01H93.0678V67.938H91.1441L91.142 66.01ZM94.1418 66.01H96.0677V67.938H94.1418V66.01ZM97.1417 66.01H99.0633V67.938H97.1417V66.01ZM100.136 66.01H102.062V67.938H100.138L100.136 66.01ZM103.137 66.01H105.063V67.938H103.137V66.01ZM106.136 66.01H108.062V67.938H106.136V66.01ZM106.136 63.0157H108.062V64.9374H106.136V63.0157ZM106.136 60.0158H108.062V61.9416H106.136V60.0158ZM106.136 57.0172H108.062V58.943H106.136V57.0172ZM106.136 54.0173H108.062V55.9432H106.136V54.0173ZM106.136 51.0159H108.062V52.9429H106.136V51.0159ZM106.136 48.0215H108.062V49.9433H106.136V48.0215ZM106.136 45.0217H108.062V46.9475H106.136V45.0217ZM106.136 42.0232H108.062V43.949H106.136V42.0232ZM106.136 39.0234H108.062V40.9492H106.136V39.0234ZM106.136 36.0235H108.062V37.9494H106.136V36.0235ZM106.136 33.0279H108.062V34.9497H106.136V33.0279ZM106.136 30.0281H108.062V31.9551H106.136V30.0281ZM106.136 27.0296H108.062V28.9555H106.136V27.0296ZM106.136 24.0282H108.062V25.9554H106.136V24.0282ZM106.136 21.0298H108.062V22.9569H106.136V21.0298ZM106.136 18.034H108.062V19.9571H106.136V18.034ZM106.136 15.0341H108.062V16.9611H106.136V15.0341ZM106.136 12.0356H108.062V13.9614H106.136V12.0356ZM106.136 9.03426H108.062V10.9601H106.136V9.03426ZM106.136 6.03579H108.062V7.96156H106.136V6.03579ZM106.136 3.03596H108.062V4.9618H106.136V3.03596ZM105.062 4.9618H103.136V3.03692H105.062V4.9618ZM102.063 4.9618H100.137V3.03692H102.063V4.9618ZM99.0634 4.9618H97.1418V3.03692H99.0634V4.9618ZM96.0677 4.9618H94.1419V3.03692H96.0677V4.9618ZM93.0679 4.9618H91.1421V3.03692H93.0679V4.9618ZM90.0681 4.9618H88.1442V3.03692H90.07L90.0681 4.9618ZM87.0695 4.9618H85.1458V3.03692H87.0716L87.0695 4.9618ZM84.0696 4.9618H82.148V3.03692H84.0696V4.9618ZM81.0738 4.9618H79.1481V3.03692H81.0738V4.9618ZM78.074 4.9618H76.1481V3.03692H78.074V4.9618ZM75.0742 4.9618H73.1483V3.03692H75.0742V4.9618ZM72.0756 4.9618H70.1497V3.03692H72.0756V4.9618ZM69.0757 4.9618H67.1541V3.03692H69.0757V4.9618ZM66.0799 4.9618H64.1558V3.03692H66.0816L66.0799 4.9618ZM63.0801 4.9618H61.1542V3.03692H63.0801V4.9618ZM60.0803 4.9618H58.1544V3.03692H60.0803V4.9618ZM57.0817 4.9618H55.1559V3.03692H57.0817V4.9618ZM54.0819 4.9618H52.156V3.03692H54.0819V4.9618ZM51.082 4.9618H49.1614V3.03692H51.0831L51.082 4.9618ZM48.0877 4.9618H46.1619V3.03692H48.0877V4.9618ZM45.0864 4.9618H43.1617V3.03692H45.0876L45.0864 4.9618ZM45.0864 7.96163H43.1617V6.03695H45.0876L45.0864 7.96163ZM45.0864 10.9602H43.1617V9.03542H45.0876L45.0864 10.9602ZM45.0864 13.96H43.1617V12.0354H45.0876L45.0864 13.96ZM45.0864 16.9612H43.1617V15.0342H45.0876L45.0864 16.9612ZM45.0864 19.9556H43.1617V18.0351H45.0876L45.0864 19.9556ZM45.0864 22.9555H43.1617V21.0311H45.0876L45.0864 22.9555ZM45.0864 25.9539H43.1617V24.0295H45.0876L45.0864 25.9539ZM45.0864 28.9538H43.1617V27.0296H45.0876L45.0864 28.9538ZM45.0864 31.955H43.1617V30.028H45.0876L45.0864 31.955ZM45.0864 34.9493H43.1617V33.0292H45.0876L45.0864 34.9493ZM45.0864 37.9492H43.1617V36.0233H45.0876L45.0864 37.9492ZM45.0864 40.9476H43.1617V39.0218H45.0876L45.0864 40.9476ZM45.0864 43.9475H43.1617V42.0216H45.0876L45.0864 43.9475ZM45.0864 46.9473H43.1617V45.0215H45.0876L45.0864 46.9473ZM45.0864 49.9431H43.1617V48.0213H45.0876L45.0864 49.9431ZM45.0864 52.9429H43.1617V51.0159H45.0876L45.0864 52.9429ZM45.0864 55.9416H43.1617V54.0178H45.0876L45.0864 55.9416ZM45.0864 58.9414H43.1617V57.0176H45.0876L45.0864 58.9414ZM45.0864 61.9413H43.1617V60.0155H45.0876L45.0864 61.9413ZM45.0864 64.9371H43.1617V63.0153H45.0876L45.0864 64.9371ZM45.0864 67.9355H43.1617V66.0097H45.0876L45.0864 67.9355ZM45.0864 70.9354H43.1617V69.0084H45.0876L45.0864 70.9354ZM46.1604 69.0109H48.0863V70.9379H46.1616L46.1604 69.0109ZM49.1602 69.0109H51.0819V70.9379H49.1614L49.1602 69.0109ZM52.156 69.0109H54.0818V70.9379H52.156V69.0109ZM55.1558 69.0109H57.0817V70.9379H55.1558V69.0109ZM58.1556 69.0109H60.0815V70.9379H58.1556V69.0109ZM61.1542 69.0109H63.0801V70.9379H61.1542V69.0109ZM64.1541 69.0109H66.0799V70.9379H64.1558L64.1541 69.0109ZM67.1539 69.0109H69.0756V70.9379H67.1539V69.0109ZM70.1496 69.0109H72.0755V70.9379H70.1496V69.0109ZM73.1495 69.0109H75.0752V70.9379H73.1495V69.0109ZM76.148 69.0109H78.0739V70.9379H76.148V69.0109ZM79.1478 69.0109H81.0736V70.9379H79.1478V69.0109ZM82.1477 69.0109H84.0693V70.9379H82.1477V69.0109ZM85.1434 69.0109H87.0692V70.9379H85.1458L85.1434 69.0109ZM88.1433 69.0109H90.0691V70.9379H88.1456L88.1433 69.0109ZM91.1417 69.0109H93.0675V70.9379H91.1441L91.1417 69.0109ZM94.1416 69.0109H96.0674V70.9379H94.1416V69.0109ZM97.1414 69.0109H99.063V70.9379H97.1414V69.0109ZM100.136 69.0109H102.062V70.9379H100.138L100.136 69.0109ZM103.137 69.0109H105.063V70.9379H103.137V69.0109ZM106.136 69.0109H108.061V70.9379H106.136V69.0109ZM109.135 69.0109H111.061V70.9379H109.135V69.0109ZM109.135 66.0095H111.061V67.938H109.135V66.0095ZM109.135 63.0151H111.061V64.9369H109.135V63.0151ZM109.135 60.0153H111.061V61.9411H109.135V60.0153ZM109.135 57.0166H111.061V58.9425H109.135V57.0166ZM109.135 54.0168H111.061V55.9426H109.135V54.0168ZM109.135 51.0154H111.061V52.9424H109.135V51.0154ZM109.135 48.021H111.061V49.9428H109.135V48.021ZM109.135 45.0211H111.061V46.947H109.135V45.0211ZM109.135 42.0227H111.061V43.9485H109.135V42.0227ZM109.135 39.0228H111.061V40.9487H109.135V39.0228ZM109.135 36.023H111.061V37.9488H109.135V36.023ZM109.135 33.0274H111.061V34.9491H109.135V33.0274ZM109.135 30.0276H111.061V31.9546H109.135V30.0276ZM109.135 27.0291H111.061V28.9549H109.135V27.0291ZM109.135 24.0277H111.061V25.9554H109.135V24.0277ZM109.135 21.0292H111.061V22.9569H109.135V21.0292ZM109.135 18.0334H111.061V19.9571H109.135V18.0334ZM109.135 15.0336H111.061V16.9606H109.135V15.0336ZM109.135 12.0351H111.061V13.9609H109.135V12.0351ZM109.135 9.03371H111.061V10.9595H109.135V9.03371ZM109.135 6.03525H111.061V7.96102H109.135V6.03525ZM109.135 3.03541H111.061V4.96125H109.135V3.03541ZM109.135 0.040975H111.061V1.96422H109.135V0.040975ZM108.061 1.96271H106.136V0.0424803H108.061V1.96271ZM105.061 1.96271H103.136V0.0424803H105.061V1.96271ZM102.063 1.96271H100.137V0.0424803H102.063V1.96271ZM99.0632 1.96271H97.1415V0.0424803H99.0632V1.96271ZM96.0674 1.96271H94.1416V0.0424803H96.0674V1.96271ZM93.0676 1.96271H91.1418V0.0424803H93.0676V1.96271ZM90.0678 1.96271H88.1442V0.0424803H90.07L90.0678 1.96271ZM87.0692 1.96271H85.1458V0.0424803H87.0716L87.0692 1.96271ZM84.0693 1.96271H82.1477V0.0424803H84.0693V1.96271ZM81.0735 1.96271H79.1478V0.0424803H81.0735V1.96271ZM78.0737 1.96271H76.1479V0.0424803H78.0737V1.96271ZM75.0739 1.96271H73.1481V0.0424803H75.0739V1.96271ZM72.0753 1.96271H70.1495V0.0424803H72.0753V1.96271ZM69.0754 1.96271H67.1538V0.0424803H69.0754V1.96271ZM66.0796 1.96271H64.1558V0.0424803H66.0816L66.0796 1.96271ZM63.0798 1.96271H61.154V0.0424803H63.0798V1.96271ZM60.08 1.96271H58.1541V0.0424803H60.08V1.96271ZM57.0814 1.96271H55.1556V0.0424803H57.0814V1.96271ZM54.0816 1.96271H52.1558V0.0424803H54.0816V1.96271ZM51.0818 1.96271H49.1614V0.0424803H51.0831L51.0818 1.96271ZM48.0874 1.96271H46.1616V0.0424803H48.0874V1.96271ZM45.0861 1.96271H43.1617V0.0424803H45.0876L45.0861 1.96271ZM42.0876 1.96271H40.1633V0.0424803H42.0889L42.0876 1.96271ZM42.0876 4.96125H40.1633V3.03692H42.0889L42.0876 4.96125ZM42.0876 7.96108H40.1633V6.03695H42.0889L42.0876 7.96108ZM42.0876 10.9596H40.1633V9.03542H42.0889L42.0876 10.9596ZM42.0876 13.9594H40.1633V12.0354H42.0889L42.0876 13.9594ZM42.0876 16.9607H40.1633V15.0336H42.0889L42.0876 16.9607ZM42.0876 19.9551H40.1633V18.0351H42.0889L42.0876 19.9551ZM42.0876 22.9549H40.1633V21.0311H42.0889L42.0876 22.9549ZM42.0876 25.9534H40.1633V24.0295H42.0889L42.0876 25.9534ZM42.0876 28.9532H40.1633V27.0296H42.0889L42.0876 28.9532ZM42.0876 31.9544H40.1633V30.0274H42.0889L42.0876 31.9544ZM42.0876 34.9488H40.1633V33.0292H42.0889L42.0876 34.9488ZM42.0876 37.9486H40.1633V36.0228H42.0889L42.0876 37.9486ZM42.0876 40.9471H40.1633V39.0212H42.0889L42.0876 40.9471ZM42.0876 43.9469H40.1633V42.0211H42.0889L42.0876 43.9469ZM42.0876 46.9468H40.1633V45.0209H42.0889L42.0876 46.9468ZM42.0876 49.9426H40.1633V48.0207H42.0889L42.0876 49.9426ZM42.0876 52.9424H40.1633V51.0154H42.0889L42.0876 52.9424ZM42.0876 55.9411H40.1633V54.0178H42.0889L42.0876 55.9411ZM42.0876 58.9409H40.1633V57.0176H42.0889L42.0876 58.9409ZM42.0876 61.9407H40.1633V60.015H42.0889L42.0876 61.9407ZM42.0876 64.9365H40.1633V63.0148H42.0889L42.0876 64.9365ZM42.0876 67.935H40.1633V66.0092H42.0889L42.0876 67.935ZM42.0876 70.9348H40.1633V69.0078H42.0889L42.0876 70.9348ZM42.0876 73.9347H40.1633V72.0088H42.0889L42.0876 73.9347ZM43.1617 72.0102H45.0875V73.936H43.1632L43.1617 72.0102ZM46.1601 72.0102H48.086V73.936H46.1616L46.1601 72.0102ZM49.16 72.0102H51.0816V73.936H49.1614L49.16 72.0102ZM52.1557 72.0102H54.0815V73.936H52.1557V72.0102ZM55.1555 72.0102H57.0814V73.936H55.1555V72.0102ZM58.1554 72.0102H60.0812V73.936H58.1554V72.0102ZM61.154 72.0102H63.0798V73.936H61.154V72.0102ZM64.1538 72.0102H66.0796V73.936H64.1558L64.1538 72.0102ZM67.1536 72.0102H69.0753V73.936H67.1536V72.0102ZM70.1494 72.0102H72.0752V73.936H70.1494V72.0102ZM73.1492 72.0102H75.075V73.936H73.1492V72.0102ZM76.1478 72.0102H78.0736V73.936H76.1478V72.0102ZM79.1476 72.0102H81.0733V73.936H79.1476V72.0102ZM82.1474 72.0102H84.0691V73.936H82.1474V72.0102ZM85.1431 72.0102H87.069V73.936H85.1458L85.1431 72.0102ZM88.143 72.0102H90.0688V73.936H88.1456L88.143 72.0102ZM91.1414 72.0102H93.0673V73.936H91.1441L91.1414 72.0102ZM94.1412 72.0102H96.0671V73.936H94.1412V72.0102ZM97.1411 72.0102H99.0628V73.936H97.1411V72.0102ZM100.135 72.0102H102.061V73.936H100.138L100.135 72.0102ZM103.137 72.0102H105.063V73.936H103.137V72.0102ZM106.135 72.0102H108.061V73.936H106.135V72.0102ZM109.135 72.0102H111.061V73.936H109.135V72.0102ZM112.135 72.0102H114.057V73.936H112.135V72.0102ZM112.135 69.0104H114.057V70.9374H112.135V69.0104ZM112.135 66.009H114.057V67.938H112.135V66.009ZM112.135 63.0146H114.057V64.9363H112.135V63.0146ZM112.135 60.0148H114.057V61.9405H112.135V60.0148ZM112.135 57.0161H114.057V58.9419H112.135V57.0161ZM112.135 54.0162H114.057V55.9421H112.135V54.0162ZM112.135 51.0148H114.057V52.9418H112.135V51.0148ZM112.135 48.0204H114.057V49.9422H112.135V48.0204ZM112.135 45.0206H114.057V46.9464H112.135V45.0206ZM112.135 42.0221H114.057V43.9479H112.135V42.0221ZM112.135 39.0223H114.057V40.9481H112.135V39.0223ZM112.135 36.0224H114.057V37.9483H112.135V36.0224ZM112.135 33.0268H114.057V34.9486H112.135V33.0268ZM112.135 30.027H114.057V31.954H112.135V30.027ZM112.135 27.0285H114.057V28.9544H112.135V27.0285ZM112.135 24.0271H114.057V25.9554H112.135V24.0271ZM112.135 21.0287H114.057V22.9569H112.135V21.0287ZM112.135 18.0329H114.057V19.9571H112.135V18.0329ZM112.135 15.033H114.057V16.96H112.135V15.033ZM112.135 12.0345H114.057V13.9603H112.135V12.0345ZM112.135 9.03316H114.057V10.959H112.135V9.03316ZM112.135 6.0347H114.057V7.96047H112.135V6.0347ZM112.135 3.03486H114.057V4.9607H112.135V3.03486ZM112.135 0.0404308H114.057V1.96422H112.135V0.0404308ZM112.135 -2.9594H114.057V-1.03152H112.135V-2.9594ZM111.061 -1.03493H109.135V-2.95872H111.061V-1.03493ZM108.061 -1.03493H106.135V-2.95872H108.061V-1.03493ZM105.061 -1.03493H103.135V-2.95872H105.061V-1.03493ZM102.063 -1.03493H100.137V-2.95872H102.063V-1.03493ZM99.063 -1.03493H97.1413V-2.95872H99.063V-1.03493ZM96.0672 -1.03493H94.1414V-2.95872H96.0672V-1.03493ZM93.0674 -1.03493H91.1415V-2.95872H93.0674V-1.03493ZM90.0676 -1.03493H88.1442V-2.95872H90.07L90.0676 -1.03493ZM87.069 -1.03493H85.1458V-2.95872H87.0716L87.069 -1.03493ZM84.0692 -1.03493H82.1475V-2.95872H84.0692V-1.03493ZM81.0733 -1.03493H79.1476V-2.95872H81.0733V-1.03493ZM78.0735 -1.03493H76.1477V-2.95872H78.0735V-1.03493ZM75.0737 -1.03493H73.1478V-2.95872H75.0737V-1.03493ZM72.0751 -1.03493H70.1492V-2.95872H72.0751V-1.03493ZM69.0752 -1.03493H67.1536V-2.95872H69.0752V-1.03493ZM66.0794 -1.03493H64.1558V-2.95872H66.0816L66.0794 -1.03493ZM63.0796 -1.03493H61.1538V-2.95872H63.0796V-1.03493ZM60.0798 -1.03493H58.1539V-2.95872H60.0798V-1.03493ZM57.0812 -1.03493H55.1554V-2.95872H57.0812V-1.03493ZM54.0814 -1.03493H52.1556V-2.95872H54.0814V-1.03493ZM51.0816 -1.03493H49.1614V-2.95872H51.0831L51.0816 -1.03493ZM48.0872 -1.03493H46.1614V-2.95872H48.0872V-1.03493ZM45.0859 -1.03493H43.1617V-2.95872H45.0876L45.0859 -1.03493ZM42.0874 -1.03493H40.1633V-2.95872H42.0889L42.0874 -1.03493ZM39.0876 -1.03493H37.1634V-2.95872H39.0891L39.0876 -1.03493ZM39.0876 1.96217H37.1634V0.0424803H39.0891L39.0876 1.96217ZM39.0876 4.9607H37.1634V3.03692H39.0891L39.0876 4.9607ZM39.0876 7.96054H37.1634V6.03695H39.0891L39.0876 7.96054ZM39.0876 10.9591H37.1634V9.03542H39.0891L39.0876 10.9591ZM39.0876 13.9589H37.1634V12.0354H39.0891L39.0876 13.9589ZM39.0876 16.9601H37.1634V15.0331H39.0891L39.0876 16.9601ZM39.0876 19.9545H37.1634V18.0351H39.0891L39.0876 19.9545ZM39.0876 22.9544H37.1634V21.0311H39.0891L39.0876 22.9544ZM39.0876 25.9528H37.1634V24.0295H39.0891L39.0876 25.9528ZM39.0876 28.9527H37.1634V27.0296H39.0891L39.0876 28.9527ZM39.0876 31.9539H37.1634V30.0269H39.0891L39.0876 31.9539ZM39.0876 34.9482H37.1634V33.0292H39.0891L39.0876 34.9482ZM39.0876 37.9481H37.1634V36.0222H39.0891L39.0876 37.9481ZM39.0876 40.9465H37.1634V39.0207H39.0891L39.0876 40.9465ZM39.0876 43.9464H37.1634V42.0205H39.0891L39.0876 43.9464ZM39.0876 46.9462H37.1634V45.0204H39.0891L39.0876 46.9462ZM39.0876 49.942H37.1634V48.0202H39.0891L39.0876 49.942ZM39.0876 52.9418H37.1634V51.0148H39.0891L39.0876 52.9418ZM39.0876 55.9405H37.1634V54.0178H39.0891L39.0876 55.9405ZM39.0876 58.9403H37.1634V57.0176H39.0891L39.0876 58.9403ZM39.0876 61.9402H37.1634V60.0144H39.0891L39.0876 61.9402ZM39.0876 64.936H37.1634V63.0142H39.0891L39.0876 64.936ZM39.0876 67.9344H37.1634V66.0086H39.0891L39.0876 67.9344ZM39.0876 70.9343H37.1634V69.0073H39.0891L39.0876 70.9343ZM39.0876 73.9341H37.1634V72.0083H39.0891L39.0876 73.9341ZM39.0876 76.9339H37.1634V75.0081H39.0891L39.0876 76.9339ZM40.1616 75.0081H42.0889V76.9375H40.1633L40.1616 75.0081ZM43.1615 75.0081H45.0873V76.9375H43.1632L43.1615 75.0081ZM46.1599 75.0081H48.0858V76.9375H46.1616L46.1599 75.0081ZM49.1598 75.0081H51.0814V76.9375H49.1614L49.1598 75.0081ZM52.1555 75.0081H54.0813V76.9375H52.1555V75.0081ZM55.1553 75.0081H57.0812V76.9375H55.1553V75.0081ZM58.1551 75.0081H60.081V76.9375H58.1551V75.0081ZM61.1538 75.0081H63.0796V76.9375H61.1538V75.0081ZM64.1536 75.0081H66.0794V76.9375H64.1558L64.1536 75.0081ZM67.1534 75.0081H69.0751V76.9375H67.1534V75.0081ZM70.1492 75.0081H72.075V76.9375H70.1492V75.0081ZM73.149 75.0081H75.0748V76.9375H73.149V75.0081ZM76.1475 75.0081H78.0734V76.9375H76.1475V75.0081ZM79.1474 75.0081H81.0731V76.9375H79.1474V75.0081ZM82.1472 75.0081H84.0689V76.9375H82.1472V75.0081ZM85.1429 75.0081H87.0688V76.9375H85.1458L85.1429 75.0081ZM88.1428 75.0081H90.0686V76.9375H88.1456L88.1428 75.0081ZM91.1412 75.0081H93.0671V76.9375H91.1441L91.1412 75.0081ZM94.141 75.0081H96.0669V76.9375H94.141V75.0081ZM97.1409 75.0081H99.0626V76.9375H97.1409V75.0081ZM100.135 75.0081H102.061V76.9375H100.138L100.135 75.0081ZM103.137 75.0081H105.062V76.9375H103.137V75.0081ZM106.135 75.0081H108.061V76.9375H106.135V75.0081ZM109.135 75.0081H111.061V76.9375H109.135V75.0081ZM112.135 75.0081H114.057V76.9375H112.135V75.0081ZM115.129 75.0081H117.055V76.9375H115.132L115.129 75.0081ZM115.129 72.0094H117.055V73.9353H115.132L115.129 72.0094ZM115.129 69.0096H117.055V70.9366H115.132L115.129 69.0096ZM115.129 66.0082H117.055V67.938H115.132L115.129 66.0082ZM115.129 63.0138H117.055V64.9356H115.132L115.129 63.0138ZM115.129 60.014H117.055V61.9398H115.132L115.129 60.014ZM115.129 57.0153H117.055V58.9412H115.132L115.129 57.0153ZM115.129 54.0155H117.055V55.9413H115.132L115.129 54.0155ZM115.129 51.0141H117.055V52.9411H115.132L115.129 51.0141ZM115.129 48.0197H117.055V49.9415H115.132L115.129 48.0197ZM115.129 45.0198H117.055V46.9457H115.132L115.129 45.0198ZM115.129 42.0214H117.055V43.9472H115.132L115.129 42.0214ZM115.129 39.0215H117.055V40.9474H115.132L115.129 39.0215ZM115.129 36.0217H117.055V37.9475H115.132L115.129 36.0217ZM115.129 33.0261H117.055V34.9478H115.132L115.129 33.0261ZM115.129 30.0263H117.055V31.9533H115.132L115.129 30.0263ZM115.129 27.0278H117.055V28.9536H115.132L115.129 27.0278ZM115.129 24.0264H117.055V25.9554H115.132L115.129 24.0264ZM115.129 21.0279H117.055V22.9569H115.132L115.129 21.0279ZM115.129 18.0321H117.055V19.9571H115.132L115.129 18.0321ZM115.129 15.0323H117.055V16.9593H115.132L115.129 15.0323ZM115.129 12.0337H117.055V13.9596H115.132L115.129 12.0337ZM115.129 9.03241H117.055V10.9583H115.132L115.129 9.03241ZM115.129 6.03395H117.055V7.95971H115.132L115.129 6.03395ZM115.129 3.03411H117.055V4.95995H115.132L115.129 3.03411ZM115.129 0.0396781H117.055V1.96422H115.132L115.129 0.0396781ZM115.129 -2.96016H117.055V-1.03152H115.132L115.129 -2.96016ZM115.129 -5.96149H117.055V-4.03572H115.132L115.129 -5.96149ZM114.056 -4.03572H112.135V-5.95869H114.056V-4.03572ZM111.061 -4.03572H109.135V-5.95869H111.061V-4.03572ZM108.061 -4.03572H106.135V-5.95869H108.061V-4.03572ZM105.061 -4.03572H103.135V-5.95869H105.061V-4.03572ZM102.063 -4.03572H100.137V-5.95869H102.063V-4.03572ZM99.0627 -4.03572H97.141V-5.95869H99.0627V-4.03572ZM96.067 -4.03572H94.1411V-5.95869H96.067V-4.03572ZM93.0671 -4.03572H91.1413V-5.95869H93.0671V-4.03572ZM90.0673 -4.03572H88.1442V-5.95869H90.07L90.0673 -4.03572ZM87.0687 -4.03572H85.1458V-5.95869H87.0716L87.0687 -4.03572ZM84.0689 -4.03572H82.1472V-5.95869H84.0689V-4.03572ZM81.0731 -4.03572H79.1473V-5.95869H81.0731V-4.03572ZM78.0732 -4.03572H76.1474V-5.95869H78.0732V-4.03572ZM75.0734 -4.03572H73.1476V-5.95869H75.0734V-4.03572ZM72.0748 -4.03572H70.149V-5.95869H72.0748V-4.03572ZM69.075 -4.03572H67.1533V-5.95869H69.075V-4.03572ZM66.0792 -4.03572H64.1558V-5.95869H66.0816L66.0792 -4.03572ZM63.0793 -4.03572H61.1535V-5.95869H63.0793V-4.03572ZM60.0795 -4.03572H58.1537V-5.95869H60.0795V-4.03572ZM57.081 -4.03572H55.1551V-5.95869H57.081V-4.03572ZM54.0811 -4.03572H52.1553V-5.95869H54.0811V-4.03572ZM51.0813 -4.03572H49.1614V-5.95869H51.0831L51.0813 -4.03572ZM48.0869 -4.03572H46.1612V-5.95869H48.0869V-4.03572ZM45.0856 -4.03572H43.1617V-5.95869H45.0876L45.0856 -4.03572ZM42.0871 -4.03572H40.1633V-5.95869H42.0889L42.0871 -4.03572ZM39.0873 -4.03572H37.1634V-5.95869H39.0891L39.0873 -4.03572ZM36.0875 -4.03572H34.1676V-5.95869H36.0892L36.0875 -4.03572ZM36.0875 -1.03589H34.1676V-2.95872H36.0892L36.0875 -1.03589ZM36.0875 1.96121H34.1676V0.0424803H36.0892L36.0875 1.96121ZM36.0875 4.95974H34.1676V3.03692H36.0892L36.0875 4.95974ZM36.0875 7.95958H34.1676V6.03695H36.0892L36.0875 7.95958ZM36.0875 10.9581H34.1676V9.03542H36.0892L36.0875 10.9581ZM36.0875 13.9579H34.1676V12.0354H36.0892L36.0875 13.9579ZM36.0875 16.9591H34.1676V15.0321H36.0892L36.0875 16.9591ZM36.0875 19.9536H34.1676V18.0351H36.0892L36.0875 19.9536ZM36.0875 22.9534H34.1676V21.0311H36.0892L36.0875 22.9534ZM36.0875 25.9519H34.1676V24.0295H36.0892L36.0875 25.9519ZM36.0875 28.9517H34.1676V27.0296H36.0892L36.0875 28.9517ZM36.0875 31.9529H34.1676V30.0259H36.0892L36.0875 31.9529ZM36.0875 34.9473H34.1676V33.0292H36.0892L36.0875 34.9473ZM36.0875 37.9471H34.1676V36.0213H36.0892L36.0875 37.9471ZM36.0875 40.9456H34.1676V39.0197H36.0892L36.0875 40.9456ZM36.0875 43.9454H34.1676V42.0196H36.0892L36.0875 43.9454ZM36.0875 46.9453H34.1676V45.0194H36.0892L36.0875 46.9453ZM36.0875 49.9411H34.1676V48.0192H36.0892L36.0875 49.9411ZM36.0875 52.9409H34.1676V51.0139H36.0892L36.0875 52.9409ZM36.0875 55.9396H34.1676V54.0178H36.0892L36.0875 55.9396ZM36.0875 58.9394H34.1676V57.0176H36.0892L36.0875 58.9394ZM36.0875 61.9392H34.1676V60.0135H36.0892L36.0875 61.9392ZM36.0875 64.935H34.1676V63.0133H36.0892L36.0875 64.935ZM36.0875 67.9335H34.1676V66.0077H36.0892L36.0875 67.9335ZM36.0875 70.9333H34.1676V69.0063H36.0892L36.0875 70.9333ZM36.0875 73.9332H34.1676V72.0073H36.0892L36.0875 73.9332ZM36.0875 76.933H34.1676V75.0071H36.0892L36.0875 76.933ZM36.0875 79.9328H34.1676V78.007H36.0892L36.0875 79.9328ZM37.1615 78.007H39.0891V79.9373H37.1633L37.1615 78.007ZM40.1613 78.007H42.0889V79.9373H40.1633L40.1613 78.007ZM43.1611 78.007H45.087V79.9373H43.1632L43.1611 78.007ZM46.1596 78.007H48.0854V79.9373H46.1616L46.1596 78.007ZM49.1594 78.007H51.0811V79.9373H49.1614L49.1594 78.007ZM52.1552 78.007H54.081V79.9373H52.1552V78.007ZM55.155 78.007H57.0808V79.9373H55.155V78.007ZM58.1548 78.007H60.0807V79.9373H58.1548V78.007ZM61.1534 78.007H63.0793V79.9373H61.1534V78.007ZM64.1533 78.007H66.0791V79.9373H64.1558L64.1533 78.007ZM67.1531 78.007H69.0748V79.9373H67.1531V78.007ZM70.1488 78.007H72.0747V79.9373H70.1488V78.007ZM73.1487 78.007H75.0744V79.9373H73.1487V78.007ZM76.1472 78.007H78.073V79.9373H76.1472V78.007ZM79.147 78.007H81.0728V79.9373H79.147V78.007ZM82.1469 78.007H84.0685V79.9373H82.1469V78.007ZM85.1426 78.007H87.0684V79.9373H85.1458L85.1426 78.007ZM88.1424 78.007H90.0683V79.9373H88.1456L88.1424 78.007ZM91.1409 78.007H93.0668V79.9373H91.1441L91.1409 78.007ZM94.1407 78.007H96.0666V79.9373H94.1407V78.007ZM97.1406 78.007H99.0622V79.9373H97.1406V78.007ZM100.135 78.007H102.061V79.9373H100.138L100.135 78.007ZM103.136 78.007H105.062V79.9373H103.136V78.007ZM106.135 78.007H108.061V79.9373H106.135V78.007ZM109.135 78.007H111.06V79.9373H109.135V78.007ZM112.134 78.007H114.056V79.9373H112.134V78.007ZM115.129 78.007H117.055V79.9373H115.132L115.129 78.007ZM118.129 78.007H120.055V79.9373H118.129V78.007ZM118.129 75.0071H120.055V76.9375H118.129V75.0071ZM118.129 72.0085H120.055V73.9343H118.129V72.0085ZM118.129 69.0087H120.055V70.9356H118.129V69.0087ZM118.129 66.0072H120.055V67.938H118.129V66.0072ZM118.129 63.0129H120.055V64.9346H118.129V63.0129ZM118.129 60.013H120.055V61.9388H118.129V60.013ZM118.129 57.0144H120.055V58.9402H118.129V57.0144ZM118.129 54.0145H120.055V55.9404H118.129V54.0145ZM118.129 51.0131H120.055V52.9401H118.129V51.0131ZM118.129 48.0187H120.055V49.9405H118.129V48.0187ZM118.129 45.0189H120.055V46.9447H118.129V45.0189ZM118.129 42.0204H120.055V43.9462H118.129V42.0204ZM118.129 39.0206H120.055V40.9464H118.129V39.0206ZM118.129 36.0207H120.055V37.9466H118.129V36.0207ZM118.129 33.0251H120.055V34.9469H118.129V33.0251ZM118.129 30.0253H120.055V31.9523H118.129V30.0253ZM118.129 27.0268H120.055V28.9527H118.129V27.0268ZM118.129 24.0254H120.055V25.9554H118.129V24.0254ZM118.129 21.027H120.055V22.9569H118.129V21.027ZM118.129 18.0312H120.055V19.9571H118.129V18.0312ZM118.129 15.0313H120.055V16.9583H118.129V15.0313ZM118.129 12.0328H120.055V13.9586H118.129V12.0328ZM118.129 9.03146H120.055V10.9573H118.129V9.03146ZM118.129 6.03299H120.055V7.95876H118.129V6.03299ZM118.129 3.03316H120.055V4.95899H118.129V3.03316ZM118.129 0.0387201H120.055V1.96422H118.129V0.0387201ZM118.129 -2.96111H120.055V-1.03152H118.129V-2.96111ZM118.129 -5.96245H120.055V-4.03668H118.129V-5.96245ZM117.055 -7.03528H115.132V-8.9575H117.058L117.055 -7.03528ZM114.056 -7.03528H112.134V-8.9575H114.056V-7.03528ZM111.06 -7.03528H109.135V-8.9575H111.06V-7.03528ZM108.061 -7.03528H106.135V-8.9575H108.061V-7.03528ZM105.061 -7.03528H103.135V-8.9575H105.061V-7.03528ZM102.062 -7.03528H100.136V-8.9575H102.062V-7.03528ZM99.0623 -7.03528H97.1407V-8.9575H99.0623V-7.03528ZM96.0667 -7.03528H94.1408V-8.9575H96.0667V-7.03528ZM93.0668 -7.03528H91.141V-8.9575H93.0668V-7.03528ZM90.067 -7.03528H88.1442V-8.9575H90.07L90.067 -7.03528ZM87.0684 -7.03528H85.1458V-8.9575H87.0716L87.0684 -7.03528ZM84.0685 -7.03528H82.1469V-8.9575H84.0685V-7.03528ZM81.0727 -7.03528H79.147V-8.9575H81.0727V-7.03528ZM78.0729 -7.03528H76.147V-8.9575H78.0729V-7.03528ZM75.0731 -7.03528H73.1472V-8.9575H75.0731V-7.03528ZM72.0745 -7.03528H70.1486V-8.9575H72.0745V-7.03528ZM69.0746 -7.03528H67.153V-8.9575H69.0746V-7.03528ZM66.0788 -7.03528H64.1558V-8.9575H66.0816L66.0788 -7.03528ZM63.079 -7.03528H61.1531V-8.9575H63.079V-7.03528ZM60.0792 -7.03528H58.1533V-8.9575H60.0792V-7.03528ZM57.0806 -7.03528H55.1548V-8.9575H57.0806V-7.03528ZM54.0808 -7.03528H52.1549V-8.9575H54.0808V-7.03528ZM51.081 -7.03528H49.1614V-8.9575H51.0831L51.081 -7.03528ZM48.0866 -7.03528H46.1608V-8.9575H48.0866V-7.03528ZM45.0853 -7.03528H43.1617V-8.9575H45.0876L45.0853 -7.03528ZM42.0868 -7.03528H40.1633V-8.9575H42.0889L42.0868 -7.03528ZM39.087 -7.03528H37.1634V-8.9575H39.0891L39.087 -7.03528ZM36.0871 -7.03528H34.1676V-8.9575H36.0892L36.0871 -7.03528ZM31.1692 -8.9575H33.0949V-7.03166H31.1692V-8.9575ZM31.1692 -5.95896H33.0949V-4.0332H31.1692V-5.95896ZM31.1692 -2.95763H33.0949V-1.03152H31.1692V-2.95763ZM31.1692 0.0422066H33.0949V1.96422H31.1692V0.0422066ZM31.1692 3.03664H33.0949V4.96248H31.1692V3.03664ZM31.1692 6.03648H33.0949V7.96224H31.1692V6.03648ZM31.1692 9.03494H33.0949V10.9608H31.1692V9.03494ZM31.1692 12.0363H33.0949V13.9621H31.1692V12.0363ZM31.1692 15.0348H33.0949V16.9618H31.1692V15.0348ZM31.1692 18.0346H33.0949V19.9571H31.1692V18.0346ZM31.1692 21.0304H33.0949V22.9569H31.1692V21.0304ZM31.1692 24.0289H33.0949V25.9554H31.1692V24.0289ZM31.1692 27.0303H33.0949V28.9562H31.1692V27.0303ZM31.1692 30.0288H33.0949V31.9558H31.1692V30.0288ZM31.1692 33.0286H33.0949V34.9504H31.1692V33.0286ZM31.1692 36.0242H33.0949V37.9501H31.1692V36.0242ZM31.1692 39.0241H33.0949V40.9499H31.1692V39.0241ZM31.1692 42.0239H33.0949V43.9497H31.1692V42.0239ZM31.1692 45.0224H33.0949V46.9482H31.1692V45.0224ZM31.1692 48.0222H33.0949V49.944H31.1692V48.0222ZM31.1692 51.0166H33.0949V52.9436H31.1692V51.0166ZM31.1692 54.018H33.0949V55.9439H31.1692V54.018ZM31.1692 57.0179H33.0949V58.9437H31.1692V57.0179ZM31.1692 60.0165H33.0949V61.9423H31.1692V60.0165ZM31.1692 63.0164H33.0949V64.9381H31.1692V63.0164ZM31.1692 66.0107H33.0949V67.938H31.1692V66.0107ZM31.1692 69.0121H33.0949V70.9391H31.1692V69.0121ZM31.1692 72.012H33.0949V73.9378H31.1692V72.012ZM31.1692 75.0106H33.0949V76.9375H31.1692V75.0106ZM31.1692 78.0105H33.0949V79.9373H31.1692V78.0105ZM31.1692 81.0076H33.0949V82.9307H31.1692V81.0076ZM34.1678 81.0076H36.0892V82.9307H34.1676L34.1678 81.0076ZM37.1635 81.0076H39.0891V82.9307H37.1633L37.1635 81.0076ZM40.1633 81.0076H42.0889V82.9307H40.1633L40.1633 81.0076ZM43.1632 81.0076H45.089V82.9307H43.1632L43.1632 81.0076ZM46.1616 81.0076H48.0875V82.9307H46.1616L46.1616 81.0076ZM49.1615 81.0076H51.0831V82.9307H49.1614L49.1615 81.0076ZM52.1572 81.0076H54.083V82.9307H52.1572V81.0076ZM55.157 81.0076H57.0829V82.9307H55.157V81.0076ZM58.1569 81.0076H60.0827V82.9307H58.1569V81.0076ZM61.1555 81.0076H63.0813V82.9307H61.1555V81.0076ZM64.1553 81.0076H66.0812V82.9307H64.1558L64.1553 81.0076ZM67.1551 81.0076H69.0768V82.9307H67.1551V81.0076ZM70.1509 81.0076H72.0767V82.9307H70.1509V81.0076ZM73.1507 81.0076H75.0765V82.9307H73.1507V81.0076ZM76.1492 81.0076H78.0751V82.9307H76.1492V81.0076ZM79.1491 81.0076H81.0749V82.9307H79.1491V81.0076ZM82.1489 81.0076H84.0706V82.9307H82.1489V81.0076ZM85.1447 81.0076H87.0705V82.9307H85.1458L85.1447 81.0076ZM88.1445 81.0076H90.0703V82.9307H88.1456L88.1445 81.0076ZM91.143 81.0076H93.0688V82.9307H91.1441L91.143 81.0076ZM94.1428 81.0076H96.0686V82.9307H94.1428V81.0076ZM97.1426 81.0076H99.0643V82.9307H97.1426V81.0076ZM100.137 81.0076H102.063V82.9307H100.138L100.137 81.0076ZM103.138 81.0076H105.064V82.9307H103.138V81.0076ZM106.137 81.0076H108.063V82.9307H106.137V81.0076ZM109.137 81.0076H111.063V82.9307H109.137V81.0076ZM112.137 81.0076H114.058V82.9307H112.137V81.0076ZM115.131 81.0076H117.057V82.9307H115.132L115.131 81.0076ZM118.131 81.0076H120.057V82.9307H118.131V81.0076ZM123.057 82.9307H121.131V81.0076H123.057V82.9307ZM123.057 79.9363H121.131V78.0105H123.057V79.9363ZM123.057 76.9365H121.131V75.0106H123.057V76.9365ZM123.057 73.9366H121.131V72.0108H123.057V73.9366ZM123.057 70.9368H121.131V69.0098H123.057V70.9368ZM123.057 67.937H121.131V66.0111H123.057V67.937ZM123.057 64.9385H121.131V63.0168H123.057V64.9385ZM123.057 61.9427H121.131V60.0169H123.057V61.9427ZM123.057 58.9429H121.131V57.0176H123.057V58.9429ZM123.057 55.943H121.131V54.0178H123.057V55.943ZM123.057 52.9444H121.131V51.0174H123.057V52.9444ZM123.057 49.9445H121.131V48.0227H123.057V49.9445ZM123.057 46.9487H121.131V45.0229H123.057V46.9487ZM123.057 43.9489H121.131V42.0231H123.057V43.9489ZM123.057 40.9491H121.131V39.0232H123.057V40.9491ZM123.057 37.9506H121.131V36.0248H123.057V37.9506ZM123.057 34.9508H121.131V33.0292H123.057V34.9508ZM123.057 31.9564H121.131V30.0294H123.057V31.9564ZM123.057 28.9552H121.131V27.0296H123.057V28.9552ZM123.057 25.9554H121.131V24.0295H123.057V25.9554ZM123.057 22.9569H121.131V21.0311H123.057V22.9569ZM123.057 19.9571H121.131V18.0351H123.057V19.9571ZM123.057 16.9626H121.131V15.0356H123.057V16.9626ZM123.057 13.9614H121.131V12.0354H123.057V13.9614ZM123.057 10.9616H121.131V9.03542H123.057V10.9616ZM123.057 7.96306H121.131V6.03695H123.057V7.96306ZM123.057 4.96323H121.131V3.03692H123.057V4.96323ZM123.057 1.9647H121.131V0.0424803H123.057V1.9647ZM123.057 -1.0324H121.131V-2.95872H123.057V-1.0324ZM123.057 -4.03224H121.131V-5.95869H123.057V-4.03224ZM123.057 -7.0307H121.131V-8.9575H123.057V-7.0307Z" fill="#004ADF"/>
</g>
<path d="M107.254 30.8218C107.254 39.0089 93.3186 45.6438 76.1292 45.6438C58.9382 45.6438 45.0029 39.0087 45.0029 30.8218C45.0029 22.6363 58.9382 16 76.1292 16C93.3184 16 107.254 22.6363 107.254 30.8218Z" stroke="#A4A3A3" stroke-miterlimit="10"/>
</svg>
