<svg width="162" height="122" viewBox="0 0 162 122" fill="none" xmlns="http://www.w3.org/2000/svg">
<path d="M60.7573 96.1162L60.3301 96.0363C59.3539 95.8189 58.4077 95.4837 57.5124 95.0381C55.3026 93.8454 53.4397 92.1002 52.1056 89.9728C50.4957 87.601 49.2841 84.9822 48.5187 82.2197C47.7652 79.6132 47.3061 76.9305 47.1502 74.2218C46.8374 70.6703 47.1981 67.0916 48.2132 63.6739C48.8392 61.4133 50.0563 59.3605 51.7392 57.7266C51.8355 57.4543 51.991 57.2068 52.1945 57.002C52.3981 56.7971 52.6446 56.64 52.9162 56.542L53.44 57.6779L53.8404 56.7119C54.1114 56.8073 54.3526 56.972 54.54 57.1897C54.7274 57.4074 54.8544 57.6704 54.9084 57.9525C54.9592 58.2876 54.9185 58.6301 54.7906 58.9439C54.6627 59.2577 54.4523 59.5311 54.1818 59.7352L54.1227 59.7864C52.6941 61.0742 51.6733 62.7517 51.1862 64.6124C50.291 67.6549 49.9769 70.8388 50.2602 73.9977C50.4009 76.4819 50.8195 78.9425 51.5081 81.3335C52.1799 83.7752 53.2456 86.091 54.6632 88.1895C55.6948 89.8735 57.1416 91.2643 58.865 92.2287C59.4051 92.4895 59.9653 92.7065 60.5402 92.8773C60.9887 92.7175 61.4506 92.5982 61.9205 92.521C62.6858 92.4473 63.417 92.3145 64.1919 92.1744C64.7352 92.0763 65.2784 91.9783 65.8217 91.9011C66.2535 91.8433 66.6838 91.7576 67.1394 91.666C67.6235 91.5692 68.1245 91.4687 68.6427 91.3995C70.158 91.1931 71.3548 91.0189 72.6234 90.7875C73.1017 90.7186 73.5206 90.6431 73.939 90.5688C74.3936 90.4872 74.8478 90.4068 75.3026 90.3423C75.9424 90.2503 76.5989 90.1431 77.2555 90.0365C77.94 89.9251 78.6246 89.8136 79.293 89.7186L79.8022 89.6425C80.878 89.4817 81.9901 89.3154 83.089 89.1065L87.0182 88.358L87.601 91.4214L83.6727 92.17C82.5122 92.3904 81.3691 92.561 80.2629 92.726L79.7455 92.804C79.0853 92.8978 78.4208 93.0062 77.7567 93.1146C77.0802 93.2239 76.404 93.3344 75.7435 93.4289C75.3239 93.4886 74.9057 93.5635 74.4873 93.6384C74.0324 93.7194 73.5775 93.8004 73.1225 93.865C71.7132 94.1232 70.2841 94.3236 69.0596 94.4905C68.6379 94.5465 68.2076 94.6324 67.752 94.7237C67.2678 94.8205 66.7669 94.9211 66.2487 94.9902C65.7578 95.0603 65.2526 95.1516 64.7477 95.243C63.9435 95.3886 63.1122 95.539 62.2616 95.62C61.8888 95.712 61.522 95.8271 61.1635 95.9647L60.7573 96.1162ZM53.6431 58.1174L54.2144 59.3555C54.412 59.2012 54.5689 59.001 54.6716 58.7722C54.7742 58.5435 54.8195 58.2932 54.8034 58.043L53.6431 58.1174Z" fill="white"/>
<path d="M48.6854 96.6258C47.1205 96.6444 45.6016 96.0967 44.4087 95.0837L46.3912 92.6768C46.7923 93.0139 47.262 93.2595 47.7677 93.3967C48.2734 93.5339 48.8029 93.5592 49.3194 93.471L49.1821 93.3077L49.1285 93.2383C48.087 91.8315 47.166 90.3393 46.3753 88.7777C45.2345 86.491 44.3765 84.0738 43.8204 81.5795C42.8513 77.8144 42.4592 73.9241 42.6574 70.0414C42.7062 66.7598 43.5396 63.5376 45.0881 60.6439V60.6202L45.3341 60.1737C45.9456 59.2226 46.7482 58.4089 47.6909 57.7844C48.6337 57.16 49.6959 56.7384 50.8103 56.5463L53.1652 56.1041L53.536 56.2203C54.1035 56.3369 54.6915 56.3033 55.242 56.1229L55.5721 56.0553C56.5846 55.8567 57.5834 55.6521 58.5801 55.4481C60.3959 55.0759 62.2739 54.691 64.1546 54.364C65.7052 54.0595 67.2736 53.733 68.8418 53.4073C70.4229 53.0784 72.0043 52.7496 73.6012 52.4365C74.6886 52.2191 75.7815 52.0163 76.8743 51.8129C77.9642 51.6107 79.0542 51.4085 80.1437 51.1904L80.7552 54.2478C79.6516 54.4689 78.5477 54.6741 77.4438 54.8788C76.3646 55.0791 75.2856 55.2795 74.2065 55.4951C72.6159 55.807 71.0462 56.134 69.4767 56.4604C67.8968 56.7884 66.317 57.117 64.7216 57.43C62.854 57.7553 60.9995 58.1353 59.2059 58.5028C58.2003 58.7093 57.1927 58.9157 56.1768 59.1143L55.8799 59.1758C54.9464 59.429 53.9687 59.4734 53.0161 59.3056L51.3625 59.6156C50.0625 59.835 48.8997 60.5534 48.1218 61.6178L47.9711 61.9004C46.5506 64.4414 45.794 67.2997 45.7712 70.2107C45.5903 73.7844 45.953 77.3649 46.8471 80.8297C47.3483 83.0946 48.1237 85.2899 49.1563 87.3671C49.8651 88.7665 50.69 90.1039 51.6223 91.3654C51.7863 91.5622 51.9889 91.7662 52.2024 91.9812C52.7045 92.4542 53.1488 92.9851 53.5258 93.5628L54.5731 95.2652L52.667 95.8665C51.3861 96.3203 50.0435 96.5763 48.6854 96.6258Z" fill="white"/>
<path d="M33.129 75.341C32.6656 75.3837 32.2002 75.2858 31.7933 75.06C31.3864 74.8343 31.057 74.4911 30.8481 74.0754C29.4399 71.9583 28.8055 69.42 29.0521 66.8893C29.0016 66.2632 29.1981 65.6422 29.5995 65.159C30.0063 64.6638 30.5759 64.3293 31.2065 64.215C34.1661 63.5305 36.4448 63.0286 38.5386 62.5993C38.6955 62.5658 38.8501 62.5225 39.0015 62.4694C39.7421 62.1571 40.574 62.1394 41.3271 62.4201L40.3673 64.7223C40.2768 64.6839 40.1091 64.732 39.7735 64.8417C39.5248 64.9278 39.2706 64.9968 39.0125 65.0481C36.9667 65.4678 34.7063 65.9659 31.7104 66.6578C31.6516 66.6659 31.5956 66.6881 31.5472 66.7224L31.5677 66.8344L31.5472 67.0178C31.3235 68.9779 31.7916 70.9546 32.8706 72.6063L33.0567 72.842C33.1849 72.8487 33.3135 72.8422 33.4404 72.8225C34.5738 72.5546 35.7395 72.3334 36.8678 72.1197L37.4332 72.0125L37.9003 74.4632L37.3318 74.5711C36.2139 74.7824 35.0579 75.0016 33.9644 75.2617L33.8655 75.2812C33.6219 75.32 33.3756 75.34 33.129 75.341Z" fill="#004ADF"/>
<path d="M74.3338 65.7327C73.6853 65.71 73.0556 65.5086 72.5143 65.1507C71.9729 64.7928 71.541 64.2923 71.2661 63.7045C70.4322 62.1245 70.1345 60.3162 70.4177 58.5522C70.441 57.7652 70.7493 57.0134 71.2853 56.4366C71.8214 55.8599 72.5487 55.4975 73.3319 55.4169C74.7601 55.1641 76.1408 54.8809 77.6027 54.5807C78.2501 54.4479 78.9067 54.3133 79.5809 54.1787L80.0694 56.6246C79.3997 56.7586 78.7477 56.8926 78.1043 57.0247C76.625 57.3281 75.2278 57.6149 73.7429 57.8774C73.1771 57.9669 72.9708 58.1241 72.8956 58.8379C72.6808 60.0771 72.8704 61.3525 73.4365 62.4756C73.9374 63.3253 74.2806 63.2662 74.5571 63.2162L74.6186 63.2071C75.0614 63.1517 75.5191 63.0512 76.004 62.9452C76.5219 62.8319 77.0572 62.715 77.6124 62.6456C77.8003 62.6163 78.0116 62.564 78.2196 62.5146C78.882 62.3161 79.5782 62.2561 80.2647 62.3386L79.8847 64.804C79.5175 64.7814 79.1493 64.8279 78.7991 64.941C78.5265 65.0062 78.2488 65.0708 77.9574 65.1158C77.4796 65.1761 77.0219 65.2766 76.5372 65.3823C76.0283 65.4931 75.5027 65.6083 74.9579 65.6783C74.7518 65.7138 74.543 65.7319 74.3338 65.7327Z" fill="#004ADF"/>
<path d="M42.9457 93.8797C41.2883 92.0607 39.949 89.9756 38.9839 87.712C37.3136 83.7521 36.4014 79.5139 36.2947 75.2175C36.0447 71.7789 36.628 68.3307 37.9951 65.1657C38.7152 63.3408 40.099 61.8559 41.8686 61.0089C43.1314 60.5275 44.453 60.2174 45.7981 60.0869L46.1233 63.1881C45.0664 63.2882 44.0273 63.5281 43.0334 63.9013C41.9973 64.4561 41.2071 65.3793 40.8189 66.4885C39.6575 69.2057 39.1744 72.1646 39.4112 75.1101C39.5047 79.0159 40.3302 82.8695 41.8446 86.471C42.6704 88.4117 43.8161 90.1999 45.234 91.7611L42.9457 93.8797Z" fill="white"/>
<path d="M97.607 65.161C97.5276 64.365 97.4417 63.562 97.3555 62.7578C97.1731 61.0555 96.9846 59.296 96.8555 57.576C96.5642 53.7779 96.6291 49.9609 97.0492 46.1748C97.5301 42.932 98.2336 39.7262 99.1549 36.5801L102.156 37.4278C101.278 40.4211 100.606 43.4709 100.144 46.5559C99.7485 50.1419 99.6888 53.757 99.9658 57.3541C100.09 59.0131 100.276 60.7477 100.456 62.425C100.543 63.2374 100.63 64.0468 100.71 64.8501L97.607 65.161Z" fill="white"/>
<path d="M82.626 74.8916L82.0145 71.8343C82.8814 71.6607 83.7484 71.5063 84.6258 71.35C85.3301 71.2246 86.0418 71.0979 86.7656 70.9584C87.3137 70.8452 87.8832 70.7329 88.4505 70.6223C89.701 70.3768 90.8827 70.1454 92.0453 69.8543C92.7073 69.699 93.3536 69.5589 94.0025 69.4188C95.4529 69.1058 96.9527 68.7817 98.3672 68.3244C98.8728 68.1575 99.3917 68.0342 99.9184 67.9559C100.186 67.9084 100.455 67.8615 100.715 67.7963C100.834 67.4606 100.824 67.0905 100.677 66.7658C100.61 66.6854 100.377 66.6013 99.9342 66.6251C98.0631 66.7246 96.206 67.0049 94.3889 67.4619C92.3252 67.9784 90.2106 68.3987 88.1654 68.8055C87.4854 68.9407 86.8053 69.0771 86.1251 69.2148C84.9225 69.4657 83.7615 69.758 82.5318 70.0674L81.7627 70.2607L81.0068 67.235L81.7703 67.0437C83.0319 66.7258 84.2234 66.4261 85.4948 66.1612C86.1861 66.0199 86.8715 65.8834 87.5573 65.747C89.5657 65.3481 91.6424 64.9352 93.6669 64.4282C95.6753 63.9234 97.7282 63.6158 99.7964 63.5097C100.405 63.4373 101.023 63.5149 101.595 63.7358C102.167 63.9567 102.677 64.3142 103.079 64.7772C103.485 65.3212 103.756 65.9542 103.868 66.6237C103.981 67.2931 103.933 67.9799 103.727 68.6269C103.608 69.1802 103.326 69.6853 102.918 70.0777C102.511 70.4701 101.995 70.732 101.437 70.8298C101.119 70.9078 100.792 70.9674 100.466 71.0253C100.098 71.0793 99.7349 71.1622 99.3801 71.2732C97.8282 71.7513 96.253 72.1497 94.6604 72.4669C94.0303 72.6027 93.403 72.7385 92.7803 72.8847C91.561 73.1898 90.2847 73.4402 89.0505 73.6819C88.4932 73.7912 87.9345 73.9006 87.3756 74.0163C86.6162 74.1624 85.8908 74.2916 85.1724 74.4194C84.317 74.5725 83.4713 74.7228 82.626 74.8916Z" fill="white"/>
<path d="M112.894 42.0919L112.724 41.921L112.614 41.7061C111.429 39.2557 109.863 37.0092 107.973 35.0504L110.177 32.8457C112.277 35.0084 114.021 37.4896 115.345 40.1974C115.464 40.3949 115.542 40.6142 115.574 40.8424C115.607 41.0707 115.593 41.303 115.533 41.5257C115.552 41.4334 115.562 41.3393 115.561 41.245H112.481C112.523 41.5648 112.668 41.8622 112.894 42.0919Z" fill="white"/>
<path d="M98.2095 105.064C97.556 105.068 96.9054 104.976 96.2785 104.791L96.2018 104.766C95.0244 104.351 93.9932 103.602 93.2337 102.611C90.5192 98.7375 88.13 94.6455 86.0906 90.3775C84.6217 87.2412 83.4321 83.9816 82.5356 80.6365C82.4597 80.4588 82.398 80.2735 82.3374 80.0932L82.2927 79.9306C81.9824 78.5031 81.6614 77.0264 81.4053 75.4901C81.2333 74.9134 80.9493 74.3764 80.5694 73.9097C80.2957 73.5286 80.0451 73.1314 79.8191 72.7202C79.4555 72.1029 79.247 71.4066 79.2115 70.691C79.176 69.9754 79.3146 69.2619 79.6154 68.6117C79.6668 68.5352 79.6962 68.4461 79.7 68.354C79.6458 67.4618 79.5438 66.6 79.4363 65.6882L79.3992 65.3746C79.154 63.5389 79.0276 61.6424 78.9052 59.808L78.8927 59.621C78.6855 57.5323 78.712 55.427 78.9716 53.3442C79.572 49.1509 80.4943 45.01 81.7306 40.9583C81.6653 40.7497 81.5851 40.5462 81.4906 40.3492C81.3956 40.136 81.3033 39.9255 81.2284 39.7194C81.1979 39.6409 81.1313 39.5213 81.0644 39.3914C80.7598 38.9636 80.5702 38.4647 80.5138 37.9426C80.4573 37.4205 80.5358 36.8926 80.7419 36.4096C80.9855 36.0259 81.325 35.7123 81.7268 35.4998C82.1286 35.2872 82.5788 35.1831 83.0331 35.1976L83.2228 38.23C83.345 38.1302 83.4409 38.0019 83.502 37.8565C83.5631 37.711 83.5876 37.5528 83.5733 37.3956C83.6457 37.5891 83.7326 37.7768 83.8334 37.9571C83.9502 38.1747 84.0556 38.3982 84.1491 38.6268C84.2101 38.7937 84.2749 38.9361 84.3395 39.0805C84.7913 39.8805 84.9402 40.8163 84.7591 41.717C83.5438 45.6759 82.6391 49.7234 82.0531 53.8229C81.8313 55.6799 81.815 57.5557 82.0044 59.4163L82.0169 59.6002C82.1356 61.3841 82.2586 63.2283 82.4931 64.986L82.533 65.3222C82.6481 66.2972 82.7571 67.2181 82.8159 68.2188L82.8186 68.3107C82.8248 68.9017 82.6823 69.4848 82.4042 70.0063C82.3417 70.2136 82.3242 70.4319 82.3527 70.6466C82.3813 70.8612 82.4553 71.0673 82.5698 71.2511C82.7417 71.5577 82.9308 71.8543 83.1362 72.1394C83.7796 72.9659 84.2364 73.9219 84.475 74.9417C84.7201 76.41 85.0255 77.8224 85.3227 79.1891C85.3495 79.2707 85.3754 79.3492 85.4031 79.4108L85.5036 79.6733C86.3576 82.8814 87.4929 86.0079 88.8963 89.0165C90.8487 93.1033 93.1328 97.0232 95.7256 100.737C96.1085 101.23 96.6242 101.604 97.2122 101.815C97.6575 101.938 98.1217 101.977 98.5813 101.932L101.413 101.57C104.468 101.009 107.566 100.503 110.562 100.014L111.072 103.091C108.07 103.58 104.973 104.086 101.935 104.644L101.85 104.657L98.9193 105.031C98.6793 105.054 98.4424 105.064 98.2095 105.064Z" fill="white"/>
<path d="M118.843 100.313C118.347 100.311 117.855 100.239 117.38 100.098C111.596 98.4095 106.363 86.8414 106.317 86.7269C105.868 85.6367 105.352 84.5228 104.853 83.4454C103.847 81.3999 102.988 79.2857 102.281 77.1187C102.113 76.5711 101.86 75.802 101.585 74.9633C101.049 73.3268 100.441 71.4715 100.144 70.3243L103.162 69.541C103.435 70.5941 104.026 72.3999 104.548 73.9925C104.83 74.8519 105.088 75.6406 105.263 76.2094C105.928 78.2389 106.737 80.2187 107.682 82.1339C108.195 83.2417 108.726 84.3867 109.206 85.5536C109.896 87.2772 114.605 96.0394 118.253 97.104C118.516 97.1962 118.797 97.2217 119.072 97.1783C119.347 97.1348 119.606 97.0237 119.828 96.8549L121.645 99.3885C120.833 99.9868 119.852 100.311 118.843 100.313Z" fill="white"/>
<path d="M80.6854 37.626L78.9271 35.565C78.7497 35.3893 78.603 35.1851 78.4932 34.9608C77.6222 34.9908 76.7581 34.7965 75.9837 34.3966C75.2094 33.9967 74.5507 33.4045 74.0709 32.6769C73.1742 31.5024 72.2109 30.3804 71.1856 29.3162C70.2475 28.4582 69.5978 27.3309 69.3255 26.0891C69.0533 24.8472 69.1719 23.5515 69.6651 22.3797C70.1174 21.1799 70.8018 20.0809 71.679 19.1456C72.5562 18.2103 73.6092 17.457 74.7776 16.9288C75.6983 16.4367 76.7077 16.1327 77.747 16.0347C78.7864 15.9367 79.8348 16.0467 80.8312 16.3581C81.847 16.6483 82.7518 17.2376 83.4278 18.0493C84.1039 18.8611 84.5197 19.8576 84.6213 20.9091C84.7108 21.8973 84.6021 22.8933 84.3015 23.8389C84.0009 24.7844 83.5145 25.6604 82.8708 26.4155C82.0353 27.561 80.9678 28.5175 79.7378 29.2228C78.5078 29.9281 77.143 30.3662 75.7323 30.5087L75.5615 30.5264C75.7411 30.7529 75.9144 30.9774 76.0838 31.2029C76.3463 31.6396 76.7302 31.9905 77.1887 32.2128C77.6473 32.435 78.1606 32.519 78.6661 32.4544C79.093 32.4153 79.5208 32.5188 79.8826 32.7487C80.2444 32.9785 80.5199 33.3218 80.6659 33.7249L80.7024 33.8029L80.7746 33.8863L82.5831 36.0063L80.6854 37.626ZM72.9607 27.5488C73.2731 27.611 73.5858 27.6974 73.9001 27.7858C74.3899 27.9642 74.9092 28.0481 75.4303 28.033C76.5118 27.9295 77.5588 27.5961 78.501 27.0551C79.4432 26.514 80.2589 25.7779 80.8934 24.8959C81.3406 24.3905 81.6815 23.8002 81.8957 23.1603C82.11 22.5203 82.1932 21.8438 82.1404 21.171C82.0891 20.5954 81.8593 20.0501 81.483 19.6115C81.1067 19.1729 80.6028 18.8629 80.0416 18.7246C79.3528 18.5173 78.6296 18.4498 77.9143 18.5261C77.1991 18.6024 76.5063 18.8209 75.8767 19.1688C74.1055 19.9566 72.7173 21.4123 72.0145 23.2189C71.6776 23.9467 71.5875 24.7645 71.7578 25.5482C71.9281 26.3319 72.3496 27.0385 72.9582 27.5608L72.9607 27.5488Z" fill="#004ADF"/>
<path d="M90.9834 34.6584C90.2339 33.5038 89.3936 32.4107 88.4705 31.3897L88.0426 30.8884C87.7838 30.5656 87.5651 30.2605 87.3474 29.9548C86.9624 29.3465 86.487 28.8004 85.9375 28.3353L87.4333 26.3389C88.1922 26.954 88.8488 27.6856 89.3786 28.5064C89.5695 28.7744 89.7604 29.0436 89.9669 29.3012L90.3652 29.7665C91.3778 30.8879 92.2972 32.09 93.1144 33.3609L90.9834 34.6584Z" fill="#004ADF"/>
<path d="M80.1142 34.8378L78.6641 32.8083C79.1161 32.5059 79.6237 32.2964 80.1574 32.192L80.4178 32.125C81.5052 31.7931 82.5001 31.2119 83.3232 30.4276C84.1464 29.6434 84.775 28.6778 85.1591 27.6077C85.3812 27.0463 85.4765 26.4428 85.4384 25.8403C85.4384 25.6521 85.3544 25.5139 85.1147 25.1685C85.034 25.0524 84.9542 24.9365 84.8799 24.8178C84.7176 24.5607 84.5553 24.2964 84.3927 24.0308C83.8795 23.135 83.2906 22.2847 82.6323 21.4893L84.5026 19.8389C85.2576 20.741 85.9324 21.7073 86.5191 22.7269C86.6759 22.9821 86.8325 23.2379 86.9921 23.4901C87.0484 23.5802 87.1062 23.663 87.1644 23.7464C87.6409 24.3426 87.9106 25.0775 87.933 25.8403C87.972 26.7851 87.8062 27.7271 87.447 28.6017C86.9129 30.001 86.0674 31.2604 84.9745 32.2845C83.8817 33.3087 82.5701 34.0708 81.1392 34.513C80.99 34.5563 80.8718 34.5855 80.7519 34.6147C80.5283 34.6528 80.3127 34.7283 80.1142 34.8378Z" fill="#004ADF"/>
<path d="M107.751 34.7627C106.694 33.9684 105.502 33.37 104.234 32.9959C103.658 32.9583 103.08 33.0328 102.532 33.2152C102.071 33.3382 101.345 33.5002 100.62 33.6616C99.942 33.8119 99.2641 33.9619 98.8119 34.0825L98.0098 31.069C98.493 30.9405 99.2184 30.7785 99.9436 30.6171C100.622 30.4668 101.3 30.3168 101.752 30.1962C102.703 29.897 103.707 29.8004 104.697 29.9124C106.906 30.4027 108.913 31.5546 110.451 33.2146L107.699 34.6812L107.751 34.7627Z" fill="white"/>
<path d="M56.5185 97.5427C55.8545 97.5385 55.1912 97.4999 54.5312 97.427C53.1356 97.2398 51.8657 96.5222 50.9854 95.4233L53.4087 93.4609C53.7652 93.9064 54.2674 94.2118 54.8268 94.3234C56.3684 94.5679 57.9463 94.4315 59.423 93.9262C59.5519 93.8826 59.6667 93.8052 59.7555 93.7022L62.35 95.4318C61.9191 96.0547 61.312 96.5348 60.6066 96.8106C59.3028 97.3121 57.9153 97.5605 56.5185 97.5427Z" fill="white"/>
<path d="M97.623 70.7222C96.8859 69.8959 96.4176 68.8648 96.2803 67.766C96.1431 66.6671 96.3435 65.5526 96.8547 64.5703L99.5924 66.0637C99.3872 66.4798 99.3112 66.9479 99.3743 67.4076C99.4374 67.8673 99.6367 68.2975 99.9465 68.643L97.623 70.7222Z" fill="white"/>
<path d="M99.887 38.2842C99.2362 38.2604 98.6119 38.0208 98.1122 37.6033L97.9113 37.4529C97.0648 36.5714 96.5793 35.4047 96.5507 34.183C96.4258 33.239 96.6796 32.2839 97.2566 31.5264L99.5642 33.6242C99.6165 33.5704 99.6582 33.5072 99.6872 33.4379C99.6127 33.9979 99.7011 34.5675 99.9417 35.0786L99.9588 35.0908L99.9783 35.1054C100.196 35.0268 100.378 34.9507 100.561 34.8758C100.828 34.7656 101.096 34.6559 101.376 34.5591C101.285 34.1999 101.129 33.8601 100.917 33.556C100.72 33.2778 100.578 32.9644 100.499 32.6327L103.556 32.02C103.539 31.9248 103.508 31.8325 103.464 31.7459L103.555 31.8927C104.051 32.631 104.376 33.4708 104.506 34.3508L104.518 34.4601C104.627 35.1387 104.47 35.8332 104.08 36.3989C103.69 36.9646 103.096 37.3577 102.423 37.4962C102.212 37.5668 101.981 37.6637 101.749 37.7593C101.45 37.8817 101.152 38.0036 100.836 38.1089C100.532 38.2226 100.211 38.2819 99.887 38.2842Z" fill="white"/>
<path d="M121.551 99.6304L119.55 97.2381C124.631 92.9889 124.165 79.8781 123.557 75.1855C123.495 74.691 123.448 74.2177 123.402 73.7524C123.355 73.27 123.309 72.7962 123.245 72.3224L123.232 72.1159C123.23 72.0262 123.222 71.9367 123.209 71.8479C123.185 71.668 123.172 71.4868 123.169 71.3053L126.288 71.3047C126.29 71.364 126.296 71.4232 126.306 71.4819C126.325 71.6445 126.343 71.8151 126.348 72.0008C126.41 72.4795 126.458 72.9595 126.505 73.4473C126.548 73.8858 126.592 74.3316 126.649 74.7908C126.747 75.5409 128.982 93.415 121.551 99.6304Z" fill="white"/>
<path d="M110.544 103.108L110.351 99.996C117.307 99.5642 119.166 97.3881 119.184 97.3662L121.7 99.2073C121.458 99.5507 119.089 102.578 110.544 103.108Z" fill="white"/>
<path d="M115.912 62.1499C114.774 62.1365 113.644 61.9706 112.551 61.6566L113.207 59.2497C114.401 59.6122 115.656 59.728 116.896 59.5901C117.829 59.486 118.738 59.2271 119.586 58.8239C121.117 58.205 122.51 57.2863 123.681 56.1216C124.579 55.2206 125.209 54.0876 125.501 52.8492C125.792 51.6261 125.662 50.3407 125.133 49.2002C124.622 47.8885 123.999 46.6232 123.271 45.4181L123.237 45.3548C123.303 45.4927 123.406 45.6093 123.535 45.691L124.598 43.4326C124.957 43.59 125.255 43.8597 125.448 44.2012C126.236 45.5074 126.909 46.8795 127.459 48.3019C128.168 49.8884 128.338 51.663 127.943 53.3551C127.557 55.0236 126.725 56.5559 125.536 57.7889C124.144 59.2103 122.477 60.3323 120.636 61.0862C119.551 61.6012 118.388 61.9326 117.194 62.0668C116.769 62.1221 116.341 62.1499 115.912 62.1499Z" fill="#004ADF"/>
<path d="M117.958 66.3774H114.875V65.6459L114.633 65.7994L112.057 61.7505C111.988 61.6927 111.931 61.6427 111.874 61.5855L108.879 58.3502L108.713 58.0646C108.606 57.8646 108.485 57.6724 108.351 57.4897L108.303 57.4264C107.844 56.7425 107.431 56.0297 107.065 55.2922C106.748 54.6508 106.391 54.0302 105.995 53.4341C105.554 52.813 105.242 52.1099 105.077 51.3661C104.912 50.6224 104.897 49.8532 105.035 49.1038C105.327 47.6266 105.922 46.2258 106.781 44.9891C107.641 43.7525 108.746 42.7066 110.029 41.9172C111.957 40.5679 114.2 39.7376 116.542 39.506C117.711 39.3275 118.904 39.3867 120.049 39.6799C121.195 39.9731 122.27 40.4944 123.209 41.2125C124.236 41.9637 124.95 43.0666 125.215 44.3107C125.559 46.4128 125.06 48.5659 123.827 50.3024C122.491 52.2456 120.686 53.8201 118.58 54.8799C116.15 56.2435 113.333 56.752 110.579 56.324C110.692 56.4988 110.79 56.6705 110.88 56.8297L110.957 56.9618L113.663 59.8475C113.856 59.9912 114.019 60.172 114.141 60.3792L117.958 66.3774ZM108.665 53.0016C108.854 53.0845 109.042 53.1725 109.23 53.2599C109.754 53.5429 110.319 53.7422 110.905 53.8507L110.969 53.8598C113.188 54.1996 115.457 53.7828 117.411 52.6764C119.154 51.8059 120.649 50.5102 121.758 48.909C122.194 48.3082 122.507 47.6267 122.677 46.904C122.848 46.1813 122.873 45.4318 122.752 44.6993C122.563 44.0658 122.165 43.5151 121.623 43.1377C120.938 42.63 120.157 42.2663 119.328 42.0687C118.498 41.8711 117.637 41.8435 116.797 41.9878C114.887 42.1681 113.056 42.8418 111.484 43.9428C110.467 44.5312 109.586 45.3286 108.899 46.2825C108.213 47.2364 107.736 48.325 107.502 49.4765C107.413 49.9112 107.415 50.3594 107.507 50.7933C107.599 51.2273 107.779 51.6377 108.036 51.9992C108.265 52.3269 108.471 52.6631 108.665 53.0016Z" fill="#004ADF"/>
<path d="M118.693 73.5015C118.492 73.5048 118.293 73.4673 118.106 73.3913C117.92 73.3153 117.752 73.2024 117.61 73.0593L118.851 71.8187L118.702 71.0135L118.728 71.0087C118.7 71.0075 118.673 71.0079 118.645 71.0099L118.789 70.9978C119.326 70.8985 119.864 70.8059 120.401 70.7127C121.49 70.5245 122.617 70.3296 123.71 70.0872C125.125 69.8838 126.484 69.3956 127.705 68.6522C128.538 68.0861 129.199 67.3008 129.613 66.3831C130.028 65.4654 130.181 64.4509 130.055 63.4516C129.878 62.8018 129.651 62.1665 129.377 61.5514C129.249 61.2439 129.123 60.9381 129.007 60.633L125.601 53.5734L127.848 52.4893L131.323 59.7033C131.434 60.0005 131.558 60.2983 131.682 60.5974C132.014 61.3455 132.285 62.1195 132.491 62.9117L132.504 62.9745C132.723 64.4568 132.519 65.9708 131.915 67.3422C131.312 68.7136 130.333 69.8867 129.092 70.7263C127.612 71.6573 125.955 72.2708 124.225 72.5279C123.1 72.7782 121.944 72.9779 120.826 73.171C120.269 73.2672 119.713 73.3635 119.156 73.467L118.929 73.4875C118.851 73.4962 118.772 73.5009 118.693 73.5015ZM118.929 71.041V71.7407L119.374 71.2955C119.251 71.1731 119.097 71.0853 118.929 71.041Z" fill="#004ADF"/>
<path d="M82.0516 38.5258C81.7273 38.5342 81.4061 38.4611 81.1173 38.3134C80.8285 38.1656 80.5813 37.9477 80.3984 37.6798L82.9941 35.9526C82.8798 35.7652 82.7128 35.6155 82.5141 35.5221C82.3153 35.4288 82.0935 35.3959 81.8762 35.4276C83.4375 34.7935 85.048 34.2879 86.6916 33.9159C88.0263 33.6066 89.5748 33.215 91.5191 32.6918C92.4308 32.4269 93.388 32.2253 94.3134 32.0303C95.3598 31.8105 96.3494 31.6022 97.2974 31.302C97.5332 31.2106 97.7866 31.1736 98.0387 31.1939C98.2908 31.2141 98.5351 31.291 98.7533 31.4189C98.5503 31.3166 98.3259 31.2643 98.0986 31.266V34.2918C98.4205 34.2467 98.719 34.098 98.9488 33.8681L98.6835 34.1319L98.3276 34.2463L98.0986 34.3188V34.3846L97.9153 34.3742C96.924 34.6684 95.9252 34.8785 94.9556 35.0825C94.0464 35.2739 93.1879 35.454 92.359 35.6946C90.3479 36.236 88.765 36.6368 87.3481 36.9639C85.8615 37.3039 84.4048 37.7638 82.9925 38.3391C82.6936 38.4607 82.3743 38.524 82.0516 38.5258Z" fill="white"/>
</svg>
