<svg width="162" height="122" viewBox="0 0 162 122" fill="none" xmlns="http://www.w3.org/2000/svg">
<path d="M68.7885 92.3329C63.4897 92.3322 58.3102 90.7603 53.9048 87.816C49.4994 84.8718 46.0659 80.6873 44.0386 75.7917C42.0112 70.8962 41.4811 65.5094 42.5151 60.3126C43.5492 55.1157 46.101 50.3422 49.8479 46.5955C53.5948 42.8489 58.3685 40.2974 63.5654 39.2638C68.7623 38.2301 74.1491 38.7607 79.0445 40.7883C83.9399 42.816 88.1241 46.2498 91.0681 50.6554C94.0121 55.061 95.5836 60.2407 95.5839 65.5394C95.5758 72.6433 92.7501 79.454 87.7267 84.4771C82.7033 89.5001 75.8924 92.3254 68.7885 92.3329ZM68.7885 42.3289C64.1976 42.3297 59.7101 43.6917 55.8934 46.2428C52.0767 48.7939 49.1021 52.4195 47.3459 56.6611C45.5896 60.9027 45.1306 65.5699 46.0268 70.0724C46.923 74.5748 49.1342 78.7105 52.3808 81.9563C55.6274 85.2021 59.7635 87.4123 64.2663 88.3075C68.769 89.2026 73.436 88.7424 77.6772 86.9852C81.9184 85.228 85.5432 82.2525 88.0934 78.4352C90.6436 74.6178 92.0046 70.13 92.0042 65.5392C91.997 59.3847 89.5486 53.4844 85.1962 49.133C80.8438 44.7817 74.9429 42.3347 68.7885 42.3289Z" fill="white"/>
<path d="M76.4835 40.5382H72.9036V31.2633C72.9036 30.1722 72.4701 29.1258 71.6986 28.3542C70.9271 27.5827 69.8807 27.1493 68.7896 27.1493C67.6985 27.1493 66.6521 27.5827 65.8806 28.3542C65.1091 29.1258 64.6756 30.1722 64.6756 31.2633V40.5382H61.0957V31.2633C61.0957 29.2227 61.9063 27.2657 63.3492 25.8228C64.7921 24.3799 66.7491 23.5693 68.7896 23.5693C70.8302 23.5693 72.7872 24.3799 74.2301 25.8228C75.6729 27.2657 76.4835 29.2227 76.4835 31.2633V40.5382Z" fill="white"/>
<path d="M68.7887 105.796C66.7493 105.794 64.794 104.983 63.3518 103.541C61.9096 102.099 61.0982 100.144 61.0957 98.1047V88.8262H64.6756V98.1047C64.6756 99.1958 65.1091 100.242 65.8806 101.014C66.6521 101.785 67.6985 102.219 68.7896 102.219C69.8807 102.219 70.9271 101.785 71.6986 101.014C72.4701 100.242 72.9036 99.1958 72.9036 98.1047V88.8262H76.4835V98.1047C76.4806 100.144 75.6689 102.099 74.2264 103.541C72.7838 104.983 70.8283 105.794 68.7887 105.796Z" fill="white"/>
<path d="M68.7881 87.0077C64.5426 87.0077 60.3924 85.7488 56.8623 83.3901C53.3323 81.0314 50.581 77.6789 48.9563 73.7566C47.3316 69.8342 46.9065 65.5181 47.7347 61.3542C48.563 57.1902 50.6074 53.3654 53.6094 50.3634C56.6115 47.3613 60.4363 45.3169 64.6003 44.4886C68.7642 43.6604 73.0803 44.0855 77.0027 45.7102C80.925 47.3349 84.2775 50.0862 86.6362 53.6162C88.9949 57.1463 90.2538 61.2965 90.2538 65.542C90.2479 71.2333 87.9845 76.6897 83.9601 80.714C79.9358 84.7384 74.4793 87.0018 68.7881 87.0077ZM68.7881 47.6562C65.2506 47.6562 61.7926 48.7052 58.8513 50.6705C55.91 52.6358 53.6175 55.4292 52.2638 58.6974C50.9101 61.9656 50.5559 65.5619 51.246 69.0314C51.9361 72.5009 53.6396 75.6878 56.1409 78.1892C58.6423 80.6905 61.8293 82.394 65.2988 83.0841C68.7683 83.7742 72.3645 83.42 75.6327 82.0663C78.9009 80.7126 81.6943 78.4201 83.6596 75.4788C85.6249 72.5375 86.6739 69.0795 86.6739 65.542C86.6686 60.8 84.7826 56.2537 81.4295 52.9006C78.0764 49.5475 73.5301 47.6615 68.7881 47.6562Z" fill="white"/>
<path d="M70.578 45.5977H66.998V85.2183H70.578V45.5977Z" fill="white"/>
<path d="M68.7894 82.2218C65.0357 82.2218 61.9932 74.7534 61.9932 65.5405C61.9932 56.3287 65.0357 48.8604 68.7894 48.8604C72.5431 48.8604 75.5856 56.3288 75.5856 65.5405C75.5856 74.7534 72.5431 82.2218 68.7894 82.2218Z" fill="#004ADF"/>
<path d="M110.809 92.3713H74.2529V88.7913H110.809C112.299 88.7895 113.727 88.197 114.78 87.1438C115.833 86.0906 116.426 84.6627 116.428 83.1732V26.1981C116.426 24.7086 115.833 23.2806 114.78 22.2273C113.727 21.1741 112.299 20.5816 110.809 20.5798H84.0559L83.8583 44.9857H80.2784V20.7792C80.2793 19.7775 80.6775 18.817 81.3857 18.1084C82.0939 17.3999 83.0542 17.0013 84.056 17H110.809C113.248 17.0028 115.586 17.9727 117.31 19.6971C119.035 21.4215 120.005 23.7595 120.007 26.1981V83.1731C120.005 85.6118 119.035 87.9498 117.31 89.6742C115.586 91.3985 113.248 92.3685 110.809 92.3713Z" fill="white"/>
<path d="M100.412 46.7753C97.9456 46.7757 95.5341 46.0445 93.4829 44.6743C91.4317 43.3042 89.8328 41.3565 88.8885 39.0777C87.9442 36.7988 87.6969 34.2911 88.1778 31.8717C88.6587 29.4523 89.8462 27.2298 91.5903 25.4853C93.3343 23.7408 95.5564 22.5526 97.9757 22.0711C100.395 21.5895 102.903 21.8361 105.182 22.7798C107.461 23.7234 109.409 25.3217 110.78 27.3726C112.151 29.4234 112.882 31.8347 112.883 34.3014C112.879 37.6079 111.564 40.778 109.226 43.1164C106.889 45.4547 103.719 46.7706 100.412 46.7753ZM100.412 25.411C98.6534 25.4106 96.9339 25.9318 95.4713 26.9087C94.0087 27.8857 92.8686 29.2744 92.1953 30.8993C91.522 32.5243 91.3458 34.3124 91.6888 36.0375C92.0319 37.7626 92.8788 39.3472 94.1225 40.5909C95.3663 41.8347 96.9509 42.6816 98.676 43.0247C100.401 43.3677 102.189 43.1914 103.814 42.5181C105.439 41.8449 106.828 40.7048 107.805 39.2422C108.782 37.7795 109.303 36.06 109.302 34.3011C109.299 31.9443 108.362 29.6848 106.695 28.0182C105.029 26.3517 102.769 25.4141 100.412 25.411Z" fill="#004ADF"/>
<path d="M103.725 28.4601L94.5684 37.6162L97.0995 40.1474L106.256 30.9912L103.725 28.4601Z" fill="#004ADF"/>
<path d="M97.0995 28.4601L94.5684 30.9912L103.725 40.1474L106.256 37.6162L97.0995 28.4601Z" fill="#004ADF"/>
</svg>
