<?xml version="1.0" standalone="no"?>
<!DOCTYPE svg PUBLIC "-//W3C//DTD SVG 20010904//EN"
 "http://www.w3.org/TR/2001/REC-SVG-20010904/DTD/svg10.dtd">
<svg version="1.0" xmlns="http://www.w3.org/2000/svg"
 width="260.000000pt" height="260.000000pt" viewBox="0 0 260.000000 260.000000"
 preserveAspectRatio="xMidYMid meet">
<metadata>
Created by potrace 1.14, written by Peter Selinger 2001-2017
</metadata>
<g transform="translate(0.000000,260.000000) scale(0.100000,-0.100000)"
fill="#000000" stroke="none">
<path d="M159 1468 c-5 -12 -3 -141 3 -151 11 -18 16 -6 18 48 3 81 1 105 -10
105 -5 0 -11 -1 -11 -2z"/>
<path d="M278 1463 c-2 -5 -4 -39 -3 -78 0 -54 4 -70 15 -70 10 0 14 12 14 47
l-1 47 27 -19 c15 -10 33 -26 40 -35 30 -37 48 -37 87 -2 71 61 68 61 69 11 1
-47 10 -66 22 -47 6 10 8 68 3 137 -1 15 -14 7 -65 -38 -35 -31 -68 -56 -73
-56 -4 0 -36 25 -70 55 -34 31 -63 52 -65 48z"/>
<path d="M645 1460 c-9 -14 30 -19 130 -16 98 3 140 -8 113 -28 -9 -7 -58 -11
-127 -10 -120 1 -113 4 -113 -56 0 -36 2 -42 14 -38 7 3 12 18 13 34 l0 29
114 5 c100 4 115 7 127 25 12 18 11 24 -2 43 -14 21 -23 22 -139 22 -69 0
-126 -4 -130 -10z"/>
<path d="M1010 1457 c0 -10 30 -12 133 -11 154 2 147 1 147 14 0 6 -53 10
-140 10 -107 0 -140 -3 -140 -13z"/>
<path d="M1382 1458 c3 -9 35 -13 114 -14 138 -2 134 -1 134 -18 0 -20 -13
-22 -137 -21 l-113 0 0 -48 c0 -56 23 -63 28 -9 l3 32 82 0 c81 0 83 -1 116
-35 47 -50 71 -47 32 4 -18 24 -18 25 2 42 18 14 20 21 12 45 l-10 29 -134 3
c-104 2 -132 0 -129 -10z"/>
<path d="M1750 1389 c0 -60 3 -80 13 -77 8 3 13 31 15 81 2 64 0 77 -13 77
-12 0 -15 -15 -15 -81z"/>
<path d="M1951 1413 c-30 -32 -62 -67 -73 -79 l-18 -21 109 1 c88 0 108 3 99
13 -6 8 -35 13 -74 13 -35 0 -64 2 -64 5 0 3 17 24 37 46 l37 40 57 -63 c38
-42 61 -60 67 -53 7 7 -13 35 -57 83 l-67 73 -53 -58z"/>
<path d="M2230 1392 l0 -78 108 0 c144 0 159 19 19 26 l-102 5 1 63 c1 46 -2
62 -12 62 -11 0 -14 -19 -14 -78z"/>
<path d="M1010 1393 c0 -10 32 -13 135 -13 107 0 133 3 129 13 -7 19 -264 19
-264 0z"/>
<path d="M1013 1328 c3 -10 39 -13 137 -13 98 0 134 3 138 13 3 9 -29 12 -138
12 -109 0 -141 -3 -137 -12z"/>
<path d="M433 1258 c2 -9 36 -13 115 -15 140 -1 132 0 132 -18 0 -18 10 -17
-130 -19 l-115 -1 0 -44 c0 -27 5 -46 13 -49 8 -2 12 8 12 32 l0 36 84 0 c82
0 85 -1 113 -32 45 -50 73 -49 34 1 -18 23 -18 24 0 42 22 22 24 50 7 67 -17
17 -271 17 -265 0z"/>
<path d="M800 1258 c0 -18 272 -18 278 0 3 9 -30 12 -137 12 -106 0 -141 -3
-141 -12z"/>
<path d="M1172 1194 c3 -86 20 -103 28 -29 l5 46 25 -22 c14 -12 37 -33 52
-47 l27 -25 56 47 c30 26 55 45 56 42 0 -3 2 -25 2 -48 1 -23 8 -43 15 -45 9
-4 12 16 12 78 l0 82 -22 -19 c-13 -10 -42 -36 -65 -56 -24 -21 -46 -38 -50
-38 -5 0 -31 19 -58 43 -94 80 -86 81 -83 -9z"/>
<path d="M1611 1203 c-35 -39 -63 -75 -62 -79 0 -5 44 -9 96 -9 112 -1 126 17
21 25 l-68 5 38 43 38 44 53 -58 c47 -51 83 -76 83 -56 0 4 -31 40 -68 81
l-68 74 -63 -70z"/>
<path d="M1900 1257 c0 -9 29 -12 113 -12 125 1 137 -1 137 -21 0 -15 -6 -16
-153 -16 l-98 0 3 -47 c3 -53 21 -62 26 -13 l3 32 108 0 c92 0 110 3 125 19
13 14 14 24 7 45 l-11 26 -130 0 c-98 0 -130 -3 -130 -13z"/>
<path d="M800 1193 c0 -11 26 -13 133 -11 175 4 173 23 -3 24 -104 1 -130 -2
-130 -13z"/>
<path d="M803 1128 c5 -18 269 -18 275 0 3 9 -29 12 -138 12 -109 0 -141 -3
-137 -12z"/>
</g>
</svg>
