<svg width="162" height="122" viewBox="0 0 162 122" fill="none" xmlns="http://www.w3.org/2000/svg">
<mask id="mask0_1701_172" style="mask-type:luminance" maskUnits="userSpaceOnUse" x="35" y="14" width="92" height="95">
<path d="M35 14H127V109H35V14Z" fill="white"/>
</mask>
<g mask="url(#mask0_1701_172)">
<path fill-rule="evenodd" clip-rule="evenodd" d="M96.3703 25.0901C97.0903 25.8201 97.6103 26.7401 97.8503 27.7401V50.6001C97.8503 52.1601 95.3903 53.4001 93.8503 53.4001H68.8503C68.4803 53.4001 68.1203 53.3301 67.7803 53.1901C67.4403 53.0501 67.1303 52.8401 66.8803 52.5801C66.6203 52.3201 66.4103 52.0101 66.2703 51.6701C66.1403 51.3301 66.0703 50.9701 66.0703 50.6001V27.7401C66.0703 26.2001 69.3103 23.5801 70.8503 23.5801H93.7303C94.7303 23.8301 95.6403 24.3501 96.3703 25.0901ZM91.8503 29.5801H71.8503V47.5801H91.8503V29.5801Z" fill="white"/>
<path fill-rule="evenodd" clip-rule="evenodd" d="M119.47 30.4701C120.93 31.0701 122.26 31.9501 123.39 33.0701C124.51 34.1801 125.4 35.5101 126.01 36.9701C126.62 38.4301 126.93 40.0001 126.93 41.5801V84.1001C126.93 86.0601 126.15 87.9401 124.76 89.3301C123.37 90.7201 121.49 91.5001 119.53 91.5001C117.57 91.5001 115.68 90.7201 114.3 89.3301C112.91 87.9401 112.13 86.0601 112.13 84.1001V77.0001C112.13 76.5201 111.94 76.0501 111.6 75.7101C111.25 75.3701 110.79 75.1801 110.31 75.1801H108.49V94.4801C110.11 95.1401 111.5 96.2601 112.48 97.7101C113.46 99.1601 113.99 100.87 113.99 102.62V106.2C113.99 106.94 113.69 107.65 113.17 108.18C112.64 108.71 111.93 109 111.19 109H53.6298C52.8898 108.99 52.1798 108.7 51.6598 108.17C51.1398 107.65 50.8498 106.94 50.8498 106.2V102.62C50.8398 100.88 51.3498 99.1801 52.3198 97.7301C53.2798 96.2801 54.6498 95.1501 56.2498 94.4801V22.4801C56.2498 18.1601 59.7698 13.5801 64.0898 13.5801H100.59C104.85 13.5801 108.41 18.1601 108.43 22.4801V29.5801H114.85C116.43 29.5701 118 29.8701 119.47 30.4701ZM61.8498 93.8401H102.83V22.4801C102.83 21.2401 101.83 19.5801 100.59 19.5801H64.0898C62.8498 19.5801 61.8498 21.2401 61.8498 22.4801V93.8401ZM108.27 102.62C108.27 101.77 107.93 100.96 107.34 100.36C106.74 99.7601 105.93 99.4301 105.09 99.4201H59.4898C58.6398 99.4301 57.8398 99.7601 57.2398 100.36C56.6398 100.96 56.3098 101.77 56.3098 102.62V103.4H108.31L108.27 102.62ZM121.27 59.5801C118.63 58.9501 116.28 57.4501 114.61 55.3101C112.93 53.1701 112.03 50.5301 112.05 47.8201V35.0801H108.41V69.6001H110.23C112.19 69.6001 114.07 70.3801 115.46 71.7701C116.85 73.1601 117.63 75.0401 117.63 77.0001V84.1001C117.63 84.5801 117.82 85.0501 118.16 85.3901C118.5 85.7301 118.97 85.9201 119.45 85.9201C119.93 85.9201 120.39 85.7301 120.74 85.3901C121.08 85.0501 121.27 84.5801 121.27 84.1001V59.5801Z" fill="white"/>
<path fill-rule="evenodd" clip-rule="evenodd" d="M40.8503 93.0403C40.1703 93.0203 39.5103 92.8503 38.9103 92.5303C38.3103 92.2103 37.8003 91.7503 37.4103 91.2003C37.1403 90.8203 36.9803 90.3903 36.9303 89.9303C36.8703 89.4703 36.9403 89.0103 37.1103 88.5803C37.8703 86.8203 38.8103 85.1503 39.9103 83.5803L39.4703 79.0603C38.9603 75.9203 39.4303 72.6903 40.8303 69.8303C42.2203 66.9603 44.4603 64.6003 47.2503 63.0603C51.8203 60.7703 56.9003 59.6703 62.0103 59.8403C62.1503 59.8403 76.9103 60.0803 77.8503 63.8403C77.9803 64.3003 77.9503 64.8003 77.7403 65.2403C77.5403 65.6703 77.1903 66.0203 76.7503 66.2203C72.3503 68.5603 70.6103 72.2203 68.7503 76.1203C67.4803 79.5503 65.3203 82.5803 62.4903 84.9003C60.1803 86.4503 57.4503 87.2403 54.6703 87.1603C52.0303 87.1103 49.4203 86.6603 46.9303 85.8003C45.6203 87.5003 44.5003 89.3303 43.5703 91.2603C43.3503 91.8003 42.9803 92.2603 42.4903 92.5803C42.0003 92.9003 41.4303 93.0603 40.8503 93.0403ZM47.5503 75.8003C46.2603 76.7403 45.0603 77.7903 43.9503 78.9403C45.1003 77.8303 46.3103 76.7803 47.5703 75.8003H47.5503Z" fill="#004ADF"/>
<path fill-rule="evenodd" clip-rule="evenodd" d="M61.8702 58.1201C65.3602 58.1201 68.8402 58.4601 72.2702 59.1401C76.4102 60.0001 78.9302 60.9801 79.5702 63.5401C79.8002 64.4101 79.7302 65.3401 79.3702 66.1701C79.0002 67.0001 78.3702 67.6801 77.5702 68.1001C73.7302 70.1401 72.1902 73.3801 70.4102 77.1401C69.0102 80.8701 66.6302 84.1601 63.5102 86.6401C60.8802 88.4301 57.7602 89.3501 54.5902 89.2601C52.2202 89.2301 49.8702 88.8801 47.5902 88.2201C46.7002 89.4901 45.9102 90.8301 45.2302 92.2201C44.8402 93.0501 44.2202 93.7501 43.4402 94.2301C42.6602 94.7201 41.7602 94.9701 40.8502 94.9601C39.8602 94.9401 38.8902 94.6901 38.0102 94.2301C37.1402 93.7601 36.3902 93.0901 35.8302 92.2801C35.3802 91.6401 35.1002 90.9001 35.0202 90.1201C34.9402 89.3401 35.0602 88.5601 35.3702 87.8401C36.0602 86.2401 36.9002 84.7101 37.8702 83.2601L37.4902 79.4201C36.9402 75.9101 37.4802 72.3101 39.0402 69.1201C40.6102 65.9301 43.1202 63.3001 46.2302 61.5801C51.0802 59.1501 56.4702 57.9701 61.8902 58.1601L61.8702 58.1201ZM61.8902 62.0001C57.1202 61.8101 52.3802 62.8201 48.1102 64.9601C45.6502 66.3301 43.6802 68.4201 42.4502 70.9501C41.2302 73.4801 40.8102 76.3201 41.2502 79.1001C44.2602 75.7001 47.9602 72.9701 52.0902 71.0801C56.2202 69.1901 60.7002 68.1801 65.2502 68.1201H65.5702C65.5702 68.1201 44.8702 75.2001 38.8702 89.4201C38.5702 90.2201 39.8702 91.2001 40.8702 91.2001C41.0602 91.2101 41.2402 91.1701 41.4002 91.0701C41.5602 90.9701 41.6902 90.8301 41.7702 90.6601C42.9602 88.1801 44.4602 85.8701 46.2302 83.7601C48.9102 84.8001 51.7402 85.3801 54.6102 85.4601C57.0002 85.5101 59.3502 84.8101 61.3302 83.4601C67.5502 79.1001 66.9102 69.3801 75.7902 64.6601C77.0702 63.9201 69.9502 61.9201 61.9502 61.9201L61.8902 62.0001Z" fill="#DBDBDB"/>
</g>
</svg>
