<svg width="162" height="122" viewBox="0 0 162 122" fill="none" xmlns="http://www.w3.org/2000/svg">
<path d="M90.909 41.5337C91.0562 41.5743 91.21 41.5856 91.3615 41.5668C91.513 41.5479 91.6594 41.4994 91.7921 41.424C91.9249 41.3486 92.0415 41.2478 92.1353 41.1273C92.2291 41.0069 92.2983 40.8691 92.3388 40.7219L93.7686 35.5371L94.7611 36.5297C94.902 36.6709 95.0769 36.7734 95.2688 36.8274C95.4608 36.8814 95.6634 36.8851 95.8572 36.8382C96.051 36.7913 96.2295 36.6953 96.3755 36.5594C96.5215 36.4236 96.6301 36.2525 96.6909 36.0626L98.7042 29.7924C98.7987 29.4985 98.7725 29.1791 98.6314 28.9046C98.4903 28.63 98.246 28.4227 97.9521 28.3282C97.6582 28.2338 97.3388 28.26 97.0642 28.4011C96.7896 28.5421 96.5823 28.7865 96.4879 29.0804L95.0581 33.5371L94.0014 32.4804C93.8576 32.3364 93.6785 32.2326 93.4821 32.1794C93.2857 32.1262 93.0787 32.1255 92.8819 32.1773C92.6851 32.2291 92.5053 32.3316 92.3605 32.4747C92.2157 32.6177 92.111 32.7962 92.0568 32.9923L90.0971 40.1024C90.0562 40.2497 90.0447 40.4036 90.0634 40.5554C90.0821 40.7071 90.1305 40.8537 90.2059 40.9866C90.2814 41.1196 90.3823 41.2364 90.503 41.3303C90.6236 41.4241 90.7616 41.4933 90.909 41.5337Z" fill="white"/>
<path d="M120.845 47.3588C120.696 47.0885 120.446 46.8883 120.15 46.8022C119.854 46.716 119.536 46.751 119.266 46.8993L110.99 51.4438C110.832 51.5309 110.696 51.6537 110.593 51.8023C110.491 51.951 110.424 52.1215 110.399 52.3003C110.374 52.4791 110.39 52.6614 110.447 52.8327C110.505 53.0039 110.601 53.1596 110.729 53.2872L113.005 55.5631L107.539 56.9302C107.264 56.999 107.023 57.166 106.863 57.3999C106.702 57.6337 106.632 57.9182 106.667 58.1998C106.701 58.4814 106.838 58.7407 107.05 58.9289C107.262 59.117 107.536 59.2211 107.82 59.2214C107.915 59.2211 108.01 59.2095 108.103 59.1869L115.561 57.3214C115.761 57.2718 115.944 57.17 116.092 57.0264C116.24 56.8828 116.347 56.7026 116.402 56.5042C116.457 56.3057 116.458 56.0962 116.406 55.897C116.353 55.6979 116.249 55.5162 116.103 55.3706L113.47 52.7377L120.385 48.9394C120.519 48.8658 120.637 48.7665 120.733 48.6473C120.828 48.528 120.9 48.391 120.942 48.2443C120.985 48.0975 120.998 47.9437 120.982 47.7918C120.965 47.6398 120.918 47.4927 120.845 47.3588Z" fill="white"/>
<path d="M115.047 41.2338C115.237 41.4229 115.487 41.5404 115.754 41.5661C116.021 41.5918 116.288 41.5242 116.511 41.3748C116.734 41.2254 116.898 41.0034 116.975 40.7467C117.053 40.4899 117.039 40.2142 116.936 39.9666C116.833 39.7189 116.647 39.5146 116.411 39.3884C116.174 39.2622 115.901 39.2219 115.638 39.2744C115.375 39.3269 115.138 39.4689 114.968 39.6763C114.798 39.8837 114.705 40.1436 114.705 40.4118C114.706 40.7202 114.828 41.0158 115.047 41.2338Z" fill="white"/>
<path d="M112.666 41.9928C112.529 41.7162 112.288 41.5053 111.996 41.4063C111.704 41.3073 111.385 41.3283 111.108 41.4648L106.765 43.6092C106.599 43.691 106.455 43.8111 106.345 43.9596C106.235 44.1081 106.162 44.2806 106.132 44.463C106.102 44.6453 106.116 44.8322 106.172 45.0082C106.229 45.1841 106.327 45.344 106.457 45.4747L108.101 47.118L102.629 49.8137C102.355 49.9515 102.146 50.1922 102.048 50.4833C101.95 50.7745 101.971 51.0925 102.107 51.368C102.243 51.6435 102.482 51.8543 102.772 51.9542C103.063 52.0542 103.381 52.0352 103.657 51.9016L110.585 48.4881C110.751 48.4064 110.896 48.2863 111.006 48.1377C111.116 47.9892 111.189 47.8165 111.22 47.634C111.25 47.4515 111.236 47.2644 111.18 47.0882C111.123 46.912 111.025 46.7519 110.894 46.6211L109.25 44.9777L112.138 43.5512C112.414 43.4144 112.625 43.1735 112.724 42.8813C112.823 42.5891 112.802 42.2695 112.666 41.9928Z" fill="white"/>
<path d="M98.1046 45.2103C98.369 45.3689 98.6856 45.4161 98.9848 45.3414C99.2839 45.2667 99.5412 45.0763 99.7 44.812L104.009 37.6345L106.268 39.9002C106.39 40.0224 106.537 40.116 106.699 40.1744C106.861 40.2327 107.034 40.2543 107.205 40.2376C107.377 40.2209 107.542 40.1663 107.69 40.0778C107.838 39.9892 107.964 39.869 108.06 39.7257L114.508 30.0843C114.68 29.8278 114.743 29.5136 114.683 29.2109C114.623 28.9081 114.445 28.6416 114.188 28.47C113.932 28.2984 113.618 28.2356 113.315 28.2956C113.012 28.3557 112.746 28.5335 112.574 28.79L106.915 37.2526L104.603 34.9348C104.478 34.8097 104.326 34.7146 104.159 34.6569C103.991 34.5992 103.813 34.5803 103.637 34.6018C103.462 34.6232 103.293 34.6843 103.145 34.7806C102.996 34.8768 102.872 35.0056 102.781 35.1571L97.7046 43.615C97.626 43.746 97.5741 43.8912 97.5516 44.0423C97.5292 44.1934 97.5368 44.3474 97.574 44.4956C97.6111 44.6437 97.6771 44.7831 97.7682 44.9057C97.8592 45.0284 97.9736 45.1318 98.1046 45.2103Z" fill="white"/>
<path d="M56.3916 26.8653H52.8007C52.5638 26.8638 52.329 26.9092 52.1098 26.9988C51.8906 27.0884 51.6912 27.2205 51.5233 27.3875C51.3553 27.5544 51.2219 27.753 51.131 27.9716C51.04 28.1903 50.9932 28.4248 50.9932 28.6617C50.9932 28.8985 51.04 29.133 51.131 29.3517C51.2219 29.5703 51.3553 29.7689 51.5233 29.9358C51.6912 30.1028 51.8906 30.2349 52.1098 30.3245C52.329 30.4141 52.5638 30.4595 52.8007 30.458H56.3916C56.6284 30.4595 56.8632 30.4141 57.0824 30.3245C57.3017 30.2349 57.501 30.1028 57.669 29.9358C57.837 29.7689 57.9703 29.5703 58.0613 29.3517C58.1522 29.133 58.1991 28.8985 58.1991 28.6617C58.1991 28.4248 58.1522 28.1903 58.0613 27.9716C57.9703 27.753 57.837 27.5544 57.669 27.3875C57.501 27.2205 57.3017 27.0884 57.0824 26.9988C56.8632 26.9092 56.6284 26.8638 56.3916 26.8653Z" fill="white"/>
<path d="M56.3916 35.8614H52.8007C52.5638 35.8599 52.329 35.9053 52.1098 35.9949C51.8906 36.0845 51.6912 36.2166 51.5233 36.3836C51.3553 36.5505 51.2219 36.7491 51.131 36.9677C51.04 37.1864 50.9932 37.4209 50.9932 37.6577C50.9932 37.8946 51.04 38.1291 51.131 38.3478C51.2219 38.5664 51.3553 38.765 51.5233 38.9319C51.6912 39.0989 51.8906 39.231 52.1098 39.3206C52.329 39.4102 52.5638 39.4556 52.8007 39.4541H56.3916C56.6284 39.4556 56.8632 39.4102 57.0824 39.3206C57.3017 39.231 57.501 39.0989 57.669 38.9319C57.837 38.765 57.9703 38.5664 58.0613 38.3478C58.1522 38.1291 58.1991 37.8946 58.1991 37.6577C58.1991 37.4209 58.1522 37.1864 58.0613 36.9677C57.9703 36.7491 57.837 36.5505 57.669 36.3836C57.501 36.2166 57.3017 36.0845 57.0824 35.9949C56.8632 35.9053 56.6284 35.8599 56.3916 35.8614Z" fill="white"/>
<path d="M56.3916 44.8584H52.8007C52.5638 44.857 52.329 44.9024 52.1098 44.992C51.8906 45.0816 51.6912 45.2137 51.5233 45.3806C51.3553 45.5476 51.2219 45.7461 51.131 45.9648C51.04 46.1835 50.9932 46.418 50.9932 46.6548C50.9932 46.8917 51.04 47.1262 51.131 47.3448C51.2219 47.5635 51.3553 47.762 51.5233 47.929C51.6912 48.0959 51.8906 48.228 52.1098 48.3176C52.329 48.4073 52.5638 48.4526 52.8007 48.4512H56.3916C56.6284 48.4526 56.8632 48.4073 57.0824 48.3176C57.3017 48.228 57.501 48.0959 57.669 47.929C57.837 47.762 57.9703 47.5635 58.0613 47.3448C58.1522 47.1262 58.1991 46.8917 58.1991 46.6548C58.1991 46.418 58.1522 46.1835 58.0613 45.9648C57.9703 45.7461 57.837 45.5476 57.669 45.3806C57.501 45.2137 57.3017 45.0816 57.0824 44.992C56.8632 44.9024 56.6284 44.857 56.3916 44.8584Z" fill="white"/>
<path d="M56.3916 53.8545H52.8007C52.5638 53.8531 52.329 53.8985 52.1098 53.9881C51.8906 54.0777 51.6912 54.2098 51.5233 54.3767C51.3553 54.5437 51.2219 54.7422 51.131 54.9609C51.04 55.1796 50.9932 55.4141 50.9932 55.6509C50.9932 55.8877 51.04 56.1223 51.131 56.3409C51.2219 56.5596 51.3553 56.7581 51.5233 56.9251C51.6912 57.092 51.8906 57.2241 52.1098 57.3137C52.329 57.4034 52.5638 57.4488 52.8007 57.4473H56.3916C56.6284 57.4488 56.8632 57.4034 57.0824 57.3137C57.3017 57.2241 57.501 57.092 57.669 56.9251C57.837 56.7581 57.9703 56.5596 58.0613 56.3409C58.1522 56.1223 58.1991 55.8877 58.1991 55.6509C58.1991 55.4141 58.1522 55.1796 58.0613 54.9609C57.9703 54.7422 57.837 54.5437 57.669 54.3767C57.501 54.2098 57.3017 54.0777 57.0824 53.9881C56.8632 53.8985 56.6284 53.8531 56.3916 53.8545Z" fill="white"/>
<path d="M56.3913 62.8516H52.8003C52.5646 62.8516 52.3311 62.898 52.1132 62.9882C51.8954 63.0785 51.6975 63.2107 51.5308 63.3774C51.364 63.5442 51.2318 63.7421 51.1416 63.9599C51.0513 64.1778 51.0049 64.4112 51.0049 64.647C51.0049 64.8828 51.0513 65.1163 51.1416 65.3341C51.2318 65.5519 51.364 65.7499 51.5308 65.9166C51.6975 66.0833 51.8954 66.2156 52.1132 66.3058C52.3311 66.396 52.5646 66.4425 52.8003 66.4425H56.3913C56.627 66.4425 56.8605 66.396 57.0784 66.3058C57.2962 66.2156 57.4941 66.0833 57.6608 65.9166C57.8276 65.7499 57.9598 65.5519 58.0501 65.3341C58.1403 65.1163 58.1867 64.8828 58.1867 64.647C58.1867 64.4112 58.1403 64.1778 58.0501 63.9599C57.9598 63.7421 57.8276 63.5442 57.6608 63.3774C57.4941 63.2107 57.2962 63.0785 57.0784 62.9882C56.8605 62.898 56.627 62.8516 56.3913 62.8516Z" fill="white"/>
<path d="M56.3913 71.8477H52.8003C52.5646 71.8477 52.3311 71.8941 52.1132 71.9843C51.8954 72.0746 51.6975 72.2068 51.5308 72.3735C51.364 72.5403 51.2318 72.7382 51.1416 72.956C51.0513 73.1739 51.0049 73.4073 51.0049 73.6431C51.0049 73.8789 51.0513 74.1124 51.1416 74.3302C51.2318 74.548 51.364 74.746 51.5308 74.9127C51.6975 75.0794 51.8954 75.2117 52.1132 75.3019C52.3311 75.3921 52.5646 75.4386 52.8003 75.4386H56.3913C56.627 75.4386 56.8605 75.3921 57.0784 75.3019C57.2962 75.2117 57.4941 75.0794 57.6608 74.9127C57.8276 74.746 57.9598 74.548 58.0501 74.3302C58.1403 74.1124 58.1867 73.8789 58.1867 73.6431C58.1867 73.4073 58.1403 73.1739 58.0501 72.956C57.9598 72.7382 57.8276 72.5403 57.6608 72.3735C57.4941 72.2068 57.2962 72.0746 57.0784 71.9843C56.8605 71.8941 56.627 71.8477 56.3913 71.8477Z" fill="white"/>
<path d="M74.3842 30.457H70.7917C70.3139 30.457 69.8557 30.6468 69.5179 30.9847C69.18 31.3225 68.9902 31.7807 68.9902 32.2585C68.9902 32.7363 69.18 33.1945 69.5179 33.5323C69.8557 33.8702 70.3139 34.06 70.7917 34.06H74.3842C74.862 34.06 75.3202 33.8702 75.658 33.5323C75.9959 33.1945 76.1857 32.7363 76.1857 32.2585C76.1857 31.7807 75.9959 31.3225 75.658 30.9847C75.3202 30.6468 74.862 30.457 74.3842 30.457Z" fill="white"/>
<path d="M74.3842 39.4541H70.7917C70.3139 39.4541 69.8557 39.6439 69.5179 39.9817C69.18 40.3196 68.9902 40.7778 68.9902 41.2556C68.9902 41.7334 69.18 42.1916 69.5179 42.5294C69.8557 42.8672 70.3139 43.0571 70.7917 43.0571H74.3842C74.862 43.0571 75.3202 42.8672 75.658 42.5294C75.9959 42.1916 76.1857 41.7334 76.1857 41.2556C76.1857 40.7778 75.9959 40.3196 75.658 39.9817C75.3202 39.6439 74.862 39.4541 74.3842 39.4541Z" fill="white"/>
<path d="M74.3842 48.4502H70.7917C70.3139 48.4502 69.8557 48.64 69.5179 48.9778C69.18 49.3157 68.9902 49.7739 68.9902 50.2517C68.9902 50.7294 69.18 51.1877 69.5179 51.5255C69.8557 51.8633 70.3139 52.0531 70.7917 52.0531H74.3842C74.862 52.0531 75.3202 51.8633 75.658 51.5255C75.9959 51.1877 76.1857 50.7294 76.1857 50.2517C76.1857 49.7739 75.9959 49.3157 75.658 48.9778C75.3202 48.64 74.862 48.4502 74.3842 48.4502Z" fill="white"/>
<path d="M74.3842 57.4463H70.7917C70.3139 57.4463 69.8557 57.6361 69.5179 57.9739C69.18 58.3118 68.9902 58.77 68.9902 59.2478C68.9902 59.7255 69.18 60.1838 69.5179 60.5216C69.8557 60.8594 70.3139 61.0492 70.7917 61.0492H74.3842C74.862 61.0492 75.3202 60.8594 75.658 60.5216C75.9959 60.1838 76.1857 59.7255 76.1857 59.2478C76.1857 58.77 75.9959 58.3118 75.658 57.9739C75.3202 57.6361 74.862 57.4463 74.3842 57.4463Z" fill="white"/>
<path d="M74.3842 66.4424H70.7917C70.3139 66.4424 69.8557 66.6322 69.5179 66.97C69.18 67.3079 68.9902 67.7661 68.9902 68.2439C68.9902 68.7216 69.18 69.1798 69.5179 69.5177C69.8557 69.8555 70.3139 70.0453 70.7917 70.0453H74.3842C74.862 70.0453 75.3202 69.8555 75.658 69.5177C75.9959 69.1798 76.1857 68.7216 76.1857 68.2439C76.1857 67.7661 75.9959 67.3079 75.658 66.97C75.3202 66.6322 74.862 66.4424 74.3842 66.4424Z" fill="white"/>
<path d="M63.5949 115.028C59.0254 115.031 54.573 113.583 50.8789 110.894C47.1848 108.204 44.4397 104.412 43.039 100.062C41.6383 95.7126 41.6542 91.0308 43.0846 86.691C44.515 82.3512 47.2859 78.5773 50.9982 75.9131V19.6714C50.988 18.0111 51.3062 16.3651 51.9345 14.8282C52.5628 13.2913 53.4888 11.8938 54.6593 10.7161C55.8297 9.53846 57.2215 8.60385 58.7545 7.96609C60.2875 7.32832 61.9315 7 63.5918 7C65.2522 7 66.8962 7.32832 68.4292 7.96609C69.9622 8.60385 71.354 9.53846 72.5244 10.7161C73.6949 11.8938 74.6209 13.2913 75.2492 14.8282C75.8775 16.3651 76.1957 18.0111 76.1854 19.6714V75.9131C79.8951 78.5783 82.6635 82.3516 84.0926 86.6901C85.5216 91.0286 85.5374 95.7086 84.1378 100.057C82.7382 104.405 79.9954 108.197 76.3039 110.887C72.6124 113.577 68.1627 115.027 63.5949 115.028ZM63.5949 10.6746C61.2093 10.6762 58.9218 11.6246 57.235 13.3115C55.5481 14.9984 54.5997 17.2858 54.5981 19.6714V77.8308L53.7817 78.3649C50.5284 80.4799 48.0457 83.5898 46.7039 87.2309C45.3622 90.8719 45.2332 94.8491 46.3362 98.5695C47.4392 102.29 49.7151 105.554 52.8246 107.875C55.9341 110.197 59.7106 111.451 63.591 111.451C67.4714 111.451 71.2479 110.197 74.3574 107.875C77.4669 105.554 79.7428 102.29 80.8458 98.5695C81.9488 94.8491 81.8198 90.8719 80.478 87.2309C79.1363 83.5898 76.6536 80.4799 73.4002 78.3649L72.5913 77.8388V19.6714C72.5884 17.2863 71.6396 14.9996 69.9531 13.313C68.2665 11.6264 65.9801 10.6776 63.5949 10.6746Z" fill="white"/>
<mask id="mask0_1702_710" style="mask-type:luminance" maskUnits="userSpaceOnUse" x="54" y="71" width="19" height="32">
<path d="M61.731 73.2698V84.2394C59.5455 84.6846 57.6032 85.9255 56.2808 87.7215C54.9583 89.5176 54.35 91.7407 54.5737 93.9598C54.7975 96.179 55.8373 98.2359 57.4916 99.7319C59.1459 101.228 61.2969 102.056 63.5272 102.056C65.7576 102.056 67.9085 101.228 69.5628 99.7319C71.2172 98.2359 72.257 96.179 72.4807 93.9598C72.7045 91.7407 72.0961 89.5176 70.7737 87.7215C69.4512 85.9255 67.5089 84.6846 65.3234 84.2394V73.2698C65.3234 72.7935 65.1342 72.3366 64.7973 71.9997C64.4605 71.6629 64.0036 71.4736 63.5272 71.4736C63.0508 71.4736 62.594 71.6629 62.2571 71.9997C61.9203 72.3366 61.731 72.7935 61.731 73.2698Z" fill="white"/>
</mask>
<g mask="url(#mask0_1702_710)">
<path d="M63.4175 71.4697L54.5342 72.5562V71.4697H63.4175Z" fill="#004ADF"/>
<path d="M64.3947 71.4697L54.5342 72.6792V72.5562L63.4175 71.4697H64.3947Z" fill="#004ADF"/>
<path d="M65.3719 71.4697L54.5342 72.7954V72.6792L64.3947 71.4697H65.3719Z" fill="#004ADF"/>
<path d="M66.3559 71.4697L54.5342 72.9184V72.7954L65.3718 71.4697H66.3559Z" fill="#004ADF"/>
<path d="M67.333 71.4697L54.5342 73.0414V72.9184L66.3558 71.4697H67.333Z" fill="#004ADF"/>
<path d="M68.3102 71.4697L54.5342 73.1576V73.0414L67.333 71.4697H68.3102Z" fill="#004ADF"/>
<path d="M69.2942 71.4697L54.5342 73.2806V73.1576L68.3102 71.4697H69.2942Z" fill="#004ADF"/>
<path d="M70.2713 71.4697L54.5342 73.3967V73.2806L69.2942 71.4697H70.2713Z" fill="#004ADF"/>
<path d="M71.2485 71.4697L54.5342 73.5197V73.3967L70.2713 71.4697H71.2485Z" fill="#004ADF"/>
<path d="M72.2325 71.4697L54.5342 73.6427V73.5197L71.2485 71.4697H72.2325Z" fill="#004ADF"/>
<path d="M72.5263 71.5517L54.5342 73.7589V73.6359L72.2325 71.4697H72.5263V71.5517Z" fill="#004ADF"/>
<path d="M72.5263 71.6679L54.5342 73.8819V73.7589L72.5263 71.5518V71.6679Z" fill="#004ADF"/>
<path d="M72.5263 71.791L54.5342 73.9981V73.882L72.5263 71.668V71.791Z" fill="#004ADF"/>
<path d="M72.5263 71.914L54.5342 74.1212V73.9982L72.5263 71.791V71.914Z" fill="#004ADF"/>
<path d="M72.5263 72.0302L54.5342 74.2442V74.1212L72.5263 71.9141V72.0302Z" fill="#004ADF"/>
<path d="M72.5263 72.1533L54.5342 74.3605V74.2374L72.5263 72.0303V72.1533Z" fill="#004ADF"/>
<path d="M72.5263 72.2695L54.5342 74.4835V74.3605L72.5263 72.1533V72.2695Z" fill="#004ADF"/>
<path d="M72.5263 72.3925L54.5342 74.5997V74.4835L72.5263 72.2695V72.3925Z" fill="#004ADF"/>
<path d="M72.5263 72.5146L54.5342 74.7218V74.5988L72.5263 72.3916V72.5146Z" fill="#004ADF"/>
<path d="M72.5263 72.6308L54.5342 74.8448V74.7218L72.5263 72.5146V72.6308Z" fill="#004ADF"/>
<path d="M72.5263 72.7539L54.5342 74.961V74.838L72.5263 72.6309V72.7539Z" fill="#004ADF"/>
<path d="M72.5263 72.8701L54.5342 75.0841V74.9611L72.5263 72.7539V72.8701Z" fill="#004ADF"/>
<path d="M72.5263 72.9931L54.5342 75.2003V75.0841L72.5263 72.8701V72.9931Z" fill="#004ADF"/>
<path d="M72.5263 73.1162L54.5342 75.3233V75.2003L72.5263 72.9932V73.1162Z" fill="#004ADF"/>
<path d="M72.5263 73.2324L54.5342 75.4464V75.3234L72.5263 73.1162V73.2324Z" fill="#004ADF"/>
<path d="M72.5263 73.3554L54.5342 75.5626V75.4396L72.5263 73.2324V73.3554Z" fill="#004ADF"/>
<path d="M72.5263 73.4716L54.5342 75.6856V75.5626L72.5263 73.3555V73.4716Z" fill="#004ADF"/>
<path d="M72.5263 73.5947L54.5342 75.8018V75.6857L72.5263 73.4717V73.5947Z" fill="#004ADF"/>
<path d="M72.5263 73.7177L54.5342 75.9249V75.8019L72.5263 73.5947V73.7177Z" fill="#004ADF"/>
<path d="M72.5263 73.8339L54.5342 76.0479V75.9249L72.5263 73.7178V73.8339Z" fill="#004ADF"/>
<path d="M72.5263 73.957L54.5342 76.1642V76.0412L72.5263 73.834V73.957Z" fill="#004ADF"/>
<path d="M72.5263 74.0732L54.5342 76.2872V76.1642L72.5263 73.957V74.0732Z" fill="#004ADF"/>
<path d="M72.5263 74.1962L54.5342 76.4034V76.2872L72.5263 74.0732V74.1962Z" fill="#004ADF"/>
<path d="M72.5263 74.3193L54.5342 76.5265V76.4035L72.5263 74.1963V74.3193Z" fill="#004ADF"/>
<path d="M72.5263 74.4355L54.5342 76.6495V76.5265L72.5263 74.3193V74.4355Z" fill="#004ADF"/>
<path d="M72.5263 74.5585L54.5342 76.7657V76.6427L72.5263 74.4355V74.5585Z" fill="#004ADF"/>
<path d="M72.5263 74.6748L54.5342 76.8888V76.7658L72.5263 74.5586V74.6748Z" fill="#004ADF"/>
<path d="M72.5263 74.7978L54.5342 77.005V76.8888L72.5263 74.6748V74.7978Z" fill="#004ADF"/>
<path d="M72.5263 74.9208L54.5342 77.128V77.005L72.5263 74.7979V74.9208Z" fill="#004ADF"/>
<path d="M72.5263 75.0361L54.5342 77.2433V77.1271L72.5263 74.9199V75.0361Z" fill="#004ADF"/>
<path d="M72.5263 75.1591L54.5342 77.3663V77.2433L72.5263 75.0361V75.1591Z" fill="#004ADF"/>
<path d="M72.5263 75.2753L54.5342 77.4894V77.3663L72.5263 75.1592V75.2753Z" fill="#004ADF"/>
<path d="M72.5263 75.3984L54.5342 77.6056V77.4894L72.5263 75.2754V75.3984Z" fill="#004ADF"/>
<path d="M72.5263 75.5214L54.5342 77.7286V77.6056L72.5263 75.3984V75.5214Z" fill="#004ADF"/>
<path d="M72.5263 75.6376L54.5342 77.8448V77.7287L72.5263 75.5215V75.6376Z" fill="#004ADF"/>
<path d="M72.5263 75.7607L54.5342 77.9679V77.8449L72.5263 75.6377V75.7607Z" fill="#004ADF"/>
<path d="M72.5263 75.8769L54.5342 78.0909V77.9679L72.5263 75.7607V75.8769Z" fill="#004ADF"/>
<path d="M72.5263 76L54.5342 78.2071V78.0909L72.5263 75.877V76Z" fill="#004ADF"/>
<path d="M72.5263 76.123L54.5342 78.3302V78.2072L72.5263 76V76.123Z" fill="#004ADF"/>
<path d="M72.5263 76.2392L54.5342 78.4464V78.3302L72.5263 76.123V76.2392Z" fill="#004ADF"/>
<path d="M72.5263 76.3623L54.5342 78.5694V78.4464L72.5263 76.2393V76.3623Z" fill="#004ADF"/>
<path d="M72.5263 76.4785L54.5342 78.6925V78.5695L72.5263 76.3623V76.4785Z" fill="#004ADF"/>
<path d="M72.5263 76.6015L54.5342 78.8087V78.6925L72.5263 76.4785V76.6015Z" fill="#004ADF"/>
<path d="M72.5263 76.7246L54.5342 78.9317V78.8087L72.5263 76.6016V76.7246Z" fill="#004ADF"/>
<path d="M72.5263 76.8408L54.5342 79.0479V78.9318L72.5263 76.7178V76.8408Z" fill="#004ADF"/>
<path d="M72.5263 76.9638L54.5342 79.171V79.048L72.5263 76.8408V76.9638Z" fill="#004ADF"/>
<path d="M72.5263 77.08L54.5342 79.294V79.171L72.5263 76.9639V77.08Z" fill="#004ADF"/>
<path d="M72.5263 77.2031L54.5342 79.4102V79.2941L72.5263 77.0801V77.2031Z" fill="#004ADF"/>
<path d="M72.5263 77.3261L54.5342 79.5333V79.4103L72.5263 77.2031V77.3261Z" fill="#004ADF"/>
<path d="M72.5263 77.4423L54.5342 79.6495V79.5333L72.5263 77.3193V77.4423Z" fill="#004ADF"/>
<path d="M72.5263 77.5654L54.5342 79.7726V79.6496L72.5263 77.4424V77.5654Z" fill="#004ADF"/>
<path d="M72.5263 77.6806L54.5342 79.8946V79.7716L72.5263 77.5645V77.6806Z" fill="#004ADF"/>
<path d="M72.5263 77.8037L54.5342 80.0108V79.8947L72.5263 77.6807V77.8037Z" fill="#004ADF"/>
<path d="M72.5263 77.9267L54.5342 80.1339V80.0109L72.5263 77.8037V77.9267Z" fill="#004ADF"/>
<path d="M72.5263 78.0429L54.5342 80.2501V80.1339L72.5263 77.9199V78.0429Z" fill="#004ADF"/>
<path d="M72.5263 78.166L54.5342 80.3731V80.257L72.5263 78.043V78.166Z" fill="#004ADF"/>
<path d="M72.5263 78.2822L54.5342 80.4962V80.3732L72.5263 78.166V78.2822Z" fill="#004ADF"/>
<path d="M72.5263 78.4052L54.5342 80.6124V80.4962L72.5263 78.2822V78.4052Z" fill="#004ADF"/>
<path d="M72.5263 78.5283L54.5342 80.7354V80.6124L72.5263 78.4053V78.5283Z" fill="#004ADF"/>
<path d="M72.5263 78.6445L54.5342 80.8516V80.7355L72.5263 78.5215V78.6445Z" fill="#004ADF"/>
<path d="M72.5263 78.7675L54.5342 80.9747V80.8585L72.5263 78.6445V78.7675Z" fill="#004ADF"/>
<path d="M72.5263 78.8837L54.5342 81.0978V80.9747L72.5263 78.7676V78.8837Z" fill="#004ADF"/>
<path d="M72.5263 79.0068L54.5342 81.214V81.0978L72.5263 78.8838V79.0068Z" fill="#004ADF"/>
<path d="M72.5263 79.123L54.5342 81.337V81.214L72.5263 79.0068V79.123Z" fill="#004ADF"/>
<path d="M72.5263 79.2461L54.5342 81.4532V81.3371L72.5263 79.123V79.2461Z" fill="#004ADF"/>
<path d="M72.5263 79.3691L54.5342 81.5763V81.4533L72.5263 79.2461V79.3691Z" fill="#004ADF"/>
<path d="M72.5263 79.4853L54.5342 81.6993V81.5763L72.5263 79.3691V79.4853Z" fill="#004ADF"/>
<path d="M72.5263 79.6083L54.5342 81.8155V81.6993L72.5263 79.4854V79.6083Z" fill="#004ADF"/>
<path d="M72.5263 79.7246L54.5342 81.9386V81.8156L72.5263 79.6084V79.7246Z" fill="#004ADF"/>
<path d="M72.5263 79.8476L54.5342 82.0548V81.9386L72.5263 79.7246V79.8476Z" fill="#004ADF"/>
<path d="M72.5263 79.9707L54.5342 82.1778V82.0548L72.5263 79.8477V79.9707Z" fill="#004ADF"/>
<path d="M72.5263 80.0869L54.5342 82.3009V82.1779L72.5263 79.9707V80.0869Z" fill="#004ADF"/>
<path d="M72.5263 80.2089L54.5342 82.4161V82.2999L72.5263 80.0859V80.2089Z" fill="#004ADF"/>
<path d="M72.5263 80.3252L54.5342 82.5391V82.4162L72.5263 80.209V80.3252Z" fill="#004ADF"/>
<path d="M72.5263 80.4482L54.5342 82.6554V82.5392L72.5263 80.3252V80.4482Z" fill="#004ADF"/>
<path d="M72.5263 80.5712L54.5342 82.7784V82.6554L72.5263 80.4482V80.5712Z" fill="#004ADF"/>
<path d="M72.5263 80.6875L54.5342 82.9015V82.7785L72.5263 80.5713V80.6875Z" fill="#004ADF"/>
<path d="M72.5263 80.8105L54.5342 83.0177V82.9015L72.5263 80.6875V80.8105Z" fill="#004ADF"/>
<path d="M72.5263 80.9267L54.5342 83.1407V83.0177L72.5263 80.8105V80.9267Z" fill="#004ADF"/>
<path d="M72.5263 81.0498L54.5342 83.2569V83.1408L72.5263 80.9268V81.0498Z" fill="#004ADF"/>
<path d="M72.5263 81.1728L54.5342 83.38V83.257L72.5263 81.0498V81.1728Z" fill="#004ADF"/>
<path d="M72.5263 81.289L54.5342 83.503V83.38L72.5263 81.1729V81.289Z" fill="#004ADF"/>
<path d="M72.5263 81.4121L54.5342 83.6192V83.5031L72.5263 81.2891V81.4121Z" fill="#004ADF"/>
<path d="M72.5263 81.5283L54.5342 83.7423V83.6193L72.5263 81.4121V81.5283Z" fill="#004ADF"/>
<path d="M72.5263 81.6513L54.5342 83.8585V83.7423L72.5263 81.5283V81.6513Z" fill="#004ADF"/>
<path d="M72.5263 81.7744L54.5342 83.9815V83.8585L72.5263 81.6514V81.7744Z" fill="#004ADF"/>
<path d="M72.5263 81.8906L54.5342 84.1046V83.9816L72.5263 81.7744V81.8906Z" fill="#004ADF"/>
<path d="M72.5263 82.0136L54.5342 84.2208V84.1046L72.5263 81.8906V82.0136Z" fill="#004ADF"/>
<path d="M72.5263 82.1298L54.5342 84.3438V84.2208L72.5263 82.0137V82.1298Z" fill="#004ADF"/>
<path d="M72.5263 82.2529L54.5342 84.46V84.3439L72.5263 82.1299V82.2529Z" fill="#004ADF"/>
<path d="M72.5263 82.3759L54.5342 84.5831V84.4601L72.5263 82.2529V82.3759Z" fill="#004ADF"/>
<path d="M72.5263 82.4921L54.5342 84.6993V84.5831L72.5263 82.376V82.4921Z" fill="#004ADF"/>
<path d="M72.5263 82.6152L54.5342 84.8224V84.7062L72.5263 82.4922V82.6152Z" fill="#004ADF"/>
<path d="M72.5263 82.7304L54.5342 84.9444V84.8214L72.5263 82.6143V82.7304Z" fill="#004ADF"/>
<path d="M72.5263 82.8535L54.5342 85.0606V84.9445L72.5263 82.7305V82.8535Z" fill="#004ADF"/>
<path d="M72.5263 82.9765L54.5342 85.1837V85.0607L72.5263 82.8535V82.9765Z" fill="#004ADF"/>
<path d="M72.5263 83.0927L54.5342 85.2999V85.1837L72.5263 82.9766V83.0927Z" fill="#004ADF"/>
<path d="M72.5263 83.2158L54.5342 85.4229V85.3068L72.5263 83.0928V83.2158Z" fill="#004ADF"/>
<path d="M72.5263 83.332L54.5342 85.546V85.423L72.5263 83.2158V83.332Z" fill="#004ADF"/>
<path d="M72.5263 83.455L54.5342 85.6622V85.546L72.5263 83.332V83.455Z" fill="#004ADF"/>
<path d="M72.5263 83.5781L54.5342 85.7852V85.6622L72.5263 83.4551V83.5781Z" fill="#004ADF"/>
<path d="M72.5263 83.6943L54.5342 85.9015V85.7853L72.5263 83.5781V83.6943Z" fill="#004ADF"/>
<path d="M72.5263 83.8173L54.5342 86.0245V85.9083L72.5263 83.6943V83.8173Z" fill="#004ADF"/>
<path d="M72.5263 83.9336L54.5342 86.1475V86.0245L72.5263 83.8174V83.9336Z" fill="#004ADF"/>
<path d="M72.5263 84.0566L54.5342 86.2638V86.1476L72.5263 83.9336V84.0566Z" fill="#004ADF"/>
<path d="M72.5263 84.1796L54.5342 86.3868V86.2638L72.5263 84.0566V84.1796Z" fill="#004ADF"/>
<path d="M72.5263 84.2958L54.5342 86.503V86.3868L72.5263 84.1729V84.2958Z" fill="#004ADF"/>
<path d="M72.5263 84.4189L54.5342 86.6261V86.5099L72.5263 84.2959V84.4189Z" fill="#004ADF"/>
<path d="M72.5263 84.5351L54.5342 86.7491V86.6261L72.5263 84.4189V84.5351Z" fill="#004ADF"/>
<path d="M72.5263 84.6582L54.5342 86.8653V86.7492L72.5263 84.5352V84.6582Z" fill="#004ADF"/>
<path d="M72.5263 84.7812L54.5342 86.9884V86.8654L72.5263 84.6582V84.7812Z" fill="#004ADF"/>
<path d="M72.5263 84.8974L54.5342 87.1046V86.9884L72.5263 84.7744V84.8974Z" fill="#004ADF"/>
<path d="M72.5263 85.0205L54.5342 87.2276V87.1115L72.5263 84.8975V85.0205Z" fill="#004ADF"/>
<path d="M72.5263 85.1367L54.5342 87.3507V87.2277L72.5263 85.0205V85.1367Z" fill="#004ADF"/>
<path d="M72.5263 85.2597L54.5342 87.4669V87.3507L72.5263 85.1367V85.2597Z" fill="#004ADF"/>
<path d="M72.5263 85.3818L54.5342 87.589V87.466L72.5263 85.2588V85.3818Z" fill="#004ADF"/>
<path d="M72.5263 85.498L54.5342 87.7052V87.589L72.5263 85.375V85.498Z" fill="#004ADF"/>
<path d="M72.5263 85.621L54.5342 87.8282V87.712L72.5263 85.498V85.621Z" fill="#004ADF"/>
<path d="M72.5263 85.7373L54.5342 87.9513V87.8283L72.5263 85.6211V85.7373Z" fill="#004ADF"/>
<path d="M72.5263 85.8603L54.5342 88.0675V87.9513L72.5263 85.7373V85.8603Z" fill="#004ADF"/>
<path d="M72.5263 85.9765L54.5342 88.1905V88.0675L72.5263 85.8604V85.9765Z" fill="#004ADF"/>
<path d="M72.5263 86.0996L54.5342 88.3067V88.1906L72.5263 85.9766V86.0996Z" fill="#004ADF"/>
<path d="M72.5263 86.2226L54.5342 88.4298V88.3136L72.5263 86.0996V86.2226Z" fill="#004ADF"/>
<path d="M72.5263 86.3388L54.5342 88.5528V88.4298L72.5263 86.2227V86.3388Z" fill="#004ADF"/>
<path d="M72.5263 86.4619L54.5342 88.669V88.5529L72.5263 86.3389V86.4619Z" fill="#004ADF"/>
<path d="M72.5263 86.5781L54.5342 88.7921V88.6691L72.5263 86.4619V86.5781Z" fill="#004ADF"/>
<path d="M72.5263 86.7011L54.5342 88.9083V88.7921L72.5263 86.5781V86.7011Z" fill="#004ADF"/>
<path d="M72.5263 86.8242L54.5342 89.0313V88.9083L72.5263 86.7012V86.8242Z" fill="#004ADF"/>
<path d="M72.5263 86.9404L54.5342 89.1544V89.0314L72.5263 86.8242V86.9404Z" fill="#004ADF"/>
<path d="M72.5263 87.0634L54.5342 89.2706V89.1544L72.5263 86.9404V87.0634Z" fill="#004ADF"/>
<path d="M72.5263 87.1796L54.5342 89.3936V89.2706L72.5263 87.0635V87.1796Z" fill="#004ADF"/>
<path d="M72.5263 87.3027L54.5342 89.5099V89.3937L72.5263 87.1797V87.3027Z" fill="#004ADF"/>
<path d="M72.5263 87.4257L54.5342 89.6329V89.5099L72.5263 87.3027V87.4257Z" fill="#004ADF"/>
<path d="M72.5263 87.5419L54.5342 89.7559V89.6329L72.5263 87.4258V87.5419Z" fill="#004ADF"/>
<path d="M72.5263 87.665L54.5342 89.8722V89.756L72.5263 87.542V87.665Z" fill="#004ADF"/>
<path d="M72.5263 87.7812L54.5342 89.9952V89.8722L72.5263 87.665V87.7812Z" fill="#004ADF"/>
<path d="M72.5263 87.9033L54.5342 90.1104V89.9943L72.5263 87.7803V87.9033Z" fill="#004ADF"/>
<path d="M72.5263 88.0263L54.5342 90.2335V90.1105L72.5263 87.9033V88.0263Z" fill="#004ADF"/>
<path d="M72.5263 88.1425L54.5342 90.3565V90.2335L72.5263 88.0264V88.1425Z" fill="#004ADF"/>
<path d="M72.5263 88.2656L54.5342 90.4727V90.3566L72.5263 88.1426V88.2656Z" fill="#004ADF"/>
<path d="M72.5263 88.3818L54.5342 90.5958V90.4728L72.5263 88.2656V88.3818Z" fill="#004ADF"/>
<path d="M72.5263 88.5048L54.5342 90.712V90.5958L72.5263 88.3818V88.5048Z" fill="#004ADF"/>
<path d="M72.5263 88.6279L54.5342 90.835V90.712L72.5263 88.5049V88.6279Z" fill="#004ADF"/>
<path d="M72.5263 88.7441L54.5342 90.9581V90.8351L72.5263 88.6279V88.7441Z" fill="#004ADF"/>
<path d="M72.5263 88.8671L54.5342 91.0743V90.9581L72.5263 88.7441V88.8671Z" fill="#004ADF"/>
<path d="M72.5263 88.9834L54.5342 91.1974V91.0744L72.5263 88.8672V88.9834Z" fill="#004ADF"/>
<path d="M72.5263 89.1064L54.5342 91.3136V91.1974L72.5263 88.9834V89.1064Z" fill="#004ADF"/>
<path d="M72.5263 89.2294L54.5342 91.4366V91.3136L72.5263 89.1064V89.2294Z" fill="#004ADF"/>
<path d="M72.5263 89.3457L54.5342 91.5597V91.4367L72.5263 89.2295V89.3457Z" fill="#004ADF"/>
<path d="M72.5263 89.4687L54.5342 91.6759V91.5597L72.5263 89.3457V89.4687Z" fill="#004ADF"/>
<path d="M72.5263 89.5849L54.5342 91.7989V91.6759L72.5263 89.4688V89.5849Z" fill="#004ADF"/>
<path d="M72.5263 89.708L54.5342 91.9151V91.799L72.5263 89.585V89.708Z" fill="#004ADF"/>
<path d="M72.5263 89.831L54.5342 92.0382V91.9152L72.5263 89.708V89.831Z" fill="#004ADF"/>
<path d="M72.5263 89.9472L54.5342 92.1544V92.0382L72.5263 89.8311V89.9472Z" fill="#004ADF"/>
<path d="M72.5263 90.0703L54.5342 92.2774V92.1544L72.5263 89.9473V90.0703Z" fill="#004ADF"/>
<path d="M72.5263 90.1865L54.5342 92.4005V92.2775L72.5263 90.0703V90.1865Z" fill="#004ADF"/>
<path d="M72.5263 90.3095L54.5342 92.5167V92.4005L72.5263 90.1865V90.3095Z" fill="#004ADF"/>
<path d="M72.5263 90.4316L54.5342 92.6388V92.5158L72.5263 90.3086V90.4316Z" fill="#004ADF"/>
<path d="M72.5263 90.5478L54.5342 92.7618V92.6388L72.5263 90.4316V90.5478Z" fill="#004ADF"/>
<path d="M72.5263 90.6708L54.5342 92.878V92.755L72.5263 90.5479V90.6708Z" fill="#004ADF"/>
<path d="M72.5263 90.7871L54.5342 93.0011V92.8781L72.5263 90.6709V90.7871Z" fill="#004ADF"/>
<path d="M72.5263 90.9101L54.5342 93.1173V93.0011L72.5263 90.7871V90.9101Z" fill="#004ADF"/>
<path d="M72.5263 91.0332L54.5342 93.2403V93.1173L72.5263 90.9102V91.0332Z" fill="#004ADF"/>
<path d="M72.5263 91.1494L54.5342 93.3634V93.2404L72.5263 91.0332V91.1494Z" fill="#004ADF"/>
<path d="M72.5263 91.2724L54.5342 93.4796V93.3566L72.5263 91.1494V91.2724Z" fill="#004ADF"/>
<path d="M72.5263 91.3886L54.5342 93.6026V93.4796L72.5263 91.2725V91.3886Z" fill="#004ADF"/>
<path d="M72.5263 91.5117L54.5342 93.7188V93.6027L72.5263 91.3887V91.5117Z" fill="#004ADF"/>
<path d="M72.5263 91.6347L54.5342 93.8419V93.7189L72.5263 91.5117V91.6347Z" fill="#004ADF"/>
<path d="M72.5263 91.7509L54.5342 93.9649V93.8419L72.5263 91.6348V91.7509Z" fill="#004ADF"/>
<path d="M72.5263 91.874L54.5342 94.0811V93.9581L72.5263 91.751V91.874Z" fill="#004ADF"/>
<path d="M72.5263 91.9902L54.5342 94.2042V94.0812L72.5263 91.874V91.9902Z" fill="#004ADF"/>
<path d="M72.5263 92.1132L54.5342 94.3204V94.2042L72.5263 91.9902V92.1132Z" fill="#004ADF"/>
<path d="M72.5263 92.2363L54.5342 94.4434V94.3204L72.5263 92.1133V92.2363Z" fill="#004ADF"/>
<path d="M72.5263 92.3525L54.5342 94.5665V94.4435L72.5263 92.2363V92.3525Z" fill="#004ADF"/>
<path d="M72.5263 92.4755L54.5342 94.6827V94.5597L72.5263 92.3525V92.4755Z" fill="#004ADF"/>
<path d="M72.5263 92.5918L54.5342 94.8057V94.6828L72.5263 92.4756V92.5918Z" fill="#004ADF"/>
<path d="M72.5263 92.7148L54.5342 94.922V94.8058L72.5263 92.5918V92.7148Z" fill="#004ADF"/>
<path d="M72.5263 92.8378L54.5342 95.045V94.922L72.5263 92.7148V92.8378Z" fill="#004ADF"/>
<path d="M72.5263 92.9531L54.5342 95.1671V95.0441L72.5263 92.8369V92.9531Z" fill="#004ADF"/>
<path d="M72.5263 93.0761L54.5342 95.2833V95.1603L72.5263 92.9531V93.0761Z" fill="#004ADF"/>
<path d="M72.5263 93.1923L54.5342 95.4063V95.2833L72.5263 93.0762V93.1923Z" fill="#004ADF"/>
<path d="M72.5263 93.3154L54.5342 95.5226V95.4064L72.5263 93.1924V93.3154Z" fill="#004ADF"/>
<path d="M72.5263 93.4384L54.5342 95.6456V95.5226L72.5263 93.3154V93.4384Z" fill="#004ADF"/>
<path d="M72.5263 93.5546L54.5342 95.7686V95.6456L72.5263 93.4385V93.5546Z" fill="#004ADF"/>
<path d="M72.5263 93.6777L54.5342 95.8849V95.7619L72.5263 93.5547V93.6777Z" fill="#004ADF"/>
<path d="M72.5263 93.7939L54.5342 96.0079V95.8849L72.5263 93.6777V93.7939Z" fill="#004ADF"/>
<path d="M72.5263 93.9169L54.5342 96.1241V96.0079L72.5263 93.7939V93.9169Z" fill="#004ADF"/>
<path d="M72.5263 94.04L54.5342 96.2472V96.1242L72.5263 93.917V94.04Z" fill="#004ADF"/>
<path d="M72.5263 94.1562L54.5342 96.3634V96.2472L72.5263 94.04V94.1562Z" fill="#004ADF"/>
<path d="M72.5263 94.2792L54.5342 96.4864V96.3634L72.5263 94.1562V94.2792Z" fill="#004ADF"/>
<path d="M72.5263 94.3955L54.5342 96.6095V96.4865L72.5263 94.2793V94.3955Z" fill="#004ADF"/>
<path d="M72.5263 94.5185L54.5342 96.7257V96.6095L72.5263 94.3955V94.5185Z" fill="#004ADF"/>
<path d="M72.5263 94.6416L54.5342 96.8487V96.7257L72.5263 94.5186V94.6416Z" fill="#004ADF"/>
<path d="M72.5263 94.7578L54.5342 96.9649V96.8488L72.5263 94.6416V94.7578Z" fill="#004ADF"/>
<path d="M72.5263 94.8808L54.5342 97.088V96.965L72.5263 94.7578V94.8808Z" fill="#004ADF"/>
<path d="M72.5263 94.997L54.5342 97.211V97.088L72.5263 94.8809V94.997Z" fill="#004ADF"/>
<path d="M72.5263 95.1201L54.5342 97.3272V97.2111L72.5263 94.9971V95.1201Z" fill="#004ADF"/>
<path d="M72.5263 95.2431L54.5342 97.4503V97.3273L72.5263 95.1201V95.2431Z" fill="#004ADF"/>
<path d="M72.5263 95.3593L54.5342 97.5665V97.4503L72.5263 95.2432V95.3593Z" fill="#004ADF"/>
<path d="M72.5263 95.4824L54.5342 97.6895V97.5665L72.5263 95.3594V95.4824Z" fill="#004ADF"/>
<path d="M72.5263 95.5976L54.5342 97.8116V97.6886L72.5263 95.4814V95.5976Z" fill="#004ADF"/>
<path d="M72.5263 95.7207L54.5342 97.9278V97.8117L72.5263 95.5977V95.7207Z" fill="#004ADF"/>
<path d="M72.5263 95.8437L54.5342 98.0509V97.9279L72.5263 95.7207V95.8437Z" fill="#004ADF"/>
<path d="M72.5263 95.9599L54.5342 98.1671V98.0509L72.5263 95.8369V95.9599Z" fill="#004ADF"/>
<path d="M72.5263 96.083L54.5342 98.2901V98.1671L72.5263 95.96V96.083Z" fill="#004ADF"/>
<path d="M72.5263 96.1992L54.5342 98.4132V98.2902L72.5263 96.083V96.1992Z" fill="#004ADF"/>
<path d="M72.5263 96.3222L54.5342 98.5294V98.4132L72.5263 96.1992V96.3222Z" fill="#004ADF"/>
<path d="M72.5263 96.4453L54.5342 98.6524V98.5294L72.5263 96.3223V96.4453Z" fill="#004ADF"/>
<path d="M72.5263 96.5615L54.5342 98.7686V98.6525L72.5263 96.4385V96.5615Z" fill="#004ADF"/>
<path d="M72.5263 96.6845L54.5342 98.8917V98.7687L72.5263 96.5615V96.6845Z" fill="#004ADF"/>
<path d="M72.5263 96.8007L54.5342 99.0147V98.8917L72.5263 96.6846V96.8007Z" fill="#004ADF"/>
<path d="M72.5263 96.9238L54.5342 99.131V99.0148L72.5263 96.8008V96.9238Z" fill="#004ADF"/>
<path d="M72.5263 97.0468L54.5342 99.254V99.131L72.5263 96.9238V97.0468Z" fill="#004ADF"/>
<path d="M72.5263 97.163L54.5342 99.3702V99.254L72.5263 97.04V97.163Z" fill="#004ADF"/>
<path d="M72.5263 97.2861L54.5342 99.4932V99.3703L72.5263 97.1631V97.2861Z" fill="#004ADF"/>
<path d="M72.5263 97.4023L54.5342 99.6163V99.4933L72.5263 97.2861V97.4023Z" fill="#004ADF"/>
<path d="M72.5263 97.5253L54.5342 99.7325V99.6095L72.5263 97.4023V97.5253Z" fill="#004ADF"/>
<path d="M72.5263 97.6416L54.5342 99.8556V99.7326L72.5263 97.5254V97.6416Z" fill="#004ADF"/>
<path d="M72.5263 97.7646L54.5342 99.9718V99.8556L72.5263 97.6416V97.7646Z" fill="#004ADF"/>
<path d="M72.5263 97.8876L54.5342 100.095V99.9718L72.5263 97.7646V97.8876Z" fill="#004ADF"/>
<path d="M72.5263 98.0039L54.5342 100.218V100.095L72.5263 97.8877V98.0039Z" fill="#004ADF"/>
<path d="M72.5263 98.1259L54.5342 100.333V100.21L72.5263 98.0029V98.1259Z" fill="#004ADF"/>
<path d="M72.5263 98.2421L54.5342 100.456V100.333L72.5263 98.126V98.2421Z" fill="#004ADF"/>
<path d="M72.5263 98.3652L54.5342 100.572V100.456L72.5263 98.2422V98.3652Z" fill="#004ADF"/>
<path d="M72.5263 98.4882L54.5342 100.695V100.572L72.5263 98.3652V98.4882Z" fill="#004ADF"/>
<path d="M72.5263 98.6044L54.5342 100.818V100.695L72.5263 98.4883V98.6044Z" fill="#004ADF"/>
<path d="M72.5263 98.7275L54.5342 100.935V100.812L72.5263 98.6045V98.7275Z" fill="#004ADF"/>
<path d="M72.5263 98.8437L54.5342 101.058V100.935L72.5263 98.7275V98.8437Z" fill="#004ADF"/>
<path d="M72.5263 98.9667L54.5342 101.174V101.058L72.5263 98.8438V98.9667Z" fill="#004ADF"/>
<path d="M72.5263 99.0898L54.5342 101.297V101.174L72.5263 98.9668V99.0898Z" fill="#004ADF"/>
<path d="M72.5263 99.206L54.5342 101.42V101.297L72.5263 99.0898V99.206Z" fill="#004ADF"/>
<path d="M72.5263 99.3291L54.5342 101.536V101.413L72.5263 99.2061V99.3291Z" fill="#004ADF"/>
<path d="M72.5263 99.4453L54.5342 101.659V101.536L72.5263 99.3291V99.4453Z" fill="#004ADF"/>
<path d="M72.5263 99.5683L54.5342 101.775V101.659L72.5263 99.4453V99.5683Z" fill="#004ADF"/>
<path d="M72.5263 99.6914L54.5342 101.899V101.776L72.5263 99.5684V99.6914Z" fill="#004ADF"/>
<path d="M72.5263 99.8076L54.5342 102.022V101.899L72.5263 99.6914V99.8076Z" fill="#004ADF"/>
<path d="M72.5263 99.9306L55.2722 102.049H54.5342V102.015L72.5263 99.8076V99.9306Z" fill="#004ADF"/>
<path d="M72.5266 100.047L56.2496 102.049H55.2725L72.5266 99.9307V100.047Z" fill="#004ADF"/>
<path d="M72.527 100.17L57.234 102.049H56.25L72.527 100.047V100.17Z" fill="#004ADF"/>
<path d="M72.5264 100.293L58.2106 102.049H57.2334L72.5264 100.17V100.293Z" fill="#004ADF"/>
<path d="M72.5268 100.409L59.1881 102.049H58.2109L72.5268 100.293V100.409Z" fill="#004ADF"/>
<path d="M72.5262 100.532L60.1715 102.049H59.1875L72.5262 100.409V100.532Z" fill="#004ADF"/>
<path d="M72.5265 100.648L61.149 102.049H60.1719L72.5265 100.532V100.648Z" fill="#004ADF"/>
<path d="M72.5269 100.77L62.1266 102.048H61.1494L72.5269 100.647V100.77Z" fill="#004ADF"/>
<path d="M72.5263 100.894L63.1031 102.048H62.126L72.5263 100.771V100.894Z" fill="#004ADF"/>
<path d="M72.5267 101.01L64.0875 102.048H63.1035L72.5267 100.894V101.01Z" fill="#004ADF"/>
<path d="M64.0879 102.048L72.5271 101.01V102.048H64.0879Z" fill="#004ADF"/>
</g>
</svg>
