<svg width="162" height="122" viewBox="0 0 162 122" fill="none" xmlns="http://www.w3.org/2000/svg">
<mask id="mask0_1701_157" style="mask-type:luminance" maskUnits="userSpaceOnUse" x="10" y="29" width="142" height="65">
<path d="M10 29H152V94H10V29Z" fill="white"/>
</mask>
<g mask="url(#mask0_1701_157)">
<path d="M58.6898 83.5797C55.2498 83.5797 46.2498 78.4797 38.9098 73.9197L20.0698 75.9197L19.5098 70.7197L39.2498 68.5997C39.8298 68.5397 40.4098 68.6697 40.9098 68.9797C47.9298 73.3597 56.6698 78.1597 58.6098 78.3197L112.05 72.3197L125.65 60.9997C126.03 60.6697 126.52 60.4597 127.03 60.3997L145.03 58.3997C146.67 55.8697 147.48 52.8897 147.35 49.8797C146.83 45.0197 144.73 43.2997 143.85 42.7797L125.55 44.7797C124.93 44.8597 124.31 44.7097 123.81 44.3597C116.83 39.7197 108.17 34.5397 106.09 34.1197L79.1898 36.9597L53.1898 39.5797C51.1898 40.4197 43.8898 47.2397 38.0298 53.1997C37.5998 53.6297 37.0398 53.8997 36.4498 53.9597L16.4498 56.0997L16.0098 50.8397L34.9898 48.8397C44.2098 39.4797 50.0898 34.6197 52.4698 34.3597L78.6898 31.7197L105.73 28.9597C108.13 28.7197 114.91 32.2597 125.91 39.5397L143.91 37.5397C144.24 37.4697 144.59 37.4697 144.93 37.5397C145.19 37.5397 151.41 39.5397 152.45 49.2597C152.69 53.9697 151.28 58.6197 148.45 62.3997C148.24 62.6797 147.97 62.9197 147.66 63.0897C147.36 63.2597 147.02 63.3697 146.67 63.3997L128.27 65.3997L114.81 76.9597C114.41 77.2897 113.92 77.4897 113.41 77.5397L59.0098 83.5597L58.6898 83.5797Z" fill="white"/>
<path d="M50.8701 37.6602C50.8701 37.6602 70.0101 50.7202 57.6501 80.2602L50.8701 37.6602Z" fill="#DBDBDB"/>
<path d="M60.0096 81.2595L55.1896 79.2595C66.5296 52.1995 50.0496 40.3195 49.3496 39.8195L52.2896 35.5195C52.5496 35.6395 73.0896 50.1195 60.0096 81.2595Z" fill="white"/>
<path d="M36.1699 51.2793C36.1699 51.2793 43.1499 55.9393 38.3299 71.2793L36.1699 51.2793Z" fill="#DBDBDB"/>
<path d="M40.8299 72.1401L35.8499 70.5801C39.8499 57.5201 34.8899 53.5801 34.6699 53.4201L37.6299 49.1201C38.0099 49.3601 46.1699 55.0601 40.8299 72.1401Z" fill="white"/>
<path d="M104.95 32.1797C104.95 32.1797 120.01 43.9997 110.21 76.6797L104.95 32.1797Z" fill="#DBDBDB"/>
<path d="M112.71 77.4196L107.71 75.9396C116.87 45.3196 103.49 34.3396 103.35 34.2396L106.57 30.1396C107.25 30.6596 122.89 43.4396 112.71 77.4196Z" fill="white"/>
<path d="M125.07 42.0996C125.07 42.0996 134.17 46.9996 127.39 63.7196L125.07 42.0996Z" fill="#DBDBDB"/>
<path d="M129.81 64.6998L124.97 62.6998C130.69 48.5798 124.07 44.4998 123.79 44.3398L126.31 39.7598C126.75 40.0398 137.39 46.0198 129.81 64.6998ZM18.5698 73.1998C16.7098 73.1998 13.7298 69.6598 13.1098 63.8998C12.4898 58.1398 14.7698 53.8998 16.6298 53.6198H16.8698C19.0298 53.6198 21.7098 56.8998 22.2698 62.1798C22.5998 64.9398 22.2498 67.7298 21.2498 70.3198C20.5498 71.9798 19.5498 73.1198 18.7298 73.1998H18.5698Z" fill="white"/>
<path fill-rule="evenodd" clip-rule="evenodd" d="M16.8701 50.8398C20.8301 50.8398 24.5101 55.3398 25.2301 62.0598C25.9901 69.0998 23.2301 75.9198 19.0501 76.3798H18.5701C14.5701 76.3798 10.8901 71.4398 10.1301 64.3798C9.37007 57.3198 12.1501 51.2598 16.3101 50.7998H16.8701V50.8398ZM17.1101 57.0398C16.0501 59.1098 15.6901 61.4698 16.0701 63.7598C16.2401 65.9198 17.0001 67.9998 18.2701 69.7598C19.2601 67.5098 19.6201 65.0198 19.3101 62.5798C19.2201 60.5098 18.4401 58.5398 17.1101 56.9598V57.0398Z" fill="white"/>
<path d="M115.53 93.9997C125.83 93.9997 134.19 85.6497 134.19 75.3397C134.19 65.0297 125.83 56.6797 115.53 56.6797C105.22 56.6797 96.8701 65.0297 96.8701 75.3397C96.8701 85.6497 105.22 93.9997 115.53 93.9997Z" fill="#DBDBDB"/>
<path fill-rule="evenodd" clip-rule="evenodd" d="M115.47 60.8001C119.32 60.8101 123.02 62.3402 125.74 65.0602C128.47 67.7902 130 71.4902 130.01 75.3402C130.01 78.2202 129.16 81.0401 127.56 83.4401C125.95 85.8401 123.68 87.7102 121.01 88.8102C118.35 89.9202 115.42 90.2002 112.59 89.6402C109.76 89.0702 107.16 87.6802 105.13 85.6302C103.09 83.5902 101.71 80.9902 101.16 78.1602C100.6 75.3302 100.9 72.4002 102.01 69.7402C103.13 67.0802 105.01 64.8102 107.41 63.2202C109.82 61.6302 112.64 60.7801 115.53 60.8001H115.47ZM107.87 67.6901C105.85 69.7201 104.71 72.4702 104.71 75.3402C104.71 77.4802 105.34 79.5701 106.53 81.3501C106.58 81.4301 106.64 81.5201 106.7 81.6001L121.78 66.5101C121.7 66.4601 121.62 66.4002 121.54 66.3402C119.76 65.1502 117.67 64.5202 115.53 64.5202C112.66 64.5202 109.9 65.6601 107.87 67.6901ZM111.38 85.3402C113.36 86.1602 115.54 86.3702 117.64 85.9502C119.74 85.5302 121.66 84.5002 123.18 82.9902C124.69 81.4802 125.72 79.5502 126.14 77.4502C126.55 75.3502 126.34 73.1802 125.52 71.2002C125.18 70.3602 124.73 69.5802 124.19 68.8602L109.05 84.0101C109.76 84.5401 110.55 84.9902 111.38 85.3402Z" fill="#004ADF"/>
</g>
</svg>
