<svg width="162" height="122" viewBox="0 0 162 122" fill="none" xmlns="http://www.w3.org/2000/svg">
<mask id="mask0_1701_181" style="mask-type:luminance" maskUnits="userSpaceOnUse" x="30" y="17" width="102" height="89">
<path d="M30 17H132V106H30V17Z" fill="white"/>
</mask>
<g mask="url(#mask0_1701_181)">
<path fill-rule="evenodd" clip-rule="evenodd" d="M96 52H119L132 62V88L124 102H112V92H106V106H70L58 94L40 93V70H36V91C36 91.8 35.68 92.56 35.12 93.12C34.56 93.68 33.8 94 33 94C32.2 94 31.44 93.68 30.88 93.12C30.32 92.56 30 91.8 30 91V45C30 44.2 30.32 43.44 30.88 42.88C31.44 42.32 32.2 42 33 42C33.8 42 34.56 42.32 35.12 42.88C35.68 43.44 36 44.2 36 45V64H40V46H50V38H71V34H51C50.2 34 49.44 33.68 48.88 33.12C48.32 32.56 48 31.8 48 31C48 30.2 48.32 29.44 48.88 28.88C49.44 28.32 50.2 28 51 28H97C97.8 28 98.56 28.32 99.12 28.88C99.68 29.44 100 30.2 100 31C100 31.8 99.68 32.56 99.12 33.12C98.56 33.68 97.8 34 97 34H77V38H96V52ZM56 44V46C56 47.59 55.37 49.12 54.24 50.24C53.12 51.37 51.59 52 50 52H46V87.32L58.34 88C59.81 88.09 61.2 88.71 62.24 89.76L72.48 100H100V92C100 90.41 100.63 88.88 101.76 87.76C102.88 86.63 104.41 86 106 86H112C113.59 86 115.12 86.63 116.24 87.76C117.37 88.88 118 90.41 118 92V96H120.52L126 86.4V64.94L116.96 58H96C94.41 58 92.88 57.37 91.76 56.24C90.63 55.12 90 53.59 90 52V44H56Z" fill="white"/>
<path d="M114 26L92 58H104L100 80L122 50H110L114 26Z" fill="#004ADF"/>
<path fill-rule="evenodd" clip-rule="evenodd" d="M116 26.3204L112.42 48.0004H126L123.58 51.1804L101.58 81.1804L96.4402 88.1804L98.0002 79.6404L101.6 60.0004H88.2002L90.3602 56.8604L112.36 24.8604L117.46 17.4404L116 26.3204ZM92.0002 58.0004H104L100 80.0004L122 50.0004H110L114 26.0004L92.0002 58.0004Z" fill="#DBDBDB"/>
</g>
</svg>
