<svg width="162" height="122" viewBox="0 0 162 122" fill="none" xmlns="http://www.w3.org/2000/svg">
<path d="M77.0376 37.365C95.7644 38.2963 102.83 48.6377 103.274 63.6753C104.263 62.7307 105.081 61.9552 105.895 61.1723C106.382 60.7022 106.84 60.1966 107.344 59.7517C107.503 59.5676 107.7 59.4199 107.921 59.3187C108.142 59.2174 108.383 59.1649 108.626 59.1648C108.87 59.1647 109.11 59.2169 109.331 59.3179C109.553 59.4189 109.75 59.5664 109.909 59.7502C110.091 59.9124 110.237 60.1114 110.337 60.334C110.436 60.5566 110.487 60.7978 110.487 61.0417C110.486 61.2855 110.434 61.5265 110.333 61.7486C110.233 61.9708 110.086 62.1691 109.903 62.3304C107.541 64.7578 105.157 67.1615 102.721 69.5133C102.547 69.7037 102.333 69.8541 102.095 69.9544C101.857 70.0547 101.6 70.1024 101.342 70.0944C101.083 70.0864 100.83 70.0228 100.598 69.9079C100.367 69.793 100.163 69.6296 100.001 69.4288C97.6814 67.1214 95.377 64.7979 93.0874 62.458C92.8954 62.2942 92.7392 62.0925 92.6287 61.8656C92.5183 61.6386 92.4558 61.3913 92.4453 61.1391C92.4348 60.8869 92.4765 60.6352 92.5677 60.3999C92.659 60.1645 92.7978 59.9506 92.9756 59.7714C93.1533 59.5922 93.3662 59.4516 93.6008 59.3584C93.8354 59.2653 94.0867 59.2215 94.339 59.23C94.5912 59.2384 94.839 59.2989 95.0669 59.4075C95.2947 59.5161 95.4977 59.6707 95.6631 59.8614C96.8022 61.0657 98.0051 62.2081 99.2665 63.2838C99.6123 58.2938 98.2546 53.3342 95.4155 49.216C93.2048 46.5303 90.3901 44.4056 87.2014 43.0155C84.0127 41.6253 80.5403 41.0092 77.068 41.2175C78.4129 42.5803 79.4596 43.6836 80.5555 44.7378C81.5105 45.6603 82.1141 46.7071 81.0345 47.7983C79.9594 48.8884 78.917 48.3056 77.9814 47.3462C75.9276 45.2524 73.8279 43.203 71.7623 41.1166C70.3106 39.6475 70.2942 38.9889 71.6984 37.577C73.8087 35.4549 75.9556 33.3731 78.0613 31.2496C78.9748 30.3317 79.992 29.8883 81.0048 30.8892C82.0072 31.8783 81.6425 32.931 80.7009 33.8327C79.565 34.9197 78.4359 36.0143 77.0376 37.365Z" fill="white"/>
<path d="M135.4 78.4062H70.6602V107.873H135.4V78.4062Z" fill="#004ADF"/>
<path d="M61.9251 14H55.4688V20.4563H61.9251V14Z" fill="white"/>
<path d="M61.925 72.2643H55.4688V65.7891H61.9251L61.925 72.2643ZM61.925 59.3144H55.4688V52.8373H61.9251L61.925 59.3144ZM61.925 46.3603H55.4688V39.8848H61.9251L61.925 46.3603ZM61.925 33.4091H55.4688V26.9336H61.9251L61.925 33.4091Z" fill="white"/>
<path d="M61.9251 78.7412H55.4688V85.1975H61.9251V78.7412Z" fill="white"/>
<path d="M47.7967 78.7412H40.126V85.1975H47.7967V78.7412Z" fill="white"/>
<path d="M32.4563 78.7412H26V85.1975H32.4563V78.7412Z" fill="white"/>
<path d="M32.4563 72.2643H26V65.7891H32.4563V72.2643ZM32.4563 59.3144H26V52.8373H32.4563V59.3144ZM32.4563 46.3603H26V39.8848H32.4563V46.3603ZM32.4563 33.4091H26V26.9336H32.4563V33.4091Z" fill="white"/>
<path d="M32.4563 14H26V20.4563H32.4563V14Z" fill="white"/>
<path d="M47.7977 14H40.127V20.4563H47.7977V14Z" fill="white"/>
<path d="M89.0595 97.4957V98.863C89.0595 99.1729 88.9556 99.364 88.5583 99.364H83.6633C83.2675 99.364 83.1621 99.1727 83.1621 98.863V97.4957C83.1621 97.1858 83.2675 96.9946 83.6633 96.9946H84.7547V90.3914H83.7004C83.3015 90.3914 83.1992 90.2016 83.1992 89.8888V88.4903C83.1992 88.1775 83.3017 87.9893 83.7004 87.9893H88.5063C88.9037 87.9893 89.0076 88.1775 89.0076 88.4903V89.8888C89.0076 90.2016 88.9037 90.3914 88.5063 90.3914H87.4681V96.9946H88.5581C88.9555 96.9946 89.0595 97.186 89.0595 97.4957Z" fill="white"/>
<path d="M101.771 88.4767V98.8671C101.771 99.263 101.581 99.3683 101.27 99.3683H99.6092C99.2991 99.3683 99.1094 99.263 99.1094 98.8671V93.0054L97.3805 96.0319C97.3344 96.1298 97.2643 96.2143 97.1766 96.2776C97.089 96.3408 96.9867 96.3808 96.8793 96.3938H96.0148C95.9093 96.3814 95.8089 96.3414 95.7238 96.2779C95.6386 96.2144 95.5717 96.1295 95.5297 96.0319L93.7829 93.0054V98.8671C93.7829 99.263 93.5932 99.3683 93.2817 99.3683H91.5706C91.259 99.3683 91.0693 99.263 91.0693 98.8671V88.4767C91.0693 88.1638 91.1731 87.9756 91.5706 87.9756H93.2818C93.8706 87.9756 93.9387 88.3552 94.0781 88.5643L96.4462 92.8155L98.8336 88.5643C98.9552 88.3552 99.0397 87.9756 99.6092 87.9756H101.27C101.667 87.9756 101.771 88.1638 101.771 88.4767Z" fill="white"/>
<path d="M114.811 88.4767V98.8671C114.811 99.263 114.621 99.3683 114.31 99.3683H112.649C112.339 99.3683 112.15 99.263 112.15 98.8671V93.0054L110.421 96.0319C110.375 96.1298 110.305 96.2143 110.217 96.2776C110.129 96.3408 110.027 96.3808 109.92 96.3938H109.055C108.795 96.3938 108.658 96.1698 108.57 96.0319L106.823 93.0054V98.8671C106.823 99.263 106.634 99.3683 106.322 99.3683H104.611C104.299 99.3683 104.109 99.263 104.109 98.8671V88.4767C104.109 88.1638 104.215 87.9756 104.611 87.9756H106.322C106.911 87.9756 106.979 88.3552 107.12 88.5643L109.486 92.8155L111.872 88.5643C111.994 88.3552 112.08 87.9756 112.649 87.9756H114.31C114.707 87.9756 114.811 88.1638 114.811 88.4767Z" fill="white"/>
<path d="M126.082 95.7171C125.895 96.8105 125.327 97.8024 124.479 98.5176C123.631 99.2327 122.558 99.6249 121.448 99.6249C120.339 99.6249 119.265 99.2327 118.417 98.5176C117.569 97.8024 117.002 96.8105 116.814 95.7171V91.6364C117.002 90.543 117.569 89.551 118.417 88.8359C119.265 88.1208 120.339 87.7285 121.448 87.7285C122.558 87.7285 123.631 88.1208 124.479 88.8359C125.327 89.551 125.895 90.543 126.082 91.6364V95.7171ZM123.367 91.8794C123.32 91.4009 123.096 90.957 122.74 90.6341C122.383 90.3113 121.92 90.1324 121.439 90.1324C120.958 90.1324 120.494 90.3113 120.138 90.6341C119.781 90.957 119.558 91.4009 119.51 91.8794V95.4755C119.558 95.954 119.781 96.3979 120.138 96.7208C120.494 97.0436 120.958 97.2225 121.439 97.2225C121.92 97.2225 122.383 97.0436 122.74 96.7208C123.096 96.3979 123.32 95.954 123.367 95.4755V91.8794Z" fill="white"/>
</svg>
