<svg width="162" height="122" viewBox="0 0 162 122" fill="none" xmlns="http://www.w3.org/2000/svg">
<path d="M33.2093 76.7447C32.7685 76.5706 22.4318 72.3708 22.013 64.6626C21.71 59.0719 26.7105 53.509 36.8702 48.129C41.01 45.3741 45.8939 43.9522 50.8655 44.0543C55.8372 44.1564 60.6585 45.7776 64.6818 48.7001C71.7722 52.8281 76.8972 55.8182 90.8449 41.1443C101.025 30.4355 108.86 26.3356 114.81 28.6052C122.319 31.4768 122.763 43.5253 122.778 44.0377L118.852 44.1564C118.764 41.3931 117.611 33.8769 113.4 32.2719C109.282 30.7037 102.281 34.8155 93.6946 43.8488C77.6048 60.7749 70.0313 56.3658 62.7066 52.096C59.2602 49.5153 55.0915 48.0797 50.7869 47.9909C46.4822 47.9021 42.258 49.1646 38.708 51.601C30.149 56.133 25.7326 60.5742 25.9365 64.4415C26.1649 68.7628 32.3136 72.1542 34.6637 73.0957L33.2093 76.7447Z" fill="white"/>
<path d="M43.6071 81.3313H34.1812C33.5954 81.3306 33.0338 81.0976 32.6196 80.6833C32.2054 80.2691 31.9723 79.7074 31.9717 79.1216V70.2684C31.9723 69.6825 32.2053 69.1209 32.6196 68.7066C33.0338 68.2924 33.5954 68.0593 34.1812 68.0586H43.6071V81.3313ZM35.9004 77.4022H39.6813V71.9871H35.9004V77.4022Z" fill="#004ADF"/>
<path d="M51.0833 84.1338H39.6807V65.2559H51.0833V84.1338ZM43.6064 80.2053H47.1529V69.1846H43.6064V80.2053Z" fill="#004ADF"/>
<path d="M95.6983 87.8729H47.1543V61.5195H95.6983V87.8729ZM51.0835 83.9441H91.7697V65.4484H51.0833L51.0835 83.9441Z" fill="#004ADF"/>
<path d="M121.159 86.2372H105.246V63.1553H121.159V86.2372ZM105.918 82.3085H117.212V67.0855H105.918V82.3085Z" fill="white"/>
<path d="M136.737 81.9164H117.229V67.4766H136.737C137.809 67.4781 138.836 67.9045 139.594 68.6625C140.352 69.4204 140.778 70.4478 140.779 71.5195V77.8733C140.778 78.945 140.352 79.9725 139.594 80.7304C138.836 81.4884 137.809 81.9149 136.737 81.9164ZM121.159 77.9872H136.737L136.852 71.5193C136.852 71.4889 136.84 71.4597 136.818 71.4381C136.797 71.4165 136.768 71.4042 136.737 71.4038H121.158L121.159 77.9872Z" fill="white"/>
<path d="M99.4554 67.422C98.0967 67.4221 96.7686 67.0192 95.639 66.2644C94.5093 65.5097 93.6288 64.4369 93.1089 63.1817C92.5889 61.9265 92.4529 60.5453 92.7179 59.2128C92.9829 57.8803 93.6371 56.6563 94.5978 55.6956C95.5585 54.7349 96.7825 54.0807 98.115 53.8156C99.4475 53.5505 100.829 53.6866 102.084 54.2065C103.339 54.7264 104.412 55.6068 105.167 56.7365C105.921 57.8661 106.324 59.1942 106.324 60.5528C106.323 62.3741 105.599 64.1204 104.311 65.4083C103.023 66.6962 101.277 67.4204 99.4554 67.422ZM99.4554 57.6124C98.8736 57.6125 98.305 57.7851 97.8214 58.1083C97.3377 58.4316 96.9608 58.891 96.7383 59.4285C96.5158 59.966 96.4576 60.5574 96.5712 61.1279C96.6849 61.6985 96.9651 62.2225 97.3765 62.6337C97.7879 63.045 98.3121 63.325 98.8827 63.4384C99.4532 63.5517 100.045 63.4934 100.582 63.2706C101.119 63.0479 101.579 62.6708 101.902 62.187C102.225 61.7032 102.397 61.1345 102.397 60.5528C102.396 59.7731 102.085 59.0257 101.534 58.4745C100.983 57.9233 100.235 57.6133 99.4554 57.6124Z" fill="#004ADF"/>
<path d="M99.4554 95.797C98.0967 95.797 96.7686 95.3942 95.639 94.6394C94.5093 93.8847 93.6288 92.8118 93.1089 91.5567C92.5889 90.3015 92.4529 88.9203 92.7179 87.5878C92.9829 86.2553 93.6372 85.0313 94.5978 84.0706C95.5585 83.1099 96.7825 82.4557 98.115 82.1906C99.4475 81.9255 100.829 82.0616 102.084 82.5815C103.339 83.1014 104.412 83.9819 105.167 85.1115C105.922 86.2412 106.324 87.5693 106.324 88.9279C106.323 90.7491 105.598 92.4952 104.311 93.7831C103.023 95.0709 101.277 95.7952 99.4554 95.797ZM99.4554 85.9874C98.8736 85.9875 98.305 86.1601 97.8214 86.4834C97.3378 86.8067 96.9609 87.2661 96.7384 87.8036C96.5159 88.341 96.4578 88.9324 96.5714 89.5029C96.685 90.0734 96.9652 90.5974 97.3766 91.0087C97.7881 91.4199 98.3122 91.6999 98.8827 91.8133C99.4533 91.9267 100.045 91.8683 100.582 91.6456C101.119 91.4228 101.579 91.0457 101.902 90.562C102.225 90.0783 102.397 89.5096 102.397 88.9279C102.396 88.1482 102.085 87.4008 101.534 86.8496C100.983 86.2984 100.235 85.9883 99.4554 85.9874Z" fill="#004ADF"/>
<path d="M107.143 85.7699H91.7695V63.6221H107.143V85.7699ZM95.6985 81.8412H103.216V67.5508H95.6985V81.8412Z" fill="#004ADF"/>
<path d="M123.593 75.4807C123.379 75.481 123.17 75.4179 122.992 75.2995C122.814 75.181 122.676 75.0124 122.594 74.815C122.512 74.6176 122.49 74.4004 122.531 74.1907C122.573 73.981 122.675 73.7883 122.826 73.6369C122.977 73.4856 123.17 73.3824 123.379 73.3404C123.589 73.2984 123.806 73.3195 124.004 73.401C124.201 73.4826 124.37 73.6209 124.489 73.7984C124.608 73.976 124.672 74.1848 124.672 74.3986C124.672 74.6851 124.559 74.9599 124.356 75.1627C124.154 75.3656 123.879 75.4799 123.593 75.4807ZM123.593 73.8098C123.476 73.8095 123.362 73.8438 123.265 73.9086C123.167 73.9733 123.091 74.0654 123.046 74.1733C123.002 74.2812 122.99 74.4 123.012 74.5146C123.035 74.6293 123.091 74.7346 123.174 74.8172C123.257 74.8999 123.362 74.9561 123.477 74.9789C123.591 75.0016 123.71 74.9898 123.818 74.945C123.926 74.9001 124.018 74.8243 124.083 74.727C124.147 74.6297 124.182 74.5154 124.182 74.3986C124.181 74.2426 124.119 74.0932 124.009 73.9829C123.898 73.8726 123.749 73.8104 123.593 73.8098Z" fill="#004ADF"/>
<path d="M127.541 75.4807C127.328 75.481 127.118 75.4179 126.941 75.2995C126.763 75.181 126.624 75.0124 126.542 74.815C126.46 74.6176 126.438 74.4004 126.479 74.1907C126.521 73.981 126.624 73.7883 126.774 73.6369C126.925 73.4856 127.118 73.3824 127.327 73.3404C127.537 73.2984 127.754 73.3195 127.952 73.401C128.149 73.4826 128.318 73.6209 128.437 73.7984C128.556 73.976 128.62 74.1848 128.62 74.3986C128.62 74.6851 128.507 74.9599 128.305 75.1627C128.102 75.3656 127.828 75.4799 127.541 75.4807ZM127.541 73.8098C127.424 73.8095 127.31 73.8438 127.213 73.9086C127.115 73.9733 127.04 74.0654 126.995 74.1733C126.95 74.2812 126.938 74.4 126.961 74.5146C126.983 74.6293 127.04 74.7346 127.122 74.8172C127.205 74.8999 127.31 74.9561 127.425 74.9789C127.539 75.0016 127.658 74.9898 127.766 74.945C127.874 74.9001 127.966 74.8243 128.031 74.727C128.096 74.6297 128.13 74.5154 128.13 74.3986C128.13 74.2426 128.067 74.093 127.957 73.9827C127.847 73.8723 127.697 73.8101 127.541 73.8098Z" fill="#004ADF"/>
<path d="M131.868 75.4807C131.655 75.481 131.446 75.4179 131.268 75.2995C131.09 75.181 130.951 75.0124 130.869 74.815C130.787 74.6176 130.765 74.4004 130.807 74.1907C130.848 73.981 130.951 73.7883 131.102 73.6369C131.253 73.4856 131.445 73.3824 131.655 73.3404C131.864 73.2984 132.081 73.3195 132.279 73.401C132.477 73.4826 132.646 73.6209 132.765 73.7984C132.884 73.976 132.947 74.1848 132.948 74.3986C132.948 74.6851 132.834 74.9599 132.632 75.1627C132.429 75.3656 132.155 75.4799 131.868 75.4807ZM131.868 73.8098C131.752 73.8095 131.637 73.8438 131.54 73.9086C131.443 73.9733 131.367 74.0654 131.322 74.1733C131.277 74.2812 131.265 74.4 131.288 74.5146C131.311 74.6293 131.367 74.7346 131.449 74.8172C131.532 74.8999 131.637 74.9561 131.752 74.9789C131.867 75.0016 131.985 74.9898 132.093 74.945C132.201 74.9001 132.293 74.8243 132.358 74.727C132.423 74.6297 132.457 74.5154 132.457 74.3986C132.457 74.2426 132.395 74.093 132.284 73.9827C132.174 73.8723 132.024 73.8102 131.868 73.8098Z" fill="#004ADF"/>
</svg>
