<svg width="162" height="122" viewBox="0 0 162 122" fill="none" xmlns="http://www.w3.org/2000/svg">
<path d="M60.2907 35.8818C59.1518 38.9612 58.0139 42.0404 56.877 45.1194C59.3977 47.3347 62.4608 48.8418 65.754 49.4871C66.8929 46.408 68.0308 43.3294 69.1677 40.2513C65.8744 39.6054 62.8113 38.0976 60.2907 35.8818Z" fill="#004ADF"/>
<path d="M79.1939 39.9344C80.2363 37.1095 81.2798 34.2856 82.3245 31.4627C78.8908 30.9633 75.412 30.849 71.9529 31.1218C70.9104 33.9452 69.8669 36.7686 68.8223 39.592C72.2814 39.3171 75.7604 39.432 79.1939 39.9344Z" fill="#004ADF"/>
<path d="M50.333 62.8244C52.8532 65.0409 55.9165 66.5487 59.2101 67.1939C60.2542 64.3705 61.2978 61.5471 62.3407 58.7238C59.0471 58.0789 55.9837 56.5711 53.4636 54.3545C52.4196 57.1779 51.376 60.0012 50.333 62.8244Z" fill="#004ADF"/>
<path d="M99.6984 71.2432C100.741 68.4201 101.784 65.5968 102.829 62.7733C100.308 60.5594 97.2447 59.0529 93.9519 58.4072C92.9078 61.2288 91.8643 64.0516 90.8213 66.8756C94.1147 67.5202 97.178 69.0274 99.6984 71.2432Z" fill="#004ADF"/>
<path d="M69.582 67.5357C73.2081 67.2413 76.823 66.8263 80.4491 66.5335C81.4932 63.7102 82.5368 60.8869 83.5798 58.0635C79.9536 58.3563 76.3387 58.773 72.7127 59.0658C71.6686 61.8874 70.6251 64.7107 69.582 67.5357Z" fill="#004ADF"/>
<path d="M97.3652 49.1704C100.659 49.815 103.722 51.3223 106.242 53.5382C107.38 50.459 108.518 47.3804 109.656 44.3024C107.136 42.0867 104.072 40.5795 100.779 39.9346C99.6401 43.0122 98.5022 46.0908 97.3652 49.1704Z" fill="#004ADF"/>
<path d="M65.7546 49.4873C64.6157 52.565 63.4778 55.6437 62.3408 58.7233C65.7744 59.2241 69.2532 59.3391 72.7124 59.066C73.8499 55.9867 74.9878 52.9075 76.1262 49.8284C72.6671 50.1029 69.1882 49.9885 65.7546 49.4873Z" fill="#004ADF"/>
<path d="M101.124 40.5923C102.166 37.7691 103.209 34.9458 104.254 32.1224C100.795 32.3968 97.3161 32.2824 93.8825 31.7812C92.84 34.6031 91.7965 37.4259 90.752 40.2498C94.1854 40.7523 97.6645 40.8671 101.124 40.5923Z" fill="#004ADF"/>
<path d="M86.9938 48.828C85.8549 51.9056 84.717 54.9843 83.5801 58.064C87.0387 57.7892 90.5172 57.9041 93.9501 58.4066C95.089 55.3274 96.2269 52.2487 97.3639 49.1707C93.9309 48.6682 90.4524 48.5533 86.9938 48.828Z" fill="#004ADF"/>
<path d="M86.9941 48.8276C88.1314 45.7485 89.2693 42.6699 90.4078 39.5918C86.7801 39.883 83.1669 40.2997 79.5391 40.5925C78.4018 43.6715 77.2644 46.7502 76.127 49.8283C79.7531 49.5355 83.3664 49.1204 86.9941 48.8276Z" fill="#004ADF"/>
<path d="M106.007 22.6135C104.076 22.2927 102.121 22.1383 100.164 22.1518C97.1632 22.2017 94.167 22.4058 91.1872 22.7631C90.608 22.8227 90.0305 22.881 89.4546 22.9383L88.6952 23.0123C86.0214 23.2794 83.2559 23.5546 80.5871 23.5546C78.5137 23.581 76.4444 23.3661 74.4207 22.9143C71.9557 22.2685 69.6699 21.0701 67.7367 19.41C65.8035 17.7498 64.2734 15.6715 63.2625 13.3324C63.0389 12.9063 62.6965 12.5542 62.2769 12.3186C61.8573 12.0831 61.3784 11.9742 60.8982 12.0052C60.418 12.0361 59.9571 12.2057 59.5713 12.4932C59.1854 12.7807 58.8912 13.1739 58.7242 13.6252L27.1542 99.0516C27.0409 99.3582 26.9892 99.684 27.0019 100.011C27.0146 100.337 27.0915 100.658 27.2281 100.955C27.3648 101.252 27.5587 101.519 27.7985 101.741C28.0384 101.963 28.3197 102.135 28.6262 102.248C28.9328 102.362 29.2586 102.413 29.5852 102.401C29.9117 102.388 30.2326 102.311 30.5294 102.174C30.8262 102.038 31.0932 101.844 31.3152 101.604C31.5371 101.364 31.7096 101.083 31.8228 100.776L43.7743 68.4435C47.0217 71.8263 51.0711 74.3336 55.5467 75.7327C57.9459 76.2754 60.4004 76.5352 62.8601 76.5067C65.78 76.5067 68.6725 76.2204 71.4701 75.9403L72.2134 75.8678C72.7926 75.8102 73.3751 75.7504 73.9573 75.6893C76.7711 75.3514 79.6002 75.1559 82.4338 75.1037C84.108 75.0905 85.7802 75.2208 87.4322 75.4932C90.1529 75.9817 92.7107 77.135 94.8783 78.8504C97.0459 80.5658 98.756 82.7902 99.8566 85.3258C100.08 85.7521 100.423 86.1043 100.842 86.3399C101.262 86.5755 101.741 86.6843 102.221 86.6532C102.702 86.622 103.163 86.4522 103.548 86.1644C103.934 85.8765 104.228 85.483 104.395 85.0315L122.125 37.0568C122.246 36.7296 122.296 36.3807 122.274 36.0327C122.252 35.6846 122.156 35.3452 121.995 35.0362C120.543 31.8201 118.328 29.0072 115.541 26.8422C112.755 24.6772 109.482 23.2255 106.007 22.6135ZM101.464 78.5996C98.2833 74.3099 93.551 71.4345 88.2783 70.588C86.3465 70.2659 84.3906 70.1109 82.4322 70.1247C79.4282 70.1754 76.4288 70.3795 73.4457 70.7361C72.8714 70.7955 72.297 70.8566 71.7243 70.913L70.9762 70.987C68.2992 71.2541 65.5322 71.5274 62.8582 71.5274C60.7842 71.5555 58.7141 71.3407 56.6902 70.8872C52.3466 69.4211 48.543 66.6851 45.7716 63.0334L61.65 20.0668C64.4841 23.9345 68.6069 26.6623 73.2749 27.7583C75.6733 28.3021 78.1274 28.5623 80.5865 28.5336C83.5033 28.5336 86.3926 28.2456 89.1886 27.9674L89.9414 27.8934C90.5255 27.8354 91.1094 27.7759 91.6966 27.7148C94.5071 27.3774 97.3329 27.1825 100.163 27.1309C101.837 27.1176 103.51 27.2479 105.162 27.5204C107.703 27.9594 110.105 28.9919 112.173 30.5342C114.24 32.0764 115.915 34.0848 117.06 36.396L101.464 78.5996Z" fill="white"/>
<path d="M47.6914 96.0596H50.8878V107.27H57.8146V109.88H47.6914V96.0596Z" fill="white"/>
<path d="M68.8324 106.917H62.4194L61.1915 109.88H57.915L64.0744 96.0596H67.2375L73.4169 109.88H70.0603L68.8324 106.917ZM67.8247 104.488L65.6359 99.2026L63.4471 104.488H67.8247Z" fill="white"/>
<path d="M76.1258 108.478C75.5488 107.851 75.1051 107.113 74.8218 106.308C74.5385 105.504 74.4214 104.651 74.4776 103.8V96.0596H77.674V103.68C77.674 106.156 78.7017 107.393 80.757 107.391C81.1807 107.418 81.6052 107.352 82.0007 107.197C82.3962 107.043 82.753 106.804 83.0462 106.497C83.6375 105.683 83.917 104.683 83.8336 103.681V96.0596H86.9899V103.8C86.9509 105.041 86.5591 106.245 85.8604 107.271C85.1618 108.297 84.1852 109.102 83.0452 109.593C81.9052 110.084 80.6488 110.24 79.4234 110.043C78.198 109.845 77.054 109.302 76.1258 108.478Z" fill="white"/>
<path d="M102.825 96.0596V109.88H100.195L93.3086 101.492V109.88H90.1523V96.0596H92.7948L99.6683 104.448V96.0596H102.825Z" fill="white"/>
<path d="M108.898 109.199C107.787 108.611 106.859 107.73 106.215 106.65C105.573 105.53 105.234 104.261 105.234 102.97C105.234 101.678 105.573 100.409 106.215 99.2893C106.859 98.2096 107.787 97.3278 108.898 96.7404C109.991 96.192 111.188 95.8827 112.41 95.8332C113.632 95.7837 114.851 95.9952 115.985 96.4534C116.93 96.8584 117.767 97.4802 118.427 98.2686L116.372 100.164C115.95 99.6514 115.419 99.2403 114.817 98.9608C114.215 98.6813 113.559 98.5405 112.895 98.5489C112.097 98.5352 111.308 98.7282 110.606 99.1092C109.945 99.4729 109.401 100.017 109.038 100.677C108.67 101.385 108.477 102.172 108.477 102.97C108.477 103.768 108.67 104.554 109.038 105.262C109.402 105.923 109.945 106.466 110.606 106.83C111.308 107.211 112.097 107.404 112.895 107.39C113.56 107.398 114.219 107.255 114.821 106.972C115.423 106.688 115.953 106.273 116.372 105.755L118.427 107.651C117.77 108.45 116.93 109.08 115.978 109.486C114.948 109.918 113.839 110.134 112.722 110.12C111.39 110.138 110.075 109.822 108.898 109.199Z" fill="white"/>
<path d="M133.249 96.0596V109.88H130.052V104.214H123.773V109.88H120.576V96.0596H123.773V101.512H130.052V96.0596H133.249Z" fill="white"/>
</svg>
