<svg width="162" height="122" viewBox="0 0 162 122" fill="none" xmlns="http://www.w3.org/2000/svg">
<mask id="mask0_1701_174" style="mask-type:luminance" maskUnits="userSpaceOnUse" x="9" y="36" width="144" height="50">
<path d="M9 36H153V86H9V36Z" fill="white"/>
</mask>
<g mask="url(#mask0_1701_174)">
<path d="M36.9797 38.25C36.9797 38.25 31.5797 41.09 34.6197 51.91C36.6197 58.93 44.2797 73.07 52.9797 73.07C71.7997 73.31 64.4997 52.85 64.4997 52.85L36.9797 38.25Z" fill="white"/>
<path fill-rule="evenodd" clip-rule="evenodd" d="M35.9602 36.3097C36.6002 35.9697 37.3702 35.9697 38.0102 36.3097L65.5302 50.9097C65.5902 50.9497 65.6502 51.1797 65.7102 51.4497C65.8002 51.3197 65.8802 51.2297 65.9502 51.2097C66.2302 51.4497 66.4402 51.7597 66.5602 52.1097L65.9502 52.3297C66.5602 52.1097 66.5602 52.1097 66.5602 52.1097V52.1197H66.5702C66.5702 52.1297 66.5702 52.1297 66.5702 52.1397C66.5802 52.1497 66.5802 52.1697 66.5902 52.1997C66.6102 52.2497 66.6302 52.3097 66.6602 52.3997C66.7102 52.5697 66.7902 52.8097 66.8802 53.1097C67.0602 53.7197 67.2802 54.5797 67.4902 55.5997C67.9102 57.6297 68.2702 60.4297 67.9802 63.2697C67.6802 66.1197 66.7002 69.2197 64.2402 71.5897C61.7502 73.9797 58.0602 75.3197 52.9702 75.2597C50.1902 75.2497 47.6402 74.1297 45.4302 72.5197C43.2202 70.9097 41.2302 68.7397 39.5202 66.4197C36.1202 61.7997 33.5902 56.2697 32.5102 52.5097V52.4997C30.8802 46.7097 31.4402 42.7297 32.6802 40.0897C33.2902 38.7897 34.0402 37.8697 34.6802 37.2697C34.9902 36.9697 35.2802 36.7497 35.5002 36.5897C35.6102 36.5197 35.7102 36.4497 35.7902 36.4097C35.8302 36.3797 35.8602 36.3597 35.8902 36.3497C35.9002 36.3397 35.9202 36.3297 35.9302 36.3297C35.9402 36.3197 35.9402 36.3197 35.9502 36.3197V36.3097H35.9602C35.9602 36.3097 35.9602 36.3097 36.9802 38.2497L35.9602 36.3097ZM36.6402 41.9497C35.9402 43.4297 35.3202 46.2897 36.7302 51.3097C37.6602 54.5697 39.9502 59.6197 43.0502 63.8197C44.5902 65.9097 46.2802 67.7197 48.0102 68.9797C49.7502 70.2397 51.4102 70.8797 52.9802 70.8797V73.0697L53.0102 70.8797C57.3202 70.9297 59.7702 69.8097 61.2002 68.4297C62.6602 67.0297 63.3902 65.0597 63.6202 62.8197C63.8502 60.5897 63.5702 58.2797 63.2002 56.4797C63.0202 55.5997 62.8302 54.8697 62.6802 54.3597L37.2902 40.8897C37.0802 41.1597 36.8502 41.5097 36.6402 41.9497ZM53.0102 70.8797H52.9802V73.0697L53.0102 70.8797ZM65.9502 52.3297C65.8802 52.2597 65.8002 51.8197 65.7102 51.4497C65.4202 51.8597 65.0302 52.6597 64.5002 52.8497L65.9502 52.3297Z" fill="white"/>
<path d="M87.2205 38.4297H36.9805C36.9805 38.4297 50.6005 45.8897 52.8405 56.4297C55.0805 66.9697 53.2205 73.1697 53.2205 73.1697H87.2205L98.8805 70.2497H120.66C123.33 68.8797 125.55 66.7897 127.09 64.2197C128.63 61.6497 129.42 58.6997 129.36 55.7097C129.47 52.7397 128.7 49.8097 127.16 47.2797C125.61 44.7397 123.35 42.7197 120.66 41.4697H99.0605L87.2205 38.4297Z" fill="#DBDBDB"/>
<path fill-rule="evenodd" clip-rule="evenodd" d="M87.2198 75.2694H53.2198C52.8798 75.2694 52.5398 75.1894 52.2398 75.0394C51.9298 74.8794 51.6598 74.6594 51.4598 74.3894C51.2498 74.0994 51.1098 73.7794 51.0498 73.4294C50.9898 73.0794 51.0198 72.7194 51.1198 72.3894C52.1598 67.1994 52.0198 61.8494 50.6998 56.7294C48.6998 47.3894 36.0598 40.3694 35.9198 40.2894C35.5098 40.0494 35.1798 39.6994 34.9898 39.2594C34.7998 38.8294 34.7598 38.3494 34.8598 37.8894C34.9798 37.4194 35.2598 36.9994 35.6398 36.7094C36.0198 36.4094 36.4998 36.2494 36.9798 36.2494H87.2198C87.3998 36.2294 87.5798 36.2294 87.7598 36.2494L99.3398 39.2294H120.66C120.93 39.2194 121.2 39.2694 121.46 39.3694C124.54 40.7894 127.13 43.0794 128.91 45.9694C130.69 48.8494 131.58 52.1994 131.46 55.5894C131.54 59.0094 130.64 62.3794 128.87 65.3094C127.1 68.2394 124.53 70.6094 121.46 72.1294C121.18 72.2494 120.88 72.3094 120.58 72.3094H99.1398L87.7398 75.1494C87.5698 75.2094 87.3998 75.2494 87.2198 75.2694ZM55.8598 70.8894H86.9598L98.3598 68.0694C98.5298 68.0494 98.7098 68.0494 98.8798 68.0694H120.12C122.31 66.8394 124.12 65.0394 125.35 62.8694C126.59 60.6894 127.21 58.2094 127.14 55.7094C127.23 53.2494 126.62 50.8194 125.39 48.6994C124.15 46.5694 122.34 44.8394 120.16 43.7094H99.0598C98.8798 43.7294 98.6998 43.7294 98.5198 43.7094L86.9398 40.7494H44.0798C48.3598 44.1494 53.5798 49.4894 54.9798 56.0094C56.0998 60.8794 56.3998 65.9094 55.8598 70.8894Z" fill="white"/>
<path d="M87.2197 38.6699C87.2197 38.6699 95.3797 46.2699 95.3797 55.7099C95.3797 65.1499 87.2197 72.8499 87.2197 72.8499" fill="#DBDBDB"/>
<path d="M88.6602 74.4293L85.6602 71.2493C85.6602 71.2493 93.1202 64.0693 93.1202 55.7093C93.1202 47.3493 85.8002 40.3493 85.7202 40.2493L88.6602 37.0693C89.0202 37.4093 97.5002 45.4493 97.5002 55.7093C97.5002 65.9693 89.0802 74.0893 88.6602 74.4293Z" fill="white"/>
<path d="M99.0596 41.4697C99.0596 41.4697 106.12 44.8697 106.12 55.7097C106.12 66.5497 99.0596 70.2497 99.0596 70.2497" fill="#DBDBDB"/>
<path d="M100.06 72.1297L98.0596 68.2497C98.2796 68.1297 103.94 64.9897 103.94 55.7097C103.94 46.4297 98.3396 43.5497 98.0996 43.4297L100.1 39.4297C100.44 39.5897 108.38 43.5497 108.38 55.6297C108.38 67.7097 100.4 71.9697 100.06 72.1297Z" fill="white"/>
<path d="M44.8797 51.0493C47.0097 54.0393 47.8997 57.7493 47.3597 61.3893L38.8597 70.5693L29.0797 67.7293L22.1797 59.9693L28.7997 56.2493L36.7997 47.0693L44.8797 51.0493Z" fill="#DBDBDB"/>
<path d="M33.9797 73.4898C30.1597 73.4898 26.7597 71.3298 23.7597 69.4898C21.7197 67.7998 19.2697 66.6798 16.6597 66.2498H16.1397L14.9397 66.3898L15.6397 65.4098C16.2797 64.4798 16.9897 63.6098 17.7797 62.8098C15.9497 61.8598 13.9697 61.2498 11.9197 61.0098C11.5297 60.9998 11.1297 61.0598 10.7597 61.1898L9.71973 61.4898L10.0797 60.4698C10.8397 57.8998 12.4097 55.6398 14.5397 54.0098C16.6797 52.3898 19.2797 51.4898 21.9597 51.4498C21.3297 51.1798 20.6497 51.0398 19.9597 51.0298H19.6197H18.4197L19.1397 50.0698C20.4097 48.1598 22.1397 46.5998 24.1597 45.5198C26.1897 44.4398 28.4497 43.8798 30.7397 43.8898C34.5097 43.9198 38.1597 45.2498 41.0597 47.6698C41.6097 48.1398 42.1097 48.6598 42.5597 49.2298L43.9197 50.8698L41.9197 50.0898C41.1997 49.7898 40.4397 49.6298 39.6597 49.6298C37.2697 49.9198 35.0297 50.9598 33.2797 52.6098C32.0697 53.6498 30.6697 54.4598 29.1597 54.9898C29.5097 55.3498 29.8797 55.6998 30.2797 56.0098L30.9997 56.5298L29.5397 57.2498C28.3497 57.9698 27.0297 58.4498 25.6597 58.6898C26.2497 59.9098 27.1797 60.9398 28.3397 61.6498C29.4997 62.3598 30.8397 62.7198 32.1997 62.6898C32.8197 62.6898 33.4297 62.6298 34.0397 62.5098L36.4197 62.0298L34.4197 63.4698C33.7397 64.0198 32.9697 64.4498 32.1397 64.7298C32.8897 65.4898 33.7897 66.0998 34.7797 66.5098C35.7697 66.9298 36.8297 67.1398 37.8997 67.1498C40.3997 67.1898 42.8197 66.2698 44.6597 64.5698L46.2597 62.9898L45.6997 64.9898C45.4097 65.8898 45.0497 66.7698 44.5997 67.6098C41.0197 71.5898 37.5797 73.4898 33.9797 73.4898Z" fill="#004ADF"/>
<path fill-rule="evenodd" clip-rule="evenodd" d="M30.7 43.4697C34.62 43.5197 38.39 44.9297 41.38 47.4697C41.95 47.9497 42.47 48.4897 42.94 49.0697L45.66 52.3497L41.66 50.7897C41.02 50.5297 40.35 50.3897 39.66 50.3897C37.41 50.6797 35.31 51.6797 33.66 53.2497C32.6 54.0997 31.46 54.8297 30.24 55.4297L30.66 55.7697L32.16 56.8297L30.56 57.6297L29.92 57.9497C28.89 58.5197 27.79 58.9697 26.66 59.3097C27.25 60.2497 28.06 61.0297 29.03 61.5597C30 62.0997 31.09 62.3897 32.2 62.3897C32.78 62.3897 33.37 62.3297 33.94 62.2097L38.7 61.2497L34.82 64.1497C34.32 64.5297 33.8 64.8597 33.24 65.1497C34.56 66.2497 36.22 66.8497 37.94 66.8497C40.24 66.8097 42.44 65.9097 44.1 64.3297L44.2 64.2097L47.54 60.6297L46.06 65.2897C45.77 66.2297 45.39 67.1397 44.92 68.0097C41.34 72.0097 37.98 74.0097 34 74.0097C30.02 74.0097 26.54 71.8497 23.5 69.8497C21.54 68.2897 19.21 67.2497 16.74 66.8297H16.28L13.86 67.0897L15.26 65.0897C15.77 64.3797 16.34 63.7197 16.94 63.0897C15.39 62.3097 13.72 61.8197 12 61.6497C11.66 61.6397 11.32 61.6897 11 61.7897L9 62.4097L9.7 60.4097C10.29 58.4997 11.3 56.7597 12.65 55.2897C13.99 53.8197 15.65 52.6697 17.5 51.9297L18.9 49.9297C20.22 47.9597 22.01 46.3397 24.1 45.2197C26.19 44.0997 28.53 43.5097 30.9 43.5097L30.7 43.4697ZM30.9 44.6097C28.69 44.6097 26.52 45.1597 24.57 46.2097C22.62 47.2597 20.96 48.7697 19.74 50.6097H20.12C21.73 50.7397 23.28 51.2997 24.6 52.2297C23.94 52.1497 23.27 52.1097 22.6 52.1097C19.94 52.0297 17.33 52.8397 15.18 54.4097C13.03 55.9697 11.46 58.2097 10.72 60.7697C11.15 60.6497 11.59 60.5897 12.04 60.5897C14.43 60.8897 16.75 61.6197 18.88 62.7497C17.88 63.6797 16.98 64.7097 16.2 65.8297H16.78C21.84 65.8297 27.22 73.0097 34.04 73.0097C37.08 73.0097 40.42 71.5697 44.14 67.3897C44.58 66.5897 44.92 65.7597 45.18 64.8897L45.08 65.0097C43.21 66.8197 40.72 67.8497 38.12 67.8897C36.8 67.8797 35.49 67.5697 34.3 66.9797C33.12 66.3897 32.08 65.5497 31.26 64.5097H31.38C32.48 64.3997 33.51 63.9497 34.34 63.2297C33.68 63.3497 33.01 63.4097 32.34 63.4097C30.73 63.4397 29.15 62.9697 27.81 62.0597C26.48 61.1597 25.46 59.8597 24.9 58.3497C25.11 58.3697 25.31 58.3697 25.52 58.3497C27.15 58.0897 28.7 57.5197 30.1 56.6497C29.4 56.0997 28.76 55.4697 28.22 54.7697H28.32C31.8 54.7697 35.04 49.2897 39.8 49.2897C40.64 49.2897 41.48 49.4497 42.26 49.7697C41.83 49.2397 41.35 48.7397 40.84 48.2897C38.03 45.9397 34.5 44.6497 30.84 44.6297L30.9 44.6097Z" fill="#DBDBDB"/>
<path d="M58.3003 49.0098C58.3003 49.0098 52.9003 51.8298 55.9603 62.6498C57.9603 69.6698 65.6003 83.8098 74.3003 83.8098C93.1203 84.0498 85.8203 63.5898 85.8203 63.5898L58.3003 49.0098Z" fill="white"/>
<path fill-rule="evenodd" clip-rule="evenodd" d="M57.2897 47.0696C57.9297 46.7296 58.6897 46.7396 59.3297 47.0696L86.8497 61.6496C86.9097 61.6896 86.9697 61.9196 87.0297 62.1896C87.1197 62.0596 87.1997 61.9696 87.2697 61.9496C87.5497 62.1896 87.7597 62.4996 87.8797 62.8496L87.2697 63.0696C87.8797 62.8496 87.8797 62.8496 87.8797 62.8496V62.8596H87.8897C87.8897 62.8696 87.8897 62.8696 87.8897 62.8796C87.8997 62.8896 87.8997 62.9096 87.9097 62.9396C87.9297 62.9896 87.9497 63.0496 87.9797 63.1396C88.0297 63.3096 88.1097 63.5496 88.1997 63.8496C88.3797 64.4596 88.5997 65.3196 88.8097 66.3396C89.2297 68.3696 89.5897 71.1696 89.2997 74.0096C88.9997 76.8596 88.0197 79.9596 85.5597 82.3296C83.0697 84.7196 79.3797 86.0596 74.2897 85.9996C71.5097 85.9896 68.9597 84.8596 66.7597 83.2596C64.5497 81.6496 62.5597 79.4796 60.8497 77.1596C57.4497 72.5296 54.9297 67.0096 53.8497 63.2496V63.2396C52.2097 57.4496 52.7597 53.4796 53.9997 50.8396C54.6097 49.5396 55.3597 48.6296 55.9997 48.0296C56.3197 47.7296 56.5997 47.5096 56.8297 47.3496C56.9397 47.2696 57.0397 47.2096 57.1097 47.1596C57.1497 47.1396 57.1897 47.1196 57.2197 47.1096C57.2297 47.0996 57.2397 47.0896 57.2497 47.0796C57.2597 47.0796 57.2697 47.0796 57.2697 47.0696H57.2797C57.2797 47.0696 57.2897 47.0696 58.2997 49.0096L57.2897 47.0696ZM57.9597 52.6996C57.2697 54.1796 56.6497 57.0196 58.0697 62.0496C58.9997 65.3096 61.2897 70.3596 64.3797 74.5596C65.9197 76.6596 67.5997 78.4596 69.3297 79.7196C71.0697 80.9796 72.7297 81.6196 74.2997 81.6196H74.3297C78.6397 81.6696 81.0897 80.5496 82.5197 79.1696C83.9797 77.7696 84.7097 75.7996 84.9397 73.5596C85.1697 71.3296 84.8897 69.0196 84.5197 67.2196C84.3397 66.3396 84.1497 65.6096 83.9997 65.0996L58.6097 51.6496C58.3997 51.9096 58.1697 52.2596 57.9597 52.6996ZM87.2697 63.0696C87.1997 62.9996 87.1197 62.5596 87.0297 62.1896C86.7397 62.5996 86.3497 63.3996 85.8197 63.5896L87.2697 63.0696Z" fill="white"/>
<path d="M108.54 49.0898H58.2998C58.2998 49.0898 71.9198 56.5498 74.1798 67.0898C76.4398 77.6298 74.5398 83.8298 74.5398 83.8298H108.54L120.2 80.9298H141.96C144.65 79.5498 146.89 77.4398 148.43 74.8398C149.97 72.2498 150.74 69.2698 150.66 66.2498C150.76 63.2898 149.99 60.3698 148.44 57.8498C146.89 55.3298 144.64 53.3198 141.96 52.0698H120.4L108.54 49.0898Z" fill="#DBDBDB"/>
<path fill-rule="evenodd" clip-rule="evenodd" d="M108.54 85.9292H74.5398C74.1998 85.9292 73.8598 85.8492 73.5498 85.6992C73.2498 85.5492 72.9798 85.3192 72.7798 85.0492C72.5698 84.7792 72.4298 84.4592 72.3798 84.1192C72.3198 83.7792 72.3398 83.4392 72.4398 83.1092C73.4898 77.9292 73.3498 72.5792 72.0398 67.4692C70.0398 58.0892 57.3798 51.0892 57.2598 51.0092C56.8298 50.7792 56.4898 50.4092 56.2998 49.9592C56.0998 49.5192 56.0598 49.0192 56.1798 48.5492C56.2998 48.0792 56.5798 47.6592 56.9598 47.3692C57.3398 47.0692 57.8198 46.9092 58.2998 46.9092H108.54C108.73 46.8792 108.91 46.8792 109.1 46.9092L120.66 49.9492H141.96C142.23 49.9492 142.51 49.9992 142.76 50.1092C145.84 51.5192 148.43 53.8092 150.21 56.6892C151.99 59.5792 152.88 62.9192 152.76 66.3092C152.84 69.7292 151.94 73.0992 150.17 76.0292C148.4 78.9592 145.83 81.3292 142.76 82.8492C142.48 82.9692 142.18 83.0392 141.88 83.0492H120.48L109.08 85.8692L108.54 85.9292ZM77.1798 81.5492H108.28L119.68 78.7292C119.85 78.7092 120.03 78.7092 120.2 78.7292H141.44C143.65 77.4992 145.47 75.6792 146.72 73.4792C147.96 71.2792 148.57 68.7692 148.48 66.2492C148.57 63.7892 147.97 61.3492 146.73 59.2292C145.49 57.0992 143.67 55.3792 141.48 54.2492H120.4C120.21 54.2692 120.03 54.2692 119.84 54.2492L108.28 51.2892H65.3998C69.6798 54.6892 74.8998 60.0292 76.2998 66.5492C77.4398 71.4592 77.7398 76.5292 77.1798 81.5492Z" fill="white"/>
<path d="M108.54 49.3301C108.54 49.3301 116.7 56.9301 116.7 66.3701C116.7 75.8101 108.54 83.5101 108.54 83.5101" fill="#DBDBDB"/>
<path d="M110.06 85.0895L107.04 81.9295C107.04 81.9295 114.52 74.7295 114.52 66.3695C114.52 58.0095 107.12 51.0095 107.06 50.9295L110.04 47.7295C110.4 48.0695 118.88 56.1095 118.88 66.3695C118.88 76.6295 110.4 84.7495 110.06 85.0895Z" fill="white"/>
<path d="M120.4 52.1299C120.4 52.1299 127.44 55.5299 127.44 66.3699C127.44 77.2099 120.4 80.8499 120.4 80.8499" fill="#DBDBDB"/>
<path d="M121.4 82.8098L119.4 78.8098C119.62 78.6898 125.26 75.5498 125.26 66.2698C125.26 56.9898 119.66 54.2498 119.42 54.0898L121.42 50.0898C121.76 50.2498 129.72 54.2098 129.72 66.2898C129.72 78.3698 121.72 82.6298 121.4 82.8098Z" fill="white"/>
<path d="M66.2 61.71C68.32 64.71 69.2 68.41 68.66 72.05L60.14 81.23L50.36 78.39L43.46 70.63L50.08 66.89L58.08 57.71L66.2 61.71Z" fill="#DBDBDB"/>
<path d="M55.3001 84.2496C51.4801 84.2496 48.0801 82.0896 45.1001 80.2496C43.0501 78.6296 40.6201 77.5596 38.0401 77.1496H37.5201L36.3201 77.2696L37.0201 76.2896C37.6601 75.3596 38.3901 74.4896 39.1801 73.6896C37.3401 72.7396 35.3501 72.1396 33.3001 71.9096C32.9101 71.8996 32.5201 71.9496 32.1401 72.0696L31.1201 72.3896L31.4801 71.3696C32.2201 68.7796 33.7801 66.4896 35.9101 64.8496C38.0501 63.2096 40.6601 62.2896 43.3601 62.2496C42.7201 61.9896 42.0501 61.8496 41.3601 61.8496H41.0001L39.8201 61.9696L40.5201 60.9896C41.8001 59.0896 43.5301 57.5296 45.5501 56.4496C47.5701 55.3696 49.8301 54.8096 52.1201 54.8096C55.9001 54.8296 59.5501 56.1696 62.4601 58.5896C63.0001 59.0596 63.4901 59.5896 63.9401 60.1496L65.3201 61.7896L63.3201 61.0096C62.6101 60.7096 61.8501 60.5596 61.0801 60.5496C58.6801 60.8096 56.4301 61.8296 54.6601 63.4696C53.4901 64.4996 52.1301 65.3096 50.6601 65.8496C51.0201 66.2096 51.4001 66.5596 51.8001 66.8696L52.5001 67.4096L51.0601 68.1296C49.8601 68.8396 48.5401 69.3196 47.1601 69.5496C47.7501 70.7696 48.6801 71.7996 49.8401 72.5096C51.0001 73.2196 52.3401 73.5796 53.7001 73.5496C54.3201 73.5496 54.9501 73.4896 55.5601 73.3696L57.9401 72.8896L55.9401 74.3496C55.2701 74.8996 54.5001 75.3196 53.6801 75.5896C54.4301 76.3496 55.3201 76.9596 56.3001 77.3796C57.2901 77.7996 58.3501 78.0096 59.4201 78.0096C61.8701 77.9696 64.2201 77.0096 65.9801 75.3096L67.5601 73.7496L67.0001 75.7496C66.7201 76.6496 66.3501 77.5196 65.9001 78.3496C62.3401 82.2496 58.9001 84.2496 55.3001 84.2496Z" fill="#004ADF"/>
<path fill-rule="evenodd" clip-rule="evenodd" d="M52.1795 54.1299C56.0995 54.1699 59.8895 55.5899 62.8795 58.1299C63.4395 58.6199 63.9495 59.1699 64.4195 59.7499L67.1395 63.0099L63.1395 61.4499C62.5095 61.1899 61.8295 61.0499 61.1395 61.0499C58.8895 61.3499 56.7895 62.3499 55.1395 63.9099C54.0895 64.7699 52.9395 65.4999 51.7195 66.0899L52.1395 66.4299L53.5595 67.5099L51.9595 68.2899L51.3195 68.6099C50.2895 69.1699 49.1995 69.6299 48.0795 69.9699C48.6895 70.8999 49.5295 71.6699 50.5095 72.1799C51.4995 72.6999 52.6095 72.9599 53.7195 72.9299C54.2995 72.9299 54.8895 72.8699 55.4595 72.7499L60.2195 71.8099L56.3395 74.6899C55.8495 75.0699 55.3195 75.4099 54.7595 75.6899C56.0895 76.7899 57.7595 77.3899 59.4795 77.3899C61.7795 77.3499 63.9795 76.4399 65.6395 74.8499L66.4195 75.6099L65.7395 74.7499L69.0595 71.1699L67.5795 75.8299C67.2895 76.7699 66.9095 77.6799 66.4395 78.5499V78.6499C62.8595 82.6499 59.4995 84.6499 55.5195 84.6499C51.5395 84.6499 48.0795 82.5099 45.0195 80.5099C43.0595 78.9399 40.7295 77.8999 38.2595 77.4899H37.7995L35.3995 77.7499L36.7795 75.7499C37.2995 75.0499 37.8595 74.3799 38.4595 73.7499C36.9095 72.9699 35.2395 72.4799 33.5195 72.3099C33.1795 72.2999 32.8395 72.3499 32.5195 72.4499L30.5195 73.0899L31.2395 71.0899C31.8195 69.1799 32.8195 67.4299 34.1595 65.9499C35.5095 64.4799 37.1695 63.3299 39.0195 62.5899L40.4395 60.5899C41.7595 58.6199 43.5495 56.9999 45.6395 55.8899C47.7295 54.7699 50.0695 54.1899 52.4395 54.1899L52.1795 54.1299ZM52.4395 55.2699C50.2295 55.2699 48.0595 55.8199 46.1095 56.8699C44.1595 57.9199 42.4995 59.4299 41.2795 61.2699H41.6795C43.2895 61.3999 44.8295 61.9599 46.1395 62.8899C45.4795 62.8099 44.8095 62.7699 44.1395 62.7699C41.4595 62.6599 38.8195 63.4599 36.6395 65.0399C34.4695 66.6099 32.8795 68.8699 32.1395 71.4499C32.5695 71.3099 33.0095 71.2399 33.4595 71.2499C35.8495 71.5499 38.1695 72.2799 40.2995 73.4099C39.2995 74.3399 38.3995 75.3699 37.6195 76.4899H38.1995C43.2595 76.4899 48.6395 83.6699 55.4595 83.6699C58.5195 83.6699 61.8395 82.2299 65.5795 78.0499C66.0095 77.2499 66.3495 76.4099 66.6195 75.5499L66.4995 75.6699C64.6395 77.4799 62.1595 78.5099 59.5595 78.5499C58.2395 78.5399 56.9295 78.2299 55.7395 77.6499C54.5495 77.0599 53.5095 76.2099 52.6995 75.1699C53.7995 75.0699 54.8395 74.6199 55.6595 73.8899C54.9995 74.0199 54.3295 74.0799 53.6595 74.0899C52.0495 74.1099 50.4595 73.6399 49.1295 72.7299C47.7995 71.8199 46.7795 70.5199 46.2195 69.0099C46.4295 69.0299 46.6295 69.0299 46.8395 69.0099C48.4695 68.7499 50.0195 68.1799 51.4195 67.3099C50.7195 66.7599 50.0895 66.1299 49.5395 65.4299H49.6395C53.1395 65.4299 56.3795 59.9499 61.1395 59.9499C61.9795 59.9499 62.8095 60.1099 63.5795 60.4299C63.1495 59.8999 62.6695 59.3999 62.1595 58.9499C59.3495 56.5999 55.8195 55.3099 52.1595 55.2899L52.4395 55.2699Z" fill="#DBDBDB"/>
</g>
</svg>
