<svg width="162" height="122" viewBox="0 0 162 122" fill="none" xmlns="http://www.w3.org/2000/svg">
<path d="M119.031 91.5561C118.059 91.4189 117.167 90.9471 116.506 90.2223C116.288 90.1871 116.087 90.0859 115.929 89.9323C115.028 89.5166 114.243 88.8842 113.646 88.0916C113.048 87.2991 112.656 86.3709 112.504 85.3899C112.568 84.3899 113.005 83.4505 113.729 82.7575C114.063 82.4135 114.469 82.1477 114.918 81.9793C115.367 81.8108 115.847 81.744 116.325 81.7835C117.084 81.7898 117.814 82.0717 118.381 82.5768C118.681 82.714 118.951 82.9101 119.174 83.1536C119.87 83.3989 120.475 83.8521 120.905 84.4519L119.68 85.3182C119.43 84.9519 119.06 84.6842 118.633 84.5611H118.237C118.068 84.3635 117.859 84.2037 117.623 84.092L117.335 83.5137C117.117 83.2253 116.793 83.1538 116.182 83.0819C115.92 83.0719 115.658 83.1181 115.416 83.2176C115.173 83.3171 114.954 83.4675 114.774 83.6586C114.322 84.1152 114.042 84.7142 113.981 85.354C113.897 85.8202 113.977 86.301 114.207 86.715C114.437 87.129 114.803 87.4509 115.243 87.6261L115.531 87.8415C115.759 88.1528 116.092 88.3709 116.468 88.4552H116.686L116.866 88.6344H117.406C117.808 89.1364 118.392 89.4604 119.03 89.5368L119.031 91.5561Z" fill="#004ADF"/>
<path d="M130.931 99.0931C126.135 95.6663 118.995 90.5829 118.671 90.4021C118.365 90.2459 118.094 90.031 117.871 89.7698C117.649 89.5085 117.48 89.206 117.375 88.8796C117.269 88.5531 117.229 88.2091 117.256 87.8671C117.284 87.5251 117.378 87.1919 117.535 86.8865C117.691 86.5811 117.906 86.3094 118.167 86.087C118.428 85.8647 118.731 85.6959 119.057 85.5904C119.384 85.4849 119.728 85.4448 120.07 85.4723C120.412 85.4997 120.745 85.5943 121.05 85.7505C125.726 88.1906 130.117 91.1415 134.142 94.5492L133.168 95.704C129.221 92.3922 124.929 89.5145 120.366 87.1204C120.108 86.996 119.81 86.9793 119.539 87.0739C119.269 87.1686 119.046 87.3669 118.922 87.6253C118.786 87.8672 118.751 88.1531 118.826 88.4203C118.9 88.6876 119.078 88.9144 119.319 89.0512L119.427 89.1041L131.833 97.9385L130.931 99.0931Z" fill="#004ADF"/>
<path d="M120.003 91.5917H119.39C118.449 91.5448 117.559 91.1499 116.892 90.4835C116.226 89.8172 115.83 88.927 115.783 87.9856C115.736 87.0443 116.04 86.119 116.637 85.3893C117.233 84.6596 118.08 84.1776 119.012 84.0368C119.137 84.024 119.264 84.0183 119.39 84.0197C120.251 84.0574 121.069 84.4016 121.698 84.9901C122.326 85.5786 122.723 86.3726 122.817 87.2285L121.337 87.4808C121.296 86.9781 121.078 86.5062 120.721 86.1494C120.365 85.7926 119.893 85.5741 119.39 85.5329C118.809 85.6053 118.28 85.9029 117.915 86.3616C117.551 86.8202 117.381 87.4035 117.442 87.986C117.394 88.5193 117.56 89.0499 117.903 89.4611C118.246 89.8722 118.739 90.1303 119.272 90.1786L119.39 90.1866H119.715C119.904 90.2349 120.103 90.2349 120.293 90.1866L121.122 91.449C120.769 91.5979 120.382 91.647 120.003 91.5917Z" fill="#004ADF"/>
<path d="M127.379 74.6569L127.396 74.6071C127.461 74.2738 127.453 73.9304 127.373 73.6005C127.292 73.2706 127.141 72.9621 126.93 72.6963L126.755 72.8538C126.724 72.8055 126.707 72.7401 126.678 72.6963C124.913 70.5089 122.863 68.5686 120.581 66.9274L120.517 67.013L120.651 66.7465H120.439L120.185 66.4943L119.931 66.1701L119.751 65.8816L119.149 66.3553L119.02 66.2899L119.676 65.8927L116.223 60.1873L116.176 60.2139C115.905 59.7512 115.506 59.3771 115.027 59.1372L114.985 59.2261L114.991 59.2089L114.984 59.2074L115.034 59.1077L109.677 56.4319L109.663 56.4631C109.273 56.2771 108.846 56.1804 108.414 56.1801C107.981 56.1799 107.554 56.276 107.164 56.4616L107.145 56.4224L106.836 56.5768L96.4779 51.3999L96.414 51.5277C96.1083 51.3888 95.7754 51.3201 95.4396 51.3266C95.1039 51.333 94.7739 51.4145 94.4738 51.565L95.1564 52.8274C95.2859 52.769 95.4292 52.7481 95.5699 52.7671C95.7107 52.7862 95.8433 52.8444 95.9527 52.9351L95.99 52.8475L105.144 57.4245L84.899 67.5635L75.7356 62.5627L95.0969 52.8662L94.4175 51.5121L73.7501 61.8627L74.079 62.5216L73.7003 61.8779C73.0554 62.2703 72.5005 62.7943 72.0719 63.4158C71.6433 64.0372 71.3506 64.7421 71.213 65.4844L71.933 65.5966L71.0494 65.4828L69.7246 75.5872L69.8773 75.6058C69.6868 76.1734 69.6859 76.7874 69.8748 77.3555C70.0637 77.9236 70.4322 78.4149 70.9246 78.7553L71.6306 77.7532L70.9746 78.8067L78.6995 83.6066L78.6776 84.6335C78.7 85.2547 78.8724 85.8612 79.1802 86.4012C79.4879 86.9413 79.9219 87.3988 80.4449 87.7346L88.6654 93.3233C90.0935 94.306 91.6978 95.0038 93.3904 95.3785C96.4495 96.1318 99.5806 96.555 102.73 96.6409C104.262 96.6848 105.789 96.4525 107.238 95.9553C109.909 94.8752 115.713 91.4842 117.446 90.4744L116.687 89.1761C113.451 91.1587 110.104 92.9527 106.662 94.5493C105.495 94.7701 104.316 94.9153 103.13 94.9842L103.334 87.8406C103.631 87.8056 103.924 87.7456 104.21 87.6614C105.29 87.1204 109.259 85.1024 113.727 82.8302C118.201 80.5581 122.853 78.1771 124.547 77.3841C125.022 77.1613 125.475 76.8942 125.9 76.5862C125.755 79.0457 125.326 81.48 124.619 83.8402C124.552 84.1196 124.428 84.3821 124.254 84.6113C124.081 84.8406 123.863 85.0317 123.612 85.1727L123.215 85.3538L122.563 85.7153L121.736 86.2201L122.492 87.5184C123.321 87.1209 123.718 86.7971 124.08 86.6521L124.404 86.4729C124.835 86.2398 125.214 85.9213 125.517 85.5368C125.821 85.1522 126.043 84.7098 126.17 84.2366C127.147 81.1424 127.556 77.8968 127.379 74.6569ZM117.955 65.972C117.919 65.9951 117.874 65.9997 117.842 66.0248L117.848 66.0359L90.4061 79.6934L87.8644 75.5045L115.381 61.7253L117.955 65.972ZM101.723 91.246C94.5625 88.852 87.8717 85.2332 81.9488 80.5508L82.1015 74.6802C82.1308 74.4067 82.2148 74.1418 82.3487 73.9014C82.4825 73.6609 82.6634 73.45 82.8805 73.2809L85.243 74.5901L85.6031 73.9368L85.6077 73.9463L85.2415 74.6072C85.5612 74.782 85.8236 75.0454 85.9972 75.3657L86.0051 75.3596L89.4648 81.0631L89.9619 80.7625L89.9836 80.8013L89.4958 81.0991C89.84 81.637 90.3102 82.0827 90.8657 82.3975L100.749 87.6258C101.085 87.7913 101.445 87.9022 101.816 87.9545L101.723 91.246ZM114.162 60.5068L114.335 60.5566L87.0059 74.2408L86.9076 74.1041L114.139 60.4683L114.162 60.5068ZM109.007 57.8028L109.013 57.7906L112.559 59.564L85.608 73.061L83.2706 71.7642L83.294 71.7224L82.7875 71.4695L81.65 70.8836L107.807 57.7854L107.817 57.8025C108.002 57.7125 108.206 57.6658 108.412 57.6658C108.618 57.6658 108.822 57.7128 109.007 57.8028ZM71.2976 75.2206L72.4882 66.148L79.8593 70.3368C79.8297 70.371 79.7846 70.3882 79.7581 70.424C79.5783 70.6352 79.4215 70.865 79.2905 71.1096C79.16 71.3518 79.0515 71.6053 78.9663 71.867L78.7887 79.7073L71.2976 75.2206ZM74.1916 63.4441L83.2504 68.3871L81.2541 69.3877L73.1755 64.7966C73.3985 64.2695 73.7474 63.8051 74.1916 63.4441ZM71.7901 77.5274C71.6506 77.4071 71.5402 77.2567 71.4674 77.0876L78.7515 81.448L78.7419 81.8487L71.7901 77.5274ZM80.408 72.2986C80.4416 72.1999 80.4855 72.1049 80.5388 72.0152C80.8267 72.2215 81.1306 72.4045 81.4477 72.5623C80.9645 73.1398 80.6769 73.8557 80.6262 74.6069L80.3411 85.4966C80.199 85.2387 80.1005 84.9591 80.0496 84.6691L80.408 72.2986ZM93.6075 93.9368C92.1027 93.5809 90.6739 92.9581 89.3888 92.098L81.7837 86.9274L81.9037 82.3439C87.8067 86.981 94.5092 90.4975 101.679 92.7196L101.616 95.0042C98.9083 95.0405 96.2107 94.681 93.6075 93.9368ZM123.79 76.0495C122.06 76.8789 117.227 79.4033 112.973 81.5678C108.717 83.7311 104.713 85.7863 103.63 86.2912C102.937 86.572 102.162 86.572 101.469 86.2912L91.5515 81.0629C91.4832 81.024 91.4501 80.9446 91.3861 80.8978L118.158 67.5735C118.641 67.9074 119.181 68.1523 119.75 68.2967H119.886C121.927 69.8175 123.772 71.5858 125.378 73.5609C125.552 73.8365 125.674 74.1419 125.738 74.4618C125.641 74.7936 125.361 75.2985 123.79 76.0495Z" fill="white"/>
<path d="M81.5994 52.2135C83.1113 51.3116 84.3699 50.0413 85.2578 48.5212C86.1457 47.001 86.6338 45.2806 86.6765 43.5207L86.6828 20.5501H85.6728L86.6828 20.4786L86.5753 19.3954L86.3225 18.3856L85.8895 17.5207L85.4219 16.9085L84.7005 16.3675L84.5135 16.2975L84.5213 16.277L82.6496 15.3418L82.3148 16.0118L82.2789 16.0183L82.5735 15.3213C81.9964 15.0774 81.3707 14.9699 80.7453 15.0072C80.1198 15.0445 79.5114 15.2255 78.9673 15.5363L78.9767 15.5583L32.1458 39.0103L32.4574 39.6354L32.0865 39.0136C30.5636 39.9125 29.2965 41.1866 28.4061 42.7144C27.5156 44.2422 27.0316 45.9727 27 47.7407V70.7128H27.0373C26.9465 71.5383 27.0913 72.3727 27.4551 73.1193C27.8189 73.8659 28.3867 74.4942 29.0928 74.9314L29.47 74.2629L29.4763 74.2785L29.135 74.9626L30.8399 75.8148L30.8585 75.8338L30.9146 75.8543L31.005 75.8995L31.0097 75.89L31.725 76.1583L32.8422 76.2298L33.7774 76.049L34.6095 75.7607L34.34 75.0579L34.6812 75.7249L81.5994 52.2135ZM34.3911 39.7636L34.2073 39.6715L79.3832 17.0498L79.5671 17.1419L34.3911 39.7636ZM32.5256 40.5237L32.9557 40.7391C30.8025 42.4044 29.3962 44.8544 29.0442 47.5536L28.5768 47.32C28.6643 45.9589 29.0666 44.6367 29.7518 43.4574C30.437 42.278 31.3865 41.2738 32.5256 40.5237ZM28.876 49.1622V70.4325L28.5144 70.2517V48.9813L28.876 49.1622ZM28.9181 72.1463L28.9586 72.5595C28.8554 72.3947 28.7692 72.2198 28.7014 72.0375L28.9181 72.1463ZM29.6132 71.6696L29.6226 71.6494H29.8843L29.6132 71.6696ZM34.0685 74.3545L33.3842 74.6429L32.7704 74.7506L32.1579 74.7148L31.6826 74.5463L31.6296 74.5186L31.2556 74.2473L30.9299 73.8858L30.6415 73.3091L30.4624 72.5516L30.3907 71.6138V48.6775C30.4215 47.178 30.8305 45.7106 31.5796 44.4114C32.3288 43.1122 33.394 42.0232 34.6763 41.2454L34.7044 41.3014L81.5883 17.823L81.579 17.8077L82.1742 17.5569L82.7883 17.4134L83.4366 17.485L83.728 17.5738L83.8433 17.6328L83.8542 17.6123L83.904 17.6294L84.3031 17.9536L84.6273 18.3135L84.9155 18.8918L85.0962 19.6492L85.1679 20.5854V43.4844C85.1498 44.9866 84.7457 46.4588 83.9944 47.7597C83.2431 49.0606 82.1699 50.1465 80.8778 50.913L34.0685 74.3545Z" fill="white"/>
<path d="M74.4608 38.3944L74.5278 38.2605L65.1402 33.5667L65.0481 33.7554L65.0823 33.6774C64.8699 33.5609 64.632 33.4986 64.3898 33.4962C64.1475 33.4937 63.9085 33.5511 63.6937 33.6633L63.6842 33.6447L43.2073 43.899L43.3178 44.1154L43.1573 43.8457C42.7598 44.0802 42.4182 44.3985 42.1563 44.7785C41.8944 45.1586 41.7186 45.5911 41.6411 46.0461L41.6847 46.0536L39.4188 57.519L39.4062 57.514C39.2634 57.9175 39.2604 58.3572 39.3978 58.7625C39.5352 59.1679 39.805 59.5152 40.1637 59.7485L49.539 64.4377L49.5856 64.3209L50.0064 64.5811L50.8729 64.4001L50.6079 63.6601L50.9696 64.3849L76.0253 51.8383L75.603 50.9982L76.0813 51.8162C76.6056 51.5018 77.0254 51.0398 77.2882 50.4878C77.551 49.9359 77.6451 49.3187 77.5586 48.7135L75.2865 39.4835C75.2505 39.2474 75.1561 39.0241 75.0118 38.8338C74.8676 38.6435 74.6784 38.4929 74.4608 38.3944ZM48.9654 61.3366L40.9973 57.35L42.9795 47.3252L50.9509 51.3098L48.9654 61.3366ZM51.5336 49.9088L43.3256 45.8055C43.4038 45.6628 43.5008 45.5313 43.614 45.4144L51.7316 49.4739C51.6539 49.6133 51.5878 49.7587 51.5336 49.9088ZM52.9485 48.3892L45.2801 44.5535L64.0602 35.1517L71.7306 38.9869L52.9485 48.3892ZM40.1419 57.7677L40.1387 57.7768L40.0795 57.7551L40.1419 57.7677ZM75.349 50.4883L50.2935 63.0308L50.2233 63.0665L50.1873 62.8873L50.217 62.5993L50.2591 62.6069L52.5468 51.0389L52.5111 51.0328C52.5732 50.7888 52.688 50.5613 52.8474 50.3664C53.0067 50.1715 53.2068 50.0137 53.4336 49.9043L53.4055 49.8565L73.7269 39.6802L73.6424 39.5118L73.7501 39.5651L73.8093 39.6633L76.0813 48.8951C76.1258 49.2031 76.0803 49.5174 75.9503 49.8002C75.8204 50.083 75.6116 50.3213 75.349 50.4883Z" fill="white"/>
<path d="M55.2361 51.383L55.0209 52.5005L57.3647 51.3474V50.266" fill="#004ADF"/>
<path d="M59.096 49.3636V50.5184L61.4041 49.3636V48.2461" fill="#004ADF"/>
<path d="M62.9537 47.4523V48.5696L65.299 47.4167V46.2993C65.299 46.2993 65.299 46.0829 65.1198 46.2993L62.8477 47.4167L62.9537 47.4523Z" fill="#004ADF"/>
<path d="M66.8485 45.3617L66.6318 46.4791ZM66.8127 46.4791L69.1566 45.3617V44.2807" fill="#004ADF"/>
<path d="M70.7065 43.3418L70.5273 44.4591V44.6399L72.8712 43.485V42.4037" fill="#004ADF"/>
<path d="M54.9845 54.6645L54.8037 55.9269V56.1076L57.1491 54.9527V53.8711" fill="#004ADF"/>
<path d="M58.8426 52.7898V53.9068ZM58.8426 54.0876L61.149 52.9344V51.8516C61.149 51.8516 61.149 51.6362 60.9698 51.8516L58.6992 52.9705L58.8426 54.0876Z" fill="#004ADF"/>
<path d="M62.7021 50.772V51.9269L65.046 50.772V49.6514L62.7363 50.731L62.7021 50.772Z" fill="#004ADF"/>
<path d="M66.5949 48.7864L66.3783 49.9054L68.7237 48.7864V47.6689" fill="#004ADF"/>
<path d="M70.4548 46.7675L70.2754 47.8845ZM70.4548 48.0652L72.7627 46.9104V45.8291L70.4906 46.9481L70.4548 48.0652Z" fill="#004ADF"/>
<path d="M54.804 58.2708L54.623 59.3882L57.0401 58.2708V57.0088L54.804 58.2708Z" fill="#004ADF"/>
<path d="M58.5905 56.2161L58.4111 57.3332ZM58.5905 57.3332L60.9343 56.1784V55.0969C60.9343 55.0969 60.9343 54.88 60.7551 54.9162L58.483 56.0351L58.5905 57.3332Z" fill="#004ADF"/>
<path d="M62.4865 54.1967L62.2686 55.3141ZM62.2686 55.4949L64.6139 54.34L64.7931 53.2592" fill="#004ADF"/>
<path d="M66.3427 52.1762L66.126 53.331L68.4714 52.1762V51.0586" fill="#004ADF"/>
<path d="M70.2041 50.193V51.3104L72.5104 50.193V49.1117" fill="#004ADF"/>
<path d="M54.7739 107.489C50.868 107.489 47.0496 106.331 43.8017 104.162C40.5539 101.992 38.0223 98.9079 36.5273 95.2994C35.0323 91.6909 34.6409 87.7201 35.4026 83.8891C36.1644 80.0582 38.0451 76.5392 40.8068 73.7771C43.5686 71.015 47.0874 69.134 50.9183 68.3718C54.7491 67.6096 58.72 68.0006 62.3286 69.4952C65.9373 70.9899 69.0217 73.5211 71.1918 76.7687C73.3618 80.0164 74.5201 83.8346 74.5201 87.7405C74.5148 92.9761 72.4328 97.9958 68.7308 101.698C65.0289 105.4 60.0095 107.483 54.7739 107.489ZM54.7739 72.4407C51.7478 72.4403 48.7895 73.3373 46.2732 75.0182C43.7569 76.6991 41.7956 79.0885 40.6373 81.8842C39.479 84.6798 39.1757 87.7562 39.7658 90.7242C40.3559 93.6922 41.813 96.4185 43.9526 98.5585C46.0922 100.698 48.8184 102.156 51.7863 102.746C54.7543 103.337 57.8307 103.034 60.6265 101.876C63.4222 100.718 65.8119 98.757 67.4931 96.2409C69.1744 93.7248 70.0717 90.7666 70.0717 87.7405C70.0676 83.6843 68.4546 79.7954 65.5867 76.9271C62.7187 74.0587 58.8301 72.4454 54.7739 72.4407Z" fill="white"/>
<path d="M49.397 99.282L40.6094 90.4944L43.7527 87.3511L49.397 92.9954L64.0477 78.3379L67.1979 81.4812L49.397 99.282Z" fill="#004ADF"/>
</svg>
