<svg width="162" height="122" viewBox="0 0 162 122" fill="none" xmlns="http://www.w3.org/2000/svg">
<mask id="mask0_1701_177" style="mask-type:luminance" maskUnits="userSpaceOnUse" x="40" y="12" width="81" height="99">
<path d="M40 12H121V111H40V12Z" fill="white"/>
</mask>
<g mask="url(#mask0_1701_177)">
<path d="M106.31 83.2599L103.13 79.4399C108.74 74.7799 112.78 68.5199 114.7 61.4899C116.62 54.4499 116.34 46.9999 113.88 40.1399C111.42 33.2799 106.91 27.3399 100.96 23.1299C94.9996 18.9299 87.8996 16.6499 80.6096 16.6199C73.3296 16.5899 66.1996 18.7999 60.2196 22.9599C54.2296 27.1099 49.6696 33.0099 47.1496 39.8499C44.6296 46.6899 44.2696 54.1399 46.1296 61.1799C47.9996 68.2299 51.9796 74.5299 57.5496 79.2399L54.3496 83.0399C47.9996 77.6699 43.4596 70.4899 41.3396 62.4499C39.2196 54.4199 39.6196 45.9299 42.4996 38.1299C45.3696 30.3299 50.5696 23.6099 57.3996 18.8699C64.2196 14.1299 72.3396 11.6099 80.6496 11.6399C88.9596 11.6799 97.0596 14.2699 103.84 19.0699C110.63 23.8599 115.77 30.6299 118.58 38.4499C121.39 46.2699 121.72 54.7699 119.53 62.7799C117.34 70.7999 112.74 77.9499 106.35 83.2599H106.31Z" fill="white"/>
<path fill-rule="evenodd" clip-rule="evenodd" d="M87.7695 60.5999H72.4495L69.5295 69.3399H60.2295L75.9695 26.9199H84.0695L99.9695 69.3399H90.6695L87.7695 60.5999ZM74.8095 53.6199H85.4095L80.0695 37.6199L74.8095 53.6199Z" fill="white"/>
<path fill-rule="evenodd" clip-rule="evenodd" d="M73.1097 101.08C73.1497 102.88 72.7797 104.67 72.0497 106.32C71.4097 107.75 70.3597 108.96 69.0297 109.78C67.6797 110.61 66.1097 111.03 64.5297 111C62.9497 111.02 61.3997 110.61 60.0497 109.8C58.7097 108.98 57.6497 107.78 56.9897 106.36C56.2397 104.74 55.8697 102.98 55.9097 101.2V100.2C55.8597 98.3898 56.2297 96.5998 56.9697 94.9598C57.6097 93.5298 58.6497 92.3098 59.9697 91.4598C61.3297 90.6698 62.8797 90.2598 64.4597 90.2598C66.0297 90.2598 67.5797 90.6698 68.9497 91.4598C70.2697 92.3098 71.3197 93.5198 71.9697 94.9598C72.7197 96.5998 73.0797 98.3798 73.0497 100.18L73.1097 101.08ZM68.8897 100.18C68.9997 98.4898 68.5997 96.7998 67.7497 95.3398C67.3797 94.8298 66.8897 94.4098 66.3297 94.1198C65.7597 93.8298 65.1397 93.6798 64.5097 93.6798C63.8797 93.6798 63.2497 93.8298 62.6897 94.1198C62.1297 94.4098 61.6397 94.8298 61.2697 95.3398C60.4197 96.7798 60.0197 98.4498 60.1097 100.12V101.1C60.0097 102.78 60.3997 104.45 61.2497 105.9C61.6197 106.41 62.1097 106.83 62.6697 107.12C63.2397 107.41 63.8597 107.57 64.4997 107.57C65.1297 107.57 65.7597 107.41 66.3297 107.12C66.8897 106.83 67.3797 106.41 67.7497 105.9C68.5797 104.44 68.9797 102.77 68.8897 101.1V100.18ZM88.2897 102.48H80.2897V110.74H76.1297V90.5398H89.2697V93.8998H80.2897V99.1198H88.2897V102.48ZM103.85 102.48H95.8497V110.74H91.6897V90.5398H104.85V93.8998H95.8497V99.1198H103.85V102.48Z" fill="#004ADF"/>
<path d="M102.649 83.54V70.04L116.149 83.54H102.649Z" fill="white"/>
</g>
</svg>
