<svg width="162" height="122" viewBox="0 0 162 122" fill="none" xmlns="http://www.w3.org/2000/svg">
<mask id="mask0_1701_182" style="mask-type:luminance" maskUnits="userSpaceOnUse" x="32" y="23" width="97" height="76">
<path d="M32 23H129V99H32V23Z" fill="white"/>
</mask>
<g mask="url(#mask0_1701_182)">
<path d="M75.0605 75.4596C75.0605 76.7996 75.6005 78.0896 76.5405 79.0396C77.4905 79.9896 78.7805 80.5196 80.1205 80.5196C81.4605 80.5196 82.7505 79.9896 83.7005 79.0396C84.6505 78.0896 85.1805 76.7996 85.1805 75.4596L102.001 52.5596L79.8205 70.3796C78.5305 70.4696 77.3205 71.0396 76.4405 71.9796C75.5605 72.9196 75.0605 74.1696 75.0605 75.4596Z" fill="#004ADF"/>
<path d="M80.7604 23C71.9304 23 63.2604 25.39 55.6904 29.93C48.1104 34.47 41.9104 40.99 37.7504 48.78C33.5904 56.57 31.6204 65.34 32.0604 74.16C32.5004 82.98 35.3304 91.52 40.2404 98.86H46.2404L46.3804 99L46.5404 98.86H46.7804C46.7804 98.86 46.7804 98.86 46.7804 98.74L55.2404 91.36L51.1404 86.68L43.2604 93.58C39.3604 86.97 37.2904 79.44 37.2604 71.76C37.2604 71.38 37.2604 71.02 37.2604 70.64H46.9604V64.44H38.0004C39.2604 57.05 42.4104 50.11 47.1404 44.3L53.9404 51.1L58.3204 46.7L51.4404 39.82C58.3704 33.41 67.2104 29.45 76.6004 28.54V39.68H82.8004V28.42C93.2804 28.89 103.24 33.15 110.8 40.42L103.76 47.5L108 51.8L114.88 45C119.33 50.68 122.3 57.38 123.52 64.5H114V70.7H124C124 71.08 124 71.44 124 71.82C124.01 79.45 121.98 86.95 118.12 93.54L110.72 86.14L106.36 90.52L114.58 98.76C114.59 98.81 114.59 98.87 114.58 98.92H121.2C126.12 91.58 128.96 83.05 129.4 74.23C129.85 65.41 127.89 56.63 123.74 48.84C119.59 41.04 113.4 34.52 105.83 29.97C98.2604 25.42 89.5904 23.01 80.7604 23Z" fill="white"/>
</g>
</svg>
